M48
;DRILL file {KiCad 4.0.7} date 03/26/18 16:58:03
;FORMAT={-:-/ absolute / metric / decimal}
FMAT,2
METRIC,TZ
T1C0.400
T2C1.000
T3C1.100
T4C3.200
%
G90
G05
M71
T1
X157.48Y-97.79
X167.005Y-100.965
X167.09Y-102.87
X170.815Y-100.965
X172.72Y-97.79
X176.53Y-90.805
X180.975Y-88.9
X180.975Y-96.52
X186.055Y-99.06
X187.325Y-79.756
X187.325Y-87.63
X187.325Y-90.17
X199.93Y-98.425
T2
X160.655Y-78.105
X160.655Y-106.045
X163.195Y-78.105
X163.195Y-106.045
X165.735Y-78.105
X165.735Y-90.805
X165.735Y-93.305
X165.735Y-106.045
X168.275Y-78.105
X168.275Y-106.045
X170.815Y-78.105
X170.815Y-106.045
X173.355Y-78.105
X173.355Y-106.045
X175.895Y-78.105
X175.895Y-106.045
X178.435Y-78.105
X178.435Y-106.045
X180.975Y-78.105
X180.975Y-106.045
X183.515Y-78.105
X183.515Y-106.045
X186.055Y-78.105
X186.055Y-106.045
X188.595Y-78.105
X188.595Y-106.045
X191.135Y-78.105
X191.135Y-83.185
X191.135Y-85.725
X191.135Y-88.265
X191.135Y-90.805
X191.135Y-93.345
X191.135Y-95.885
X191.135Y-98.425
X191.135Y-100.965
X191.135Y-106.045
X193.675Y-78.105
X193.675Y-106.045
X195.58Y-92.71
X195.58Y-95.25
X195.58Y-97.79
X195.58Y-100.33
X196.215Y-78.105
X196.215Y-106.045
T3
X147.32Y-83.13
X147.32Y-87.63
X153.82Y-83.13
X153.82Y-87.63
X196.7Y-83.13
X196.7Y-87.63
X203.2Y-83.13
X203.2Y-87.63
T4
X146.05Y-79.375
X146.05Y-104.775
X204.47Y-79.375
X204.47Y-104.775
T0
M30
