G04 #@! TF.FileFunction,Soldermask,Bot*
%FSLAX46Y46*%
G04 Gerber Fmt 4.6, Leading zero omitted, Abs format (unit mm)*
G04 Created by KiCad (PCBNEW 4.0.7) date 03/26/18 16:58:00*
%MOMM*%
%LPD*%
G01*
G04 APERTURE LIST*
%ADD10C,0.100000*%
%ADD11C,4.600000*%
%ADD12R,2.100000X2.100000*%
%ADD13O,2.100000X2.100000*%
%ADD14C,2.400000*%
%ADD15R,2.150000X2.150000*%
%ADD16C,2.150000*%
G04 APERTURE END LIST*
D10*
D11*
X204470000Y-104775000D03*
X146050000Y-104775000D03*
X146050000Y-79375000D03*
D12*
X195580000Y-100330000D03*
D13*
X195580000Y-97790000D03*
X195580000Y-95250000D03*
X195580000Y-92710000D03*
D14*
X203200000Y-83130000D03*
X203200000Y-87630000D03*
X196700000Y-83130000D03*
X196700000Y-87630000D03*
D12*
X160655000Y-78105000D03*
D13*
X163195000Y-78105000D03*
X165735000Y-78105000D03*
X168275000Y-78105000D03*
X170815000Y-78105000D03*
X173355000Y-78105000D03*
X175895000Y-78105000D03*
X178435000Y-78105000D03*
X180975000Y-78105000D03*
X183515000Y-78105000D03*
X186055000Y-78105000D03*
X188595000Y-78105000D03*
X191135000Y-78105000D03*
X193675000Y-78105000D03*
X196215000Y-78105000D03*
D12*
X160655000Y-106045000D03*
D13*
X163195000Y-106045000D03*
X165735000Y-106045000D03*
X168275000Y-106045000D03*
X170815000Y-106045000D03*
X173355000Y-106045000D03*
X175895000Y-106045000D03*
X178435000Y-106045000D03*
X180975000Y-106045000D03*
X183515000Y-106045000D03*
X186055000Y-106045000D03*
X188595000Y-106045000D03*
X191135000Y-106045000D03*
X193675000Y-106045000D03*
X196215000Y-106045000D03*
D12*
X191135000Y-100965000D03*
D13*
X191135000Y-98425000D03*
X191135000Y-95885000D03*
X191135000Y-93345000D03*
X191135000Y-90805000D03*
X191135000Y-88265000D03*
X191135000Y-85725000D03*
X191135000Y-83185000D03*
D11*
X204470000Y-79375000D03*
D15*
X165735000Y-90805000D03*
D16*
X165735000Y-93305000D03*
D14*
X147320000Y-83130000D03*
X147320000Y-87630000D03*
X153820000Y-83130000D03*
X153820000Y-87630000D03*
M02*
