M48
;DRILL file {KiCad 4.0.7} date 03/25/18 22:27:39
;FORMAT={-:-/ absolute / metric / decimal}
FMAT,2
METRIC,TZ
T1C1.000
T2C1.001
%
G90
G05
M71
T1
X130.175Y-83.185
X130.175Y-111.125
X131.445Y-92.235
X131.445Y-94.735
X131.445Y-97.235
X131.445Y-99.735
X131.445Y-102.235
X132.715Y-83.185
X132.715Y-111.125
X135.255Y-83.185
X135.255Y-111.125
X137.795Y-83.185
X137.795Y-111.125
X140.335Y-83.185
X140.335Y-111.125
X142.875Y-83.185
X142.875Y-111.125
X145.415Y-83.185
X145.415Y-111.125
X147.955Y-83.185
X147.955Y-111.125
X150.495Y-83.185
X150.495Y-111.125
X153.035Y-83.185
X153.035Y-111.125
X155.575Y-83.185
X155.575Y-111.125
X157.48Y-93.465
X157.48Y-95.965
X157.48Y-98.465
X157.48Y-100.965
X158.115Y-83.185
X158.115Y-111.125
X160.655Y-83.185
X160.655Y-111.125
X163.195Y-83.185
X163.195Y-111.125
X165.735Y-83.185
X165.735Y-111.125
T2
X130.556Y-87.884
X134.62Y-106.045
X144.78Y-106.045
X149.479Y-87.884
X159.385Y-105.41
X163.195Y-105.41
T0
M30
