G04 #@! TF.FileFunction,Soldermask,Bot*
%FSLAX46Y46*%
G04 Gerber Fmt 4.6, Leading zero omitted, Abs format (unit mm)*
G04 Created by KiCad (PCBNEW 4.0.7) date 03/25/18 22:27:41*
%MOMM*%
%LPD*%
G01*
G04 APERTURE LIST*
%ADD10C,0.100000*%
%ADD11C,2.899360*%
%ADD12R,2.100000X2.100000*%
%ADD13O,2.100000X2.100000*%
%ADD14R,2.150000X2.150000*%
%ADD15C,2.150000*%
G04 APERTURE END LIST*
D10*
D11*
X144780000Y-106045000D03*
X134620000Y-106045000D03*
X159385000Y-105410000D03*
X163195000Y-105410000D03*
X130556000Y-87884000D03*
X149479000Y-87884000D03*
D12*
X130175000Y-111125000D03*
D13*
X132715000Y-111125000D03*
X135255000Y-111125000D03*
X137795000Y-111125000D03*
X140335000Y-111125000D03*
X142875000Y-111125000D03*
X145415000Y-111125000D03*
X147955000Y-111125000D03*
X150495000Y-111125000D03*
X153035000Y-111125000D03*
X155575000Y-111125000D03*
X158115000Y-111125000D03*
X160655000Y-111125000D03*
X163195000Y-111125000D03*
X165735000Y-111125000D03*
D12*
X130175000Y-83185000D03*
D13*
X132715000Y-83185000D03*
X135255000Y-83185000D03*
X137795000Y-83185000D03*
X140335000Y-83185000D03*
X142875000Y-83185000D03*
X145415000Y-83185000D03*
X147955000Y-83185000D03*
X150495000Y-83185000D03*
X153035000Y-83185000D03*
X155575000Y-83185000D03*
X158115000Y-83185000D03*
X160655000Y-83185000D03*
X163195000Y-83185000D03*
X165735000Y-83185000D03*
D14*
X157480000Y-100965000D03*
D15*
X157480000Y-98465000D03*
X157480000Y-95965000D03*
X157480000Y-93465000D03*
D14*
X131445000Y-102235000D03*
D15*
X131445000Y-99735000D03*
X131445000Y-97235000D03*
X131445000Y-94735000D03*
X131445000Y-92235000D03*
M02*
