G04 #@! TF.FileFunction,Legend,Bot*
%FSLAX46Y46*%
G04 Gerber Fmt 4.6, Leading zero omitted, Abs format (unit mm)*
G04 Created by KiCad (PCBNEW 4.0.7) date 03/25/18 22:27:41*
%MOMM*%
%LPD*%
G01*
G04 APERTURE LIST*
%ADD10C,0.100000*%
%ADD11C,0.200000*%
%ADD12C,0.300000*%
%ADD13C,0.150000*%
G04 APERTURE END LIST*
D10*
D11*
X130341667Y-108505714D02*
X130341667Y-108981905D01*
X130627381Y-108410476D02*
X129627381Y-108743809D01*
X130627381Y-109077143D01*
X129627381Y-109600952D02*
X129627381Y-109696191D01*
X129675000Y-109791429D01*
X129722619Y-109839048D01*
X129817857Y-109886667D01*
X130008333Y-109934286D01*
X130246429Y-109934286D01*
X130436905Y-109886667D01*
X130532143Y-109839048D01*
X130579762Y-109791429D01*
X130627381Y-109696191D01*
X130627381Y-109600952D01*
X130579762Y-109505714D01*
X130532143Y-109458095D01*
X130436905Y-109410476D01*
X130246429Y-109362857D01*
X130008333Y-109362857D01*
X129817857Y-109410476D01*
X129722619Y-109458095D01*
X129675000Y-109505714D01*
X129627381Y-109600952D01*
X130627381Y-84605905D02*
X129627381Y-84605905D01*
X129627381Y-84844000D01*
X129675000Y-84986858D01*
X129770238Y-85082096D01*
X129865476Y-85129715D01*
X130055952Y-85177334D01*
X130198810Y-85177334D01*
X130389286Y-85129715D01*
X130484524Y-85082096D01*
X130579762Y-84986858D01*
X130627381Y-84844000D01*
X130627381Y-84605905D01*
X129627381Y-85796381D02*
X129627381Y-85891620D01*
X129675000Y-85986858D01*
X129722619Y-86034477D01*
X129817857Y-86082096D01*
X130008333Y-86129715D01*
X130246429Y-86129715D01*
X130436905Y-86082096D01*
X130532143Y-86034477D01*
X130579762Y-85986858D01*
X130627381Y-85891620D01*
X130627381Y-85796381D01*
X130579762Y-85701143D01*
X130532143Y-85653524D01*
X130436905Y-85605905D01*
X130246429Y-85558286D01*
X130008333Y-85558286D01*
X129817857Y-85605905D01*
X129722619Y-85653524D01*
X129675000Y-85701143D01*
X129627381Y-85796381D01*
X142248239Y-88304619D02*
X142248239Y-87590333D01*
X142200619Y-87447476D01*
X142105381Y-87352238D01*
X141962524Y-87304619D01*
X141867286Y-87304619D01*
X142724429Y-88304619D02*
X142724429Y-87495095D01*
X142772048Y-87399857D01*
X142819667Y-87352238D01*
X142914905Y-87304619D01*
X143105382Y-87304619D01*
X143200620Y-87352238D01*
X143248239Y-87399857D01*
X143295858Y-87495095D01*
X143295858Y-88304619D01*
X143772048Y-87304619D02*
X143772048Y-88304619D01*
X144105382Y-87590333D01*
X144438715Y-88304619D01*
X144438715Y-87304619D01*
X144914905Y-87304619D02*
X144914905Y-88304619D01*
X145295858Y-88304619D01*
X145391096Y-88257000D01*
X145438715Y-88209381D01*
X145486334Y-88114143D01*
X145486334Y-87971286D01*
X145438715Y-87876048D01*
X145391096Y-87828429D01*
X145295858Y-87780810D01*
X144914905Y-87780810D01*
X145914905Y-87828429D02*
X146248239Y-87828429D01*
X146391096Y-87304619D02*
X145914905Y-87304619D01*
X145914905Y-88304619D01*
X146391096Y-88304619D01*
X147391096Y-87304619D02*
X147057762Y-87780810D01*
X146819667Y-87304619D02*
X146819667Y-88304619D01*
X147200620Y-88304619D01*
X147295858Y-88257000D01*
X147343477Y-88209381D01*
X147391096Y-88114143D01*
X147391096Y-87971286D01*
X147343477Y-87876048D01*
X147295858Y-87828429D01*
X147200620Y-87780810D01*
X146819667Y-87780810D01*
X137295239Y-106592619D02*
X137295239Y-105878333D01*
X137247619Y-105735476D01*
X137152381Y-105640238D01*
X137009524Y-105592619D01*
X136914286Y-105592619D01*
X137771429Y-106592619D02*
X137771429Y-105783095D01*
X137819048Y-105687857D01*
X137866667Y-105640238D01*
X137961905Y-105592619D01*
X138152382Y-105592619D01*
X138247620Y-105640238D01*
X138295239Y-105687857D01*
X138342858Y-105783095D01*
X138342858Y-106592619D01*
X138819048Y-105592619D02*
X138819048Y-106592619D01*
X139152382Y-105878333D01*
X139485715Y-106592619D01*
X139485715Y-105592619D01*
X139961905Y-105592619D02*
X139961905Y-106592619D01*
X140342858Y-106592619D01*
X140438096Y-106545000D01*
X140485715Y-106497381D01*
X140533334Y-106402143D01*
X140533334Y-106259286D01*
X140485715Y-106164048D01*
X140438096Y-106116429D01*
X140342858Y-106068810D01*
X139961905Y-106068810D01*
X140961905Y-106116429D02*
X141295239Y-106116429D01*
X141438096Y-105592619D02*
X140961905Y-105592619D01*
X140961905Y-106592619D01*
X141438096Y-106592619D01*
X142438096Y-105592619D02*
X142104762Y-106068810D01*
X141866667Y-105592619D02*
X141866667Y-106592619D01*
X142247620Y-106592619D01*
X142342858Y-106545000D01*
X142390477Y-106497381D01*
X142438096Y-106402143D01*
X142438096Y-106259286D01*
X142390477Y-106164048D01*
X142342858Y-106116429D01*
X142247620Y-106068810D01*
X141866667Y-106068810D01*
X157297381Y-104386191D02*
X156297381Y-104386191D01*
X156297381Y-104767144D01*
X156345000Y-104862382D01*
X156392619Y-104910001D01*
X156487857Y-104957620D01*
X156630714Y-104957620D01*
X156725952Y-104910001D01*
X156773571Y-104862382D01*
X156821190Y-104767144D01*
X156821190Y-104386191D01*
X157297381Y-105386191D02*
X156297381Y-105386191D01*
X157297381Y-105862381D02*
X156297381Y-105862381D01*
X157297381Y-106433810D01*
X156297381Y-106433810D01*
X159456429Y-107299286D02*
X159456429Y-108061191D01*
X159837381Y-107680239D02*
X159075476Y-107680239D01*
X158837381Y-109013572D02*
X158837381Y-108537381D01*
X159313571Y-108489762D01*
X159265952Y-108537381D01*
X159218333Y-108632619D01*
X159218333Y-108870715D01*
X159265952Y-108965953D01*
X159313571Y-109013572D01*
X159408810Y-109061191D01*
X159646905Y-109061191D01*
X159742143Y-109013572D01*
X159789762Y-108965953D01*
X159837381Y-108870715D01*
X159837381Y-108632619D01*
X159789762Y-108537381D01*
X159742143Y-108489762D01*
X158837381Y-109346905D02*
X159837381Y-109680238D01*
X158837381Y-110013572D01*
X152582571Y-91686762D02*
X152582571Y-91353428D01*
X153106381Y-91353428D02*
X152106381Y-91353428D01*
X152106381Y-91829619D01*
X153106381Y-92353428D02*
X153058762Y-92258190D01*
X153011143Y-92210571D01*
X152915905Y-92162952D01*
X152630190Y-92162952D01*
X152534952Y-92210571D01*
X152487333Y-92258190D01*
X152439714Y-92353428D01*
X152439714Y-92496286D01*
X152487333Y-92591524D01*
X152534952Y-92639143D01*
X152630190Y-92686762D01*
X152915905Y-92686762D01*
X153011143Y-92639143D01*
X153058762Y-92591524D01*
X153106381Y-92496286D01*
X153106381Y-92353428D01*
X153106381Y-93115333D02*
X152439714Y-93115333D01*
X152630190Y-93115333D02*
X152534952Y-93162952D01*
X152487333Y-93210571D01*
X152439714Y-93305809D01*
X152439714Y-93401048D01*
X153106381Y-94496286D02*
X152106381Y-94496286D01*
X153106381Y-95067715D01*
X152106381Y-95067715D01*
X153106381Y-95686762D02*
X153058762Y-95591524D01*
X153011143Y-95543905D01*
X152915905Y-95496286D01*
X152630190Y-95496286D01*
X152534952Y-95543905D01*
X152487333Y-95591524D01*
X152439714Y-95686762D01*
X152439714Y-95829620D01*
X152487333Y-95924858D01*
X152534952Y-95972477D01*
X152630190Y-96020096D01*
X152915905Y-96020096D01*
X153011143Y-95972477D01*
X153058762Y-95924858D01*
X153106381Y-95829620D01*
X153106381Y-95686762D01*
X153106381Y-96877239D02*
X152106381Y-96877239D01*
X153058762Y-96877239D02*
X153106381Y-96782001D01*
X153106381Y-96591524D01*
X153058762Y-96496286D01*
X153011143Y-96448667D01*
X152915905Y-96401048D01*
X152630190Y-96401048D01*
X152534952Y-96448667D01*
X152487333Y-96496286D01*
X152439714Y-96591524D01*
X152439714Y-96782001D01*
X152487333Y-96877239D01*
X153058762Y-97734382D02*
X153106381Y-97639144D01*
X153106381Y-97448667D01*
X153058762Y-97353429D01*
X152963524Y-97305810D01*
X152582571Y-97305810D01*
X152487333Y-97353429D01*
X152439714Y-97448667D01*
X152439714Y-97639144D01*
X152487333Y-97734382D01*
X152582571Y-97782001D01*
X152677810Y-97782001D01*
X152773048Y-97305810D01*
X153106381Y-98210572D02*
X152106381Y-98210572D01*
X152820667Y-98543906D01*
X152106381Y-98877239D01*
X153106381Y-98877239D01*
X153058762Y-99782001D02*
X153106381Y-99686763D01*
X153106381Y-99496286D01*
X153058762Y-99401048D01*
X153011143Y-99353429D01*
X152915905Y-99305810D01*
X152630190Y-99305810D01*
X152534952Y-99353429D01*
X152487333Y-99401048D01*
X152439714Y-99496286D01*
X152439714Y-99686763D01*
X152487333Y-99782001D01*
X152439714Y-100639144D02*
X153106381Y-100639144D01*
X152439714Y-100210572D02*
X152963524Y-100210572D01*
X153058762Y-100258191D01*
X153106381Y-100353429D01*
X153106381Y-100496287D01*
X153058762Y-100591525D01*
X153011143Y-100639144D01*
X152106381Y-101734382D02*
X153106381Y-102067715D01*
X152106381Y-102401049D01*
X152106381Y-102639144D02*
X152106381Y-103258192D01*
X152487333Y-102924858D01*
X152487333Y-103067716D01*
X152534952Y-103162954D01*
X152582571Y-103210573D01*
X152677810Y-103258192D01*
X152915905Y-103258192D01*
X153011143Y-103210573D01*
X153058762Y-103162954D01*
X153106381Y-103067716D01*
X153106381Y-102782001D01*
X153058762Y-102686763D01*
X153011143Y-102639144D01*
X140970000Y-104775000D02*
X140970000Y-89789000D01*
X128905000Y-104775000D02*
X128905000Y-89789000D01*
X150772762Y-91329619D02*
X150820381Y-91472476D01*
X150820381Y-91710572D01*
X150772762Y-91805810D01*
X150725143Y-91853429D01*
X150629905Y-91901048D01*
X150534667Y-91901048D01*
X150439429Y-91853429D01*
X150391810Y-91805810D01*
X150344190Y-91710572D01*
X150296571Y-91520095D01*
X150248952Y-91424857D01*
X150201333Y-91377238D01*
X150106095Y-91329619D01*
X150010857Y-91329619D01*
X149915619Y-91377238D01*
X149868000Y-91424857D01*
X149820381Y-91520095D01*
X149820381Y-91758191D01*
X149868000Y-91901048D01*
X150820381Y-92329619D02*
X149820381Y-92329619D01*
X150820381Y-92758191D02*
X150296571Y-92758191D01*
X150201333Y-92710572D01*
X150153714Y-92615334D01*
X150153714Y-92472476D01*
X150201333Y-92377238D01*
X150248952Y-92329619D01*
X150820381Y-93234381D02*
X150153714Y-93234381D01*
X149820381Y-93234381D02*
X149868000Y-93186762D01*
X149915619Y-93234381D01*
X149868000Y-93282000D01*
X149820381Y-93234381D01*
X149915619Y-93234381D01*
X150772762Y-94091524D02*
X150820381Y-93996286D01*
X150820381Y-93805809D01*
X150772762Y-93710571D01*
X150677524Y-93662952D01*
X150296571Y-93662952D01*
X150201333Y-93710571D01*
X150153714Y-93805809D01*
X150153714Y-93996286D01*
X150201333Y-94091524D01*
X150296571Y-94139143D01*
X150391810Y-94139143D01*
X150487048Y-93662952D01*
X150820381Y-94710571D02*
X150772762Y-94615333D01*
X150677524Y-94567714D01*
X149820381Y-94567714D01*
X150820381Y-95520096D02*
X149820381Y-95520096D01*
X150772762Y-95520096D02*
X150820381Y-95424858D01*
X150820381Y-95234381D01*
X150772762Y-95139143D01*
X150725143Y-95091524D01*
X150629905Y-95043905D01*
X150344190Y-95043905D01*
X150248952Y-95091524D01*
X150201333Y-95139143D01*
X150153714Y-95234381D01*
X150153714Y-95424858D01*
X150201333Y-95520096D01*
X149820381Y-96615334D02*
X150820381Y-96948667D01*
X149820381Y-97282001D01*
X150772762Y-97996287D02*
X150820381Y-97901049D01*
X150820381Y-97710572D01*
X150772762Y-97615334D01*
X150677524Y-97567715D01*
X150296571Y-97567715D01*
X150201333Y-97615334D01*
X150153714Y-97710572D01*
X150153714Y-97901049D01*
X150201333Y-97996287D01*
X150296571Y-98043906D01*
X150391810Y-98043906D01*
X150487048Y-97567715D01*
X150820381Y-98472477D02*
X150153714Y-98472477D01*
X150344190Y-98472477D02*
X150248952Y-98520096D01*
X150201333Y-98567715D01*
X150153714Y-98662953D01*
X150153714Y-98758192D01*
X150725143Y-99091525D02*
X150772762Y-99139144D01*
X150820381Y-99091525D01*
X150772762Y-99043906D01*
X150725143Y-99091525D01*
X150820381Y-99091525D01*
X150820381Y-100853430D02*
X150820381Y-100282001D01*
X150820381Y-100567715D02*
X149820381Y-100567715D01*
X149963238Y-100472477D01*
X150058476Y-100377239D01*
X150106095Y-100282001D01*
X150725143Y-101282001D02*
X150772762Y-101329620D01*
X150820381Y-101282001D01*
X150772762Y-101234382D01*
X150725143Y-101282001D01*
X150820381Y-101282001D01*
X149820381Y-101948667D02*
X149820381Y-102043906D01*
X149868000Y-102139144D01*
X149915619Y-102186763D01*
X150010857Y-102234382D01*
X150201333Y-102282001D01*
X150439429Y-102282001D01*
X150629905Y-102234382D01*
X150725143Y-102186763D01*
X150772762Y-102139144D01*
X150820381Y-102043906D01*
X150820381Y-101948667D01*
X150772762Y-101853429D01*
X150725143Y-101805810D01*
X150629905Y-101758191D01*
X150439429Y-101710572D01*
X150201333Y-101710572D01*
X150010857Y-101758191D01*
X149915619Y-101805810D01*
X149868000Y-101853429D01*
X149820381Y-101948667D01*
X150820381Y-103234382D02*
X150820381Y-102662953D01*
X150820381Y-102948667D02*
X149820381Y-102948667D01*
X149963238Y-102853429D01*
X150058476Y-102758191D01*
X150106095Y-102662953D01*
X148121667Y-93797857D02*
X148121667Y-94274048D01*
X148407381Y-93702619D02*
X147407381Y-94035952D01*
X148407381Y-94369286D01*
X148407381Y-94702619D02*
X147740714Y-94702619D01*
X147407381Y-94702619D02*
X147455000Y-94655000D01*
X147502619Y-94702619D01*
X147455000Y-94750238D01*
X147407381Y-94702619D01*
X147502619Y-94702619D01*
X148407381Y-95178809D02*
X147740714Y-95178809D01*
X147931190Y-95178809D02*
X147835952Y-95226428D01*
X147788333Y-95274047D01*
X147740714Y-95369285D01*
X147740714Y-95464524D01*
X148407381Y-95797857D02*
X147407381Y-95797857D01*
X147788333Y-95797857D02*
X147740714Y-95893095D01*
X147740714Y-96083572D01*
X147788333Y-96178810D01*
X147835952Y-96226429D01*
X147931190Y-96274048D01*
X148216905Y-96274048D01*
X148312143Y-96226429D01*
X148359762Y-96178810D01*
X148407381Y-96083572D01*
X148407381Y-95893095D01*
X148359762Y-95797857D01*
X147740714Y-97131191D02*
X148550238Y-97131191D01*
X148645476Y-97083572D01*
X148693095Y-97035953D01*
X148740714Y-96940714D01*
X148740714Y-96797857D01*
X148693095Y-96702619D01*
X148359762Y-97131191D02*
X148407381Y-97035953D01*
X148407381Y-96845476D01*
X148359762Y-96750238D01*
X148312143Y-96702619D01*
X148216905Y-96655000D01*
X147931190Y-96655000D01*
X147835952Y-96702619D01*
X147788333Y-96750238D01*
X147740714Y-96845476D01*
X147740714Y-97035953D01*
X147788333Y-97131191D01*
X148312143Y-97607381D02*
X148359762Y-97655000D01*
X148407381Y-97607381D01*
X148359762Y-97559762D01*
X148312143Y-97607381D01*
X148407381Y-97607381D01*
X148407381Y-98083571D02*
X147740714Y-98083571D01*
X147407381Y-98083571D02*
X147455000Y-98035952D01*
X147502619Y-98083571D01*
X147455000Y-98131190D01*
X147407381Y-98083571D01*
X147502619Y-98083571D01*
X147740714Y-98559761D02*
X148407381Y-98559761D01*
X147835952Y-98559761D02*
X147788333Y-98607380D01*
X147740714Y-98702618D01*
X147740714Y-98845476D01*
X147788333Y-98940714D01*
X147883571Y-98988333D01*
X148407381Y-98988333D01*
X147740714Y-99321666D02*
X147740714Y-99702618D01*
X148407381Y-99464523D02*
X147550238Y-99464523D01*
X147455000Y-99512142D01*
X147407381Y-99607380D01*
X147407381Y-99702618D01*
X148407381Y-100178809D02*
X148359762Y-100083571D01*
X148312143Y-100035952D01*
X148216905Y-99988333D01*
X147931190Y-99988333D01*
X147835952Y-100035952D01*
X147788333Y-100083571D01*
X147740714Y-100178809D01*
X147740714Y-100321667D01*
X147788333Y-100416905D01*
X147835952Y-100464524D01*
X147931190Y-100512143D01*
X148216905Y-100512143D01*
X148312143Y-100464524D01*
X148359762Y-100416905D01*
X148407381Y-100321667D01*
X148407381Y-100178809D01*
D12*
X144637143Y-90964523D02*
X144637143Y-91631190D01*
X145684762Y-91916904D02*
X145684762Y-90964523D01*
X143684762Y-90964523D01*
X143684762Y-91916904D01*
X145589524Y-92678809D02*
X145684762Y-92964524D01*
X145684762Y-93440714D01*
X145589524Y-93631190D01*
X145494286Y-93726428D01*
X145303810Y-93821667D01*
X145113333Y-93821667D01*
X144922857Y-93726428D01*
X144827619Y-93631190D01*
X144732381Y-93440714D01*
X144637143Y-93059762D01*
X144541905Y-92869286D01*
X144446667Y-92774047D01*
X144256190Y-92678809D01*
X144065714Y-92678809D01*
X143875238Y-92774047D01*
X143780000Y-92869286D01*
X143684762Y-93059762D01*
X143684762Y-93535952D01*
X143780000Y-93821667D01*
X145684762Y-94678809D02*
X143684762Y-94678809D01*
X143684762Y-95440714D01*
X143780000Y-95631190D01*
X143875238Y-95726429D01*
X144065714Y-95821667D01*
X144351429Y-95821667D01*
X144541905Y-95726429D01*
X144637143Y-95631190D01*
X144732381Y-95440714D01*
X144732381Y-94678809D01*
X144541905Y-96964524D02*
X144446667Y-96774048D01*
X144351429Y-96678809D01*
X144160952Y-96583571D01*
X144065714Y-96583571D01*
X143875238Y-96678809D01*
X143780000Y-96774048D01*
X143684762Y-96964524D01*
X143684762Y-97345476D01*
X143780000Y-97535952D01*
X143875238Y-97631190D01*
X144065714Y-97726429D01*
X144160952Y-97726429D01*
X144351429Y-97631190D01*
X144446667Y-97535952D01*
X144541905Y-97345476D01*
X144541905Y-96964524D01*
X144637143Y-96774048D01*
X144732381Y-96678809D01*
X144922857Y-96583571D01*
X145303810Y-96583571D01*
X145494286Y-96678809D01*
X145589524Y-96774048D01*
X145684762Y-96964524D01*
X145684762Y-97345476D01*
X145589524Y-97535952D01*
X145494286Y-97631190D01*
X145303810Y-97726429D01*
X144922857Y-97726429D01*
X144732381Y-97631190D01*
X144637143Y-97535952D01*
X144541905Y-97345476D01*
X143875238Y-98488333D02*
X143780000Y-98583571D01*
X143684762Y-98774048D01*
X143684762Y-99250238D01*
X143780000Y-99440714D01*
X143875238Y-99535952D01*
X144065714Y-99631191D01*
X144256190Y-99631191D01*
X144541905Y-99535952D01*
X145684762Y-98393095D01*
X145684762Y-99631191D01*
X143684762Y-101345476D02*
X143684762Y-100964524D01*
X143780000Y-100774048D01*
X143875238Y-100678810D01*
X144160952Y-100488333D01*
X144541905Y-100393095D01*
X145303810Y-100393095D01*
X145494286Y-100488333D01*
X145589524Y-100583572D01*
X145684762Y-100774048D01*
X145684762Y-101155000D01*
X145589524Y-101345476D01*
X145494286Y-101440714D01*
X145303810Y-101535953D01*
X144827619Y-101535953D01*
X144637143Y-101440714D01*
X144541905Y-101345476D01*
X144446667Y-101155000D01*
X144446667Y-100774048D01*
X144541905Y-100583572D01*
X144637143Y-100488333D01*
X144827619Y-100393095D01*
X143684762Y-103250238D02*
X143684762Y-102869286D01*
X143780000Y-102678810D01*
X143875238Y-102583572D01*
X144160952Y-102393095D01*
X144541905Y-102297857D01*
X145303810Y-102297857D01*
X145494286Y-102393095D01*
X145589524Y-102488334D01*
X145684762Y-102678810D01*
X145684762Y-103059762D01*
X145589524Y-103250238D01*
X145494286Y-103345476D01*
X145303810Y-103440715D01*
X144827619Y-103440715D01*
X144637143Y-103345476D01*
X144541905Y-103250238D01*
X144446667Y-103059762D01*
X144446667Y-102678810D01*
X144541905Y-102488334D01*
X144637143Y-102393095D01*
X144827619Y-102297857D01*
D11*
X162695000Y-107823096D02*
X162647381Y-107727858D01*
X162647381Y-107585001D01*
X162695000Y-107442143D01*
X162790238Y-107346905D01*
X162885476Y-107299286D01*
X163075952Y-107251667D01*
X163218810Y-107251667D01*
X163409286Y-107299286D01*
X163504524Y-107346905D01*
X163599762Y-107442143D01*
X163647381Y-107585001D01*
X163647381Y-107680239D01*
X163599762Y-107823096D01*
X163552143Y-107870715D01*
X163218810Y-107870715D01*
X163218810Y-107680239D01*
X163647381Y-108299286D02*
X162647381Y-108299286D01*
X163647381Y-108870715D01*
X162647381Y-108870715D01*
X163647381Y-109346905D02*
X162647381Y-109346905D01*
X162647381Y-109585000D01*
X162695000Y-109727858D01*
X162790238Y-109823096D01*
X162885476Y-109870715D01*
X163075952Y-109918334D01*
X163218810Y-109918334D01*
X163409286Y-109870715D01*
X163504524Y-109823096D01*
X163599762Y-109727858D01*
X163647381Y-109585000D01*
X163647381Y-109346905D01*
X135326429Y-107299286D02*
X135326429Y-108061191D01*
X135707381Y-107680239D02*
X134945476Y-107680239D01*
X134707381Y-109013572D02*
X134707381Y-108537381D01*
X135183571Y-108489762D01*
X135135952Y-108537381D01*
X135088333Y-108632619D01*
X135088333Y-108870715D01*
X135135952Y-108965953D01*
X135183571Y-109013572D01*
X135278810Y-109061191D01*
X135516905Y-109061191D01*
X135612143Y-109013572D01*
X135659762Y-108965953D01*
X135707381Y-108870715D01*
X135707381Y-108632619D01*
X135659762Y-108537381D01*
X135612143Y-108489762D01*
X134707381Y-109346905D02*
X135707381Y-109680238D01*
X134707381Y-110013572D01*
X162695000Y-84963096D02*
X162647381Y-84867858D01*
X162647381Y-84725001D01*
X162695000Y-84582143D01*
X162790238Y-84486905D01*
X162885476Y-84439286D01*
X163075952Y-84391667D01*
X163218810Y-84391667D01*
X163409286Y-84439286D01*
X163504524Y-84486905D01*
X163599762Y-84582143D01*
X163647381Y-84725001D01*
X163647381Y-84820239D01*
X163599762Y-84963096D01*
X163552143Y-85010715D01*
X163218810Y-85010715D01*
X163218810Y-84820239D01*
X163647381Y-85439286D02*
X162647381Y-85439286D01*
X163647381Y-86010715D01*
X162647381Y-86010715D01*
X163647381Y-86486905D02*
X162647381Y-86486905D01*
X162647381Y-86725000D01*
X162695000Y-86867858D01*
X162790238Y-86963096D01*
X162885476Y-87010715D01*
X163075952Y-87058334D01*
X163218810Y-87058334D01*
X163409286Y-87010715D01*
X163504524Y-86963096D01*
X163599762Y-86867858D01*
X163647381Y-86725000D01*
X163647381Y-86486905D01*
X165187381Y-84248810D02*
X165187381Y-84867858D01*
X165568333Y-84534524D01*
X165568333Y-84677382D01*
X165615952Y-84772620D01*
X165663571Y-84820239D01*
X165758810Y-84867858D01*
X165996905Y-84867858D01*
X166092143Y-84820239D01*
X166139762Y-84772620D01*
X166187381Y-84677382D01*
X166187381Y-84391667D01*
X166139762Y-84296429D01*
X166092143Y-84248810D01*
X166092143Y-85296429D02*
X166139762Y-85344048D01*
X166187381Y-85296429D01*
X166139762Y-85248810D01*
X166092143Y-85296429D01*
X166187381Y-85296429D01*
X165187381Y-85677381D02*
X165187381Y-86296429D01*
X165568333Y-85963095D01*
X165568333Y-86105953D01*
X165615952Y-86201191D01*
X165663571Y-86248810D01*
X165758810Y-86296429D01*
X165996905Y-86296429D01*
X166092143Y-86248810D01*
X166139762Y-86201191D01*
X166187381Y-86105953D01*
X166187381Y-85820238D01*
X166139762Y-85725000D01*
X166092143Y-85677381D01*
X165187381Y-86582143D02*
X166187381Y-86915476D01*
X165187381Y-87248810D01*
X140787381Y-84510857D02*
X139787381Y-84510857D01*
X139787381Y-84748952D01*
X139835000Y-84891810D01*
X139930238Y-84987048D01*
X140025476Y-85034667D01*
X140215952Y-85082286D01*
X140358810Y-85082286D01*
X140549286Y-85034667D01*
X140644524Y-84987048D01*
X140739762Y-84891810D01*
X140787381Y-84748952D01*
X140787381Y-84510857D01*
X140120714Y-85939429D02*
X140787381Y-85939429D01*
X139739762Y-85701333D02*
X140454048Y-85463238D01*
X140454048Y-86082286D01*
X140692143Y-86463238D02*
X140739762Y-86510857D01*
X140787381Y-86463238D01*
X140739762Y-86415619D01*
X140692143Y-86463238D01*
X140787381Y-86463238D01*
X140739762Y-86891809D02*
X140787381Y-87034666D01*
X140787381Y-87272762D01*
X140739762Y-87368000D01*
X140692143Y-87415619D01*
X140596905Y-87463238D01*
X140501667Y-87463238D01*
X140406429Y-87415619D01*
X140358810Y-87368000D01*
X140311190Y-87272762D01*
X140263571Y-87082285D01*
X140215952Y-86987047D01*
X140168333Y-86939428D01*
X140073095Y-86891809D01*
X139977857Y-86891809D01*
X139882619Y-86939428D01*
X139835000Y-86987047D01*
X139787381Y-87082285D01*
X139787381Y-87320381D01*
X139835000Y-87463238D01*
X140692143Y-88463238D02*
X140739762Y-88415619D01*
X140787381Y-88272762D01*
X140787381Y-88177524D01*
X140739762Y-88034666D01*
X140644524Y-87939428D01*
X140549286Y-87891809D01*
X140358810Y-87844190D01*
X140215952Y-87844190D01*
X140025476Y-87891809D01*
X139930238Y-87939428D01*
X139835000Y-88034666D01*
X139787381Y-88177524D01*
X139787381Y-88272762D01*
X139835000Y-88415619D01*
X139882619Y-88463238D01*
X140787381Y-89368000D02*
X140787381Y-88891809D01*
X139787381Y-88891809D01*
X138247381Y-84487048D02*
X137247381Y-84487048D01*
X137247381Y-84725143D01*
X137295000Y-84868001D01*
X137390238Y-84963239D01*
X137485476Y-85010858D01*
X137675952Y-85058477D01*
X137818810Y-85058477D01*
X138009286Y-85010858D01*
X138104524Y-84963239D01*
X138199762Y-84868001D01*
X138247381Y-84725143D01*
X138247381Y-84487048D01*
X137247381Y-85391810D02*
X137247381Y-86010858D01*
X137628333Y-85677524D01*
X137628333Y-85820382D01*
X137675952Y-85915620D01*
X137723571Y-85963239D01*
X137818810Y-86010858D01*
X138056905Y-86010858D01*
X138152143Y-85963239D01*
X138199762Y-85915620D01*
X138247381Y-85820382D01*
X138247381Y-85534667D01*
X138199762Y-85439429D01*
X138152143Y-85391810D01*
X138152143Y-86439429D02*
X138199762Y-86487048D01*
X138247381Y-86439429D01*
X138199762Y-86391810D01*
X138152143Y-86439429D01*
X138247381Y-86439429D01*
X138199762Y-86868000D02*
X138247381Y-87010857D01*
X138247381Y-87248953D01*
X138199762Y-87344191D01*
X138152143Y-87391810D01*
X138056905Y-87439429D01*
X137961667Y-87439429D01*
X137866429Y-87391810D01*
X137818810Y-87344191D01*
X137771190Y-87248953D01*
X137723571Y-87058476D01*
X137675952Y-86963238D01*
X137628333Y-86915619D01*
X137533095Y-86868000D01*
X137437857Y-86868000D01*
X137342619Y-86915619D01*
X137295000Y-86963238D01*
X137247381Y-87058476D01*
X137247381Y-87296572D01*
X137295000Y-87439429D01*
X138247381Y-87868000D02*
X137247381Y-87868000D01*
X137247381Y-88106095D01*
X137295000Y-88248953D01*
X137390238Y-88344191D01*
X137485476Y-88391810D01*
X137675952Y-88439429D01*
X137818810Y-88439429D01*
X138009286Y-88391810D01*
X138104524Y-88344191D01*
X138199762Y-88248953D01*
X138247381Y-88106095D01*
X138247381Y-87868000D01*
X137961667Y-88820381D02*
X137961667Y-89296572D01*
X138247381Y-88725143D02*
X137247381Y-89058476D01*
X138247381Y-89391810D01*
X135707381Y-84407619D02*
X134707381Y-84407619D01*
X134707381Y-84645714D01*
X134755000Y-84788572D01*
X134850238Y-84883810D01*
X134945476Y-84931429D01*
X135135952Y-84979048D01*
X135278810Y-84979048D01*
X135469286Y-84931429D01*
X135564524Y-84883810D01*
X135659762Y-84788572D01*
X135707381Y-84645714D01*
X135707381Y-84407619D01*
X134802619Y-85360000D02*
X134755000Y-85407619D01*
X134707381Y-85502857D01*
X134707381Y-85740953D01*
X134755000Y-85836191D01*
X134802619Y-85883810D01*
X134897857Y-85931429D01*
X134993095Y-85931429D01*
X135135952Y-85883810D01*
X135707381Y-85312381D01*
X135707381Y-85931429D01*
X135612143Y-86360000D02*
X135659762Y-86407619D01*
X135707381Y-86360000D01*
X135659762Y-86312381D01*
X135612143Y-86360000D01*
X135707381Y-86360000D01*
X135707381Y-87407619D02*
X135231190Y-87074285D01*
X135707381Y-86836190D02*
X134707381Y-86836190D01*
X134707381Y-87217143D01*
X134755000Y-87312381D01*
X134802619Y-87360000D01*
X134897857Y-87407619D01*
X135040714Y-87407619D01*
X135135952Y-87360000D01*
X135183571Y-87312381D01*
X135231190Y-87217143D01*
X135231190Y-86836190D01*
X134707381Y-87740952D02*
X135707381Y-88407619D01*
X134707381Y-88407619D02*
X135707381Y-87740952D01*
X133167381Y-84526667D02*
X132167381Y-84526667D01*
X132167381Y-84764762D01*
X132215000Y-84907620D01*
X132310238Y-85002858D01*
X132405476Y-85050477D01*
X132595952Y-85098096D01*
X132738810Y-85098096D01*
X132929286Y-85050477D01*
X133024524Y-85002858D01*
X133119762Y-84907620D01*
X133167381Y-84764762D01*
X133167381Y-84526667D01*
X133167381Y-86050477D02*
X133167381Y-85479048D01*
X133167381Y-85764762D02*
X132167381Y-85764762D01*
X132310238Y-85669524D01*
X132405476Y-85574286D01*
X132453095Y-85479048D01*
X133072143Y-86479048D02*
X133119762Y-86526667D01*
X133167381Y-86479048D01*
X133119762Y-86431429D01*
X133072143Y-86479048D01*
X133167381Y-86479048D01*
X132167381Y-86812381D02*
X132167381Y-87383810D01*
X133167381Y-87098095D02*
X132167381Y-87098095D01*
X132167381Y-87621905D02*
X133167381Y-88288572D01*
X132167381Y-88288572D02*
X133167381Y-87621905D01*
X159694714Y-100560238D02*
X159837571Y-100512619D01*
X160075667Y-100512619D01*
X160170905Y-100560238D01*
X160218524Y-100607857D01*
X160266143Y-100703095D01*
X160266143Y-100798333D01*
X160218524Y-100893571D01*
X160170905Y-100941190D01*
X160075667Y-100988810D01*
X159885190Y-101036429D01*
X159789952Y-101084048D01*
X159742333Y-101131667D01*
X159694714Y-101226905D01*
X159694714Y-101322143D01*
X159742333Y-101417381D01*
X159789952Y-101465000D01*
X159885190Y-101512619D01*
X160123286Y-101512619D01*
X160266143Y-101465000D01*
X160694714Y-100512619D02*
X160694714Y-101512619D01*
X160932809Y-101512619D01*
X161075667Y-101465000D01*
X161170905Y-101369762D01*
X161218524Y-101274524D01*
X161266143Y-101084048D01*
X161266143Y-100941190D01*
X161218524Y-100750714D01*
X161170905Y-100655476D01*
X161075667Y-100560238D01*
X160932809Y-100512619D01*
X160694714Y-100512619D01*
X161647095Y-100798333D02*
X162123286Y-100798333D01*
X161551857Y-100512619D02*
X161885190Y-101512619D01*
X162218524Y-100512619D01*
X159718524Y-98020238D02*
X159861381Y-97972619D01*
X160099477Y-97972619D01*
X160194715Y-98020238D01*
X160242334Y-98067857D01*
X160289953Y-98163095D01*
X160289953Y-98258333D01*
X160242334Y-98353571D01*
X160194715Y-98401190D01*
X160099477Y-98448810D01*
X159909000Y-98496429D01*
X159813762Y-98544048D01*
X159766143Y-98591667D01*
X159718524Y-98686905D01*
X159718524Y-98782143D01*
X159766143Y-98877381D01*
X159813762Y-98925000D01*
X159909000Y-98972619D01*
X160147096Y-98972619D01*
X160289953Y-98925000D01*
X161289953Y-98067857D02*
X161242334Y-98020238D01*
X161099477Y-97972619D01*
X161004239Y-97972619D01*
X160861381Y-98020238D01*
X160766143Y-98115476D01*
X160718524Y-98210714D01*
X160670905Y-98401190D01*
X160670905Y-98544048D01*
X160718524Y-98734524D01*
X160766143Y-98829762D01*
X160861381Y-98925000D01*
X161004239Y-98972619D01*
X161099477Y-98972619D01*
X161242334Y-98925000D01*
X161289953Y-98877381D01*
X162194715Y-97972619D02*
X161718524Y-97972619D01*
X161718524Y-98972619D01*
X160147096Y-96512000D02*
X160051858Y-96559619D01*
X159909001Y-96559619D01*
X159766143Y-96512000D01*
X159670905Y-96416762D01*
X159623286Y-96321524D01*
X159575667Y-96131048D01*
X159575667Y-95988190D01*
X159623286Y-95797714D01*
X159670905Y-95702476D01*
X159766143Y-95607238D01*
X159909001Y-95559619D01*
X160004239Y-95559619D01*
X160147096Y-95607238D01*
X160194715Y-95654857D01*
X160194715Y-95988190D01*
X160004239Y-95988190D01*
X160623286Y-95559619D02*
X160623286Y-96559619D01*
X161194715Y-95559619D01*
X161194715Y-96559619D01*
X161670905Y-95559619D02*
X161670905Y-96559619D01*
X161909000Y-96559619D01*
X162051858Y-96512000D01*
X162147096Y-96416762D01*
X162194715Y-96321524D01*
X162242334Y-96131048D01*
X162242334Y-95988190D01*
X162194715Y-95797714D01*
X162147096Y-95702476D01*
X162051858Y-95607238D01*
X161909000Y-95559619D01*
X161670905Y-95559619D01*
X159559810Y-93892619D02*
X160178858Y-93892619D01*
X159845524Y-93511667D01*
X159988382Y-93511667D01*
X160083620Y-93464048D01*
X160131239Y-93416429D01*
X160178858Y-93321190D01*
X160178858Y-93083095D01*
X160131239Y-92987857D01*
X160083620Y-92940238D01*
X159988382Y-92892619D01*
X159702667Y-92892619D01*
X159607429Y-92940238D01*
X159559810Y-92987857D01*
X160607429Y-92987857D02*
X160655048Y-92940238D01*
X160607429Y-92892619D01*
X160559810Y-92940238D01*
X160607429Y-92987857D01*
X160607429Y-92892619D01*
X160988381Y-93892619D02*
X161607429Y-93892619D01*
X161274095Y-93511667D01*
X161416953Y-93511667D01*
X161512191Y-93464048D01*
X161559810Y-93416429D01*
X161607429Y-93321190D01*
X161607429Y-93083095D01*
X161559810Y-92987857D01*
X161512191Y-92940238D01*
X161416953Y-92892619D01*
X161131238Y-92892619D01*
X161036000Y-92940238D01*
X160988381Y-92987857D01*
X161893143Y-93892619D02*
X162226476Y-92892619D01*
X162559810Y-93892619D01*
X133858095Y-102782619D02*
X134429524Y-102782619D01*
X134143809Y-101782619D02*
X134143809Y-102782619D01*
X134667619Y-102782619D02*
X135334286Y-101782619D01*
X135334286Y-102782619D02*
X134667619Y-101782619D01*
X134326334Y-99242619D02*
X133993000Y-99718810D01*
X133754905Y-99242619D02*
X133754905Y-100242619D01*
X134135858Y-100242619D01*
X134231096Y-100195000D01*
X134278715Y-100147381D01*
X134326334Y-100052143D01*
X134326334Y-99909286D01*
X134278715Y-99814048D01*
X134231096Y-99766429D01*
X134135858Y-99718810D01*
X133754905Y-99718810D01*
X134659667Y-100242619D02*
X135326334Y-99242619D01*
X135326334Y-100242619D02*
X134659667Y-99242619D01*
X133858096Y-97655000D02*
X133762858Y-97702619D01*
X133620001Y-97702619D01*
X133477143Y-97655000D01*
X133381905Y-97559762D01*
X133334286Y-97464524D01*
X133286667Y-97274048D01*
X133286667Y-97131190D01*
X133334286Y-96940714D01*
X133381905Y-96845476D01*
X133477143Y-96750238D01*
X133620001Y-96702619D01*
X133715239Y-96702619D01*
X133858096Y-96750238D01*
X133905715Y-96797857D01*
X133905715Y-97131190D01*
X133715239Y-97131190D01*
X134334286Y-96702619D02*
X134334286Y-97702619D01*
X134905715Y-96702619D01*
X134905715Y-97702619D01*
X135381905Y-96702619D02*
X135381905Y-97702619D01*
X135620000Y-97702619D01*
X135762858Y-97655000D01*
X135858096Y-97559762D01*
X135905715Y-97464524D01*
X135953334Y-97274048D01*
X135953334Y-97131190D01*
X135905715Y-96940714D01*
X135858096Y-96845476D01*
X135762858Y-96750238D01*
X135620000Y-96702619D01*
X135381905Y-96702619D01*
X133080286Y-94797571D02*
X133842191Y-94797571D01*
X133461239Y-94416619D02*
X133461239Y-95178524D01*
X134794572Y-95416619D02*
X134318381Y-95416619D01*
X134270762Y-94940429D01*
X134318381Y-94988048D01*
X134413619Y-95035667D01*
X134651715Y-95035667D01*
X134746953Y-94988048D01*
X134794572Y-94940429D01*
X134842191Y-94845190D01*
X134842191Y-94607095D01*
X134794572Y-94511857D01*
X134746953Y-94464238D01*
X134651715Y-94416619D01*
X134413619Y-94416619D01*
X134318381Y-94464238D01*
X134270762Y-94511857D01*
X135127905Y-95416619D02*
X135461238Y-94416619D01*
X135794572Y-95416619D01*
X154940000Y-90805000D02*
X154940000Y-103505000D01*
X167005000Y-90805000D02*
X154940000Y-90805000D01*
X167005000Y-103505000D02*
X167005000Y-90805000D01*
X154940000Y-103505000D02*
X167005000Y-103505000D01*
X140970000Y-89789000D02*
X128905000Y-89789000D01*
X128905000Y-104775000D02*
X140970000Y-104775000D01*
D13*
X165187381Y-101901667D02*
X165901667Y-101901667D01*
X166044524Y-101854047D01*
X166139762Y-101758809D01*
X166187381Y-101615952D01*
X166187381Y-101520714D01*
X165520714Y-102806429D02*
X166187381Y-102806429D01*
X165139762Y-102568333D02*
X165854048Y-102330238D01*
X165854048Y-102949286D01*
X165663571Y-94774048D02*
X165711190Y-94916905D01*
X165758810Y-94964524D01*
X165854048Y-95012143D01*
X165996905Y-95012143D01*
X166092143Y-94964524D01*
X166139762Y-94916905D01*
X166187381Y-94821667D01*
X166187381Y-94440714D01*
X165187381Y-94440714D01*
X165187381Y-94774048D01*
X165235000Y-94869286D01*
X165282619Y-94916905D01*
X165377857Y-94964524D01*
X165473095Y-94964524D01*
X165568333Y-94916905D01*
X165615952Y-94869286D01*
X165663571Y-94774048D01*
X165663571Y-94440714D01*
X166187381Y-95440714D02*
X165187381Y-95440714D01*
X165901667Y-95774048D01*
X165187381Y-96107381D01*
X166187381Y-96107381D01*
X165663571Y-96583571D02*
X165663571Y-96916905D01*
X166187381Y-97059762D02*
X166187381Y-96583571D01*
X165187381Y-96583571D01*
X165187381Y-97059762D01*
X165282619Y-97440714D02*
X165235000Y-97488333D01*
X165187381Y-97583571D01*
X165187381Y-97821667D01*
X165235000Y-97916905D01*
X165282619Y-97964524D01*
X165377857Y-98012143D01*
X165473095Y-98012143D01*
X165615952Y-97964524D01*
X166187381Y-97393095D01*
X166187381Y-98012143D01*
X165615952Y-98583571D02*
X165568333Y-98488333D01*
X165520714Y-98440714D01*
X165425476Y-98393095D01*
X165377857Y-98393095D01*
X165282619Y-98440714D01*
X165235000Y-98488333D01*
X165187381Y-98583571D01*
X165187381Y-98774048D01*
X165235000Y-98869286D01*
X165282619Y-98916905D01*
X165377857Y-98964524D01*
X165425476Y-98964524D01*
X165520714Y-98916905D01*
X165568333Y-98869286D01*
X165615952Y-98774048D01*
X165615952Y-98583571D01*
X165663571Y-98488333D01*
X165711190Y-98440714D01*
X165806429Y-98393095D01*
X165996905Y-98393095D01*
X166092143Y-98440714D01*
X166139762Y-98488333D01*
X166187381Y-98583571D01*
X166187381Y-98774048D01*
X166139762Y-98869286D01*
X166092143Y-98916905D01*
X165996905Y-98964524D01*
X165806429Y-98964524D01*
X165711190Y-98916905D01*
X165663571Y-98869286D01*
X165615952Y-98774048D01*
X165187381Y-99583571D02*
X165187381Y-99678810D01*
X165235000Y-99774048D01*
X165282619Y-99821667D01*
X165377857Y-99869286D01*
X165568333Y-99916905D01*
X165806429Y-99916905D01*
X165996905Y-99869286D01*
X166092143Y-99821667D01*
X166139762Y-99774048D01*
X166187381Y-99678810D01*
X166187381Y-99583571D01*
X166139762Y-99488333D01*
X166092143Y-99440714D01*
X165996905Y-99393095D01*
X165806429Y-99345476D01*
X165568333Y-99345476D01*
X165377857Y-99393095D01*
X165282619Y-99440714D01*
X165235000Y-99488333D01*
X165187381Y-99583571D01*
X139152381Y-103171667D02*
X139866667Y-103171667D01*
X140009524Y-103124047D01*
X140104762Y-103028809D01*
X140152381Y-102885952D01*
X140152381Y-102790714D01*
X139152381Y-103552619D02*
X139152381Y-104171667D01*
X139533333Y-103838333D01*
X139533333Y-103981191D01*
X139580952Y-104076429D01*
X139628571Y-104124048D01*
X139723810Y-104171667D01*
X139961905Y-104171667D01*
X140057143Y-104124048D01*
X140104762Y-104076429D01*
X140152381Y-103981191D01*
X140152381Y-103695476D01*
X140104762Y-103600238D01*
X140057143Y-103552619D01*
X140104762Y-94464524D02*
X140152381Y-94607381D01*
X140152381Y-94845477D01*
X140104762Y-94940715D01*
X140057143Y-94988334D01*
X139961905Y-95035953D01*
X139866667Y-95035953D01*
X139771429Y-94988334D01*
X139723810Y-94940715D01*
X139676190Y-94845477D01*
X139628571Y-94655000D01*
X139580952Y-94559762D01*
X139533333Y-94512143D01*
X139438095Y-94464524D01*
X139342857Y-94464524D01*
X139247619Y-94512143D01*
X139200000Y-94559762D01*
X139152381Y-94655000D01*
X139152381Y-94893096D01*
X139200000Y-95035953D01*
X140152381Y-95464524D02*
X139152381Y-95464524D01*
X139152381Y-95702619D01*
X139200000Y-95845477D01*
X139295238Y-95940715D01*
X139390476Y-95988334D01*
X139580952Y-96035953D01*
X139723810Y-96035953D01*
X139914286Y-95988334D01*
X140009524Y-95940715D01*
X140104762Y-95845477D01*
X140152381Y-95702619D01*
X140152381Y-95464524D01*
X140104762Y-96416905D02*
X140152381Y-96559762D01*
X140152381Y-96797858D01*
X140104762Y-96893096D01*
X140057143Y-96940715D01*
X139961905Y-96988334D01*
X139866667Y-96988334D01*
X139771429Y-96940715D01*
X139723810Y-96893096D01*
X139676190Y-96797858D01*
X139628571Y-96607381D01*
X139580952Y-96512143D01*
X139533333Y-96464524D01*
X139438095Y-96416905D01*
X139342857Y-96416905D01*
X139247619Y-96464524D01*
X139200000Y-96512143D01*
X139152381Y-96607381D01*
X139152381Y-96845477D01*
X139200000Y-96988334D01*
X139152381Y-97607381D02*
X139152381Y-97702620D01*
X139200000Y-97797858D01*
X139247619Y-97845477D01*
X139342857Y-97893096D01*
X139533333Y-97940715D01*
X139771429Y-97940715D01*
X139961905Y-97893096D01*
X140057143Y-97845477D01*
X140104762Y-97797858D01*
X140152381Y-97702620D01*
X140152381Y-97607381D01*
X140104762Y-97512143D01*
X140057143Y-97464524D01*
X139961905Y-97416905D01*
X139771429Y-97369286D01*
X139533333Y-97369286D01*
X139342857Y-97416905D01*
X139247619Y-97464524D01*
X139200000Y-97512143D01*
X139152381Y-97607381D01*
X140152381Y-98893096D02*
X140152381Y-98321667D01*
X140152381Y-98607381D02*
X139152381Y-98607381D01*
X139295238Y-98512143D01*
X139390476Y-98416905D01*
X139438095Y-98321667D01*
X140152381Y-99845477D02*
X140152381Y-99274048D01*
X140152381Y-99559762D02*
X139152381Y-99559762D01*
X139295238Y-99464524D01*
X139390476Y-99369286D01*
X139438095Y-99274048D01*
M02*
