G04 #@! TF.FileFunction,Legend,Top*
%FSLAX46Y46*%
G04 Gerber Fmt 4.6, Leading zero omitted, Abs format (unit mm)*
G04 Created by KiCad (PCBNEW 4.0.7) date 05/23/18 23:06:23*
%MOMM*%
%LPD*%
G01*
G04 APERTURE LIST*
%ADD10C,0.100000*%
%ADD11C,0.150000*%
%ADD12C,0.200000*%
%ADD13C,0.120000*%
%ADD14C,0.152400*%
G04 APERTURE END LIST*
D10*
D11*
X-161472619Y29448333D02*
X-162472619Y29448333D01*
X-161758333Y29781667D01*
X-162472619Y30115000D01*
X-161472619Y30115000D01*
X-161472619Y30734047D02*
X-161520238Y30638809D01*
X-161567857Y30591190D01*
X-161663095Y30543571D01*
X-161948810Y30543571D01*
X-162044048Y30591190D01*
X-162091667Y30638809D01*
X-162139286Y30734047D01*
X-162139286Y30876905D01*
X-162091667Y30972143D01*
X-162044048Y31019762D01*
X-161948810Y31067381D01*
X-161663095Y31067381D01*
X-161567857Y31019762D01*
X-161520238Y30972143D01*
X-161472619Y30876905D01*
X-161472619Y30734047D01*
X-161472619Y31924524D02*
X-162472619Y31924524D01*
X-161520238Y31924524D02*
X-161472619Y31829286D01*
X-161472619Y31638809D01*
X-161520238Y31543571D01*
X-161567857Y31495952D01*
X-161663095Y31448333D01*
X-161948810Y31448333D01*
X-162044048Y31495952D01*
X-162091667Y31543571D01*
X-162139286Y31638809D01*
X-162139286Y31829286D01*
X-162091667Y31924524D01*
X-161520238Y32781667D02*
X-161472619Y32686429D01*
X-161472619Y32495952D01*
X-161520238Y32400714D01*
X-161615476Y32353095D01*
X-161996429Y32353095D01*
X-162091667Y32400714D01*
X-162139286Y32495952D01*
X-162139286Y32686429D01*
X-162091667Y32781667D01*
X-161996429Y32829286D01*
X-161901190Y32829286D01*
X-161805952Y32353095D01*
X-115847857Y28908572D02*
X-115800238Y28860953D01*
X-115752619Y28718096D01*
X-115752619Y28622858D01*
X-115800238Y28480000D01*
X-115895476Y28384762D01*
X-115990714Y28337143D01*
X-116181190Y28289524D01*
X-116324048Y28289524D01*
X-116514524Y28337143D01*
X-116609762Y28384762D01*
X-116705000Y28480000D01*
X-116752619Y28622858D01*
X-116752619Y28718096D01*
X-116705000Y28860953D01*
X-116657381Y28908572D01*
X-115752619Y29480000D02*
X-115800238Y29384762D01*
X-115847857Y29337143D01*
X-115943095Y29289524D01*
X-116228810Y29289524D01*
X-116324048Y29337143D01*
X-116371667Y29384762D01*
X-116419286Y29480000D01*
X-116419286Y29622858D01*
X-116371667Y29718096D01*
X-116324048Y29765715D01*
X-116228810Y29813334D01*
X-115943095Y29813334D01*
X-115847857Y29765715D01*
X-115800238Y29718096D01*
X-115752619Y29622858D01*
X-115752619Y29480000D01*
X-116419286Y30241905D02*
X-115752619Y30241905D01*
X-116324048Y30241905D02*
X-116371667Y30289524D01*
X-116419286Y30384762D01*
X-116419286Y30527620D01*
X-116371667Y30622858D01*
X-116276429Y30670477D01*
X-115752619Y30670477D01*
X-116419286Y31003810D02*
X-116419286Y31384762D01*
X-115752619Y31146667D02*
X-116609762Y31146667D01*
X-116705000Y31194286D01*
X-116752619Y31289524D01*
X-116752619Y31384762D01*
X-115752619Y31718096D02*
X-116419286Y31718096D01*
X-116752619Y31718096D02*
X-116705000Y31670477D01*
X-116657381Y31718096D01*
X-116705000Y31765715D01*
X-116752619Y31718096D01*
X-116657381Y31718096D01*
X-116419286Y32622858D02*
X-115609762Y32622858D01*
X-115514524Y32575239D01*
X-115466905Y32527620D01*
X-115419286Y32432381D01*
X-115419286Y32289524D01*
X-115466905Y32194286D01*
X-115800238Y32622858D02*
X-115752619Y32527620D01*
X-115752619Y32337143D01*
X-115800238Y32241905D01*
X-115847857Y32194286D01*
X-115943095Y32146667D01*
X-116228810Y32146667D01*
X-116324048Y32194286D01*
X-116371667Y32241905D01*
X-116419286Y32337143D01*
X-116419286Y32527620D01*
X-116371667Y32622858D01*
D12*
X-148755477Y24598333D02*
X-148279286Y24598333D01*
X-148850715Y24312619D02*
X-148517382Y25312619D01*
X-148184048Y24312619D01*
X-147850715Y24312619D02*
X-147850715Y24979286D01*
X-147850715Y25312619D02*
X-147898334Y25265000D01*
X-147850715Y25217381D01*
X-147803096Y25265000D01*
X-147850715Y25312619D01*
X-147850715Y25217381D01*
X-147374525Y24312619D02*
X-147374525Y24979286D01*
X-147374525Y24788810D02*
X-147326906Y24884048D01*
X-147279287Y24931667D01*
X-147184049Y24979286D01*
X-147088810Y24979286D01*
X-145993572Y24312619D02*
X-145993572Y25312619D01*
X-145755477Y25312619D01*
X-145612619Y25265000D01*
X-145517381Y25169762D01*
X-145469762Y25074524D01*
X-145422143Y24884048D01*
X-145422143Y24741190D01*
X-145469762Y24550714D01*
X-145517381Y24455476D01*
X-145612619Y24360238D01*
X-145755477Y24312619D01*
X-145993572Y24312619D01*
X-144993572Y24312619D02*
X-144993572Y24979286D01*
X-144993572Y25312619D02*
X-145041191Y25265000D01*
X-144993572Y25217381D01*
X-144945953Y25265000D01*
X-144993572Y25312619D01*
X-144993572Y25217381D01*
X-144565001Y24360238D02*
X-144469763Y24312619D01*
X-144279287Y24312619D01*
X-144184048Y24360238D01*
X-144136429Y24455476D01*
X-144136429Y24503095D01*
X-144184048Y24598333D01*
X-144279287Y24645952D01*
X-144422144Y24645952D01*
X-144517382Y24693571D01*
X-144565001Y24788810D01*
X-144565001Y24836429D01*
X-144517382Y24931667D01*
X-144422144Y24979286D01*
X-144279287Y24979286D01*
X-144184048Y24931667D01*
X-143707858Y24979286D02*
X-143707858Y23979286D01*
X-143707858Y24931667D02*
X-143612620Y24979286D01*
X-143422143Y24979286D01*
X-143326905Y24931667D01*
X-143279286Y24884048D01*
X-143231667Y24788810D01*
X-143231667Y24503095D01*
X-143279286Y24407857D01*
X-143326905Y24360238D01*
X-143422143Y24312619D01*
X-143612620Y24312619D01*
X-143707858Y24360238D01*
X-142660239Y24312619D02*
X-142755477Y24360238D01*
X-142803096Y24455476D01*
X-142803096Y25312619D01*
X-141850714Y24312619D02*
X-141850714Y24836429D01*
X-141898333Y24931667D01*
X-141993571Y24979286D01*
X-142184048Y24979286D01*
X-142279286Y24931667D01*
X-141850714Y24360238D02*
X-141945952Y24312619D01*
X-142184048Y24312619D01*
X-142279286Y24360238D01*
X-142326905Y24455476D01*
X-142326905Y24550714D01*
X-142279286Y24645952D01*
X-142184048Y24693571D01*
X-141945952Y24693571D01*
X-141850714Y24741190D01*
X-141469762Y24979286D02*
X-141231667Y24312619D01*
X-140993571Y24979286D02*
X-141231667Y24312619D01*
X-141326905Y24074524D01*
X-141374524Y24026905D01*
X-141469762Y23979286D01*
X-139850714Y24836429D02*
X-139517380Y24836429D01*
X-139374523Y24312619D02*
X-139850714Y24312619D01*
X-139850714Y25312619D01*
X-139374523Y25312619D01*
X-138993571Y24360238D02*
X-138850714Y24312619D01*
X-138612618Y24312619D01*
X-138517380Y24360238D01*
X-138469761Y24407857D01*
X-138422142Y24503095D01*
X-138422142Y24598333D01*
X-138469761Y24693571D01*
X-138517380Y24741190D01*
X-138612618Y24788810D01*
X-138803095Y24836429D01*
X-138898333Y24884048D01*
X-138945952Y24931667D01*
X-138993571Y25026905D01*
X-138993571Y25122143D01*
X-138945952Y25217381D01*
X-138898333Y25265000D01*
X-138803095Y25312619D01*
X-138564999Y25312619D01*
X-138422142Y25265000D01*
X-137993571Y24312619D02*
X-137993571Y25312619D01*
X-137612618Y25312619D01*
X-137517380Y25265000D01*
X-137469761Y25217381D01*
X-137422142Y25122143D01*
X-137422142Y24979286D01*
X-137469761Y24884048D01*
X-137517380Y24836429D01*
X-137612618Y24788810D01*
X-137993571Y24788810D01*
X-136993571Y24693571D02*
X-136231666Y24693571D01*
X-135231666Y24312619D02*
X-135803095Y24312619D01*
X-135517381Y24312619D02*
X-135517381Y25312619D01*
X-135612619Y25169762D01*
X-135707857Y25074524D01*
X-135803095Y25026905D01*
X-134850714Y25217381D02*
X-134803095Y25265000D01*
X-134707857Y25312619D01*
X-134469761Y25312619D01*
X-134374523Y25265000D01*
X-134326904Y25217381D01*
X-134279285Y25122143D01*
X-134279285Y25026905D01*
X-134326904Y24884048D01*
X-134898333Y24312619D01*
X-134279285Y24312619D01*
X-133850714Y24836429D02*
X-133517380Y24836429D01*
X-133374523Y24312619D02*
X-133850714Y24312619D01*
X-133850714Y25312619D01*
X-133374523Y25312619D01*
X-132326904Y25312619D02*
X-131993571Y24312619D01*
X-131660237Y25312619D01*
X-130803094Y24312619D02*
X-131374523Y24312619D01*
X-131088809Y24312619D02*
X-131088809Y25312619D01*
X-131184047Y25169762D01*
X-131279285Y25074524D01*
X-131374523Y25026905D01*
X-130374523Y24407857D02*
X-130326904Y24360238D01*
X-130374523Y24312619D01*
X-130422142Y24360238D01*
X-130374523Y24407857D01*
X-130374523Y24312619D01*
X-129707857Y25312619D02*
X-129612618Y25312619D01*
X-129517380Y25265000D01*
X-129469761Y25217381D01*
X-129422142Y25122143D01*
X-129374523Y24931667D01*
X-129374523Y24693571D01*
X-129422142Y24503095D01*
X-129469761Y24407857D01*
X-129517380Y24360238D01*
X-129612618Y24312619D01*
X-129707857Y24312619D01*
X-129803095Y24360238D01*
X-129850714Y24407857D01*
X-129898333Y24503095D01*
X-129945952Y24693571D01*
X-129945952Y24931667D01*
X-129898333Y25122143D01*
X-129850714Y25217381D01*
X-129803095Y25265000D01*
X-129707857Y25312619D01*
X-155575000Y40005000D02*
X-122555000Y40005000D01*
X-132715000Y31750000D02*
X-125095000Y31750000D01*
D11*
X-125880714Y35155238D02*
X-125737857Y35107619D01*
X-125499761Y35107619D01*
X-125404523Y35155238D01*
X-125356904Y35202857D01*
X-125309285Y35298095D01*
X-125309285Y35393333D01*
X-125356904Y35488571D01*
X-125404523Y35536190D01*
X-125499761Y35583810D01*
X-125690238Y35631429D01*
X-125785476Y35679048D01*
X-125833095Y35726667D01*
X-125880714Y35821905D01*
X-125880714Y35917143D01*
X-125833095Y36012381D01*
X-125785476Y36060000D01*
X-125690238Y36107619D01*
X-125452142Y36107619D01*
X-125309285Y36060000D01*
X-124880714Y35107619D02*
X-124880714Y36107619D01*
X-124642619Y36107619D01*
X-124499761Y36060000D01*
X-124404523Y35964762D01*
X-124356904Y35869524D01*
X-124309285Y35679048D01*
X-124309285Y35536190D01*
X-124356904Y35345714D01*
X-124404523Y35250476D01*
X-124499761Y35155238D01*
X-124642619Y35107619D01*
X-124880714Y35107619D01*
X-128420714Y35155238D02*
X-128277857Y35107619D01*
X-128039761Y35107619D01*
X-127944523Y35155238D01*
X-127896904Y35202857D01*
X-127849285Y35298095D01*
X-127849285Y35393333D01*
X-127896904Y35488571D01*
X-127944523Y35536190D01*
X-128039761Y35583810D01*
X-128230238Y35631429D01*
X-128325476Y35679048D01*
X-128373095Y35726667D01*
X-128420714Y35821905D01*
X-128420714Y35917143D01*
X-128373095Y36012381D01*
X-128325476Y36060000D01*
X-128230238Y36107619D01*
X-127992142Y36107619D01*
X-127849285Y36060000D01*
X-126849285Y35202857D02*
X-126896904Y35155238D01*
X-127039761Y35107619D01*
X-127134999Y35107619D01*
X-127277857Y35155238D01*
X-127373095Y35250476D01*
X-127420714Y35345714D01*
X-127468333Y35536190D01*
X-127468333Y35679048D01*
X-127420714Y35869524D01*
X-127373095Y35964762D01*
X-127277857Y36060000D01*
X-127134999Y36107619D01*
X-127039761Y36107619D01*
X-126896904Y36060000D01*
X-126849285Y36012381D01*
X-129913095Y36060000D02*
X-130008333Y36107619D01*
X-130151190Y36107619D01*
X-130294048Y36060000D01*
X-130389286Y35964762D01*
X-130436905Y35869524D01*
X-130484524Y35679048D01*
X-130484524Y35536190D01*
X-130436905Y35345714D01*
X-130389286Y35250476D01*
X-130294048Y35155238D01*
X-130151190Y35107619D01*
X-130055952Y35107619D01*
X-129913095Y35155238D01*
X-129865476Y35202857D01*
X-129865476Y35536190D01*
X-130055952Y35536190D01*
X-133476905Y36107619D02*
X-132857857Y36107619D01*
X-133191191Y35726667D01*
X-133048333Y35726667D01*
X-132953095Y35679048D01*
X-132905476Y35631429D01*
X-132857857Y35536190D01*
X-132857857Y35298095D01*
X-132905476Y35202857D01*
X-132953095Y35155238D01*
X-133048333Y35107619D01*
X-133334048Y35107619D01*
X-133429286Y35155238D01*
X-133476905Y35202857D01*
X-132572143Y36107619D02*
X-132238810Y35107619D01*
X-131905476Y36107619D01*
X-143303571Y36107619D02*
X-143065476Y35107619D01*
X-142874999Y35821905D01*
X-142684523Y35107619D01*
X-142446428Y36107619D01*
X-146200714Y35155238D02*
X-146057857Y35107619D01*
X-145819761Y35107619D01*
X-145724523Y35155238D01*
X-145676904Y35202857D01*
X-145629285Y35298095D01*
X-145629285Y35393333D01*
X-145676904Y35488571D01*
X-145724523Y35536190D01*
X-145819761Y35583810D01*
X-146010238Y35631429D01*
X-146105476Y35679048D01*
X-146153095Y35726667D01*
X-146200714Y35821905D01*
X-146200714Y35917143D01*
X-146153095Y36012381D01*
X-146105476Y36060000D01*
X-146010238Y36107619D01*
X-145772142Y36107619D01*
X-145629285Y36060000D01*
X-145200714Y35107619D02*
X-145200714Y36107619D01*
X-144962619Y36107619D01*
X-144819761Y36060000D01*
X-144724523Y35964762D01*
X-144676904Y35869524D01*
X-144629285Y35679048D01*
X-144629285Y35536190D01*
X-144676904Y35345714D01*
X-144724523Y35250476D01*
X-144819761Y35155238D01*
X-144962619Y35107619D01*
X-145200714Y35107619D01*
X-148740714Y35155238D02*
X-148597857Y35107619D01*
X-148359761Y35107619D01*
X-148264523Y35155238D01*
X-148216904Y35202857D01*
X-148169285Y35298095D01*
X-148169285Y35393333D01*
X-148216904Y35488571D01*
X-148264523Y35536190D01*
X-148359761Y35583810D01*
X-148550238Y35631429D01*
X-148645476Y35679048D01*
X-148693095Y35726667D01*
X-148740714Y35821905D01*
X-148740714Y35917143D01*
X-148693095Y36012381D01*
X-148645476Y36060000D01*
X-148550238Y36107619D01*
X-148312142Y36107619D01*
X-148169285Y36060000D01*
X-147169285Y35202857D02*
X-147216904Y35155238D01*
X-147359761Y35107619D01*
X-147454999Y35107619D01*
X-147597857Y35155238D01*
X-147693095Y35250476D01*
X-147740714Y35345714D01*
X-147788333Y35536190D01*
X-147788333Y35679048D01*
X-147740714Y35869524D01*
X-147693095Y35964762D01*
X-147597857Y36060000D01*
X-147454999Y36107619D01*
X-147359761Y36107619D01*
X-147216904Y36060000D01*
X-147169285Y36012381D01*
X-153796905Y36107619D02*
X-153177857Y36107619D01*
X-153511191Y35726667D01*
X-153368333Y35726667D01*
X-153273095Y35679048D01*
X-153225476Y35631429D01*
X-153177857Y35536190D01*
X-153177857Y35298095D01*
X-153225476Y35202857D01*
X-153273095Y35155238D01*
X-153368333Y35107619D01*
X-153654048Y35107619D01*
X-153749286Y35155238D01*
X-153796905Y35202857D01*
X-152892143Y36107619D02*
X-152558810Y35107619D01*
X-152225476Y36107619D01*
X-150233095Y36060000D02*
X-150328333Y36107619D01*
X-150471190Y36107619D01*
X-150614048Y36060000D01*
X-150709286Y35964762D01*
X-150756905Y35869524D01*
X-150804524Y35679048D01*
X-150804524Y35536190D01*
X-150756905Y35345714D01*
X-150709286Y35250476D01*
X-150614048Y35155238D01*
X-150471190Y35107619D01*
X-150375952Y35107619D01*
X-150233095Y35155238D01*
X-150185476Y35202857D01*
X-150185476Y35536190D01*
X-150375952Y35536190D01*
D12*
X-135255000Y31750000D02*
X-153035000Y31750000D01*
D11*
X-143255952Y51998571D02*
X-142494047Y51998571D01*
X-142874999Y51617619D02*
X-142874999Y52379524D01*
X-157225952Y57078571D02*
X-156464047Y57078571D01*
X-156844999Y56697619D02*
X-156844999Y57459524D01*
X-152590476Y65317619D02*
X-153066667Y65317619D01*
X-153114286Y64841429D01*
X-153066667Y64889048D01*
X-152971429Y64936667D01*
X-152733333Y64936667D01*
X-152638095Y64889048D01*
X-152590476Y64841429D01*
X-152542857Y64746190D01*
X-152542857Y64508095D01*
X-152590476Y64412857D01*
X-152638095Y64365238D01*
X-152733333Y64317619D01*
X-152971429Y64317619D01*
X-153066667Y64365238D01*
X-153114286Y64412857D01*
X-152257143Y65317619D02*
X-151923810Y64317619D01*
X-151590476Y65317619D01*
X-154678095Y65270000D02*
X-154773333Y65317619D01*
X-154916190Y65317619D01*
X-155059048Y65270000D01*
X-155154286Y65174762D01*
X-155201905Y65079524D01*
X-155249524Y64889048D01*
X-155249524Y64746190D01*
X-155201905Y64555714D01*
X-155154286Y64460476D01*
X-155059048Y64365238D01*
X-154916190Y64317619D01*
X-154820952Y64317619D01*
X-154678095Y64365238D01*
X-154630476Y64412857D01*
X-154630476Y64746190D01*
X-154820952Y64746190D01*
X-157575238Y64317619D02*
X-157908572Y64793810D01*
X-158146667Y64317619D02*
X-158146667Y65317619D01*
X-157765714Y65317619D01*
X-157670476Y65270000D01*
X-157622857Y65222381D01*
X-157575238Y65127143D01*
X-157575238Y64984286D01*
X-157622857Y64889048D01*
X-157670476Y64841429D01*
X-157765714Y64793810D01*
X-158146667Y64793810D01*
X-157241905Y64317619D02*
X-156718095Y64984286D01*
X-157241905Y64984286D02*
X-156718095Y64317619D01*
X-160710476Y65317619D02*
X-160139047Y65317619D01*
X-160424762Y64317619D02*
X-160424762Y65317619D01*
X-159900952Y64317619D02*
X-159377142Y64984286D01*
X-159900952Y64984286D02*
X-159377142Y64317619D01*
D13*
X-136775000Y47260000D02*
X-136775000Y49260000D01*
X-138815000Y49260000D02*
X-138815000Y47260000D01*
X-131130000Y51360000D02*
X-133030000Y51360000D01*
X-133030000Y51360000D02*
X-133030000Y46660000D01*
X-131130000Y51360000D02*
X-131130000Y46660000D01*
X-128705000Y47260000D02*
X-128705000Y49260000D01*
X-126565000Y49260000D02*
X-126565000Y47260000D01*
X-126730000Y62665000D02*
X-124730000Y62665000D01*
X-124730000Y60525000D02*
X-126730000Y60525000D01*
X-151400000Y61160000D02*
X-153400000Y61160000D01*
X-153400000Y63300000D02*
X-151400000Y63300000D01*
X-119745000Y62665000D02*
X-117745000Y62665000D01*
X-117745000Y60525000D02*
X-119745000Y60525000D01*
X-122120000Y49260000D02*
X-122120000Y47260000D01*
X-124260000Y47260000D02*
X-124260000Y49260000D01*
X-118860000Y64865000D02*
X-124980000Y64865000D01*
X-124980000Y64865000D02*
X-124980000Y68485000D01*
X-124980000Y68485000D02*
X-118860000Y68485000D01*
X-118860000Y68485000D02*
X-118860000Y64865000D01*
X-118860000Y54705000D02*
X-124980000Y54705000D01*
X-124980000Y54705000D02*
X-124980000Y58325000D01*
X-124980000Y58325000D02*
X-118860000Y58325000D01*
X-118860000Y58325000D02*
X-118860000Y54705000D01*
X-153040000Y51670000D02*
X-153040000Y50410000D01*
X-153040000Y44850000D02*
X-153040000Y46110000D01*
X-149280000Y51670000D02*
X-153040000Y51670000D01*
X-147030000Y44850000D02*
X-153040000Y44850000D01*
X-157655000Y52175000D02*
X-157655000Y55775000D01*
X-161115000Y55775000D02*
X-161115000Y52175000D01*
X-141855000Y47260000D02*
X-141855000Y49260000D01*
X-143895000Y49260000D02*
X-143895000Y47260000D01*
X-158385000Y61160000D02*
X-160385000Y61160000D01*
X-160385000Y63300000D02*
X-158385000Y63300000D01*
D14*
X-147026000Y55191000D02*
X-147026000Y54429000D01*
X-147026000Y54429000D02*
X-131024000Y54429000D01*
X-131024000Y54429000D02*
X-131024000Y55191000D01*
D13*
X-161350000Y68750000D02*
X-151070000Y68750000D01*
X-151070000Y68750000D02*
X-151070000Y71410000D01*
X-151070000Y71410000D02*
X-161350000Y71410000D01*
X-161350000Y71410000D02*
X-161350000Y68750000D01*
X-160400000Y71410000D02*
X-160400000Y77410000D01*
X-160400000Y77410000D02*
X-159640000Y77410000D01*
X-159640000Y77410000D02*
X-159640000Y71410000D01*
X-160340000Y71410000D02*
X-160340000Y77410000D01*
X-160220000Y71410000D02*
X-160220000Y77410000D01*
X-160100000Y71410000D02*
X-160100000Y77410000D01*
X-159980000Y71410000D02*
X-159980000Y77410000D01*
X-159860000Y71410000D02*
X-159860000Y77410000D01*
X-159740000Y71410000D02*
X-159740000Y77410000D01*
X-160400000Y68420000D02*
X-160400000Y68750000D01*
X-159640000Y68420000D02*
X-159640000Y68750000D01*
X-158750000Y68750000D02*
X-158750000Y71410000D01*
X-157860000Y71410000D02*
X-157860000Y77410000D01*
X-157860000Y77410000D02*
X-157100000Y77410000D01*
X-157100000Y77410000D02*
X-157100000Y71410000D01*
X-157860000Y68352929D02*
X-157860000Y68750000D01*
X-157100000Y68352929D02*
X-157100000Y68750000D01*
X-156210000Y68750000D02*
X-156210000Y71410000D01*
X-155320000Y71410000D02*
X-155320000Y77410000D01*
X-155320000Y77410000D02*
X-154560000Y77410000D01*
X-154560000Y77410000D02*
X-154560000Y71410000D01*
X-155320000Y68352929D02*
X-155320000Y68750000D01*
X-154560000Y68352929D02*
X-154560000Y68750000D01*
X-153670000Y68750000D02*
X-153670000Y71410000D01*
X-152780000Y71410000D02*
X-152780000Y77410000D01*
X-152780000Y77410000D02*
X-152020000Y77410000D01*
X-152020000Y77410000D02*
X-152020000Y71410000D01*
X-152780000Y68352929D02*
X-152780000Y68750000D01*
X-152020000Y68352929D02*
X-152020000Y68750000D01*
X-160020000Y66040000D02*
X-161290000Y66040000D01*
X-161290000Y66040000D02*
X-161290000Y67310000D01*
X-155000000Y58480000D02*
X-155000000Y55820000D01*
X-152400000Y58480000D02*
X-155000000Y58480000D01*
X-152400000Y55820000D02*
X-155000000Y55820000D01*
X-152400000Y58480000D02*
X-152400000Y55820000D01*
X-151130000Y58480000D02*
X-149800000Y58480000D01*
X-149800000Y58480000D02*
X-149800000Y57150000D01*
X-152130000Y27740000D02*
X-150130000Y27740000D01*
X-150130000Y25600000D02*
X-152130000Y25600000D01*
D11*
X-132794333Y31027619D02*
X-132794333Y30313333D01*
X-132841953Y30170476D01*
X-132937191Y30075238D01*
X-133080048Y30027619D01*
X-133175286Y30027619D01*
X-131889571Y30694286D02*
X-131889571Y30027619D01*
X-132127667Y31075238D02*
X-132365762Y30360952D01*
X-131746714Y30360952D01*
X-129761952Y30551429D02*
X-129619095Y30503810D01*
X-129571476Y30456190D01*
X-129523857Y30360952D01*
X-129523857Y30218095D01*
X-129571476Y30122857D01*
X-129619095Y30075238D01*
X-129714333Y30027619D01*
X-130095286Y30027619D01*
X-130095286Y31027619D01*
X-129761952Y31027619D01*
X-129666714Y30980000D01*
X-129619095Y30932381D01*
X-129571476Y30837143D01*
X-129571476Y30741905D01*
X-129619095Y30646667D01*
X-129666714Y30599048D01*
X-129761952Y30551429D01*
X-130095286Y30551429D01*
X-129095286Y30027619D02*
X-129095286Y31027619D01*
X-128761952Y30313333D01*
X-128428619Y31027619D01*
X-128428619Y30027619D01*
X-127952429Y30551429D02*
X-127619095Y30551429D01*
X-127476238Y30027619D02*
X-127952429Y30027619D01*
X-127952429Y31027619D01*
X-127476238Y31027619D01*
X-127095286Y30932381D02*
X-127047667Y30980000D01*
X-126952429Y31027619D01*
X-126714333Y31027619D01*
X-126619095Y30980000D01*
X-126571476Y30932381D01*
X-126523857Y30837143D01*
X-126523857Y30741905D01*
X-126571476Y30599048D01*
X-127142905Y30027619D01*
X-126523857Y30027619D01*
X-125952429Y30599048D02*
X-126047667Y30646667D01*
X-126095286Y30694286D01*
X-126142905Y30789524D01*
X-126142905Y30837143D01*
X-126095286Y30932381D01*
X-126047667Y30980000D01*
X-125952429Y31027619D01*
X-125761952Y31027619D01*
X-125666714Y30980000D01*
X-125619095Y30932381D01*
X-125571476Y30837143D01*
X-125571476Y30789524D01*
X-125619095Y30694286D01*
X-125666714Y30646667D01*
X-125761952Y30599048D01*
X-125952429Y30599048D01*
X-126047667Y30551429D01*
X-126095286Y30503810D01*
X-126142905Y30408571D01*
X-126142905Y30218095D01*
X-126095286Y30122857D01*
X-126047667Y30075238D01*
X-125952429Y30027619D01*
X-125761952Y30027619D01*
X-125666714Y30075238D01*
X-125619095Y30122857D01*
X-125571476Y30218095D01*
X-125571476Y30408571D01*
X-125619095Y30503810D01*
X-125666714Y30551429D01*
X-125761952Y30599048D01*
X-124952429Y31027619D02*
X-124857190Y31027619D01*
X-124761952Y30980000D01*
X-124714333Y30932381D01*
X-124666714Y30837143D01*
X-124619095Y30646667D01*
X-124619095Y30408571D01*
X-124666714Y30218095D01*
X-124714333Y30122857D01*
X-124761952Y30075238D01*
X-124857190Y30027619D01*
X-124952429Y30027619D01*
X-125047667Y30075238D01*
X-125095286Y30122857D01*
X-125142905Y30218095D01*
X-125190524Y30408571D01*
X-125190524Y30646667D01*
X-125142905Y30837143D01*
X-125095286Y30932381D01*
X-125047667Y30980000D01*
X-124952429Y31027619D01*
X-137437857Y43648334D02*
X-137390238Y43600715D01*
X-137342619Y43457858D01*
X-137342619Y43362620D01*
X-137390238Y43219762D01*
X-137485476Y43124524D01*
X-137580714Y43076905D01*
X-137771190Y43029286D01*
X-137914048Y43029286D01*
X-138104524Y43076905D01*
X-138199762Y43124524D01*
X-138295000Y43219762D01*
X-138342619Y43362620D01*
X-138342619Y43457858D01*
X-138295000Y43600715D01*
X-138247381Y43648334D01*
X-138342619Y43981667D02*
X-138342619Y44600715D01*
X-137961667Y44267381D01*
X-137961667Y44410239D01*
X-137914048Y44505477D01*
X-137866429Y44553096D01*
X-137771190Y44600715D01*
X-137533095Y44600715D01*
X-137437857Y44553096D01*
X-137390238Y44505477D01*
X-137342619Y44410239D01*
X-137342619Y44124524D01*
X-137390238Y44029286D01*
X-137437857Y43981667D01*
X-139247619Y46712381D02*
X-139247619Y46140952D01*
X-139247619Y46426666D02*
X-140247619Y46426666D01*
X-140104762Y46331428D01*
X-140009524Y46236190D01*
X-139961905Y46140952D01*
X-140247619Y47331428D02*
X-140247619Y47426667D01*
X-140200000Y47521905D01*
X-140152381Y47569524D01*
X-140057143Y47617143D01*
X-139866667Y47664762D01*
X-139628571Y47664762D01*
X-139438095Y47617143D01*
X-139342857Y47569524D01*
X-139295238Y47521905D01*
X-139247619Y47426667D01*
X-139247619Y47331428D01*
X-139295238Y47236190D01*
X-139342857Y47188571D01*
X-139438095Y47140952D01*
X-139628571Y47093333D01*
X-139866667Y47093333D01*
X-140057143Y47140952D01*
X-140152381Y47188571D01*
X-140200000Y47236190D01*
X-140247619Y47331428D01*
X-140247619Y48283809D02*
X-140247619Y48379048D01*
X-140200000Y48474286D01*
X-140152381Y48521905D01*
X-140057143Y48569524D01*
X-139866667Y48617143D01*
X-139628571Y48617143D01*
X-139438095Y48569524D01*
X-139342857Y48521905D01*
X-139295238Y48474286D01*
X-139247619Y48379048D01*
X-139247619Y48283809D01*
X-139295238Y48188571D01*
X-139342857Y48140952D01*
X-139438095Y48093333D01*
X-139628571Y48045714D01*
X-139866667Y48045714D01*
X-140057143Y48093333D01*
X-140152381Y48140952D01*
X-140200000Y48188571D01*
X-140247619Y48283809D01*
X-139914286Y49045714D02*
X-139247619Y49045714D01*
X-139819048Y49045714D02*
X-139866667Y49093333D01*
X-139914286Y49188571D01*
X-139914286Y49331429D01*
X-139866667Y49426667D01*
X-139771429Y49474286D01*
X-139247619Y49474286D01*
X-139771429Y50283810D02*
X-139771429Y49950476D01*
X-139247619Y49950476D02*
X-140247619Y49950476D01*
X-140247619Y50426667D01*
X-131627619Y43076905D02*
X-132627619Y43076905D01*
X-132627619Y43315000D01*
X-132580000Y43457858D01*
X-132484762Y43553096D01*
X-132389524Y43600715D01*
X-132199048Y43648334D01*
X-132056190Y43648334D01*
X-131865714Y43600715D01*
X-131770476Y43553096D01*
X-131675238Y43457858D01*
X-131627619Y43315000D01*
X-131627619Y43076905D01*
X-131627619Y44600715D02*
X-131627619Y44029286D01*
X-131627619Y44315000D02*
X-132627619Y44315000D01*
X-132484762Y44219762D01*
X-132389524Y44124524D01*
X-132341905Y44029286D01*
X-134532619Y46831429D02*
X-134532619Y47450477D01*
X-134151667Y47117143D01*
X-134151667Y47260001D01*
X-134104048Y47355239D01*
X-134056429Y47402858D01*
X-133961190Y47450477D01*
X-133723095Y47450477D01*
X-133627857Y47402858D01*
X-133580238Y47355239D01*
X-133532619Y47260001D01*
X-133532619Y46974286D01*
X-133580238Y46879048D01*
X-133627857Y46831429D01*
X-133627857Y47879048D02*
X-133580238Y47926667D01*
X-133532619Y47879048D01*
X-133580238Y47831429D01*
X-133627857Y47879048D01*
X-133532619Y47879048D01*
X-134532619Y48260000D02*
X-134532619Y48879048D01*
X-134151667Y48545714D01*
X-134151667Y48688572D01*
X-134104048Y48783810D01*
X-134056429Y48831429D01*
X-133961190Y48879048D01*
X-133723095Y48879048D01*
X-133627857Y48831429D01*
X-133580238Y48783810D01*
X-133532619Y48688572D01*
X-133532619Y48402857D01*
X-133580238Y48307619D01*
X-133627857Y48260000D01*
X-134199286Y49212381D02*
X-133532619Y49450476D01*
X-134199286Y49688572D01*
X-127182619Y43648334D02*
X-127658810Y43315000D01*
X-127182619Y43076905D02*
X-128182619Y43076905D01*
X-128182619Y43457858D01*
X-128135000Y43553096D01*
X-128087381Y43600715D01*
X-127992143Y43648334D01*
X-127849286Y43648334D01*
X-127754048Y43600715D01*
X-127706429Y43553096D01*
X-127658810Y43457858D01*
X-127658810Y43076905D01*
X-127182619Y44600715D02*
X-127182619Y44029286D01*
X-127182619Y44315000D02*
X-128182619Y44315000D01*
X-128039762Y44219762D01*
X-127944524Y44124524D01*
X-127896905Y44029286D01*
X-129754286Y46998096D02*
X-129087619Y46998096D01*
X-130135238Y46760000D02*
X-129420952Y46521905D01*
X-129420952Y47140953D01*
X-130087619Y47426667D02*
X-130087619Y48093334D01*
X-129087619Y47664762D01*
X-130087619Y48664762D02*
X-130087619Y48760001D01*
X-130040000Y48855239D01*
X-129992381Y48902858D01*
X-129897143Y48950477D01*
X-129706667Y48998096D01*
X-129468571Y48998096D01*
X-129278095Y48950477D01*
X-129182857Y48902858D01*
X-129135238Y48855239D01*
X-129087619Y48760001D01*
X-129087619Y48664762D01*
X-129135238Y48569524D01*
X-129182857Y48521905D01*
X-129278095Y48474286D01*
X-129468571Y48426667D01*
X-129706667Y48426667D01*
X-129897143Y48474286D01*
X-129992381Y48521905D01*
X-130040000Y48569524D01*
X-130087619Y48664762D01*
X-129087619Y49998096D02*
X-129563810Y49664762D01*
X-129087619Y49426667D02*
X-130087619Y49426667D01*
X-130087619Y49807620D01*
X-130040000Y49902858D01*
X-129992381Y49950477D01*
X-129897143Y49998096D01*
X-129754286Y49998096D01*
X-129659048Y49950477D01*
X-129611429Y49902858D01*
X-129563810Y49807620D01*
X-129563810Y49426667D01*
X-127801666Y63047619D02*
X-128135000Y63523810D01*
X-128373095Y63047619D02*
X-128373095Y64047619D01*
X-127992142Y64047619D01*
X-127896904Y64000000D01*
X-127849285Y63952381D01*
X-127801666Y63857143D01*
X-127801666Y63714286D01*
X-127849285Y63619048D01*
X-127896904Y63571429D01*
X-127992142Y63523810D01*
X-128373095Y63523810D01*
X-127420714Y63952381D02*
X-127373095Y64000000D01*
X-127277857Y64047619D01*
X-127039761Y64047619D01*
X-126944523Y64000000D01*
X-126896904Y63952381D01*
X-126849285Y63857143D01*
X-126849285Y63761905D01*
X-126896904Y63619048D01*
X-127468333Y63047619D01*
X-126849285Y63047619D01*
X-125150476Y63047619D02*
X-125721905Y63047619D01*
X-125436191Y63047619D02*
X-125436191Y64047619D01*
X-125531429Y63904762D01*
X-125626667Y63809524D01*
X-125721905Y63761905D01*
X-124531429Y64047619D02*
X-124436190Y64047619D01*
X-124340952Y64000000D01*
X-124293333Y63952381D01*
X-124245714Y63857143D01*
X-124198095Y63666667D01*
X-124198095Y63428571D01*
X-124245714Y63238095D01*
X-124293333Y63142857D01*
X-124340952Y63095238D01*
X-124436190Y63047619D01*
X-124531429Y63047619D01*
X-124626667Y63095238D01*
X-124674286Y63142857D01*
X-124721905Y63238095D01*
X-124769524Y63428571D01*
X-124769524Y63666667D01*
X-124721905Y63857143D01*
X-124674286Y63952381D01*
X-124626667Y64000000D01*
X-124531429Y64047619D01*
X-123769524Y63047619D02*
X-123769524Y64047619D01*
X-123198095Y63047619D02*
X-123626667Y63619048D01*
X-123198095Y64047619D02*
X-123769524Y63476190D01*
X-154471666Y59237619D02*
X-154805000Y59713810D01*
X-155043095Y59237619D02*
X-155043095Y60237619D01*
X-154662142Y60237619D01*
X-154566904Y60190000D01*
X-154519285Y60142381D01*
X-154471666Y60047143D01*
X-154471666Y59904286D01*
X-154519285Y59809048D01*
X-154566904Y59761429D01*
X-154662142Y59713810D01*
X-155043095Y59713810D01*
X-154138333Y60237619D02*
X-153519285Y60237619D01*
X-153852619Y59856667D01*
X-153709761Y59856667D01*
X-153614523Y59809048D01*
X-153566904Y59761429D01*
X-153519285Y59666190D01*
X-153519285Y59428095D01*
X-153566904Y59332857D01*
X-153614523Y59285238D01*
X-153709761Y59237619D01*
X-153995476Y59237619D01*
X-154090714Y59285238D01*
X-154138333Y59332857D01*
X-151820476Y59237619D02*
X-152391905Y59237619D01*
X-152106191Y59237619D02*
X-152106191Y60237619D01*
X-152201429Y60094762D01*
X-152296667Y59999524D01*
X-152391905Y59951905D01*
X-151201429Y60237619D02*
X-151106190Y60237619D01*
X-151010952Y60190000D01*
X-150963333Y60142381D01*
X-150915714Y60047143D01*
X-150868095Y59856667D01*
X-150868095Y59618571D01*
X-150915714Y59428095D01*
X-150963333Y59332857D01*
X-151010952Y59285238D01*
X-151106190Y59237619D01*
X-151201429Y59237619D01*
X-151296667Y59285238D01*
X-151344286Y59332857D01*
X-151391905Y59428095D01*
X-151439524Y59618571D01*
X-151439524Y59856667D01*
X-151391905Y60047143D01*
X-151344286Y60142381D01*
X-151296667Y60190000D01*
X-151201429Y60237619D01*
X-150439524Y59237619D02*
X-150439524Y60237619D01*
X-149868095Y59237619D02*
X-150296667Y59809048D01*
X-149868095Y60237619D02*
X-150439524Y59666190D01*
X-120816666Y63047619D02*
X-121150000Y63523810D01*
X-121388095Y63047619D02*
X-121388095Y64047619D01*
X-121007142Y64047619D01*
X-120911904Y64000000D01*
X-120864285Y63952381D01*
X-120816666Y63857143D01*
X-120816666Y63714286D01*
X-120864285Y63619048D01*
X-120911904Y63571429D01*
X-121007142Y63523810D01*
X-121388095Y63523810D01*
X-119959523Y63714286D02*
X-119959523Y63047619D01*
X-120197619Y64095238D02*
X-120435714Y63380952D01*
X-119816666Y63380952D01*
X-118165476Y63047619D02*
X-118736905Y63047619D01*
X-118451191Y63047619D02*
X-118451191Y64047619D01*
X-118546429Y63904762D01*
X-118641667Y63809524D01*
X-118736905Y63761905D01*
X-117546429Y64047619D02*
X-117451190Y64047619D01*
X-117355952Y64000000D01*
X-117308333Y63952381D01*
X-117260714Y63857143D01*
X-117213095Y63666667D01*
X-117213095Y63428571D01*
X-117260714Y63238095D01*
X-117308333Y63142857D01*
X-117355952Y63095238D01*
X-117451190Y63047619D01*
X-117546429Y63047619D01*
X-117641667Y63095238D01*
X-117689286Y63142857D01*
X-117736905Y63238095D01*
X-117784524Y63428571D01*
X-117784524Y63666667D01*
X-117736905Y63857143D01*
X-117689286Y63952381D01*
X-117641667Y64000000D01*
X-117546429Y64047619D01*
X-116784524Y63047619D02*
X-116784524Y64047619D01*
X-116213095Y63047619D02*
X-116641667Y63619048D01*
X-116213095Y64047619D02*
X-116784524Y63476190D01*
X-122737619Y43648334D02*
X-123213810Y43315000D01*
X-122737619Y43076905D02*
X-123737619Y43076905D01*
X-123737619Y43457858D01*
X-123690000Y43553096D01*
X-123642381Y43600715D01*
X-123547143Y43648334D01*
X-123404286Y43648334D01*
X-123309048Y43600715D01*
X-123261429Y43553096D01*
X-123213810Y43457858D01*
X-123213810Y43076905D01*
X-123737619Y44553096D02*
X-123737619Y44076905D01*
X-123261429Y44029286D01*
X-123309048Y44076905D01*
X-123356667Y44172143D01*
X-123356667Y44410239D01*
X-123309048Y44505477D01*
X-123261429Y44553096D01*
X-123166190Y44600715D01*
X-122928095Y44600715D01*
X-122832857Y44553096D01*
X-122785238Y44505477D01*
X-122737619Y44410239D01*
X-122737619Y44172143D01*
X-122785238Y44076905D01*
X-122832857Y44029286D01*
X-124642619Y47569524D02*
X-124642619Y46998095D01*
X-124642619Y47283809D02*
X-125642619Y47283809D01*
X-125499762Y47188571D01*
X-125404524Y47093333D01*
X-125356905Y46998095D01*
X-125642619Y48188571D02*
X-125642619Y48283810D01*
X-125595000Y48379048D01*
X-125547381Y48426667D01*
X-125452143Y48474286D01*
X-125261667Y48521905D01*
X-125023571Y48521905D01*
X-124833095Y48474286D01*
X-124737857Y48426667D01*
X-124690238Y48379048D01*
X-124642619Y48283810D01*
X-124642619Y48188571D01*
X-124690238Y48093333D01*
X-124737857Y48045714D01*
X-124833095Y47998095D01*
X-125023571Y47950476D01*
X-125261667Y47950476D01*
X-125452143Y47998095D01*
X-125547381Y48045714D01*
X-125595000Y48093333D01*
X-125642619Y48188571D01*
X-124642619Y48950476D02*
X-125642619Y48950476D01*
X-124642619Y49521905D02*
X-125214048Y49093333D01*
X-125642619Y49521905D02*
X-125071190Y48950476D01*
X-123158095Y69397619D02*
X-123491429Y69873810D01*
X-123729524Y69397619D02*
X-123729524Y70397619D01*
X-123348571Y70397619D01*
X-123253333Y70350000D01*
X-123205714Y70302381D01*
X-123158095Y70207143D01*
X-123158095Y70064286D01*
X-123205714Y69969048D01*
X-123253333Y69921429D01*
X-123348571Y69873810D01*
X-123729524Y69873810D01*
X-122348571Y69445238D02*
X-122443809Y69397619D01*
X-122634286Y69397619D01*
X-122729524Y69445238D01*
X-122777143Y69540476D01*
X-122777143Y69921429D01*
X-122729524Y70016667D01*
X-122634286Y70064286D01*
X-122443809Y70064286D01*
X-122348571Y70016667D01*
X-122300952Y69921429D01*
X-122300952Y69826190D01*
X-122777143Y69730952D01*
X-121920000Y69445238D02*
X-121824762Y69397619D01*
X-121634286Y69397619D01*
X-121539047Y69445238D01*
X-121491428Y69540476D01*
X-121491428Y69588095D01*
X-121539047Y69683333D01*
X-121634286Y69730952D01*
X-121777143Y69730952D01*
X-121872381Y69778571D01*
X-121920000Y69873810D01*
X-121920000Y69921429D01*
X-121872381Y70016667D01*
X-121777143Y70064286D01*
X-121634286Y70064286D01*
X-121539047Y70016667D01*
X-120681904Y69445238D02*
X-120777142Y69397619D01*
X-120967619Y69397619D01*
X-121062857Y69445238D01*
X-121110476Y69540476D01*
X-121110476Y69921429D01*
X-121062857Y70016667D01*
X-120967619Y70064286D01*
X-120777142Y70064286D01*
X-120681904Y70016667D01*
X-120634285Y69921429D01*
X-120634285Y69826190D01*
X-121110476Y69730952D01*
X-120348571Y70064286D02*
X-119967619Y70064286D01*
X-120205714Y70397619D02*
X-120205714Y69540476D01*
X-120158095Y69445238D01*
X-120062857Y69397619D01*
X-119967619Y69397619D01*
X-123348571Y59761429D02*
X-123681905Y59761429D01*
X-123681905Y59237619D02*
X-123681905Y60237619D01*
X-123205714Y60237619D01*
X-122681905Y59237619D02*
X-122777143Y59285238D01*
X-122824762Y59380476D01*
X-122824762Y60237619D01*
X-121872380Y59237619D02*
X-121872380Y59761429D01*
X-121919999Y59856667D01*
X-122015237Y59904286D01*
X-122205714Y59904286D01*
X-122300952Y59856667D01*
X-121872380Y59285238D02*
X-121967618Y59237619D01*
X-122205714Y59237619D01*
X-122300952Y59285238D01*
X-122348571Y59380476D01*
X-122348571Y59475714D01*
X-122300952Y59570952D01*
X-122205714Y59618571D01*
X-121967618Y59618571D01*
X-121872380Y59666190D01*
X-121443809Y59285238D02*
X-121348571Y59237619D01*
X-121158095Y59237619D01*
X-121062856Y59285238D01*
X-121015237Y59380476D01*
X-121015237Y59428095D01*
X-121062856Y59523333D01*
X-121158095Y59570952D01*
X-121300952Y59570952D01*
X-121396190Y59618571D01*
X-121443809Y59713810D01*
X-121443809Y59761429D01*
X-121396190Y59856667D01*
X-121300952Y59904286D01*
X-121158095Y59904286D01*
X-121062856Y59856667D01*
X-120586666Y59237619D02*
X-120586666Y60237619D01*
X-120158094Y59237619D02*
X-120158094Y59761429D01*
X-120205713Y59856667D01*
X-120300951Y59904286D01*
X-120443809Y59904286D01*
X-120539047Y59856667D01*
X-120586666Y59809048D01*
X-157606905Y48807619D02*
X-157606905Y47998095D01*
X-157559286Y47902857D01*
X-157511667Y47855238D01*
X-157416429Y47807619D01*
X-157225952Y47807619D01*
X-157130714Y47855238D01*
X-157083095Y47902857D01*
X-157035476Y47998095D01*
X-157035476Y48807619D01*
X-156035476Y47807619D02*
X-156606905Y47807619D01*
X-156321191Y47807619D02*
X-156321191Y48807619D01*
X-156416429Y48664762D01*
X-156511667Y48569524D01*
X-156606905Y48521905D01*
X-156034762Y43648333D02*
X-155558571Y43648333D01*
X-156130000Y43362619D02*
X-155796667Y44362619D01*
X-155463333Y43362619D01*
X-155130000Y43362619D02*
X-155130000Y44362619D01*
X-154796666Y43648333D01*
X-154463333Y44362619D01*
X-154463333Y43362619D01*
X-154034762Y43410238D02*
X-153891905Y43362619D01*
X-153653809Y43362619D01*
X-153558571Y43410238D01*
X-153510952Y43457857D01*
X-153463333Y43553095D01*
X-153463333Y43648333D01*
X-153510952Y43743571D01*
X-153558571Y43791190D01*
X-153653809Y43838810D01*
X-153844286Y43886429D01*
X-153939524Y43934048D01*
X-153987143Y43981667D01*
X-154034762Y44076905D01*
X-154034762Y44172143D01*
X-153987143Y44267381D01*
X-153939524Y44315000D01*
X-153844286Y44362619D01*
X-153606190Y44362619D01*
X-153463333Y44315000D01*
X-152510952Y43362619D02*
X-153082381Y43362619D01*
X-152796667Y43362619D02*
X-152796667Y44362619D01*
X-152891905Y44219762D01*
X-152987143Y44124524D01*
X-153082381Y44076905D01*
X-151558571Y43362619D02*
X-152130000Y43362619D01*
X-151844286Y43362619D02*
X-151844286Y44362619D01*
X-151939524Y44219762D01*
X-152034762Y44124524D01*
X-152130000Y44076905D01*
X-150606190Y43362619D02*
X-151177619Y43362619D01*
X-150891905Y43362619D02*
X-150891905Y44362619D01*
X-150987143Y44219762D01*
X-151082381Y44124524D01*
X-151177619Y44076905D01*
X-150272857Y44362619D02*
X-149606190Y44362619D01*
X-150034762Y43362619D01*
X-148510952Y44410238D02*
X-149368095Y43124524D01*
X-148272857Y44362619D02*
X-147653809Y44362619D01*
X-147987143Y43981667D01*
X-147844285Y43981667D01*
X-147749047Y43934048D01*
X-147701428Y43886429D01*
X-147653809Y43791190D01*
X-147653809Y43553095D01*
X-147701428Y43457857D01*
X-147749047Y43410238D01*
X-147844285Y43362619D01*
X-148130000Y43362619D01*
X-148225238Y43410238D01*
X-148272857Y43457857D01*
X-147225238Y43457857D02*
X-147177619Y43410238D01*
X-147225238Y43362619D01*
X-147272857Y43410238D01*
X-147225238Y43457857D01*
X-147225238Y43362619D01*
X-146844286Y44362619D02*
X-146225238Y44362619D01*
X-146558572Y43981667D01*
X-146415714Y43981667D01*
X-146320476Y43934048D01*
X-146272857Y43886429D01*
X-146225238Y43791190D01*
X-146225238Y43553095D01*
X-146272857Y43457857D01*
X-146320476Y43410238D01*
X-146415714Y43362619D01*
X-146701429Y43362619D01*
X-146796667Y43410238D01*
X-146844286Y43457857D01*
X-159027857Y48093334D02*
X-158980238Y48045715D01*
X-158932619Y47902858D01*
X-158932619Y47807620D01*
X-158980238Y47664762D01*
X-159075476Y47569524D01*
X-159170714Y47521905D01*
X-159361190Y47474286D01*
X-159504048Y47474286D01*
X-159694524Y47521905D01*
X-159789762Y47569524D01*
X-159885000Y47664762D01*
X-159932619Y47807620D01*
X-159932619Y47902858D01*
X-159885000Y48045715D01*
X-159837381Y48093334D01*
X-158932619Y49045715D02*
X-158932619Y48474286D01*
X-158932619Y48760000D02*
X-159932619Y48760000D01*
X-159789762Y48664762D01*
X-159694524Y48569524D01*
X-159646905Y48474286D01*
X-161682619Y50570238D02*
X-161682619Y49998809D01*
X-161682619Y50284523D02*
X-162682619Y50284523D01*
X-162539762Y50189285D01*
X-162444524Y50094047D01*
X-162396905Y49998809D01*
X-162682619Y51189285D02*
X-162682619Y51284524D01*
X-162635000Y51379762D01*
X-162587381Y51427381D01*
X-162492143Y51475000D01*
X-162301667Y51522619D01*
X-162063571Y51522619D01*
X-161873095Y51475000D01*
X-161777857Y51427381D01*
X-161730238Y51379762D01*
X-161682619Y51284524D01*
X-161682619Y51189285D01*
X-161730238Y51094047D01*
X-161777857Y51046428D01*
X-161873095Y50998809D01*
X-162063571Y50951190D01*
X-162301667Y50951190D01*
X-162492143Y50998809D01*
X-162587381Y51046428D01*
X-162635000Y51094047D01*
X-162682619Y51189285D01*
X-162682619Y52141666D02*
X-162682619Y52236905D01*
X-162635000Y52332143D01*
X-162587381Y52379762D01*
X-162492143Y52427381D01*
X-162301667Y52475000D01*
X-162063571Y52475000D01*
X-161873095Y52427381D01*
X-161777857Y52379762D01*
X-161730238Y52332143D01*
X-161682619Y52236905D01*
X-161682619Y52141666D01*
X-161730238Y52046428D01*
X-161777857Y51998809D01*
X-161873095Y51951190D01*
X-162063571Y51903571D01*
X-162301667Y51903571D01*
X-162492143Y51951190D01*
X-162587381Y51998809D01*
X-162635000Y52046428D01*
X-162682619Y52141666D01*
X-162349286Y53332143D02*
X-161682619Y53332143D01*
X-162349286Y52903571D02*
X-161825476Y52903571D01*
X-161730238Y52951190D01*
X-161682619Y53046428D01*
X-161682619Y53189286D01*
X-161730238Y53284524D01*
X-161777857Y53332143D01*
X-162206429Y54141667D02*
X-162206429Y53808333D01*
X-161682619Y53808333D02*
X-162682619Y53808333D01*
X-162682619Y54284524D01*
X-162730238Y55379762D02*
X-161444524Y54522619D01*
X-161682619Y56236905D02*
X-161682619Y55665476D01*
X-161682619Y55951190D02*
X-162682619Y55951190D01*
X-162539762Y55855952D01*
X-162444524Y55760714D01*
X-162396905Y55665476D01*
X-162682619Y57094048D02*
X-162682619Y56903571D01*
X-162635000Y56808333D01*
X-162587381Y56760714D01*
X-162444524Y56665476D01*
X-162254048Y56617857D01*
X-161873095Y56617857D01*
X-161777857Y56665476D01*
X-161730238Y56713095D01*
X-161682619Y56808333D01*
X-161682619Y56998810D01*
X-161730238Y57094048D01*
X-161777857Y57141667D01*
X-161873095Y57189286D01*
X-162111190Y57189286D01*
X-162206429Y57141667D01*
X-162254048Y57094048D01*
X-162301667Y56998810D01*
X-162301667Y56808333D01*
X-162254048Y56713095D01*
X-162206429Y56665476D01*
X-162111190Y56617857D01*
X-162349286Y57522619D02*
X-161682619Y57760714D01*
X-162349286Y57998810D01*
X-142517857Y43648334D02*
X-142470238Y43600715D01*
X-142422619Y43457858D01*
X-142422619Y43362620D01*
X-142470238Y43219762D01*
X-142565476Y43124524D01*
X-142660714Y43076905D01*
X-142851190Y43029286D01*
X-142994048Y43029286D01*
X-143184524Y43076905D01*
X-143279762Y43124524D01*
X-143375000Y43219762D01*
X-143422619Y43362620D01*
X-143422619Y43457858D01*
X-143375000Y43600715D01*
X-143327381Y43648334D01*
X-143327381Y44029286D02*
X-143375000Y44076905D01*
X-143422619Y44172143D01*
X-143422619Y44410239D01*
X-143375000Y44505477D01*
X-143327381Y44553096D01*
X-143232143Y44600715D01*
X-143136905Y44600715D01*
X-142994048Y44553096D01*
X-142422619Y43981667D01*
X-142422619Y44600715D01*
X-144327619Y45093334D02*
X-144327619Y44521905D01*
X-144327619Y44807619D02*
X-145327619Y44807619D01*
X-145184762Y44712381D01*
X-145089524Y44617143D01*
X-145041905Y44521905D01*
X-145327619Y45712381D02*
X-145327619Y45807620D01*
X-145280000Y45902858D01*
X-145232381Y45950477D01*
X-145137143Y45998096D01*
X-144946667Y46045715D01*
X-144708571Y46045715D01*
X-144518095Y45998096D01*
X-144422857Y45950477D01*
X-144375238Y45902858D01*
X-144327619Y45807620D01*
X-144327619Y45712381D01*
X-144375238Y45617143D01*
X-144422857Y45569524D01*
X-144518095Y45521905D01*
X-144708571Y45474286D01*
X-144946667Y45474286D01*
X-145137143Y45521905D01*
X-145232381Y45569524D01*
X-145280000Y45617143D01*
X-145327619Y45712381D01*
X-144994286Y46902858D02*
X-144327619Y46902858D01*
X-144994286Y46474286D02*
X-144470476Y46474286D01*
X-144375238Y46521905D01*
X-144327619Y46617143D01*
X-144327619Y46760001D01*
X-144375238Y46855239D01*
X-144422857Y46902858D01*
X-144851429Y47712382D02*
X-144851429Y47379048D01*
X-144327619Y47379048D02*
X-145327619Y47379048D01*
X-145327619Y47855239D01*
X-145375238Y48950477D02*
X-144089524Y48093334D01*
X-145327619Y49712382D02*
X-145327619Y49521905D01*
X-145280000Y49426667D01*
X-145232381Y49379048D01*
X-145089524Y49283810D01*
X-144899048Y49236191D01*
X-144518095Y49236191D01*
X-144422857Y49283810D01*
X-144375238Y49331429D01*
X-144327619Y49426667D01*
X-144327619Y49617144D01*
X-144375238Y49712382D01*
X-144422857Y49760001D01*
X-144518095Y49807620D01*
X-144756190Y49807620D01*
X-144851429Y49760001D01*
X-144899048Y49712382D01*
X-144946667Y49617144D01*
X-144946667Y49426667D01*
X-144899048Y49331429D01*
X-144851429Y49283810D01*
X-144756190Y49236191D01*
X-144422857Y50236191D02*
X-144375238Y50283810D01*
X-144327619Y50236191D01*
X-144375238Y50188572D01*
X-144422857Y50236191D01*
X-144327619Y50236191D01*
X-145327619Y50617143D02*
X-145327619Y51236191D01*
X-144946667Y50902857D01*
X-144946667Y51045715D01*
X-144899048Y51140953D01*
X-144851429Y51188572D01*
X-144756190Y51236191D01*
X-144518095Y51236191D01*
X-144422857Y51188572D01*
X-144375238Y51140953D01*
X-144327619Y51045715D01*
X-144327619Y50760000D01*
X-144375238Y50664762D01*
X-144422857Y50617143D01*
X-144994286Y51569524D02*
X-144327619Y51807619D01*
X-144994286Y52045715D01*
X-161456666Y59237619D02*
X-161790000Y59713810D01*
X-162028095Y59237619D02*
X-162028095Y60237619D01*
X-161647142Y60237619D01*
X-161551904Y60190000D01*
X-161504285Y60142381D01*
X-161456666Y60047143D01*
X-161456666Y59904286D01*
X-161504285Y59809048D01*
X-161551904Y59761429D01*
X-161647142Y59713810D01*
X-162028095Y59713810D01*
X-160599523Y60237619D02*
X-160790000Y60237619D01*
X-160885238Y60190000D01*
X-160932857Y60142381D01*
X-161028095Y59999524D01*
X-161075714Y59809048D01*
X-161075714Y59428095D01*
X-161028095Y59332857D01*
X-160980476Y59285238D01*
X-160885238Y59237619D01*
X-160694761Y59237619D01*
X-160599523Y59285238D01*
X-160551904Y59332857D01*
X-160504285Y59428095D01*
X-160504285Y59666190D01*
X-160551904Y59761429D01*
X-160599523Y59809048D01*
X-160694761Y59856667D01*
X-160885238Y59856667D01*
X-160980476Y59809048D01*
X-161028095Y59761429D01*
X-161075714Y59666190D01*
X-159376904Y59904286D02*
X-159376904Y59237619D01*
X-159615000Y60285238D02*
X-159853095Y59570952D01*
X-159234047Y59570952D01*
X-158948333Y60237619D02*
X-158281666Y60237619D01*
X-158710238Y59237619D01*
X-157710238Y60237619D02*
X-157614999Y60237619D01*
X-157519761Y60190000D01*
X-157472142Y60142381D01*
X-157424523Y60047143D01*
X-157376904Y59856667D01*
X-157376904Y59618571D01*
X-157424523Y59428095D01*
X-157472142Y59332857D01*
X-157519761Y59285238D01*
X-157614999Y59237619D01*
X-157710238Y59237619D01*
X-157805476Y59285238D01*
X-157853095Y59332857D01*
X-157900714Y59428095D01*
X-157948333Y59618571D01*
X-157948333Y59856667D01*
X-157900714Y60047143D01*
X-157853095Y60142381D01*
X-157805476Y60190000D01*
X-157710238Y60237619D01*
X-156376904Y59237619D02*
X-156710238Y59713810D01*
X-156948333Y59237619D02*
X-156948333Y60237619D01*
X-156567380Y60237619D01*
X-156472142Y60190000D01*
X-156424523Y60142381D01*
X-156376904Y60047143D01*
X-156376904Y59904286D01*
X-156424523Y59809048D01*
X-156472142Y59761429D01*
X-156567380Y59713810D01*
X-156948333Y59713810D01*
X-139826905Y69127619D02*
X-139826905Y68318095D01*
X-139779286Y68222857D01*
X-139731667Y68175238D01*
X-139636429Y68127619D01*
X-139445952Y68127619D01*
X-139350714Y68175238D01*
X-139303095Y68222857D01*
X-139255476Y68318095D01*
X-139255476Y69127619D01*
X-138826905Y69032381D02*
X-138779286Y69080000D01*
X-138684048Y69127619D01*
X-138445952Y69127619D01*
X-138350714Y69080000D01*
X-138303095Y69032381D01*
X-138255476Y68937143D01*
X-138255476Y68841905D01*
X-138303095Y68699048D01*
X-138874524Y68127619D01*
X-138255476Y68127619D01*
X-142279286Y65476429D02*
X-141945952Y65476429D01*
X-141803095Y64952619D02*
X-142279286Y64952619D01*
X-142279286Y65952619D01*
X-141803095Y65952619D01*
X-141422143Y65000238D02*
X-141279286Y64952619D01*
X-141041190Y64952619D01*
X-140945952Y65000238D01*
X-140898333Y65047857D01*
X-140850714Y65143095D01*
X-140850714Y65238333D01*
X-140898333Y65333571D01*
X-140945952Y65381190D01*
X-141041190Y65428810D01*
X-141231667Y65476429D01*
X-141326905Y65524048D01*
X-141374524Y65571667D01*
X-141422143Y65666905D01*
X-141422143Y65762143D01*
X-141374524Y65857381D01*
X-141326905Y65905000D01*
X-141231667Y65952619D01*
X-140993571Y65952619D01*
X-140850714Y65905000D01*
X-140422143Y64952619D02*
X-140422143Y65952619D01*
X-140041190Y65952619D01*
X-139945952Y65905000D01*
X-139898333Y65857381D01*
X-139850714Y65762143D01*
X-139850714Y65619286D01*
X-139898333Y65524048D01*
X-139945952Y65476429D01*
X-140041190Y65428810D01*
X-140422143Y65428810D01*
X-139422143Y65333571D02*
X-138660238Y65333571D01*
X-137660238Y64952619D02*
X-138231667Y64952619D01*
X-137945953Y64952619D02*
X-137945953Y65952619D01*
X-138041191Y65809762D01*
X-138136429Y65714524D01*
X-138231667Y65666905D01*
X-137279286Y65857381D02*
X-137231667Y65905000D01*
X-137136429Y65952619D01*
X-136898333Y65952619D01*
X-136803095Y65905000D01*
X-136755476Y65857381D01*
X-136707857Y65762143D01*
X-136707857Y65666905D01*
X-136755476Y65524048D01*
X-137326905Y64952619D01*
X-136707857Y64952619D01*
X-136279286Y65476429D02*
X-135945952Y65476429D01*
X-135803095Y64952619D02*
X-136279286Y64952619D01*
X-136279286Y65952619D01*
X-135803095Y65952619D01*
X-150193333Y70397619D02*
X-150193333Y69683333D01*
X-150240953Y69540476D01*
X-150336191Y69445238D01*
X-150479048Y69397619D01*
X-150574286Y69397619D01*
X-149764762Y70302381D02*
X-149717143Y70350000D01*
X-149621905Y70397619D01*
X-149383809Y70397619D01*
X-149288571Y70350000D01*
X-149240952Y70302381D01*
X-149193333Y70207143D01*
X-149193333Y70111905D01*
X-149240952Y69969048D01*
X-149812381Y69397619D01*
X-149193333Y69397619D01*
X-155733333Y54157619D02*
X-155733333Y55157619D01*
X-155257143Y54157619D02*
X-155257143Y55157619D01*
X-154685714Y54157619D01*
X-154685714Y55157619D01*
X-152971428Y55157619D02*
X-153447619Y55157619D01*
X-153495238Y54681429D01*
X-153447619Y54729048D01*
X-153352381Y54776667D01*
X-153114285Y54776667D01*
X-153019047Y54729048D01*
X-152971428Y54681429D01*
X-152923809Y54586190D01*
X-152923809Y54348095D01*
X-152971428Y54252857D01*
X-153019047Y54205238D01*
X-153114285Y54157619D01*
X-153352381Y54157619D01*
X-153447619Y54205238D01*
X-153495238Y54252857D01*
X-152495238Y54538571D02*
X-151733333Y54538571D01*
X-150733333Y54157619D02*
X-151304762Y54157619D01*
X-151019048Y54157619D02*
X-151019048Y55157619D01*
X-151114286Y55014762D01*
X-151209524Y54919524D01*
X-151304762Y54871905D01*
X-150352381Y55062381D02*
X-150304762Y55110000D01*
X-150209524Y55157619D01*
X-149971428Y55157619D01*
X-149876190Y55110000D01*
X-149828571Y55062381D01*
X-149780952Y54967143D01*
X-149780952Y54871905D01*
X-149828571Y54729048D01*
X-150400000Y54157619D01*
X-149780952Y54157619D01*
X-149447619Y54824286D02*
X-149209524Y54157619D01*
X-148971428Y54824286D01*
X-138366191Y26217619D02*
X-138366191Y27217619D01*
X-138128096Y27217619D01*
X-137985238Y27170000D01*
X-137890000Y27074762D01*
X-137842381Y26979524D01*
X-137794762Y26789048D01*
X-137794762Y26646190D01*
X-137842381Y26455714D01*
X-137890000Y26360476D01*
X-137985238Y26265238D01*
X-138128096Y26217619D01*
X-138366191Y26217619D01*
X-136937619Y26884286D02*
X-136937619Y26217619D01*
X-137175715Y27265238D02*
X-137413810Y26550952D01*
X-136794762Y26550952D01*
X-135175714Y26217619D02*
X-135651905Y26217619D01*
X-135651905Y27217619D01*
X-134842381Y26741429D02*
X-134509047Y26741429D01*
X-134366190Y26217619D02*
X-134842381Y26217619D01*
X-134842381Y27217619D01*
X-134366190Y27217619D01*
X-133937619Y26217619D02*
X-133937619Y27217619D01*
X-133699524Y27217619D01*
X-133556666Y27170000D01*
X-133461428Y27074762D01*
X-133413809Y26979524D01*
X-133366190Y26789048D01*
X-133366190Y26646190D01*
X-133413809Y26455714D01*
X-133461428Y26360476D01*
X-133556666Y26265238D01*
X-133699524Y26217619D01*
X-133937619Y26217619D01*
X-129706666Y26217619D02*
X-130040000Y26693810D01*
X-130278095Y26217619D02*
X-130278095Y27217619D01*
X-129897142Y27217619D01*
X-129801904Y27170000D01*
X-129754285Y27122381D01*
X-129706666Y27027143D01*
X-129706666Y26884286D01*
X-129754285Y26789048D01*
X-129801904Y26741429D01*
X-129897142Y26693810D01*
X-130278095Y26693810D01*
X-129373333Y27217619D02*
X-128706666Y27217619D01*
X-129135238Y26217619D01*
X-126991904Y26884286D02*
X-126991904Y26217619D01*
X-127230000Y27265238D02*
X-127468095Y26550952D01*
X-126849047Y26550952D01*
X-126563333Y27217619D02*
X-125896666Y27217619D01*
X-126325238Y26217619D01*
X-125325238Y27217619D02*
X-125229999Y27217619D01*
X-125134761Y27170000D01*
X-125087142Y27122381D01*
X-125039523Y27027143D01*
X-124991904Y26836667D01*
X-124991904Y26598571D01*
X-125039523Y26408095D01*
X-125087142Y26312857D01*
X-125134761Y26265238D01*
X-125229999Y26217619D01*
X-125325238Y26217619D01*
X-125420476Y26265238D01*
X-125468095Y26312857D01*
X-125515714Y26408095D01*
X-125563333Y26598571D01*
X-125563333Y26836667D01*
X-125515714Y27027143D01*
X-125468095Y27122381D01*
X-125420476Y27170000D01*
X-125325238Y27217619D01*
X-123991904Y26217619D02*
X-124325238Y26693810D01*
X-124563333Y26217619D02*
X-124563333Y27217619D01*
X-124182380Y27217619D01*
X-124087142Y27170000D01*
X-124039523Y27122381D01*
X-123991904Y27027143D01*
X-123991904Y26884286D01*
X-124039523Y26789048D01*
X-124087142Y26741429D01*
X-124182380Y26693810D01*
X-124563333Y26693810D01*
X-155273333Y41822619D02*
X-155273333Y41108333D01*
X-155320953Y40965476D01*
X-155416191Y40870238D01*
X-155559048Y40822619D01*
X-155654286Y40822619D01*
X-154892381Y41822619D02*
X-154273333Y41822619D01*
X-154606667Y41441667D01*
X-154463809Y41441667D01*
X-154368571Y41394048D01*
X-154320952Y41346429D01*
X-154273333Y41251190D01*
X-154273333Y41013095D01*
X-154320952Y40917857D01*
X-154368571Y40870238D01*
X-154463809Y40822619D01*
X-154749524Y40822619D01*
X-154844762Y40870238D01*
X-154892381Y40917857D01*
X-145969762Y40822619D02*
X-146445953Y40822619D01*
X-146445953Y41822619D01*
X-145065000Y40917857D02*
X-145112619Y40870238D01*
X-145255476Y40822619D01*
X-145350714Y40822619D01*
X-145493572Y40870238D01*
X-145588810Y40965476D01*
X-145636429Y41060714D01*
X-145684048Y41251190D01*
X-145684048Y41394048D01*
X-145636429Y41584524D01*
X-145588810Y41679762D01*
X-145493572Y41775000D01*
X-145350714Y41822619D01*
X-145255476Y41822619D01*
X-145112619Y41775000D01*
X-145065000Y41727381D01*
X-144636429Y40822619D02*
X-144636429Y41822619D01*
X-144398334Y41822619D01*
X-144255476Y41775000D01*
X-144160238Y41679762D01*
X-144112619Y41584524D01*
X-144065000Y41394048D01*
X-144065000Y41251190D01*
X-144112619Y41060714D01*
X-144160238Y40965476D01*
X-144255476Y40870238D01*
X-144398334Y40822619D01*
X-144636429Y40822619D01*
X-143017381Y41822619D02*
X-142445952Y41822619D01*
X-142731667Y40822619D02*
X-142731667Y41822619D01*
X-141779285Y41346429D02*
X-142112619Y41346429D01*
X-142112619Y40822619D02*
X-142112619Y41822619D01*
X-141636428Y41822619D01*
X-141398333Y41822619D02*
X-140826904Y41822619D01*
X-141112619Y40822619D02*
X-141112619Y41822619D01*
X-139779285Y41870238D02*
X-140636428Y40584524D01*
X-139588809Y41822619D02*
X-139017380Y41822619D01*
X-139303095Y40822619D02*
X-139303095Y41822619D01*
X-138541190Y40822619D02*
X-138636428Y40870238D01*
X-138684047Y40917857D01*
X-138731666Y41013095D01*
X-138731666Y41298810D01*
X-138684047Y41394048D01*
X-138636428Y41441667D01*
X-138541190Y41489286D01*
X-138398332Y41489286D01*
X-138303094Y41441667D01*
X-138255475Y41394048D01*
X-138207856Y41298810D01*
X-138207856Y41013095D01*
X-138255475Y40917857D01*
X-138303094Y40870238D01*
X-138398332Y40822619D01*
X-138541190Y40822619D01*
X-137350713Y41489286D02*
X-137350713Y40822619D01*
X-137779285Y41489286D02*
X-137779285Y40965476D01*
X-137731666Y40870238D01*
X-137636428Y40822619D01*
X-137493570Y40822619D01*
X-137398332Y40870238D01*
X-137350713Y40917857D01*
X-136445951Y40870238D02*
X-136541189Y40822619D01*
X-136731666Y40822619D01*
X-136826904Y40870238D01*
X-136874523Y40917857D01*
X-136922142Y41013095D01*
X-136922142Y41298810D01*
X-136874523Y41394048D01*
X-136826904Y41441667D01*
X-136731666Y41489286D01*
X-136541189Y41489286D01*
X-136445951Y41441667D01*
X-136017380Y40822619D02*
X-136017380Y41822619D01*
X-135588808Y40822619D02*
X-135588808Y41346429D01*
X-135636427Y41441667D01*
X-135731665Y41489286D01*
X-135874523Y41489286D01*
X-135969761Y41441667D01*
X-136017380Y41394048D01*
X-134398332Y41727381D02*
X-134350713Y41775000D01*
X-134255475Y41822619D01*
X-134017379Y41822619D01*
X-133922141Y41775000D01*
X-133874522Y41727381D01*
X-133826903Y41632143D01*
X-133826903Y41536905D01*
X-133874522Y41394048D01*
X-134445951Y40822619D01*
X-133826903Y40822619D01*
X-133350713Y40870238D02*
X-133350713Y40822619D01*
X-133398332Y40727381D01*
X-133445951Y40679762D01*
X-132779285Y41394048D02*
X-132874523Y41441667D01*
X-132922142Y41489286D01*
X-132969761Y41584524D01*
X-132969761Y41632143D01*
X-132922142Y41727381D01*
X-132874523Y41775000D01*
X-132779285Y41822619D01*
X-132588808Y41822619D01*
X-132493570Y41775000D01*
X-132445951Y41727381D01*
X-132398332Y41632143D01*
X-132398332Y41584524D01*
X-132445951Y41489286D01*
X-132493570Y41441667D01*
X-132588808Y41394048D01*
X-132779285Y41394048D01*
X-132874523Y41346429D01*
X-132922142Y41298810D01*
X-132969761Y41203571D01*
X-132969761Y41013095D01*
X-132922142Y40917857D01*
X-132874523Y40870238D01*
X-132779285Y40822619D01*
X-132588808Y40822619D01*
X-132493570Y40870238D01*
X-132445951Y40917857D01*
X-132398332Y41013095D01*
X-132398332Y41203571D01*
X-132445951Y41298810D01*
X-132493570Y41346429D01*
X-132588808Y41394048D01*
X-132017380Y41822619D02*
X-132017380Y41632143D01*
X-131636427Y41822619D02*
X-131636427Y41632143D01*
X-152566666Y28122619D02*
X-152900000Y28598810D01*
X-153138095Y28122619D02*
X-153138095Y29122619D01*
X-152757142Y29122619D01*
X-152661904Y29075000D01*
X-152614285Y29027381D01*
X-152566666Y28932143D01*
X-152566666Y28789286D01*
X-152614285Y28694048D01*
X-152661904Y28646429D01*
X-152757142Y28598810D01*
X-153138095Y28598810D01*
X-151995238Y28694048D02*
X-152090476Y28741667D01*
X-152138095Y28789286D01*
X-152185714Y28884524D01*
X-152185714Y28932143D01*
X-152138095Y29027381D01*
X-152090476Y29075000D01*
X-151995238Y29122619D01*
X-151804761Y29122619D01*
X-151709523Y29075000D01*
X-151661904Y29027381D01*
X-151614285Y28932143D01*
X-151614285Y28884524D01*
X-151661904Y28789286D01*
X-151709523Y28741667D01*
X-151804761Y28694048D01*
X-151995238Y28694048D01*
X-152090476Y28646429D01*
X-152138095Y28598810D01*
X-152185714Y28503571D01*
X-152185714Y28313095D01*
X-152138095Y28217857D01*
X-152090476Y28170238D01*
X-151995238Y28122619D01*
X-151804761Y28122619D01*
X-151709523Y28170238D01*
X-151661904Y28217857D01*
X-151614285Y28313095D01*
X-151614285Y28503571D01*
X-151661904Y28598810D01*
X-151709523Y28646429D01*
X-151804761Y28694048D01*
X-150407619Y29122619D02*
X-150312380Y29122619D01*
X-150217142Y29075000D01*
X-150169523Y29027381D01*
X-150121904Y28932143D01*
X-150074285Y28741667D01*
X-150074285Y28503571D01*
X-150121904Y28313095D01*
X-150169523Y28217857D01*
X-150217142Y28170238D01*
X-150312380Y28122619D01*
X-150407619Y28122619D01*
X-150502857Y28170238D01*
X-150550476Y28217857D01*
X-150598095Y28313095D01*
X-150645714Y28503571D01*
X-150645714Y28741667D01*
X-150598095Y28932143D01*
X-150550476Y29027381D01*
X-150502857Y29075000D01*
X-150407619Y29122619D01*
X-149074285Y28122619D02*
X-149407619Y28598810D01*
X-149645714Y28122619D02*
X-149645714Y29122619D01*
X-149264761Y29122619D01*
X-149169523Y29075000D01*
X-149121904Y29027381D01*
X-149074285Y28932143D01*
X-149074285Y28789286D01*
X-149121904Y28694048D01*
X-149169523Y28646429D01*
X-149264761Y28598810D01*
X-149645714Y28598810D01*
X-158980238Y25336667D02*
X-158932619Y25479524D01*
X-158932619Y25717620D01*
X-158980238Y25812858D01*
X-159027857Y25860477D01*
X-159123095Y25908096D01*
X-159218333Y25908096D01*
X-159313571Y25860477D01*
X-159361190Y25812858D01*
X-159408810Y25717620D01*
X-159456429Y25527143D01*
X-159504048Y25431905D01*
X-159551667Y25384286D01*
X-159646905Y25336667D01*
X-159742143Y25336667D01*
X-159837381Y25384286D01*
X-159885000Y25431905D01*
X-159932619Y25527143D01*
X-159932619Y25765239D01*
X-159885000Y25908096D01*
X-159932619Y26241429D02*
X-158932619Y26479524D01*
X-159646905Y26670001D01*
X-158932619Y26860477D01*
X-159932619Y27098572D01*
X-159932619Y27384286D02*
X-159932619Y28003334D01*
X-159551667Y27670000D01*
X-159551667Y27812858D01*
X-159504048Y27908096D01*
X-159456429Y27955715D01*
X-159361190Y28003334D01*
X-159123095Y28003334D01*
X-159027857Y27955715D01*
X-158980238Y27908096D01*
X-158932619Y27812858D01*
X-158932619Y27527143D01*
X-158980238Y27431905D01*
X-159027857Y27384286D01*
X-159456429Y31020001D02*
X-159408810Y31162858D01*
X-159361190Y31210477D01*
X-159265952Y31258096D01*
X-159123095Y31258096D01*
X-159027857Y31210477D01*
X-158980238Y31162858D01*
X-158932619Y31067620D01*
X-158932619Y30686667D01*
X-159932619Y30686667D01*
X-159932619Y31020001D01*
X-159885000Y31115239D01*
X-159837381Y31162858D01*
X-159742143Y31210477D01*
X-159646905Y31210477D01*
X-159551667Y31162858D01*
X-159504048Y31115239D01*
X-159456429Y31020001D01*
X-159456429Y30686667D01*
X-159837381Y31639048D02*
X-159885000Y31686667D01*
X-159932619Y31781905D01*
X-159932619Y32020001D01*
X-159885000Y32115239D01*
X-159837381Y32162858D01*
X-159742143Y32210477D01*
X-159646905Y32210477D01*
X-159504048Y32162858D01*
X-158932619Y31591429D01*
X-158932619Y32210477D01*
X-159313571Y32639048D02*
X-159313571Y33400953D01*
X-158932619Y33877143D02*
X-159932619Y33877143D01*
X-159932619Y34115238D01*
X-159885000Y34258096D01*
X-159789762Y34353334D01*
X-159694524Y34400953D01*
X-159504048Y34448572D01*
X-159361190Y34448572D01*
X-159170714Y34400953D01*
X-159075476Y34353334D01*
X-158980238Y34258096D01*
X-158932619Y34115238D01*
X-158932619Y33877143D01*
X-159837381Y34829524D02*
X-159885000Y34877143D01*
X-159932619Y34972381D01*
X-159932619Y35210477D01*
X-159885000Y35305715D01*
X-159837381Y35353334D01*
X-159742143Y35400953D01*
X-159646905Y35400953D01*
X-159504048Y35353334D01*
X-158932619Y34781905D01*
X-158932619Y35400953D01*
X-118340238Y25336667D02*
X-118292619Y25479524D01*
X-118292619Y25717620D01*
X-118340238Y25812858D01*
X-118387857Y25860477D01*
X-118483095Y25908096D01*
X-118578333Y25908096D01*
X-118673571Y25860477D01*
X-118721190Y25812858D01*
X-118768810Y25717620D01*
X-118816429Y25527143D01*
X-118864048Y25431905D01*
X-118911667Y25384286D01*
X-119006905Y25336667D01*
X-119102143Y25336667D01*
X-119197381Y25384286D01*
X-119245000Y25431905D01*
X-119292619Y25527143D01*
X-119292619Y25765239D01*
X-119245000Y25908096D01*
X-119292619Y26241429D02*
X-118292619Y26479524D01*
X-119006905Y26670001D01*
X-118292619Y26860477D01*
X-119292619Y27098572D01*
X-118959286Y27908096D02*
X-118292619Y27908096D01*
X-119340238Y27670000D02*
X-118625952Y27431905D01*
X-118625952Y28050953D01*
X-118816429Y31020001D02*
X-118768810Y31162858D01*
X-118721190Y31210477D01*
X-118625952Y31258096D01*
X-118483095Y31258096D01*
X-118387857Y31210477D01*
X-118340238Y31162858D01*
X-118292619Y31067620D01*
X-118292619Y30686667D01*
X-119292619Y30686667D01*
X-119292619Y31020001D01*
X-119245000Y31115239D01*
X-119197381Y31162858D01*
X-119102143Y31210477D01*
X-119006905Y31210477D01*
X-118911667Y31162858D01*
X-118864048Y31115239D01*
X-118816429Y31020001D01*
X-118816429Y30686667D01*
X-119197381Y31639048D02*
X-119245000Y31686667D01*
X-119292619Y31781905D01*
X-119292619Y32020001D01*
X-119245000Y32115239D01*
X-119197381Y32162858D01*
X-119102143Y32210477D01*
X-119006905Y32210477D01*
X-118864048Y32162858D01*
X-118292619Y31591429D01*
X-118292619Y32210477D01*
X-118673571Y32639048D02*
X-118673571Y33400953D01*
X-118292619Y33877143D02*
X-119292619Y33877143D01*
X-119292619Y34115238D01*
X-119245000Y34258096D01*
X-119149762Y34353334D01*
X-119054524Y34400953D01*
X-118864048Y34448572D01*
X-118721190Y34448572D01*
X-118530714Y34400953D01*
X-118435476Y34353334D01*
X-118340238Y34258096D01*
X-118292619Y34115238D01*
X-118292619Y33877143D01*
X-119292619Y35305715D02*
X-119292619Y35115238D01*
X-119245000Y35020000D01*
X-119197381Y34972381D01*
X-119054524Y34877143D01*
X-118864048Y34829524D01*
X-118483095Y34829524D01*
X-118387857Y34877143D01*
X-118340238Y34924762D01*
X-118292619Y35020000D01*
X-118292619Y35210477D01*
X-118340238Y35305715D01*
X-118387857Y35353334D01*
X-118483095Y35400953D01*
X-118721190Y35400953D01*
X-118816429Y35353334D01*
X-118864048Y35305715D01*
X-118911667Y35210477D01*
X-118911667Y35020000D01*
X-118864048Y34924762D01*
X-118816429Y34877143D01*
X-118721190Y34829524D01*
X-146748095Y29122619D02*
X-146510000Y28122619D01*
X-146319523Y28836905D01*
X-146129047Y28122619D01*
X-145890952Y29122619D01*
X-145081428Y28122619D02*
X-145081428Y28646429D01*
X-145129047Y28741667D01*
X-145224285Y28789286D01*
X-145414762Y28789286D01*
X-145510000Y28741667D01*
X-145081428Y28170238D02*
X-145176666Y28122619D01*
X-145414762Y28122619D01*
X-145510000Y28170238D01*
X-145557619Y28265476D01*
X-145557619Y28360714D01*
X-145510000Y28455952D01*
X-145414762Y28503571D01*
X-145176666Y28503571D01*
X-145081428Y28551190D01*
X-144605238Y28122619D02*
X-144605238Y29122619D01*
X-144510000Y28503571D02*
X-144224285Y28122619D01*
X-144224285Y28789286D02*
X-144605238Y28408333D01*
X-143414761Y28170238D02*
X-143509999Y28122619D01*
X-143700476Y28122619D01*
X-143795714Y28170238D01*
X-143843333Y28265476D01*
X-143843333Y28646429D01*
X-143795714Y28741667D01*
X-143700476Y28789286D01*
X-143509999Y28789286D01*
X-143414761Y28741667D01*
X-143367142Y28646429D01*
X-143367142Y28551190D01*
X-143843333Y28455952D01*
X-142414761Y29075000D02*
X-142509999Y29122619D01*
X-142652856Y29122619D01*
X-142795714Y29075000D01*
X-142890952Y28979762D01*
X-142938571Y28884524D01*
X-142986190Y28694048D01*
X-142986190Y28551190D01*
X-142938571Y28360714D01*
X-142890952Y28265476D01*
X-142795714Y28170238D01*
X-142652856Y28122619D01*
X-142557618Y28122619D01*
X-142414761Y28170238D01*
X-142367142Y28217857D01*
X-142367142Y28551190D01*
X-142557618Y28551190D01*
X-141938571Y28122619D02*
X-141938571Y29122619D01*
X-141367142Y28122619D01*
X-141367142Y29122619D01*
X-140890952Y28122619D02*
X-140890952Y29122619D01*
X-140652857Y29122619D01*
X-140509999Y29075000D01*
X-140414761Y28979762D01*
X-140367142Y28884524D01*
X-140319523Y28694048D01*
X-140319523Y28551190D01*
X-140367142Y28360714D01*
X-140414761Y28265476D01*
X-140509999Y28170238D01*
X-140652857Y28122619D01*
X-140890952Y28122619D01*
X-152987333Y31027619D02*
X-152987333Y30313333D01*
X-153034953Y30170476D01*
X-153130191Y30075238D01*
X-153273048Y30027619D01*
X-153368286Y30027619D01*
X-152082571Y31027619D02*
X-152273048Y31027619D01*
X-152368286Y30980000D01*
X-152415905Y30932381D01*
X-152511143Y30789524D01*
X-152558762Y30599048D01*
X-152558762Y30218095D01*
X-152511143Y30122857D01*
X-152463524Y30075238D01*
X-152368286Y30027619D01*
X-152177809Y30027619D01*
X-152082571Y30075238D01*
X-152034952Y30122857D01*
X-151987333Y30218095D01*
X-151987333Y30456190D01*
X-152034952Y30551429D01*
X-152082571Y30599048D01*
X-152177809Y30646667D01*
X-152368286Y30646667D01*
X-152463524Y30599048D01*
X-152511143Y30551429D01*
X-152558762Y30456190D01*
X-148700428Y30122857D02*
X-148748047Y30075238D01*
X-148890904Y30027619D01*
X-148986142Y30027619D01*
X-149129000Y30075238D01*
X-149224238Y30170476D01*
X-149271857Y30265714D01*
X-149319476Y30456190D01*
X-149319476Y30599048D01*
X-149271857Y30789524D01*
X-149224238Y30884762D01*
X-149129000Y30980000D01*
X-148986142Y31027619D01*
X-148890904Y31027619D01*
X-148748047Y30980000D01*
X-148700428Y30932381D01*
X-147700428Y30122857D02*
X-147748047Y30075238D01*
X-147890904Y30027619D01*
X-147986142Y30027619D01*
X-148129000Y30075238D01*
X-148224238Y30170476D01*
X-148271857Y30265714D01*
X-148319476Y30456190D01*
X-148319476Y30599048D01*
X-148271857Y30789524D01*
X-148224238Y30884762D01*
X-148129000Y30980000D01*
X-147986142Y31027619D01*
X-147890904Y31027619D01*
X-147748047Y30980000D01*
X-147700428Y30932381D01*
X-147319476Y30075238D02*
X-147176619Y30027619D01*
X-146938523Y30027619D01*
X-146843285Y30075238D01*
X-146795666Y30122857D01*
X-146748047Y30218095D01*
X-146748047Y30313333D01*
X-146795666Y30408571D01*
X-146843285Y30456190D01*
X-146938523Y30503810D01*
X-147129000Y30551429D01*
X-147224238Y30599048D01*
X-147271857Y30646667D01*
X-147319476Y30741905D01*
X-147319476Y30837143D01*
X-147271857Y30932381D01*
X-147224238Y30980000D01*
X-147129000Y31027619D01*
X-146890904Y31027619D01*
X-146748047Y30980000D01*
X-146176619Y30599048D02*
X-146271857Y30646667D01*
X-146319476Y30694286D01*
X-146367095Y30789524D01*
X-146367095Y30837143D01*
X-146319476Y30932381D01*
X-146271857Y30980000D01*
X-146176619Y31027619D01*
X-145986142Y31027619D01*
X-145890904Y30980000D01*
X-145843285Y30932381D01*
X-145795666Y30837143D01*
X-145795666Y30789524D01*
X-145843285Y30694286D01*
X-145890904Y30646667D01*
X-145986142Y30599048D01*
X-146176619Y30599048D01*
X-146271857Y30551429D01*
X-146319476Y30503810D01*
X-146367095Y30408571D01*
X-146367095Y30218095D01*
X-146319476Y30122857D01*
X-146271857Y30075238D01*
X-146176619Y30027619D01*
X-145986142Y30027619D01*
X-145890904Y30075238D01*
X-145843285Y30122857D01*
X-145795666Y30218095D01*
X-145795666Y30408571D01*
X-145843285Y30503810D01*
X-145890904Y30551429D01*
X-145986142Y30599048D01*
X-144843285Y30027619D02*
X-145414714Y30027619D01*
X-145129000Y30027619D02*
X-145129000Y31027619D01*
X-145224238Y30884762D01*
X-145319476Y30789524D01*
X-145414714Y30741905D01*
X-143890904Y30027619D02*
X-144462333Y30027619D01*
X-144176619Y30027619D02*
X-144176619Y31027619D01*
X-144271857Y30884762D01*
X-144367095Y30789524D01*
X-144462333Y30741905D01*
X-142748047Y31075238D02*
X-143605190Y29789524D01*
X-142081380Y30551429D02*
X-141938523Y30503810D01*
X-141890904Y30456190D01*
X-141843285Y30360952D01*
X-141843285Y30218095D01*
X-141890904Y30122857D01*
X-141938523Y30075238D01*
X-142033761Y30027619D01*
X-142414714Y30027619D01*
X-142414714Y31027619D01*
X-142081380Y31027619D01*
X-141986142Y30980000D01*
X-141938523Y30932381D01*
X-141890904Y30837143D01*
X-141890904Y30741905D01*
X-141938523Y30646667D01*
X-141986142Y30599048D01*
X-142081380Y30551429D01*
X-142414714Y30551429D01*
X-141414714Y30027619D02*
X-141414714Y31027619D01*
X-141081380Y30313333D01*
X-140748047Y31027619D01*
X-140748047Y30027619D01*
X-140271857Y30551429D02*
X-139938523Y30551429D01*
X-139795666Y30027619D02*
X-140271857Y30027619D01*
X-140271857Y31027619D01*
X-139795666Y31027619D01*
X-138938523Y31027619D02*
X-139129000Y31027619D01*
X-139224238Y30980000D01*
X-139271857Y30932381D01*
X-139367095Y30789524D01*
X-139414714Y30599048D01*
X-139414714Y30218095D01*
X-139367095Y30122857D01*
X-139319476Y30075238D01*
X-139224238Y30027619D01*
X-139033761Y30027619D01*
X-138938523Y30075238D01*
X-138890904Y30122857D01*
X-138843285Y30218095D01*
X-138843285Y30456190D01*
X-138890904Y30551429D01*
X-138938523Y30599048D01*
X-139033761Y30646667D01*
X-139224238Y30646667D01*
X-139319476Y30599048D01*
X-139367095Y30551429D01*
X-139414714Y30456190D01*
X-138271857Y30599048D02*
X-138367095Y30646667D01*
X-138414714Y30694286D01*
X-138462333Y30789524D01*
X-138462333Y30837143D01*
X-138414714Y30932381D01*
X-138367095Y30980000D01*
X-138271857Y31027619D01*
X-138081380Y31027619D01*
X-137986142Y30980000D01*
X-137938523Y30932381D01*
X-137890904Y30837143D01*
X-137890904Y30789524D01*
X-137938523Y30694286D01*
X-137986142Y30646667D01*
X-138081380Y30599048D01*
X-138271857Y30599048D01*
X-138367095Y30551429D01*
X-138414714Y30503810D01*
X-138462333Y30408571D01*
X-138462333Y30218095D01*
X-138414714Y30122857D01*
X-138367095Y30075238D01*
X-138271857Y30027619D01*
X-138081380Y30027619D01*
X-137986142Y30075238D01*
X-137938523Y30122857D01*
X-137890904Y30218095D01*
X-137890904Y30408571D01*
X-137938523Y30503810D01*
X-137986142Y30551429D01*
X-138081380Y30599048D01*
X-137271857Y31027619D02*
X-137176618Y31027619D01*
X-137081380Y30980000D01*
X-137033761Y30932381D01*
X-136986142Y30837143D01*
X-136938523Y30646667D01*
X-136938523Y30408571D01*
X-136986142Y30218095D01*
X-137033761Y30122857D01*
X-137081380Y30075238D01*
X-137176618Y30027619D01*
X-137271857Y30027619D01*
X-137367095Y30075238D01*
X-137414714Y30122857D01*
X-137462333Y30218095D01*
X-137509952Y30408571D01*
X-137509952Y30646667D01*
X-137462333Y30837143D01*
X-137414714Y30932381D01*
X-137367095Y30980000D01*
X-137271857Y31027619D01*
M02*
