G04 #@! TF.FileFunction,Profile,NP*
%FSLAX46Y46*%
G04 Gerber Fmt 4.6, Leading zero omitted, Abs format (unit mm)*
G04 Created by KiCad (PCBNEW 4.0.7) date 05/23/18 23:06:23*
%MOMM*%
%LPD*%
G01*
G04 APERTURE LIST*
%ADD10C,0.100000*%
%ADD11C,0.150000*%
G04 APERTURE END LIST*
D10*
D11*
X-163830000Y24130000D02*
X-163830000Y40640000D01*
X-114300000Y40640000D02*
X-114300000Y24130000D01*
X-163195000Y23495000D02*
X-114935000Y23495000D01*
X-114935000Y23495000D02*
G75*
G03X-114300000Y24130000I0J635000D01*
G01*
X-163830000Y24130000D02*
G75*
G03X-163195000Y23495000I635000J0D01*
G01*
X-163830000Y70739000D02*
X-163830000Y46990000D01*
X-114935000Y71310500D02*
X-163131500Y71310500D01*
X-114300000Y70675500D02*
X-114300000Y46990000D01*
X-163131500Y71310500D02*
G75*
G03X-163830000Y70739000I-63500J-635000D01*
G01*
X-114300000Y70675500D02*
G75*
G03X-114935000Y71310500I-635000J0D01*
G01*
X-114935000Y46355000D02*
G75*
G03X-114300000Y46990000I0J635000D01*
G01*
X-114300000Y40640000D02*
G75*
G03X-114935000Y41275000I-635000J0D01*
G01*
X-118110000Y46355000D02*
X-114935000Y46355000D01*
X-118110000Y41275000D02*
X-114935000Y41275000D01*
X-120650000Y43815000D02*
G75*
G03X-118110000Y41275000I2540000J0D01*
G01*
X-118110000Y46355000D02*
G75*
G03X-120650000Y43815000I0J-2540000D01*
G01*
X-157480000Y43815000D02*
G75*
G03X-160020000Y46355000I-2540000J0D01*
G01*
X-160020000Y41275000D02*
G75*
G03X-157480000Y43815000I0J2540000D01*
G01*
X-163830000Y46990000D02*
G75*
G03X-163195000Y46355000I635000J0D01*
G01*
X-163195000Y41275000D02*
G75*
G03X-163830000Y40640000I0J-635000D01*
G01*
X-160020000Y46355000D02*
X-163195000Y46355000D01*
X-160020000Y41275000D02*
X-163195000Y41275000D01*
M02*
