M48
;DRILL file {KiCad 4.0.7} date 05/23/18 23:02:19
;FORMAT={-:-/ absolute / metric / decimal}
FMAT,2
METRIC,TZ
T1C0.400
T2C1.000
%
G90
G05
M71
T1
X119.38Y-122.936
X119.38Y-139.065
X121.412Y-111.76
X124.46Y-132.715
X125.73Y-147.32
X129.54Y-132.715
X130.785Y-128.03
X132.755Y-109.94
X132.755Y-111.94
X132.755Y-113.94
X132.755Y-115.94
X133.35Y-129.667
X135.89Y-127.762
X137.795Y-113.728
X137.795Y-129.667
X137.795Y-132.524
X139.192Y-129.667
X140.97Y-127.73
X143.002Y-129.667
X144.335Y-106.934
X146.755Y-105.94
X146.755Y-107.94
X146.755Y-111.94
X146.755Y-117.94
X146.812Y-103.95
X146.812Y-115.951
X151.13Y-127.762
X152.273Y-117.475
X153.035Y-121.92
X155.575Y-123.73
X157.48Y-142.24
X157.48Y-144.78
X158.02Y-112.395
X160.02Y-123.825
X160.02Y-147.955
X161.417Y-117.475
X161.435Y-107.315
T2
X118.745Y-106.68
X121.285Y-106.68
X123.19Y-135.255
X123.825Y-106.68
X125.095Y-116.84
X125.476Y-140.97
X125.73Y-135.255
X126.365Y-106.68
X127.635Y-116.84
X128.016Y-140.97
X128.27Y-135.255
X130.556Y-140.97
X130.81Y-135.255
X133.096Y-140.97
X133.35Y-135.255
X133.985Y-147.32
X135.636Y-140.97
X135.89Y-135.255
X136.525Y-147.32
X138.176Y-140.97
X138.43Y-135.255
X140.716Y-140.97
X140.97Y-135.255
X143.256Y-140.97
X143.51Y-135.255
X146.05Y-135.255
X146.304Y-140.97
X148.59Y-135.255
X148.844Y-140.97
X151.13Y-135.255
X151.384Y-140.97
X153.67Y-135.255
X153.924Y-140.97
X156.21Y-135.255
T0
M30
