G04 #@! TF.FileFunction,Soldermask,Bot*
%FSLAX46Y46*%
G04 Gerber Fmt 4.6, Leading zero omitted, Abs format (unit mm)*
G04 Created by KiCad (PCBNEW 4.0.7) date 05/23/18 23:06:23*
%MOMM*%
%LPD*%
G01*
G04 APERTURE LIST*
%ADD10C,0.100000*%
%ADD11R,2.100000X2.100000*%
%ADD12O,2.100000X2.100000*%
%ADD13R,2.400000X2.100000*%
%ADD14R,2.000000X2.580000*%
G04 APERTURE END LIST*
D10*
D11*
X-124841000Y33020000D03*
D12*
X-127381000Y33020000D03*
X-129921000Y33020000D03*
X-132461000Y33020000D03*
D11*
X-160020000Y67310000D03*
D12*
X-157480000Y67310000D03*
X-154940000Y67310000D03*
X-152400000Y67310000D03*
D11*
X-151130000Y57150000D03*
D12*
X-153670000Y57150000D03*
D13*
X-133890000Y26670000D03*
X-137890000Y26670000D03*
X-129000000Y26670000D03*
X-125000000Y26670000D03*
D11*
X-122555000Y38735000D03*
D12*
X-125095000Y38735000D03*
X-127635000Y38735000D03*
X-130175000Y38735000D03*
X-132715000Y38735000D03*
X-135255000Y38735000D03*
X-137795000Y38735000D03*
X-140335000Y38735000D03*
X-142875000Y38735000D03*
X-145415000Y38735000D03*
X-147955000Y38735000D03*
X-150495000Y38735000D03*
X-153035000Y38735000D03*
X-155575000Y38735000D03*
D14*
X-159385000Y25890000D03*
X-159385000Y35070000D03*
X-118745000Y35070000D03*
X-118745000Y25890000D03*
D11*
X-144780000Y26670000D03*
D12*
X-142240000Y26670000D03*
D11*
X-135509000Y33020000D03*
D12*
X-138049000Y33020000D03*
X-140589000Y33020000D03*
X-143129000Y33020000D03*
X-145669000Y33020000D03*
X-148209000Y33020000D03*
X-150749000Y33020000D03*
X-153289000Y33020000D03*
M02*
