G04 #@! TF.FileFunction,Copper,L1,Top,Signal*
%FSLAX46Y46*%
G04 Gerber Fmt 4.6, Leading zero omitted, Abs format (unit mm)*
G04 Created by KiCad (PCBNEW 4.0.7) date 05/23/18 23:06:23*
%MOMM*%
%LPD*%
G01*
G04 APERTURE LIST*
%ADD10C,0.100000*%
%ADD11R,1.700000X1.700000*%
%ADD12O,1.700000X1.700000*%
%ADD13R,1.600000X2.000000*%
%ADD14R,1.700000X2.000000*%
%ADD15R,2.000000X1.700000*%
%ADD16R,2.180000X1.600000*%
%ADD17R,2.000000X3.800000*%
%ADD18R,2.000000X1.500000*%
%ADD19R,3.000000X2.200000*%
%ADD20R,2.500000X1.100000*%
%ADD21R,1.100000X2.500000*%
%ADD22C,0.600000*%
%ADD23C,0.500000*%
%ADD24C,0.250000*%
%ADD25C,0.254000*%
G04 APERTURE END LIST*
D10*
D11*
X-124841000Y33020000D03*
D12*
X-127381000Y33020000D03*
X-129921000Y33020000D03*
X-132461000Y33020000D03*
D13*
X-137795000Y50260000D03*
X-137795000Y46260000D03*
D14*
X-132080000Y50260000D03*
X-132080000Y46260000D03*
X-127635000Y50260000D03*
X-127635000Y46260000D03*
D15*
X-123730000Y61595000D03*
X-127730000Y61595000D03*
X-154400000Y62230000D03*
X-150400000Y62230000D03*
X-116745000Y61595000D03*
X-120745000Y61595000D03*
D14*
X-123190000Y46260000D03*
X-123190000Y50260000D03*
D16*
X-117330000Y66675000D03*
X-126510000Y66675000D03*
X-117330000Y56515000D03*
X-126510000Y56515000D03*
D17*
X-154280000Y48260000D03*
D18*
X-147980000Y48260000D03*
X-147980000Y50560000D03*
X-147980000Y45960000D03*
D19*
X-159385000Y56875000D03*
X-159385000Y51075000D03*
D13*
X-142875000Y50260000D03*
X-142875000Y46260000D03*
D15*
X-161385000Y62230000D03*
X-157385000Y62230000D03*
D20*
X-146710000Y70050000D03*
X-146710000Y68050000D03*
X-146710000Y66050000D03*
X-146710000Y64050000D03*
X-146710000Y62050000D03*
X-146710000Y60050000D03*
X-146710000Y58050000D03*
X-146710000Y56050000D03*
X-131310000Y56050000D03*
X-131310000Y58050000D03*
X-131310000Y60050000D03*
X-131310000Y62050000D03*
X-131310000Y64050000D03*
X-131310000Y66050000D03*
X-131310000Y68050000D03*
X-131310000Y70050000D03*
D21*
X-144020000Y54350000D03*
X-142020000Y54350000D03*
X-140020000Y54350000D03*
X-138020000Y54350000D03*
X-136020000Y54350000D03*
X-134020000Y54350000D03*
D11*
X-160020000Y67310000D03*
D12*
X-157480000Y67310000D03*
X-154940000Y67310000D03*
X-152400000Y67310000D03*
D11*
X-151130000Y57150000D03*
D12*
X-153670000Y57150000D03*
D11*
X-122555000Y38735000D03*
D12*
X-125095000Y38735000D03*
X-127635000Y38735000D03*
X-130175000Y38735000D03*
X-132715000Y38735000D03*
X-135255000Y38735000D03*
X-137795000Y38735000D03*
X-140335000Y38735000D03*
X-142875000Y38735000D03*
X-145415000Y38735000D03*
X-147955000Y38735000D03*
X-150495000Y38735000D03*
X-153035000Y38735000D03*
X-155575000Y38735000D03*
D15*
X-149130000Y26670000D03*
X-153130000Y26670000D03*
D11*
X-144780000Y26670000D03*
D12*
X-142240000Y26670000D03*
D11*
X-135509000Y33020000D03*
D12*
X-138049000Y33020000D03*
X-140589000Y33020000D03*
X-143129000Y33020000D03*
X-145669000Y33020000D03*
X-148209000Y33020000D03*
X-150749000Y33020000D03*
X-153289000Y33020000D03*
D22*
X-154305000Y41275000D03*
X-149225000Y41275000D03*
X-121285000Y29210000D03*
X-121285000Y31750000D03*
X-118745000Y50165000D03*
X-117330000Y66675000D03*
X-117348000Y56515000D03*
X-123190000Y50260000D03*
X-127635000Y46228000D03*
X-137795000Y46260000D03*
X-142875000Y46228000D03*
X-147980000Y45960000D03*
X-159385000Y51054000D03*
X-132010000Y56050000D03*
X-120745000Y61595000D03*
X-131953000Y58039000D03*
X-125730000Y52070000D03*
X-132010000Y62050000D03*
X-126492000Y56515000D03*
X-146010000Y64050000D03*
X-139573000Y44323000D03*
X-145415000Y44323000D03*
X-146010000Y62050000D03*
X-118745000Y26035000D03*
X-153035000Y26670000D03*
X-146010000Y60050000D03*
X-146010000Y58050000D03*
X-159385000Y34925000D03*
X-140970000Y41465500D03*
X-140970000Y44323000D03*
X-140970000Y60261500D03*
X-132010000Y66050000D03*
X-131953000Y70040500D03*
X-132010000Y68050000D03*
X-157353000Y62230000D03*
X-134429500Y67056000D03*
X-135763000Y44323000D03*
D23*
X-154305000Y41275000D02*
X-149225000Y41275000D01*
X-121285000Y29210000D02*
X-121285000Y31750000D01*
X-123190000Y50260000D02*
X-118840000Y50260000D01*
X-118840000Y50260000D02*
X-118745000Y50165000D01*
X-117348000Y56515000D02*
X-117330000Y56515000D01*
X-127635000Y46228000D02*
X-127635000Y46260000D01*
X-142875000Y46228000D02*
X-142875000Y46260000D01*
X-159385000Y51054000D02*
X-159385000Y51075000D01*
X-131405000Y56080000D02*
X-132010000Y56050000D01*
X-151130000Y57150000D02*
X-151130000Y55372000D01*
X-151130000Y55372000D02*
X-147955000Y52197000D01*
X-147955000Y52197000D02*
X-147955000Y50585000D01*
X-147955000Y50585000D02*
X-147980000Y50560000D01*
X-159385000Y54927500D02*
X-159385000Y56875000D01*
X-158496000Y54038500D02*
X-159385000Y54927500D01*
X-152463500Y54038500D02*
X-158496000Y54038500D01*
X-151130000Y55372000D02*
X-152463500Y54038500D01*
X-152400000Y67310000D02*
X-152400000Y61277500D01*
X-151130000Y60007500D02*
X-151130000Y57150000D01*
X-152400000Y61277500D02*
X-151130000Y60007500D01*
D24*
X-132080000Y50260000D02*
X-127635000Y50260000D01*
X-150400000Y62230000D02*
X-150400000Y63500000D01*
X-150400000Y63468000D02*
X-147818000Y66050000D01*
X-147818000Y66050000D02*
X-146010000Y66050000D01*
X-150400000Y63500000D02*
X-150400000Y63468000D01*
X-120745000Y61595000D02*
X-120745000Y60547500D01*
X-131967500Y60007500D02*
X-121285000Y60007500D01*
X-120745000Y60547500D02*
X-121285000Y60007500D01*
X-131967500Y60007500D02*
X-132010000Y60050000D01*
X-123190000Y46260000D02*
X-123190000Y44767500D01*
X-127635000Y40322500D02*
X-127635000Y38735000D01*
X-123190000Y44767500D02*
X-127635000Y40322500D01*
X-123190000Y46260000D02*
X-124174500Y46260000D01*
X-131953000Y58039000D02*
X-132010000Y58050000D01*
X-125730000Y47625000D02*
X-125730000Y52070000D01*
X-124174500Y46260000D02*
X-125730000Y47625000D01*
X-126510000Y56515000D02*
X-126492000Y56515000D01*
X-132715000Y38735000D02*
X-132715000Y40322500D01*
X-133794500Y41402000D02*
X-132715000Y40322500D01*
X-136652000Y41402000D02*
X-133794500Y41402000D01*
X-139573000Y44323000D02*
X-136652000Y41402000D01*
X-145415000Y44323000D02*
X-145415000Y38735000D01*
X-153130000Y26670000D02*
X-153130000Y25495000D01*
X-120015000Y26035000D02*
X-118745000Y26035000D01*
X-121031000Y25019000D02*
X-120015000Y26035000D01*
X-152654000Y25019000D02*
X-121031000Y25019000D01*
X-153130000Y25495000D02*
X-152654000Y25019000D01*
X-153035000Y26670000D02*
X-153130000Y26670000D01*
X-147955000Y38735000D02*
X-147955000Y38100000D01*
X-147955000Y38100000D02*
X-149225000Y36830000D01*
X-159385000Y34925000D02*
X-159385000Y34925000D01*
X-157480000Y36830000D02*
X-159385000Y34925000D01*
X-149225000Y36830000D02*
X-157480000Y36830000D01*
X-132010000Y64050000D02*
X-137181500Y64050000D01*
X-140970000Y44323000D02*
X-140970000Y41465500D01*
X-137181500Y64050000D02*
X-140970000Y60261500D01*
X-145415000Y33020000D02*
X-145415000Y33655000D01*
X-145415000Y33655000D02*
X-143510000Y35560000D01*
X-143510000Y35560000D02*
X-127000000Y35560000D01*
X-127000000Y35560000D02*
X-125095000Y33655000D01*
X-125095000Y33655000D02*
X-125095000Y33020000D01*
X-161385000Y62230000D02*
X-161385000Y62770000D01*
X-161385000Y62770000D02*
X-157480000Y66675000D01*
X-157480000Y66675000D02*
X-157480000Y67310000D01*
X-161353500Y62261500D02*
X-161385000Y62230000D01*
X-132010000Y70050000D02*
X-131953000Y70040500D01*
X-157353000Y62230000D02*
X-157385000Y62230000D01*
X-130175000Y38735000D02*
X-130175000Y41275000D01*
X-131953000Y43053000D02*
X-130175000Y41275000D01*
X-134493000Y43053000D02*
X-131953000Y43053000D01*
X-135763000Y44323000D02*
X-134493000Y43053000D01*
X-127730000Y61595000D02*
X-127730000Y62833500D01*
X-126510000Y64053500D02*
X-126510000Y66675000D01*
X-127730000Y62833500D02*
X-126510000Y64053500D01*
X-126510000Y66675000D02*
X-128333500Y66675000D01*
X-137423500Y70050000D02*
X-146010000Y70050000D01*
X-134429500Y67056000D02*
X-137423500Y70050000D01*
X-128714500Y67056000D02*
X-134429500Y67056000D01*
X-128333500Y66675000D02*
X-128714500Y67056000D01*
X-142875000Y38735000D02*
X-142875000Y38100000D01*
X-142875000Y38100000D02*
X-144780000Y36195000D01*
X-144780000Y36195000D02*
X-145415000Y35560000D01*
X-145415000Y35560000D02*
X-155575000Y35560000D01*
X-155575000Y35560000D02*
X-156845000Y34290000D01*
X-156845000Y34290000D02*
X-156845000Y29845000D01*
X-156845000Y29845000D02*
X-155575000Y28575000D01*
X-155575000Y28575000D02*
X-151035000Y28575000D01*
X-151035000Y28575000D02*
X-149130000Y26670000D01*
D25*
G36*
X-158981431Y63331890D02*
X-159032440Y63080000D01*
X-159032440Y61380000D01*
X-158988162Y61144683D01*
X-158849090Y60928559D01*
X-158636890Y60783569D01*
X-158385000Y60732560D01*
X-156385000Y60732560D01*
X-156149683Y60776838D01*
X-155933559Y60915910D01*
X-155893120Y60975094D01*
X-155759698Y60841673D01*
X-155526309Y60745000D01*
X-154685750Y60745000D01*
X-154527000Y60903750D01*
X-154527000Y62103000D01*
X-154547000Y62103000D01*
X-154547000Y62357000D01*
X-154527000Y62357000D01*
X-154527000Y62377000D01*
X-154273000Y62377000D01*
X-154273000Y62357000D01*
X-154253000Y62357000D01*
X-154253000Y62103000D01*
X-154273000Y62103000D01*
X-154273000Y60903750D01*
X-154114250Y60745000D01*
X-153273691Y60745000D01*
X-153128350Y60805202D01*
X-153118488Y60790443D01*
X-153025790Y60651710D01*
X-152015000Y59640921D01*
X-152015000Y58640854D01*
X-152215317Y58603162D01*
X-152431441Y58464090D01*
X-152576431Y58251890D01*
X-152590086Y58184459D01*
X-152619946Y58229147D01*
X-153101715Y58551054D01*
X-153670000Y58664093D01*
X-154238285Y58551054D01*
X-154720054Y58229147D01*
X-155041961Y57747378D01*
X-155155000Y57179093D01*
X-155155000Y57120907D01*
X-155041961Y56552622D01*
X-154720054Y56070853D01*
X-154238285Y55748946D01*
X-153670000Y55635907D01*
X-153101715Y55748946D01*
X-152619946Y56070853D01*
X-152592150Y56112452D01*
X-152583162Y56064683D01*
X-152444090Y55848559D01*
X-152231890Y55703569D01*
X-152080639Y55672940D01*
X-152830080Y54923500D01*
X-158129421Y54923500D01*
X-158333480Y55127560D01*
X-157885000Y55127560D01*
X-157649683Y55171838D01*
X-157433559Y55310910D01*
X-157288569Y55523110D01*
X-157237560Y55775000D01*
X-157237560Y57975000D01*
X-157281838Y58210317D01*
X-157420910Y58426441D01*
X-157633110Y58571431D01*
X-157885000Y58622440D01*
X-160885000Y58622440D01*
X-161120317Y58578162D01*
X-161336441Y58439090D01*
X-161481431Y58226890D01*
X-161532440Y57975000D01*
X-161532440Y55775000D01*
X-161488162Y55539683D01*
X-161349090Y55323559D01*
X-161136890Y55178569D01*
X-160885000Y55127560D01*
X-160270000Y55127560D01*
X-160270000Y54927505D01*
X-160270001Y54927500D01*
X-160233939Y54746210D01*
X-160202633Y54588825D01*
X-160134596Y54487000D01*
X-160010790Y54301710D01*
X-159121792Y53412713D01*
X-159121790Y53412710D01*
X-158834675Y53220867D01*
X-158778484Y53209690D01*
X-158496000Y53153499D01*
X-158495995Y53153500D01*
X-152463505Y53153500D01*
X-152463500Y53153499D01*
X-152181016Y53209690D01*
X-152124825Y53220867D01*
X-151837710Y53412710D01*
X-151130000Y54120420D01*
X-148967019Y51957440D01*
X-148980000Y51957440D01*
X-149215317Y51913162D01*
X-149431441Y51774090D01*
X-149576431Y51561890D01*
X-149627440Y51310000D01*
X-149627440Y49810000D01*
X-149583162Y49574683D01*
X-149477518Y49410508D01*
X-149518327Y49369699D01*
X-149615000Y49136310D01*
X-149615000Y48545750D01*
X-149456250Y48387000D01*
X-148107000Y48387000D01*
X-148107000Y48407000D01*
X-147853000Y48407000D01*
X-147853000Y48387000D01*
X-146503750Y48387000D01*
X-146345000Y48545750D01*
X-146345000Y49136310D01*
X-146441673Y49369699D01*
X-146483634Y49411660D01*
X-146383569Y49558110D01*
X-146332560Y49810000D01*
X-146332560Y49974250D01*
X-144310000Y49974250D01*
X-144310000Y49133691D01*
X-144213327Y48900302D01*
X-144034699Y48721673D01*
X-143801310Y48625000D01*
X-143160750Y48625000D01*
X-143002000Y48783750D01*
X-143002000Y50133000D01*
X-142748000Y50133000D01*
X-142748000Y48783750D01*
X-142589250Y48625000D01*
X-141948690Y48625000D01*
X-141715301Y48721673D01*
X-141536673Y48900302D01*
X-141440000Y49133691D01*
X-141440000Y49974250D01*
X-139230000Y49974250D01*
X-139230000Y49133691D01*
X-139133327Y48900302D01*
X-138954699Y48721673D01*
X-138721310Y48625000D01*
X-138080750Y48625000D01*
X-137922000Y48783750D01*
X-137922000Y50133000D01*
X-137668000Y50133000D01*
X-137668000Y48783750D01*
X-137509250Y48625000D01*
X-136868690Y48625000D01*
X-136635301Y48721673D01*
X-136456673Y48900302D01*
X-136360000Y49133691D01*
X-136360000Y49974250D01*
X-136518750Y50133000D01*
X-137668000Y50133000D01*
X-137922000Y50133000D01*
X-139071250Y50133000D01*
X-139230000Y49974250D01*
X-141440000Y49974250D01*
X-141598750Y50133000D01*
X-142748000Y50133000D01*
X-143002000Y50133000D01*
X-144151250Y50133000D01*
X-144310000Y49974250D01*
X-146332560Y49974250D01*
X-146332560Y51310000D01*
X-146346918Y51386309D01*
X-144310000Y51386309D01*
X-144310000Y50545750D01*
X-144151250Y50387000D01*
X-143002000Y50387000D01*
X-143002000Y51736250D01*
X-142748000Y51736250D01*
X-142748000Y50387000D01*
X-141598750Y50387000D01*
X-141440000Y50545750D01*
X-141440000Y51386309D01*
X-139230000Y51386309D01*
X-139230000Y50545750D01*
X-139071250Y50387000D01*
X-137922000Y50387000D01*
X-137922000Y51736250D01*
X-137668000Y51736250D01*
X-137668000Y50387000D01*
X-136518750Y50387000D01*
X-136360000Y50545750D01*
X-136360000Y51386309D01*
X-136456673Y51619698D01*
X-136635301Y51798327D01*
X-136868690Y51895000D01*
X-137509250Y51895000D01*
X-137668000Y51736250D01*
X-137922000Y51736250D01*
X-138080750Y51895000D01*
X-138721310Y51895000D01*
X-138954699Y51798327D01*
X-139133327Y51619698D01*
X-139230000Y51386309D01*
X-141440000Y51386309D01*
X-141536673Y51619698D01*
X-141715301Y51798327D01*
X-141948690Y51895000D01*
X-142589250Y51895000D01*
X-142748000Y51736250D01*
X-143002000Y51736250D01*
X-143160750Y51895000D01*
X-143801310Y51895000D01*
X-144034699Y51798327D01*
X-144213327Y51619698D01*
X-144310000Y51386309D01*
X-146346918Y51386309D01*
X-146376838Y51545317D01*
X-146515910Y51761441D01*
X-146728110Y51906431D01*
X-146980000Y51957440D01*
X-147070000Y51957440D01*
X-147070000Y52196995D01*
X-147069999Y52197000D01*
X-147137367Y52535674D01*
X-147137367Y52535675D01*
X-147329210Y52822790D01*
X-147329213Y52822792D01*
X-150178145Y55671725D01*
X-150044683Y55696838D01*
X-149939922Y55764250D01*
X-148595000Y55764250D01*
X-148595000Y55373690D01*
X-148498327Y55140301D01*
X-148319698Y54961673D01*
X-148086309Y54865000D01*
X-146995750Y54865000D01*
X-146837000Y55023750D01*
X-146837000Y55923000D01*
X-148436250Y55923000D01*
X-148595000Y55764250D01*
X-149939922Y55764250D01*
X-149828559Y55835910D01*
X-149683569Y56048110D01*
X-149632560Y56300000D01*
X-149632560Y58000000D01*
X-149676838Y58235317D01*
X-149815910Y58451441D01*
X-150028110Y58596431D01*
X-150245000Y58640352D01*
X-150245000Y60007495D01*
X-150244999Y60007500D01*
X-150312367Y60346175D01*
X-150343320Y60392500D01*
X-150504210Y60633290D01*
X-150504213Y60633292D01*
X-150603481Y60732560D01*
X-149400000Y60732560D01*
X-149164683Y60776838D01*
X-148948559Y60915910D01*
X-148803569Y61128110D01*
X-148752560Y61380000D01*
X-148752560Y63080000D01*
X-148796838Y63315317D01*
X-148833956Y63373000D01*
X-148583543Y63373000D01*
X-148563162Y63264683D01*
X-148424090Y63048559D01*
X-148422701Y63047610D01*
X-148556431Y62851890D01*
X-148607440Y62600000D01*
X-148607440Y61500000D01*
X-148563162Y61264683D01*
X-148424090Y61048559D01*
X-148422701Y61047610D01*
X-148556431Y60851890D01*
X-148607440Y60600000D01*
X-148607440Y59500000D01*
X-148563162Y59264683D01*
X-148424090Y59048559D01*
X-148422701Y59047610D01*
X-148556431Y58851890D01*
X-148607440Y58600000D01*
X-148607440Y57500000D01*
X-148563162Y57264683D01*
X-148424090Y57048559D01*
X-148415402Y57042623D01*
X-148498327Y56959699D01*
X-148595000Y56726310D01*
X-148595000Y56335750D01*
X-148436250Y56177000D01*
X-146837000Y56177000D01*
X-146837000Y56197000D01*
X-146583000Y56197000D01*
X-146583000Y56177000D01*
X-146563000Y56177000D01*
X-146563000Y55923000D01*
X-146583000Y55923000D01*
X-146583000Y55023750D01*
X-146424250Y54865000D01*
X-145333691Y54865000D01*
X-145217440Y54913153D01*
X-145217440Y53100000D01*
X-145173162Y52864683D01*
X-145034090Y52648559D01*
X-144821890Y52503569D01*
X-144570000Y52452560D01*
X-143470000Y52452560D01*
X-143234683Y52496838D01*
X-143018559Y52635910D01*
X-143017610Y52637299D01*
X-142821890Y52503569D01*
X-142570000Y52452560D01*
X-141470000Y52452560D01*
X-141234683Y52496838D01*
X-141018559Y52635910D01*
X-141017610Y52637299D01*
X-140821890Y52503569D01*
X-140570000Y52452560D01*
X-139470000Y52452560D01*
X-139234683Y52496838D01*
X-139018559Y52635910D01*
X-139017610Y52637299D01*
X-138821890Y52503569D01*
X-138570000Y52452560D01*
X-137470000Y52452560D01*
X-137234683Y52496838D01*
X-137018559Y52635910D01*
X-137017610Y52637299D01*
X-136821890Y52503569D01*
X-136570000Y52452560D01*
X-135470000Y52452560D01*
X-135234683Y52496838D01*
X-135018559Y52635910D01*
X-135017610Y52637299D01*
X-134821890Y52503569D01*
X-134570000Y52452560D01*
X-133470000Y52452560D01*
X-133234683Y52496838D01*
X-133018559Y52635910D01*
X-132873569Y52848110D01*
X-132822560Y53100000D01*
X-132822560Y54910859D01*
X-132811890Y54903569D01*
X-132560000Y54852560D01*
X-130060000Y54852560D01*
X-129824683Y54896838D01*
X-129608559Y55035910D01*
X-129463569Y55248110D01*
X-129412560Y55500000D01*
X-129412560Y56600000D01*
X-129456838Y56835317D01*
X-129595910Y57051441D01*
X-129597299Y57052390D01*
X-129463569Y57248110D01*
X-129450024Y57315000D01*
X-128247440Y57315000D01*
X-128247440Y55715000D01*
X-128203162Y55479683D01*
X-128064090Y55263559D01*
X-127851890Y55118569D01*
X-127600000Y55067560D01*
X-125420000Y55067560D01*
X-125184683Y55111838D01*
X-124968559Y55250910D01*
X-124823569Y55463110D01*
X-124772560Y55715000D01*
X-124772560Y57315000D01*
X-119067440Y57315000D01*
X-119067440Y55715000D01*
X-119023162Y55479683D01*
X-118884090Y55263559D01*
X-118671890Y55118569D01*
X-118420000Y55067560D01*
X-116240000Y55067560D01*
X-116004683Y55111838D01*
X-115788559Y55250910D01*
X-115643569Y55463110D01*
X-115592560Y55715000D01*
X-115592560Y57315000D01*
X-115636838Y57550317D01*
X-115775910Y57766441D01*
X-115988110Y57911431D01*
X-116240000Y57962440D01*
X-118420000Y57962440D01*
X-118655317Y57918162D01*
X-118871441Y57779090D01*
X-119016431Y57566890D01*
X-119067440Y57315000D01*
X-124772560Y57315000D01*
X-124816838Y57550317D01*
X-124955910Y57766441D01*
X-125168110Y57911431D01*
X-125420000Y57962440D01*
X-127600000Y57962440D01*
X-127835317Y57918162D01*
X-128051441Y57779090D01*
X-128196431Y57566890D01*
X-128247440Y57315000D01*
X-129450024Y57315000D01*
X-129412560Y57500000D01*
X-129412560Y58600000D01*
X-129456838Y58835317D01*
X-129595910Y59051441D01*
X-129597299Y59052390D01*
X-129463986Y59247500D01*
X-121285000Y59247500D01*
X-120994161Y59305352D01*
X-120747599Y59470099D01*
X-120207599Y60010099D01*
X-120149159Y60097560D01*
X-119745000Y60097560D01*
X-119509683Y60141838D01*
X-119293559Y60280910D01*
X-119148569Y60493110D01*
X-119097560Y60745000D01*
X-119097560Y61309250D01*
X-118380000Y61309250D01*
X-118380000Y60618690D01*
X-118283327Y60385301D01*
X-118104698Y60206673D01*
X-117871309Y60110000D01*
X-117030750Y60110000D01*
X-116872000Y60268750D01*
X-116872000Y61468000D01*
X-116618000Y61468000D01*
X-116618000Y60268750D01*
X-116459250Y60110000D01*
X-115618691Y60110000D01*
X-115385302Y60206673D01*
X-115206673Y60385301D01*
X-115110000Y60618690D01*
X-115110000Y61309250D01*
X-115268750Y61468000D01*
X-116618000Y61468000D01*
X-116872000Y61468000D01*
X-118221250Y61468000D01*
X-118380000Y61309250D01*
X-119097560Y61309250D01*
X-119097560Y62445000D01*
X-119121326Y62571310D01*
X-118380000Y62571310D01*
X-118380000Y61880750D01*
X-118221250Y61722000D01*
X-116872000Y61722000D01*
X-116872000Y62921250D01*
X-116618000Y62921250D01*
X-116618000Y61722000D01*
X-115268750Y61722000D01*
X-115110000Y61880750D01*
X-115110000Y62571310D01*
X-115206673Y62804699D01*
X-115385302Y62983327D01*
X-115618691Y63080000D01*
X-116459250Y63080000D01*
X-116618000Y62921250D01*
X-116872000Y62921250D01*
X-117030750Y63080000D01*
X-117871309Y63080000D01*
X-118104698Y62983327D01*
X-118283327Y62804699D01*
X-118380000Y62571310D01*
X-119121326Y62571310D01*
X-119141838Y62680317D01*
X-119280910Y62896441D01*
X-119493110Y63041431D01*
X-119745000Y63092440D01*
X-121745000Y63092440D01*
X-121980317Y63048162D01*
X-122196441Y62909090D01*
X-122236880Y62849906D01*
X-122370302Y62983327D01*
X-122603691Y63080000D01*
X-123444250Y63080000D01*
X-123603000Y62921250D01*
X-123603000Y61722000D01*
X-123583000Y61722000D01*
X-123583000Y61468000D01*
X-123603000Y61468000D01*
X-123603000Y61448000D01*
X-123857000Y61448000D01*
X-123857000Y61468000D01*
X-125206250Y61468000D01*
X-125365000Y61309250D01*
X-125365000Y60767500D01*
X-126082560Y60767500D01*
X-126082560Y62445000D01*
X-126106326Y62571310D01*
X-125365000Y62571310D01*
X-125365000Y61880750D01*
X-125206250Y61722000D01*
X-123857000Y61722000D01*
X-123857000Y62921250D01*
X-124015750Y63080000D01*
X-124856309Y63080000D01*
X-125089698Y62983327D01*
X-125268327Y62804699D01*
X-125365000Y62571310D01*
X-126106326Y62571310D01*
X-126126838Y62680317D01*
X-126265910Y62896441D01*
X-126459787Y63028911D01*
X-126115698Y63373000D01*
X-115622606Y63373000D01*
X-115062000Y62812394D01*
X-115062000Y47677606D01*
X-115622606Y47117000D01*
X-119380000Y47117000D01*
X-119429410Y47106994D01*
X-119469803Y47079803D01*
X-120739803Y45809803D01*
X-120763592Y45776796D01*
X-121398592Y44506796D01*
X-121412000Y44450000D01*
X-121412000Y43180000D01*
X-121398592Y43123204D01*
X-120763592Y41853204D01*
X-120739803Y41820197D01*
X-119469803Y40550197D01*
X-119427789Y40522334D01*
X-119380000Y40513000D01*
X-115622606Y40513000D01*
X-115062000Y39952394D01*
X-115062000Y24817606D01*
X-115622606Y24257000D01*
X-162507394Y24257000D01*
X-163068000Y24817606D01*
X-163068000Y34739833D01*
X-160320162Y34739833D01*
X-160178117Y34396057D01*
X-159915327Y34132808D01*
X-159571799Y33990162D01*
X-159199833Y33989838D01*
X-158856057Y34131883D01*
X-158592808Y34394673D01*
X-158450162Y34738201D01*
X-158450121Y34785077D01*
X-157165198Y36070000D01*
X-156139802Y36070000D01*
X-157382401Y34827401D01*
X-157547148Y34580839D01*
X-157605000Y34290000D01*
X-157605000Y29845000D01*
X-157547148Y29554161D01*
X-157382401Y29307599D01*
X-156112401Y28037599D01*
X-155865840Y27872852D01*
X-155575000Y27815000D01*
X-154696975Y27815000D01*
X-154726431Y27771890D01*
X-154777440Y27520000D01*
X-154777440Y25820000D01*
X-154733162Y25584683D01*
X-154594090Y25368559D01*
X-154381890Y25223569D01*
X-154130000Y25172560D01*
X-153811033Y25172560D01*
X-153667401Y24957599D01*
X-153191401Y24481599D01*
X-152944839Y24316852D01*
X-152654000Y24259000D01*
X-121031000Y24259000D01*
X-120740161Y24316852D01*
X-120493599Y24481599D01*
X-119700198Y25275000D01*
X-119307463Y25275000D01*
X-119275327Y25242808D01*
X-118931799Y25100162D01*
X-118559833Y25099838D01*
X-118216057Y25241883D01*
X-117952808Y25504673D01*
X-117810162Y25848201D01*
X-117809838Y26220167D01*
X-117951883Y26563943D01*
X-118214673Y26827192D01*
X-118558201Y26969838D01*
X-118930167Y26970162D01*
X-119273943Y26828117D01*
X-119307118Y26795000D01*
X-120015000Y26795000D01*
X-120305839Y26737148D01*
X-120552401Y26572401D01*
X-121345802Y25779000D01*
X-141064230Y25779000D01*
X-140868039Y26072622D01*
X-140755000Y26640907D01*
X-140755000Y26699093D01*
X-140868039Y27267378D01*
X-141189946Y27749147D01*
X-141671715Y28071054D01*
X-142240000Y28184093D01*
X-142808285Y28071054D01*
X-143290054Y27749147D01*
X-143317850Y27707548D01*
X-143326838Y27755317D01*
X-143465910Y27971441D01*
X-143678110Y28116431D01*
X-143930000Y28167440D01*
X-145630000Y28167440D01*
X-145865317Y28123162D01*
X-146081441Y27984090D01*
X-146226431Y27771890D01*
X-146277440Y27520000D01*
X-146277440Y25820000D01*
X-146269725Y25779000D01*
X-147490863Y25779000D01*
X-147482560Y25820000D01*
X-147482560Y27520000D01*
X-147526838Y27755317D01*
X-147665910Y27971441D01*
X-147878110Y28116431D01*
X-148130000Y28167440D01*
X-149552638Y28167440D01*
X-150497599Y29112401D01*
X-150744161Y29277148D01*
X-151035000Y29335000D01*
X-155260198Y29335000D01*
X-156085000Y30159802D01*
X-156085000Y32663108D01*
X-154730486Y32663108D01*
X-154484183Y32138642D01*
X-154055924Y31748355D01*
X-153645890Y31578524D01*
X-153416000Y31699845D01*
X-153416000Y32893000D01*
X-154609819Y32893000D01*
X-154730486Y32663108D01*
X-156085000Y32663108D01*
X-156085000Y33376892D01*
X-154730486Y33376892D01*
X-154609819Y33147000D01*
X-153416000Y33147000D01*
X-153416000Y34340155D01*
X-153645890Y34461476D01*
X-154055924Y34291645D01*
X-154484183Y33901358D01*
X-154730486Y33376892D01*
X-156085000Y33376892D01*
X-156085000Y33975198D01*
X-155260198Y34800000D01*
X-145415000Y34800000D01*
X-145327371Y34817431D01*
X-145620380Y34524422D01*
X-145669000Y34534093D01*
X-146237285Y34421054D01*
X-146719054Y34099147D01*
X-146939000Y33769974D01*
X-147158946Y34099147D01*
X-147640715Y34421054D01*
X-148209000Y34534093D01*
X-148777285Y34421054D01*
X-149259054Y34099147D01*
X-149479000Y33769974D01*
X-149698946Y34099147D01*
X-150180715Y34421054D01*
X-150749000Y34534093D01*
X-151317285Y34421054D01*
X-151799054Y34099147D01*
X-152026702Y33758447D01*
X-152093817Y33901358D01*
X-152522076Y34291645D01*
X-152932110Y34461476D01*
X-153162000Y34340155D01*
X-153162000Y33147000D01*
X-153142000Y33147000D01*
X-153142000Y32893000D01*
X-153162000Y32893000D01*
X-153162000Y31699845D01*
X-152932110Y31578524D01*
X-152522076Y31748355D01*
X-152093817Y32138642D01*
X-152026702Y32281553D01*
X-151799054Y31940853D01*
X-151317285Y31618946D01*
X-150749000Y31505907D01*
X-150180715Y31618946D01*
X-149698946Y31940853D01*
X-149479000Y32270026D01*
X-149259054Y31940853D01*
X-148777285Y31618946D01*
X-148209000Y31505907D01*
X-147640715Y31618946D01*
X-147158946Y31940853D01*
X-146939000Y32270026D01*
X-146719054Y31940853D01*
X-146237285Y31618946D01*
X-145669000Y31505907D01*
X-145100715Y31618946D01*
X-144618946Y31940853D01*
X-144399000Y32270026D01*
X-144179054Y31940853D01*
X-143697285Y31618946D01*
X-143129000Y31505907D01*
X-142560715Y31618946D01*
X-142078946Y31940853D01*
X-141859000Y32270026D01*
X-141639054Y31940853D01*
X-141157285Y31618946D01*
X-140589000Y31505907D01*
X-140020715Y31618946D01*
X-139538946Y31940853D01*
X-139319000Y32270026D01*
X-139099054Y31940853D01*
X-138617285Y31618946D01*
X-138049000Y31505907D01*
X-137480715Y31618946D01*
X-136998946Y31940853D01*
X-136971150Y31982452D01*
X-136962162Y31934683D01*
X-136823090Y31718559D01*
X-136610890Y31573569D01*
X-136359000Y31522560D01*
X-134659000Y31522560D01*
X-134423683Y31566838D01*
X-134207559Y31705910D01*
X-134062569Y31918110D01*
X-134011560Y32170000D01*
X-134011560Y32663108D01*
X-133902486Y32663108D01*
X-133656183Y32138642D01*
X-133227924Y31748355D01*
X-132817890Y31578524D01*
X-132588000Y31699845D01*
X-132588000Y32893000D01*
X-133781819Y32893000D01*
X-133902486Y32663108D01*
X-134011560Y32663108D01*
X-134011560Y33376892D01*
X-133902486Y33376892D01*
X-133781819Y33147000D01*
X-132588000Y33147000D01*
X-132588000Y34340155D01*
X-132817890Y34461476D01*
X-133227924Y34291645D01*
X-133656183Y33901358D01*
X-133902486Y33376892D01*
X-134011560Y33376892D01*
X-134011560Y33870000D01*
X-134055838Y34105317D01*
X-134194910Y34321441D01*
X-134407110Y34466431D01*
X-134659000Y34517440D01*
X-136359000Y34517440D01*
X-136594317Y34473162D01*
X-136810441Y34334090D01*
X-136955431Y34121890D01*
X-136969086Y34054459D01*
X-136998946Y34099147D01*
X-137480715Y34421054D01*
X-138049000Y34534093D01*
X-138617285Y34421054D01*
X-139099054Y34099147D01*
X-139319000Y33769974D01*
X-139538946Y34099147D01*
X-140020715Y34421054D01*
X-140589000Y34534093D01*
X-141157285Y34421054D01*
X-141639054Y34099147D01*
X-141859000Y33769974D01*
X-142078946Y34099147D01*
X-142560715Y34421054D01*
X-143129000Y34534093D01*
X-143543568Y34451630D01*
X-143195198Y34800000D01*
X-127314802Y34800000D01*
X-126966432Y34451630D01*
X-127381000Y34534093D01*
X-127949285Y34421054D01*
X-128431054Y34099147D01*
X-128651000Y33769974D01*
X-128870946Y34099147D01*
X-129352715Y34421054D01*
X-129921000Y34534093D01*
X-130489285Y34421054D01*
X-130971054Y34099147D01*
X-131198702Y33758447D01*
X-131265817Y33901358D01*
X-131694076Y34291645D01*
X-132104110Y34461476D01*
X-132334000Y34340155D01*
X-132334000Y33147000D01*
X-132314000Y33147000D01*
X-132314000Y32893000D01*
X-132334000Y32893000D01*
X-132334000Y31699845D01*
X-132104110Y31578524D01*
X-131694076Y31748355D01*
X-131265817Y32138642D01*
X-131198702Y32281553D01*
X-130971054Y31940853D01*
X-130489285Y31618946D01*
X-129921000Y31505907D01*
X-129352715Y31618946D01*
X-128870946Y31940853D01*
X-128651000Y32270026D01*
X-128431054Y31940853D01*
X-127949285Y31618946D01*
X-127381000Y31505907D01*
X-126812715Y31618946D01*
X-126330946Y31940853D01*
X-126303150Y31982452D01*
X-126294162Y31934683D01*
X-126155090Y31718559D01*
X-125942890Y31573569D01*
X-125691000Y31522560D01*
X-123991000Y31522560D01*
X-123766339Y31564833D01*
X-122220162Y31564833D01*
X-122170000Y31443431D01*
X-122170000Y29516822D01*
X-122219838Y29396799D01*
X-122220162Y29024833D01*
X-122078117Y28681057D01*
X-121815327Y28417808D01*
X-121471799Y28275162D01*
X-121099833Y28274838D01*
X-120756057Y28416883D01*
X-120492808Y28679673D01*
X-120350162Y29023201D01*
X-120349838Y29395167D01*
X-120400000Y29516569D01*
X-120400000Y31443178D01*
X-120350162Y31563201D01*
X-120349838Y31935167D01*
X-120491883Y32278943D01*
X-120754673Y32542192D01*
X-121098201Y32684838D01*
X-121470167Y32685162D01*
X-121813943Y32543117D01*
X-122077192Y32280327D01*
X-122219838Y31936799D01*
X-122220162Y31564833D01*
X-123766339Y31564833D01*
X-123755683Y31566838D01*
X-123539559Y31705910D01*
X-123394569Y31918110D01*
X-123343560Y32170000D01*
X-123343560Y33870000D01*
X-123387838Y34105317D01*
X-123526910Y34321441D01*
X-123739110Y34466431D01*
X-123991000Y34517440D01*
X-124882638Y34517440D01*
X-126462599Y36097401D01*
X-126709161Y36262148D01*
X-127000000Y36320000D01*
X-143510000Y36320000D01*
X-143597629Y36302569D01*
X-142630696Y37269502D01*
X-142306715Y37333946D01*
X-141824946Y37655853D01*
X-141597298Y37996553D01*
X-141530183Y37853642D01*
X-141101924Y37463355D01*
X-140691890Y37293524D01*
X-140462000Y37414845D01*
X-140462000Y38608000D01*
X-140482000Y38608000D01*
X-140482000Y38862000D01*
X-140462000Y38862000D01*
X-140462000Y40055155D01*
X-140691890Y40176476D01*
X-141101924Y40006645D01*
X-141530183Y39616358D01*
X-141597298Y39473447D01*
X-141824946Y39814147D01*
X-142306715Y40136054D01*
X-142875000Y40249093D01*
X-143443285Y40136054D01*
X-143925054Y39814147D01*
X-144145000Y39484974D01*
X-144364946Y39814147D01*
X-144655000Y40007954D01*
X-144655000Y43760537D01*
X-144622808Y43792673D01*
X-144480162Y44136201D01*
X-144479838Y44508167D01*
X-144621883Y44851943D01*
X-144884673Y45115192D01*
X-145228201Y45257838D01*
X-145600167Y45258162D01*
X-145943943Y45116117D01*
X-146207192Y44853327D01*
X-146349838Y44509799D01*
X-146350162Y44137833D01*
X-146208117Y43794057D01*
X-146175000Y43760882D01*
X-146175000Y40007954D01*
X-146465054Y39814147D01*
X-146685000Y39484974D01*
X-146904946Y39814147D01*
X-147386715Y40136054D01*
X-147955000Y40249093D01*
X-148523285Y40136054D01*
X-149005054Y39814147D01*
X-149225000Y39484974D01*
X-149444946Y39814147D01*
X-149926715Y40136054D01*
X-150495000Y40249093D01*
X-151063285Y40136054D01*
X-151545054Y39814147D01*
X-151765000Y39484974D01*
X-151984946Y39814147D01*
X-152466715Y40136054D01*
X-153035000Y40249093D01*
X-153603285Y40136054D01*
X-154085054Y39814147D01*
X-154305000Y39484974D01*
X-154524946Y39814147D01*
X-155006715Y40136054D01*
X-155575000Y40249093D01*
X-156143285Y40136054D01*
X-156625054Y39814147D01*
X-156946961Y39332378D01*
X-157060000Y38764093D01*
X-157060000Y38705907D01*
X-156946961Y38137622D01*
X-156625054Y37655853D01*
X-156526498Y37590000D01*
X-157480000Y37590000D01*
X-157770839Y37532148D01*
X-158017401Y37367401D01*
X-159524680Y35860122D01*
X-159570167Y35860162D01*
X-159913943Y35718117D01*
X-160177192Y35455327D01*
X-160319838Y35111799D01*
X-160320162Y34739833D01*
X-163068000Y34739833D01*
X-163068000Y39952394D01*
X-162507394Y40513000D01*
X-158750000Y40513000D01*
X-158700590Y40523006D01*
X-158660197Y40550197D01*
X-158120561Y41089833D01*
X-155240162Y41089833D01*
X-155098117Y40746057D01*
X-154835327Y40482808D01*
X-154491799Y40340162D01*
X-154119833Y40339838D01*
X-153998431Y40390000D01*
X-149531822Y40390000D01*
X-149411799Y40340162D01*
X-149039833Y40339838D01*
X-148696057Y40481883D01*
X-148432808Y40744673D01*
X-148290162Y41088201D01*
X-148289838Y41460167D01*
X-148431883Y41803943D01*
X-148694673Y42067192D01*
X-149038201Y42209838D01*
X-149410167Y42210162D01*
X-149531569Y42160000D01*
X-153998178Y42160000D01*
X-154118201Y42209838D01*
X-154490167Y42210162D01*
X-154833943Y42068117D01*
X-155097192Y41805327D01*
X-155239838Y41461799D01*
X-155240162Y41089833D01*
X-158120561Y41089833D01*
X-157390197Y41820197D01*
X-157366408Y41853204D01*
X-156731408Y43123204D01*
X-156718000Y43180000D01*
X-156718000Y44450000D01*
X-156731408Y44506796D01*
X-157366408Y45776796D01*
X-157390197Y45809803D01*
X-158660197Y47079803D01*
X-158702211Y47107666D01*
X-158750000Y47117000D01*
X-162507394Y47117000D01*
X-163068000Y47677606D01*
X-163068000Y47974250D01*
X-155915000Y47974250D01*
X-155915000Y46233690D01*
X-155818327Y46000301D01*
X-155639698Y45821673D01*
X-155406309Y45725000D01*
X-154565750Y45725000D01*
X-154407000Y45883750D01*
X-154407000Y48133000D01*
X-154153000Y48133000D01*
X-154153000Y45883750D01*
X-153994250Y45725000D01*
X-153153691Y45725000D01*
X-152920302Y45821673D01*
X-152741673Y46000301D01*
X-152645000Y46233690D01*
X-152645000Y46710000D01*
X-149627440Y46710000D01*
X-149627440Y45210000D01*
X-149583162Y44974683D01*
X-149444090Y44758559D01*
X-149231890Y44613569D01*
X-148980000Y44562560D01*
X-146980000Y44562560D01*
X-146744683Y44606838D01*
X-146528559Y44745910D01*
X-146383569Y44958110D01*
X-146332560Y45210000D01*
X-146332560Y46710000D01*
X-146376838Y46945317D01*
X-146482482Y47109492D01*
X-146441673Y47150301D01*
X-146396235Y47260000D01*
X-144322440Y47260000D01*
X-144322440Y45260000D01*
X-144278162Y45024683D01*
X-144139090Y44808559D01*
X-143926890Y44663569D01*
X-143675000Y44612560D01*
X-142075000Y44612560D01*
X-141844129Y44656001D01*
X-141904838Y44509799D01*
X-141905162Y44137833D01*
X-141763117Y43794057D01*
X-141730000Y43760882D01*
X-141730000Y42027963D01*
X-141762192Y41995827D01*
X-141904838Y41652299D01*
X-141905162Y41280333D01*
X-141763117Y40936557D01*
X-141500327Y40673308D01*
X-141156799Y40530662D01*
X-140784833Y40530338D01*
X-140441057Y40672383D01*
X-140177808Y40935173D01*
X-140035162Y41278701D01*
X-140034838Y41650667D01*
X-140176883Y41994443D01*
X-140210000Y42027618D01*
X-140210000Y43637667D01*
X-140103327Y43530808D01*
X-139759799Y43388162D01*
X-139712923Y43388121D01*
X-137189401Y40864599D01*
X-136942839Y40699852D01*
X-136652000Y40642000D01*
X-134109302Y40642000D01*
X-133475154Y40007852D01*
X-133765054Y39814147D01*
X-133985000Y39484974D01*
X-134204946Y39814147D01*
X-134686715Y40136054D01*
X-135255000Y40249093D01*
X-135823285Y40136054D01*
X-136305054Y39814147D01*
X-136525000Y39484974D01*
X-136744946Y39814147D01*
X-137226715Y40136054D01*
X-137795000Y40249093D01*
X-138363285Y40136054D01*
X-138845054Y39814147D01*
X-139072702Y39473447D01*
X-139139817Y39616358D01*
X-139568076Y40006645D01*
X-139978110Y40176476D01*
X-140208000Y40055155D01*
X-140208000Y38862000D01*
X-140188000Y38862000D01*
X-140188000Y38608000D01*
X-140208000Y38608000D01*
X-140208000Y37414845D01*
X-139978110Y37293524D01*
X-139568076Y37463355D01*
X-139139817Y37853642D01*
X-139072702Y37996553D01*
X-138845054Y37655853D01*
X-138363285Y37333946D01*
X-137795000Y37220907D01*
X-137226715Y37333946D01*
X-136744946Y37655853D01*
X-136525000Y37985026D01*
X-136305054Y37655853D01*
X-135823285Y37333946D01*
X-135255000Y37220907D01*
X-134686715Y37333946D01*
X-134204946Y37655853D01*
X-133985000Y37985026D01*
X-133765054Y37655853D01*
X-133283285Y37333946D01*
X-132715000Y37220907D01*
X-132146715Y37333946D01*
X-131664946Y37655853D01*
X-131445000Y37985026D01*
X-131225054Y37655853D01*
X-130743285Y37333946D01*
X-130175000Y37220907D01*
X-129606715Y37333946D01*
X-129124946Y37655853D01*
X-128905000Y37985026D01*
X-128685054Y37655853D01*
X-128203285Y37333946D01*
X-127635000Y37220907D01*
X-127066715Y37333946D01*
X-126584946Y37655853D01*
X-126365000Y37985026D01*
X-126145054Y37655853D01*
X-125663285Y37333946D01*
X-125095000Y37220907D01*
X-124526715Y37333946D01*
X-124044946Y37655853D01*
X-124015597Y37699777D01*
X-123943327Y37525302D01*
X-123764699Y37346673D01*
X-123531310Y37250000D01*
X-122840750Y37250000D01*
X-122682000Y37408750D01*
X-122682000Y38608000D01*
X-122428000Y38608000D01*
X-122428000Y37408750D01*
X-122269250Y37250000D01*
X-121578690Y37250000D01*
X-121345301Y37346673D01*
X-121166673Y37525302D01*
X-121070000Y37758691D01*
X-121070000Y38449250D01*
X-121228750Y38608000D01*
X-122428000Y38608000D01*
X-122682000Y38608000D01*
X-122702000Y38608000D01*
X-122702000Y38862000D01*
X-122682000Y38862000D01*
X-122682000Y40061250D01*
X-122428000Y40061250D01*
X-122428000Y38862000D01*
X-121228750Y38862000D01*
X-121070000Y39020750D01*
X-121070000Y39711309D01*
X-121166673Y39944698D01*
X-121345301Y40123327D01*
X-121578690Y40220000D01*
X-122269250Y40220000D01*
X-122428000Y40061250D01*
X-122682000Y40061250D01*
X-122840750Y40220000D01*
X-123531310Y40220000D01*
X-123764699Y40123327D01*
X-123943327Y39944698D01*
X-124015597Y39770223D01*
X-124044946Y39814147D01*
X-124526715Y40136054D01*
X-125095000Y40249093D01*
X-125663285Y40136054D01*
X-126145054Y39814147D01*
X-126365000Y39484974D01*
X-126584946Y39814147D01*
X-126874846Y40007852D01*
X-122652599Y44230099D01*
X-122487852Y44476660D01*
X-122460820Y44612560D01*
X-122340000Y44612560D01*
X-122104683Y44656838D01*
X-121888559Y44795910D01*
X-121743569Y45008110D01*
X-121692560Y45260000D01*
X-121692560Y47260000D01*
X-121736838Y47495317D01*
X-121875910Y47711441D01*
X-122088110Y47856431D01*
X-122340000Y47907440D01*
X-124040000Y47907440D01*
X-124275317Y47863162D01*
X-124491441Y47724090D01*
X-124566121Y47614792D01*
X-124970000Y47969208D01*
X-124970000Y51260000D01*
X-124687440Y51260000D01*
X-124687440Y49260000D01*
X-124643162Y49024683D01*
X-124504090Y48808559D01*
X-124291890Y48663569D01*
X-124040000Y48612560D01*
X-122340000Y48612560D01*
X-122104683Y48656838D01*
X-121888559Y48795910D01*
X-121743569Y49008110D01*
X-121692560Y49260000D01*
X-121692560Y49375000D01*
X-119277515Y49375000D01*
X-119275327Y49372808D01*
X-118931799Y49230162D01*
X-118559833Y49229838D01*
X-118216057Y49371883D01*
X-117952808Y49634673D01*
X-117810162Y49978201D01*
X-117809838Y50350167D01*
X-117951883Y50693943D01*
X-118214673Y50957192D01*
X-118495742Y51073903D01*
X-118501325Y51077633D01*
X-118507853Y51078931D01*
X-118558201Y51099838D01*
X-118613196Y51099886D01*
X-118840000Y51145001D01*
X-118840005Y51145000D01*
X-121692560Y51145000D01*
X-121692560Y51260000D01*
X-121736838Y51495317D01*
X-121875910Y51711441D01*
X-122088110Y51856431D01*
X-122340000Y51907440D01*
X-124040000Y51907440D01*
X-124275317Y51863162D01*
X-124491441Y51724090D01*
X-124636431Y51511890D01*
X-124687440Y51260000D01*
X-124970000Y51260000D01*
X-124970000Y51507537D01*
X-124937808Y51539673D01*
X-124795162Y51883201D01*
X-124794838Y52255167D01*
X-124936883Y52598943D01*
X-125199673Y52862192D01*
X-125543201Y53004838D01*
X-125915167Y53005162D01*
X-126258943Y52863117D01*
X-126522192Y52600327D01*
X-126664838Y52256799D01*
X-126665162Y51884833D01*
X-126664413Y51883021D01*
X-126785000Y51907440D01*
X-128485000Y51907440D01*
X-128720317Y51863162D01*
X-128936441Y51724090D01*
X-129081431Y51511890D01*
X-129132440Y51260000D01*
X-129132440Y51020000D01*
X-130582560Y51020000D01*
X-130582560Y51260000D01*
X-130626838Y51495317D01*
X-130765910Y51711441D01*
X-130978110Y51856431D01*
X-131230000Y51907440D01*
X-132930000Y51907440D01*
X-133165317Y51863162D01*
X-133381441Y51724090D01*
X-133526431Y51511890D01*
X-133577440Y51260000D01*
X-133577440Y49260000D01*
X-133533162Y49024683D01*
X-133394090Y48808559D01*
X-133181890Y48663569D01*
X-132930000Y48612560D01*
X-131230000Y48612560D01*
X-130994683Y48656838D01*
X-130778559Y48795910D01*
X-130633569Y49008110D01*
X-130582560Y49260000D01*
X-130582560Y49500000D01*
X-129132440Y49500000D01*
X-129132440Y49260000D01*
X-129088162Y49024683D01*
X-128949090Y48808559D01*
X-128736890Y48663569D01*
X-128485000Y48612560D01*
X-126785000Y48612560D01*
X-126549683Y48656838D01*
X-126490000Y48695243D01*
X-126490000Y47826975D01*
X-126533110Y47856431D01*
X-126785000Y47907440D01*
X-128485000Y47907440D01*
X-128720317Y47863162D01*
X-128936441Y47724090D01*
X-129081431Y47511890D01*
X-129132440Y47260000D01*
X-129132440Y45260000D01*
X-129088162Y45024683D01*
X-128949090Y44808559D01*
X-128736890Y44663569D01*
X-128485000Y44612560D01*
X-126785000Y44612560D01*
X-126549683Y44656838D01*
X-126333559Y44795910D01*
X-126188569Y45008110D01*
X-126137560Y45260000D01*
X-126137560Y46971515D01*
X-124687440Y45698989D01*
X-124687440Y45260000D01*
X-124643162Y45024683D01*
X-124504090Y44808559D01*
X-124337541Y44694761D01*
X-128172401Y40859901D01*
X-128337148Y40613339D01*
X-128395000Y40322500D01*
X-128395000Y40007954D01*
X-128685054Y39814147D01*
X-128905000Y39484974D01*
X-129124946Y39814147D01*
X-129415000Y40007954D01*
X-129415000Y41275000D01*
X-129472852Y41565839D01*
X-129637599Y41812401D01*
X-131415599Y43590401D01*
X-131662161Y43755148D01*
X-131953000Y43813000D01*
X-134178198Y43813000D01*
X-134827878Y44462680D01*
X-134827838Y44508167D01*
X-134969883Y44851943D01*
X-135232673Y45115192D01*
X-135576201Y45257838D01*
X-135948167Y45258162D01*
X-136291943Y45116117D01*
X-136398171Y45010074D01*
X-136347560Y45260000D01*
X-136347560Y45974250D01*
X-133565000Y45974250D01*
X-133565000Y45133691D01*
X-133468327Y44900302D01*
X-133289699Y44721673D01*
X-133056310Y44625000D01*
X-132365750Y44625000D01*
X-132207000Y44783750D01*
X-132207000Y46133000D01*
X-131953000Y46133000D01*
X-131953000Y44783750D01*
X-131794250Y44625000D01*
X-131103690Y44625000D01*
X-130870301Y44721673D01*
X-130691673Y44900302D01*
X-130595000Y45133691D01*
X-130595000Y45974250D01*
X-130753750Y46133000D01*
X-131953000Y46133000D01*
X-132207000Y46133000D01*
X-133406250Y46133000D01*
X-133565000Y45974250D01*
X-136347560Y45974250D01*
X-136347560Y47260000D01*
X-136371326Y47386309D01*
X-133565000Y47386309D01*
X-133565000Y46545750D01*
X-133406250Y46387000D01*
X-132207000Y46387000D01*
X-132207000Y47736250D01*
X-131953000Y47736250D01*
X-131953000Y46387000D01*
X-130753750Y46387000D01*
X-130595000Y46545750D01*
X-130595000Y47386309D01*
X-130691673Y47619698D01*
X-130870301Y47798327D01*
X-131103690Y47895000D01*
X-131794250Y47895000D01*
X-131953000Y47736250D01*
X-132207000Y47736250D01*
X-132365750Y47895000D01*
X-133056310Y47895000D01*
X-133289699Y47798327D01*
X-133468327Y47619698D01*
X-133565000Y47386309D01*
X-136371326Y47386309D01*
X-136391838Y47495317D01*
X-136530910Y47711441D01*
X-136743110Y47856431D01*
X-136995000Y47907440D01*
X-138595000Y47907440D01*
X-138830317Y47863162D01*
X-139046441Y47724090D01*
X-139191431Y47511890D01*
X-139242440Y47260000D01*
X-139242440Y45260000D01*
X-139229814Y45192900D01*
X-139386201Y45257838D01*
X-139758167Y45258162D01*
X-140101943Y45116117D01*
X-140271565Y44946791D01*
X-140439673Y45115192D01*
X-140783201Y45257838D01*
X-141155167Y45258162D01*
X-141452839Y45135167D01*
X-141427560Y45260000D01*
X-141427560Y47260000D01*
X-141471838Y47495317D01*
X-141610910Y47711441D01*
X-141823110Y47856431D01*
X-142075000Y47907440D01*
X-143675000Y47907440D01*
X-143910317Y47863162D01*
X-144126441Y47724090D01*
X-144271431Y47511890D01*
X-144322440Y47260000D01*
X-146396235Y47260000D01*
X-146345000Y47383690D01*
X-146345000Y47974250D01*
X-146503750Y48133000D01*
X-147853000Y48133000D01*
X-147853000Y48113000D01*
X-148107000Y48113000D01*
X-148107000Y48133000D01*
X-149456250Y48133000D01*
X-149615000Y47974250D01*
X-149615000Y47383690D01*
X-149518327Y47150301D01*
X-149476366Y47108340D01*
X-149576431Y46961890D01*
X-149627440Y46710000D01*
X-152645000Y46710000D01*
X-152645000Y47974250D01*
X-152803750Y48133000D01*
X-154153000Y48133000D01*
X-154407000Y48133000D01*
X-155756250Y48133000D01*
X-155915000Y47974250D01*
X-163068000Y47974250D01*
X-163068000Y52175000D01*
X-161532440Y52175000D01*
X-161532440Y49975000D01*
X-161488162Y49739683D01*
X-161349090Y49523559D01*
X-161136890Y49378569D01*
X-160885000Y49327560D01*
X-157885000Y49327560D01*
X-157649683Y49371838D01*
X-157433559Y49510910D01*
X-157288569Y49723110D01*
X-157237560Y49975000D01*
X-157237560Y50286310D01*
X-155915000Y50286310D01*
X-155915000Y48545750D01*
X-155756250Y48387000D01*
X-154407000Y48387000D01*
X-154407000Y50636250D01*
X-154153000Y50636250D01*
X-154153000Y48387000D01*
X-152803750Y48387000D01*
X-152645000Y48545750D01*
X-152645000Y50286310D01*
X-152741673Y50519699D01*
X-152920302Y50698327D01*
X-153153691Y50795000D01*
X-153994250Y50795000D01*
X-154153000Y50636250D01*
X-154407000Y50636250D01*
X-154565750Y50795000D01*
X-155406309Y50795000D01*
X-155639698Y50698327D01*
X-155818327Y50519699D01*
X-155915000Y50286310D01*
X-157237560Y50286310D01*
X-157237560Y52175000D01*
X-157281838Y52410317D01*
X-157420910Y52626441D01*
X-157633110Y52771431D01*
X-157885000Y52822440D01*
X-160885000Y52822440D01*
X-161120317Y52778162D01*
X-161336441Y52639090D01*
X-161481431Y52426890D01*
X-161532440Y52175000D01*
X-163068000Y52175000D01*
X-163068000Y62812394D01*
X-163032440Y62847954D01*
X-163032440Y61380000D01*
X-162988162Y61144683D01*
X-162849090Y60928559D01*
X-162636890Y60783569D01*
X-162385000Y60732560D01*
X-160385000Y60732560D01*
X-160149683Y60776838D01*
X-159933559Y60915910D01*
X-159788569Y61128110D01*
X-159737560Y61380000D01*
X-159737560Y63080000D01*
X-159779153Y63301045D01*
X-159707198Y63373000D01*
X-158953342Y63373000D01*
X-158981431Y63331890D01*
X-158981431Y63331890D01*
G37*
X-158981431Y63331890D02*
X-159032440Y63080000D01*
X-159032440Y61380000D01*
X-158988162Y61144683D01*
X-158849090Y60928559D01*
X-158636890Y60783569D01*
X-158385000Y60732560D01*
X-156385000Y60732560D01*
X-156149683Y60776838D01*
X-155933559Y60915910D01*
X-155893120Y60975094D01*
X-155759698Y60841673D01*
X-155526309Y60745000D01*
X-154685750Y60745000D01*
X-154527000Y60903750D01*
X-154527000Y62103000D01*
X-154547000Y62103000D01*
X-154547000Y62357000D01*
X-154527000Y62357000D01*
X-154527000Y62377000D01*
X-154273000Y62377000D01*
X-154273000Y62357000D01*
X-154253000Y62357000D01*
X-154253000Y62103000D01*
X-154273000Y62103000D01*
X-154273000Y60903750D01*
X-154114250Y60745000D01*
X-153273691Y60745000D01*
X-153128350Y60805202D01*
X-153118488Y60790443D01*
X-153025790Y60651710D01*
X-152015000Y59640921D01*
X-152015000Y58640854D01*
X-152215317Y58603162D01*
X-152431441Y58464090D01*
X-152576431Y58251890D01*
X-152590086Y58184459D01*
X-152619946Y58229147D01*
X-153101715Y58551054D01*
X-153670000Y58664093D01*
X-154238285Y58551054D01*
X-154720054Y58229147D01*
X-155041961Y57747378D01*
X-155155000Y57179093D01*
X-155155000Y57120907D01*
X-155041961Y56552622D01*
X-154720054Y56070853D01*
X-154238285Y55748946D01*
X-153670000Y55635907D01*
X-153101715Y55748946D01*
X-152619946Y56070853D01*
X-152592150Y56112452D01*
X-152583162Y56064683D01*
X-152444090Y55848559D01*
X-152231890Y55703569D01*
X-152080639Y55672940D01*
X-152830080Y54923500D01*
X-158129421Y54923500D01*
X-158333480Y55127560D01*
X-157885000Y55127560D01*
X-157649683Y55171838D01*
X-157433559Y55310910D01*
X-157288569Y55523110D01*
X-157237560Y55775000D01*
X-157237560Y57975000D01*
X-157281838Y58210317D01*
X-157420910Y58426441D01*
X-157633110Y58571431D01*
X-157885000Y58622440D01*
X-160885000Y58622440D01*
X-161120317Y58578162D01*
X-161336441Y58439090D01*
X-161481431Y58226890D01*
X-161532440Y57975000D01*
X-161532440Y55775000D01*
X-161488162Y55539683D01*
X-161349090Y55323559D01*
X-161136890Y55178569D01*
X-160885000Y55127560D01*
X-160270000Y55127560D01*
X-160270000Y54927505D01*
X-160270001Y54927500D01*
X-160233939Y54746210D01*
X-160202633Y54588825D01*
X-160134596Y54487000D01*
X-160010790Y54301710D01*
X-159121792Y53412713D01*
X-159121790Y53412710D01*
X-158834675Y53220867D01*
X-158778484Y53209690D01*
X-158496000Y53153499D01*
X-158495995Y53153500D01*
X-152463505Y53153500D01*
X-152463500Y53153499D01*
X-152181016Y53209690D01*
X-152124825Y53220867D01*
X-151837710Y53412710D01*
X-151130000Y54120420D01*
X-148967019Y51957440D01*
X-148980000Y51957440D01*
X-149215317Y51913162D01*
X-149431441Y51774090D01*
X-149576431Y51561890D01*
X-149627440Y51310000D01*
X-149627440Y49810000D01*
X-149583162Y49574683D01*
X-149477518Y49410508D01*
X-149518327Y49369699D01*
X-149615000Y49136310D01*
X-149615000Y48545750D01*
X-149456250Y48387000D01*
X-148107000Y48387000D01*
X-148107000Y48407000D01*
X-147853000Y48407000D01*
X-147853000Y48387000D01*
X-146503750Y48387000D01*
X-146345000Y48545750D01*
X-146345000Y49136310D01*
X-146441673Y49369699D01*
X-146483634Y49411660D01*
X-146383569Y49558110D01*
X-146332560Y49810000D01*
X-146332560Y49974250D01*
X-144310000Y49974250D01*
X-144310000Y49133691D01*
X-144213327Y48900302D01*
X-144034699Y48721673D01*
X-143801310Y48625000D01*
X-143160750Y48625000D01*
X-143002000Y48783750D01*
X-143002000Y50133000D01*
X-142748000Y50133000D01*
X-142748000Y48783750D01*
X-142589250Y48625000D01*
X-141948690Y48625000D01*
X-141715301Y48721673D01*
X-141536673Y48900302D01*
X-141440000Y49133691D01*
X-141440000Y49974250D01*
X-139230000Y49974250D01*
X-139230000Y49133691D01*
X-139133327Y48900302D01*
X-138954699Y48721673D01*
X-138721310Y48625000D01*
X-138080750Y48625000D01*
X-137922000Y48783750D01*
X-137922000Y50133000D01*
X-137668000Y50133000D01*
X-137668000Y48783750D01*
X-137509250Y48625000D01*
X-136868690Y48625000D01*
X-136635301Y48721673D01*
X-136456673Y48900302D01*
X-136360000Y49133691D01*
X-136360000Y49974250D01*
X-136518750Y50133000D01*
X-137668000Y50133000D01*
X-137922000Y50133000D01*
X-139071250Y50133000D01*
X-139230000Y49974250D01*
X-141440000Y49974250D01*
X-141598750Y50133000D01*
X-142748000Y50133000D01*
X-143002000Y50133000D01*
X-144151250Y50133000D01*
X-144310000Y49974250D01*
X-146332560Y49974250D01*
X-146332560Y51310000D01*
X-146346918Y51386309D01*
X-144310000Y51386309D01*
X-144310000Y50545750D01*
X-144151250Y50387000D01*
X-143002000Y50387000D01*
X-143002000Y51736250D01*
X-142748000Y51736250D01*
X-142748000Y50387000D01*
X-141598750Y50387000D01*
X-141440000Y50545750D01*
X-141440000Y51386309D01*
X-139230000Y51386309D01*
X-139230000Y50545750D01*
X-139071250Y50387000D01*
X-137922000Y50387000D01*
X-137922000Y51736250D01*
X-137668000Y51736250D01*
X-137668000Y50387000D01*
X-136518750Y50387000D01*
X-136360000Y50545750D01*
X-136360000Y51386309D01*
X-136456673Y51619698D01*
X-136635301Y51798327D01*
X-136868690Y51895000D01*
X-137509250Y51895000D01*
X-137668000Y51736250D01*
X-137922000Y51736250D01*
X-138080750Y51895000D01*
X-138721310Y51895000D01*
X-138954699Y51798327D01*
X-139133327Y51619698D01*
X-139230000Y51386309D01*
X-141440000Y51386309D01*
X-141536673Y51619698D01*
X-141715301Y51798327D01*
X-141948690Y51895000D01*
X-142589250Y51895000D01*
X-142748000Y51736250D01*
X-143002000Y51736250D01*
X-143160750Y51895000D01*
X-143801310Y51895000D01*
X-144034699Y51798327D01*
X-144213327Y51619698D01*
X-144310000Y51386309D01*
X-146346918Y51386309D01*
X-146376838Y51545317D01*
X-146515910Y51761441D01*
X-146728110Y51906431D01*
X-146980000Y51957440D01*
X-147070000Y51957440D01*
X-147070000Y52196995D01*
X-147069999Y52197000D01*
X-147137367Y52535674D01*
X-147137367Y52535675D01*
X-147329210Y52822790D01*
X-147329213Y52822792D01*
X-150178145Y55671725D01*
X-150044683Y55696838D01*
X-149939922Y55764250D01*
X-148595000Y55764250D01*
X-148595000Y55373690D01*
X-148498327Y55140301D01*
X-148319698Y54961673D01*
X-148086309Y54865000D01*
X-146995750Y54865000D01*
X-146837000Y55023750D01*
X-146837000Y55923000D01*
X-148436250Y55923000D01*
X-148595000Y55764250D01*
X-149939922Y55764250D01*
X-149828559Y55835910D01*
X-149683569Y56048110D01*
X-149632560Y56300000D01*
X-149632560Y58000000D01*
X-149676838Y58235317D01*
X-149815910Y58451441D01*
X-150028110Y58596431D01*
X-150245000Y58640352D01*
X-150245000Y60007495D01*
X-150244999Y60007500D01*
X-150312367Y60346175D01*
X-150343320Y60392500D01*
X-150504210Y60633290D01*
X-150504213Y60633292D01*
X-150603481Y60732560D01*
X-149400000Y60732560D01*
X-149164683Y60776838D01*
X-148948559Y60915910D01*
X-148803569Y61128110D01*
X-148752560Y61380000D01*
X-148752560Y63080000D01*
X-148796838Y63315317D01*
X-148833956Y63373000D01*
X-148583543Y63373000D01*
X-148563162Y63264683D01*
X-148424090Y63048559D01*
X-148422701Y63047610D01*
X-148556431Y62851890D01*
X-148607440Y62600000D01*
X-148607440Y61500000D01*
X-148563162Y61264683D01*
X-148424090Y61048559D01*
X-148422701Y61047610D01*
X-148556431Y60851890D01*
X-148607440Y60600000D01*
X-148607440Y59500000D01*
X-148563162Y59264683D01*
X-148424090Y59048559D01*
X-148422701Y59047610D01*
X-148556431Y58851890D01*
X-148607440Y58600000D01*
X-148607440Y57500000D01*
X-148563162Y57264683D01*
X-148424090Y57048559D01*
X-148415402Y57042623D01*
X-148498327Y56959699D01*
X-148595000Y56726310D01*
X-148595000Y56335750D01*
X-148436250Y56177000D01*
X-146837000Y56177000D01*
X-146837000Y56197000D01*
X-146583000Y56197000D01*
X-146583000Y56177000D01*
X-146563000Y56177000D01*
X-146563000Y55923000D01*
X-146583000Y55923000D01*
X-146583000Y55023750D01*
X-146424250Y54865000D01*
X-145333691Y54865000D01*
X-145217440Y54913153D01*
X-145217440Y53100000D01*
X-145173162Y52864683D01*
X-145034090Y52648559D01*
X-144821890Y52503569D01*
X-144570000Y52452560D01*
X-143470000Y52452560D01*
X-143234683Y52496838D01*
X-143018559Y52635910D01*
X-143017610Y52637299D01*
X-142821890Y52503569D01*
X-142570000Y52452560D01*
X-141470000Y52452560D01*
X-141234683Y52496838D01*
X-141018559Y52635910D01*
X-141017610Y52637299D01*
X-140821890Y52503569D01*
X-140570000Y52452560D01*
X-139470000Y52452560D01*
X-139234683Y52496838D01*
X-139018559Y52635910D01*
X-139017610Y52637299D01*
X-138821890Y52503569D01*
X-138570000Y52452560D01*
X-137470000Y52452560D01*
X-137234683Y52496838D01*
X-137018559Y52635910D01*
X-137017610Y52637299D01*
X-136821890Y52503569D01*
X-136570000Y52452560D01*
X-135470000Y52452560D01*
X-135234683Y52496838D01*
X-135018559Y52635910D01*
X-135017610Y52637299D01*
X-134821890Y52503569D01*
X-134570000Y52452560D01*
X-133470000Y52452560D01*
X-133234683Y52496838D01*
X-133018559Y52635910D01*
X-132873569Y52848110D01*
X-132822560Y53100000D01*
X-132822560Y54910859D01*
X-132811890Y54903569D01*
X-132560000Y54852560D01*
X-130060000Y54852560D01*
X-129824683Y54896838D01*
X-129608559Y55035910D01*
X-129463569Y55248110D01*
X-129412560Y55500000D01*
X-129412560Y56600000D01*
X-129456838Y56835317D01*
X-129595910Y57051441D01*
X-129597299Y57052390D01*
X-129463569Y57248110D01*
X-129450024Y57315000D01*
X-128247440Y57315000D01*
X-128247440Y55715000D01*
X-128203162Y55479683D01*
X-128064090Y55263559D01*
X-127851890Y55118569D01*
X-127600000Y55067560D01*
X-125420000Y55067560D01*
X-125184683Y55111838D01*
X-124968559Y55250910D01*
X-124823569Y55463110D01*
X-124772560Y55715000D01*
X-124772560Y57315000D01*
X-119067440Y57315000D01*
X-119067440Y55715000D01*
X-119023162Y55479683D01*
X-118884090Y55263559D01*
X-118671890Y55118569D01*
X-118420000Y55067560D01*
X-116240000Y55067560D01*
X-116004683Y55111838D01*
X-115788559Y55250910D01*
X-115643569Y55463110D01*
X-115592560Y55715000D01*
X-115592560Y57315000D01*
X-115636838Y57550317D01*
X-115775910Y57766441D01*
X-115988110Y57911431D01*
X-116240000Y57962440D01*
X-118420000Y57962440D01*
X-118655317Y57918162D01*
X-118871441Y57779090D01*
X-119016431Y57566890D01*
X-119067440Y57315000D01*
X-124772560Y57315000D01*
X-124816838Y57550317D01*
X-124955910Y57766441D01*
X-125168110Y57911431D01*
X-125420000Y57962440D01*
X-127600000Y57962440D01*
X-127835317Y57918162D01*
X-128051441Y57779090D01*
X-128196431Y57566890D01*
X-128247440Y57315000D01*
X-129450024Y57315000D01*
X-129412560Y57500000D01*
X-129412560Y58600000D01*
X-129456838Y58835317D01*
X-129595910Y59051441D01*
X-129597299Y59052390D01*
X-129463986Y59247500D01*
X-121285000Y59247500D01*
X-120994161Y59305352D01*
X-120747599Y59470099D01*
X-120207599Y60010099D01*
X-120149159Y60097560D01*
X-119745000Y60097560D01*
X-119509683Y60141838D01*
X-119293559Y60280910D01*
X-119148569Y60493110D01*
X-119097560Y60745000D01*
X-119097560Y61309250D01*
X-118380000Y61309250D01*
X-118380000Y60618690D01*
X-118283327Y60385301D01*
X-118104698Y60206673D01*
X-117871309Y60110000D01*
X-117030750Y60110000D01*
X-116872000Y60268750D01*
X-116872000Y61468000D01*
X-116618000Y61468000D01*
X-116618000Y60268750D01*
X-116459250Y60110000D01*
X-115618691Y60110000D01*
X-115385302Y60206673D01*
X-115206673Y60385301D01*
X-115110000Y60618690D01*
X-115110000Y61309250D01*
X-115268750Y61468000D01*
X-116618000Y61468000D01*
X-116872000Y61468000D01*
X-118221250Y61468000D01*
X-118380000Y61309250D01*
X-119097560Y61309250D01*
X-119097560Y62445000D01*
X-119121326Y62571310D01*
X-118380000Y62571310D01*
X-118380000Y61880750D01*
X-118221250Y61722000D01*
X-116872000Y61722000D01*
X-116872000Y62921250D01*
X-116618000Y62921250D01*
X-116618000Y61722000D01*
X-115268750Y61722000D01*
X-115110000Y61880750D01*
X-115110000Y62571310D01*
X-115206673Y62804699D01*
X-115385302Y62983327D01*
X-115618691Y63080000D01*
X-116459250Y63080000D01*
X-116618000Y62921250D01*
X-116872000Y62921250D01*
X-117030750Y63080000D01*
X-117871309Y63080000D01*
X-118104698Y62983327D01*
X-118283327Y62804699D01*
X-118380000Y62571310D01*
X-119121326Y62571310D01*
X-119141838Y62680317D01*
X-119280910Y62896441D01*
X-119493110Y63041431D01*
X-119745000Y63092440D01*
X-121745000Y63092440D01*
X-121980317Y63048162D01*
X-122196441Y62909090D01*
X-122236880Y62849906D01*
X-122370302Y62983327D01*
X-122603691Y63080000D01*
X-123444250Y63080000D01*
X-123603000Y62921250D01*
X-123603000Y61722000D01*
X-123583000Y61722000D01*
X-123583000Y61468000D01*
X-123603000Y61468000D01*
X-123603000Y61448000D01*
X-123857000Y61448000D01*
X-123857000Y61468000D01*
X-125206250Y61468000D01*
X-125365000Y61309250D01*
X-125365000Y60767500D01*
X-126082560Y60767500D01*
X-126082560Y62445000D01*
X-126106326Y62571310D01*
X-125365000Y62571310D01*
X-125365000Y61880750D01*
X-125206250Y61722000D01*
X-123857000Y61722000D01*
X-123857000Y62921250D01*
X-124015750Y63080000D01*
X-124856309Y63080000D01*
X-125089698Y62983327D01*
X-125268327Y62804699D01*
X-125365000Y62571310D01*
X-126106326Y62571310D01*
X-126126838Y62680317D01*
X-126265910Y62896441D01*
X-126459787Y63028911D01*
X-126115698Y63373000D01*
X-115622606Y63373000D01*
X-115062000Y62812394D01*
X-115062000Y47677606D01*
X-115622606Y47117000D01*
X-119380000Y47117000D01*
X-119429410Y47106994D01*
X-119469803Y47079803D01*
X-120739803Y45809803D01*
X-120763592Y45776796D01*
X-121398592Y44506796D01*
X-121412000Y44450000D01*
X-121412000Y43180000D01*
X-121398592Y43123204D01*
X-120763592Y41853204D01*
X-120739803Y41820197D01*
X-119469803Y40550197D01*
X-119427789Y40522334D01*
X-119380000Y40513000D01*
X-115622606Y40513000D01*
X-115062000Y39952394D01*
X-115062000Y24817606D01*
X-115622606Y24257000D01*
X-162507394Y24257000D01*
X-163068000Y24817606D01*
X-163068000Y34739833D01*
X-160320162Y34739833D01*
X-160178117Y34396057D01*
X-159915327Y34132808D01*
X-159571799Y33990162D01*
X-159199833Y33989838D01*
X-158856057Y34131883D01*
X-158592808Y34394673D01*
X-158450162Y34738201D01*
X-158450121Y34785077D01*
X-157165198Y36070000D01*
X-156139802Y36070000D01*
X-157382401Y34827401D01*
X-157547148Y34580839D01*
X-157605000Y34290000D01*
X-157605000Y29845000D01*
X-157547148Y29554161D01*
X-157382401Y29307599D01*
X-156112401Y28037599D01*
X-155865840Y27872852D01*
X-155575000Y27815000D01*
X-154696975Y27815000D01*
X-154726431Y27771890D01*
X-154777440Y27520000D01*
X-154777440Y25820000D01*
X-154733162Y25584683D01*
X-154594090Y25368559D01*
X-154381890Y25223569D01*
X-154130000Y25172560D01*
X-153811033Y25172560D01*
X-153667401Y24957599D01*
X-153191401Y24481599D01*
X-152944839Y24316852D01*
X-152654000Y24259000D01*
X-121031000Y24259000D01*
X-120740161Y24316852D01*
X-120493599Y24481599D01*
X-119700198Y25275000D01*
X-119307463Y25275000D01*
X-119275327Y25242808D01*
X-118931799Y25100162D01*
X-118559833Y25099838D01*
X-118216057Y25241883D01*
X-117952808Y25504673D01*
X-117810162Y25848201D01*
X-117809838Y26220167D01*
X-117951883Y26563943D01*
X-118214673Y26827192D01*
X-118558201Y26969838D01*
X-118930167Y26970162D01*
X-119273943Y26828117D01*
X-119307118Y26795000D01*
X-120015000Y26795000D01*
X-120305839Y26737148D01*
X-120552401Y26572401D01*
X-121345802Y25779000D01*
X-141064230Y25779000D01*
X-140868039Y26072622D01*
X-140755000Y26640907D01*
X-140755000Y26699093D01*
X-140868039Y27267378D01*
X-141189946Y27749147D01*
X-141671715Y28071054D01*
X-142240000Y28184093D01*
X-142808285Y28071054D01*
X-143290054Y27749147D01*
X-143317850Y27707548D01*
X-143326838Y27755317D01*
X-143465910Y27971441D01*
X-143678110Y28116431D01*
X-143930000Y28167440D01*
X-145630000Y28167440D01*
X-145865317Y28123162D01*
X-146081441Y27984090D01*
X-146226431Y27771890D01*
X-146277440Y27520000D01*
X-146277440Y25820000D01*
X-146269725Y25779000D01*
X-147490863Y25779000D01*
X-147482560Y25820000D01*
X-147482560Y27520000D01*
X-147526838Y27755317D01*
X-147665910Y27971441D01*
X-147878110Y28116431D01*
X-148130000Y28167440D01*
X-149552638Y28167440D01*
X-150497599Y29112401D01*
X-150744161Y29277148D01*
X-151035000Y29335000D01*
X-155260198Y29335000D01*
X-156085000Y30159802D01*
X-156085000Y32663108D01*
X-154730486Y32663108D01*
X-154484183Y32138642D01*
X-154055924Y31748355D01*
X-153645890Y31578524D01*
X-153416000Y31699845D01*
X-153416000Y32893000D01*
X-154609819Y32893000D01*
X-154730486Y32663108D01*
X-156085000Y32663108D01*
X-156085000Y33376892D01*
X-154730486Y33376892D01*
X-154609819Y33147000D01*
X-153416000Y33147000D01*
X-153416000Y34340155D01*
X-153645890Y34461476D01*
X-154055924Y34291645D01*
X-154484183Y33901358D01*
X-154730486Y33376892D01*
X-156085000Y33376892D01*
X-156085000Y33975198D01*
X-155260198Y34800000D01*
X-145415000Y34800000D01*
X-145327371Y34817431D01*
X-145620380Y34524422D01*
X-145669000Y34534093D01*
X-146237285Y34421054D01*
X-146719054Y34099147D01*
X-146939000Y33769974D01*
X-147158946Y34099147D01*
X-147640715Y34421054D01*
X-148209000Y34534093D01*
X-148777285Y34421054D01*
X-149259054Y34099147D01*
X-149479000Y33769974D01*
X-149698946Y34099147D01*
X-150180715Y34421054D01*
X-150749000Y34534093D01*
X-151317285Y34421054D01*
X-151799054Y34099147D01*
X-152026702Y33758447D01*
X-152093817Y33901358D01*
X-152522076Y34291645D01*
X-152932110Y34461476D01*
X-153162000Y34340155D01*
X-153162000Y33147000D01*
X-153142000Y33147000D01*
X-153142000Y32893000D01*
X-153162000Y32893000D01*
X-153162000Y31699845D01*
X-152932110Y31578524D01*
X-152522076Y31748355D01*
X-152093817Y32138642D01*
X-152026702Y32281553D01*
X-151799054Y31940853D01*
X-151317285Y31618946D01*
X-150749000Y31505907D01*
X-150180715Y31618946D01*
X-149698946Y31940853D01*
X-149479000Y32270026D01*
X-149259054Y31940853D01*
X-148777285Y31618946D01*
X-148209000Y31505907D01*
X-147640715Y31618946D01*
X-147158946Y31940853D01*
X-146939000Y32270026D01*
X-146719054Y31940853D01*
X-146237285Y31618946D01*
X-145669000Y31505907D01*
X-145100715Y31618946D01*
X-144618946Y31940853D01*
X-144399000Y32270026D01*
X-144179054Y31940853D01*
X-143697285Y31618946D01*
X-143129000Y31505907D01*
X-142560715Y31618946D01*
X-142078946Y31940853D01*
X-141859000Y32270026D01*
X-141639054Y31940853D01*
X-141157285Y31618946D01*
X-140589000Y31505907D01*
X-140020715Y31618946D01*
X-139538946Y31940853D01*
X-139319000Y32270026D01*
X-139099054Y31940853D01*
X-138617285Y31618946D01*
X-138049000Y31505907D01*
X-137480715Y31618946D01*
X-136998946Y31940853D01*
X-136971150Y31982452D01*
X-136962162Y31934683D01*
X-136823090Y31718559D01*
X-136610890Y31573569D01*
X-136359000Y31522560D01*
X-134659000Y31522560D01*
X-134423683Y31566838D01*
X-134207559Y31705910D01*
X-134062569Y31918110D01*
X-134011560Y32170000D01*
X-134011560Y32663108D01*
X-133902486Y32663108D01*
X-133656183Y32138642D01*
X-133227924Y31748355D01*
X-132817890Y31578524D01*
X-132588000Y31699845D01*
X-132588000Y32893000D01*
X-133781819Y32893000D01*
X-133902486Y32663108D01*
X-134011560Y32663108D01*
X-134011560Y33376892D01*
X-133902486Y33376892D01*
X-133781819Y33147000D01*
X-132588000Y33147000D01*
X-132588000Y34340155D01*
X-132817890Y34461476D01*
X-133227924Y34291645D01*
X-133656183Y33901358D01*
X-133902486Y33376892D01*
X-134011560Y33376892D01*
X-134011560Y33870000D01*
X-134055838Y34105317D01*
X-134194910Y34321441D01*
X-134407110Y34466431D01*
X-134659000Y34517440D01*
X-136359000Y34517440D01*
X-136594317Y34473162D01*
X-136810441Y34334090D01*
X-136955431Y34121890D01*
X-136969086Y34054459D01*
X-136998946Y34099147D01*
X-137480715Y34421054D01*
X-138049000Y34534093D01*
X-138617285Y34421054D01*
X-139099054Y34099147D01*
X-139319000Y33769974D01*
X-139538946Y34099147D01*
X-140020715Y34421054D01*
X-140589000Y34534093D01*
X-141157285Y34421054D01*
X-141639054Y34099147D01*
X-141859000Y33769974D01*
X-142078946Y34099147D01*
X-142560715Y34421054D01*
X-143129000Y34534093D01*
X-143543568Y34451630D01*
X-143195198Y34800000D01*
X-127314802Y34800000D01*
X-126966432Y34451630D01*
X-127381000Y34534093D01*
X-127949285Y34421054D01*
X-128431054Y34099147D01*
X-128651000Y33769974D01*
X-128870946Y34099147D01*
X-129352715Y34421054D01*
X-129921000Y34534093D01*
X-130489285Y34421054D01*
X-130971054Y34099147D01*
X-131198702Y33758447D01*
X-131265817Y33901358D01*
X-131694076Y34291645D01*
X-132104110Y34461476D01*
X-132334000Y34340155D01*
X-132334000Y33147000D01*
X-132314000Y33147000D01*
X-132314000Y32893000D01*
X-132334000Y32893000D01*
X-132334000Y31699845D01*
X-132104110Y31578524D01*
X-131694076Y31748355D01*
X-131265817Y32138642D01*
X-131198702Y32281553D01*
X-130971054Y31940853D01*
X-130489285Y31618946D01*
X-129921000Y31505907D01*
X-129352715Y31618946D01*
X-128870946Y31940853D01*
X-128651000Y32270026D01*
X-128431054Y31940853D01*
X-127949285Y31618946D01*
X-127381000Y31505907D01*
X-126812715Y31618946D01*
X-126330946Y31940853D01*
X-126303150Y31982452D01*
X-126294162Y31934683D01*
X-126155090Y31718559D01*
X-125942890Y31573569D01*
X-125691000Y31522560D01*
X-123991000Y31522560D01*
X-123766339Y31564833D01*
X-122220162Y31564833D01*
X-122170000Y31443431D01*
X-122170000Y29516822D01*
X-122219838Y29396799D01*
X-122220162Y29024833D01*
X-122078117Y28681057D01*
X-121815327Y28417808D01*
X-121471799Y28275162D01*
X-121099833Y28274838D01*
X-120756057Y28416883D01*
X-120492808Y28679673D01*
X-120350162Y29023201D01*
X-120349838Y29395167D01*
X-120400000Y29516569D01*
X-120400000Y31443178D01*
X-120350162Y31563201D01*
X-120349838Y31935167D01*
X-120491883Y32278943D01*
X-120754673Y32542192D01*
X-121098201Y32684838D01*
X-121470167Y32685162D01*
X-121813943Y32543117D01*
X-122077192Y32280327D01*
X-122219838Y31936799D01*
X-122220162Y31564833D01*
X-123766339Y31564833D01*
X-123755683Y31566838D01*
X-123539559Y31705910D01*
X-123394569Y31918110D01*
X-123343560Y32170000D01*
X-123343560Y33870000D01*
X-123387838Y34105317D01*
X-123526910Y34321441D01*
X-123739110Y34466431D01*
X-123991000Y34517440D01*
X-124882638Y34517440D01*
X-126462599Y36097401D01*
X-126709161Y36262148D01*
X-127000000Y36320000D01*
X-143510000Y36320000D01*
X-143597629Y36302569D01*
X-142630696Y37269502D01*
X-142306715Y37333946D01*
X-141824946Y37655853D01*
X-141597298Y37996553D01*
X-141530183Y37853642D01*
X-141101924Y37463355D01*
X-140691890Y37293524D01*
X-140462000Y37414845D01*
X-140462000Y38608000D01*
X-140482000Y38608000D01*
X-140482000Y38862000D01*
X-140462000Y38862000D01*
X-140462000Y40055155D01*
X-140691890Y40176476D01*
X-141101924Y40006645D01*
X-141530183Y39616358D01*
X-141597298Y39473447D01*
X-141824946Y39814147D01*
X-142306715Y40136054D01*
X-142875000Y40249093D01*
X-143443285Y40136054D01*
X-143925054Y39814147D01*
X-144145000Y39484974D01*
X-144364946Y39814147D01*
X-144655000Y40007954D01*
X-144655000Y43760537D01*
X-144622808Y43792673D01*
X-144480162Y44136201D01*
X-144479838Y44508167D01*
X-144621883Y44851943D01*
X-144884673Y45115192D01*
X-145228201Y45257838D01*
X-145600167Y45258162D01*
X-145943943Y45116117D01*
X-146207192Y44853327D01*
X-146349838Y44509799D01*
X-146350162Y44137833D01*
X-146208117Y43794057D01*
X-146175000Y43760882D01*
X-146175000Y40007954D01*
X-146465054Y39814147D01*
X-146685000Y39484974D01*
X-146904946Y39814147D01*
X-147386715Y40136054D01*
X-147955000Y40249093D01*
X-148523285Y40136054D01*
X-149005054Y39814147D01*
X-149225000Y39484974D01*
X-149444946Y39814147D01*
X-149926715Y40136054D01*
X-150495000Y40249093D01*
X-151063285Y40136054D01*
X-151545054Y39814147D01*
X-151765000Y39484974D01*
X-151984946Y39814147D01*
X-152466715Y40136054D01*
X-153035000Y40249093D01*
X-153603285Y40136054D01*
X-154085054Y39814147D01*
X-154305000Y39484974D01*
X-154524946Y39814147D01*
X-155006715Y40136054D01*
X-155575000Y40249093D01*
X-156143285Y40136054D01*
X-156625054Y39814147D01*
X-156946961Y39332378D01*
X-157060000Y38764093D01*
X-157060000Y38705907D01*
X-156946961Y38137622D01*
X-156625054Y37655853D01*
X-156526498Y37590000D01*
X-157480000Y37590000D01*
X-157770839Y37532148D01*
X-158017401Y37367401D01*
X-159524680Y35860122D01*
X-159570167Y35860162D01*
X-159913943Y35718117D01*
X-160177192Y35455327D01*
X-160319838Y35111799D01*
X-160320162Y34739833D01*
X-163068000Y34739833D01*
X-163068000Y39952394D01*
X-162507394Y40513000D01*
X-158750000Y40513000D01*
X-158700590Y40523006D01*
X-158660197Y40550197D01*
X-158120561Y41089833D01*
X-155240162Y41089833D01*
X-155098117Y40746057D01*
X-154835327Y40482808D01*
X-154491799Y40340162D01*
X-154119833Y40339838D01*
X-153998431Y40390000D01*
X-149531822Y40390000D01*
X-149411799Y40340162D01*
X-149039833Y40339838D01*
X-148696057Y40481883D01*
X-148432808Y40744673D01*
X-148290162Y41088201D01*
X-148289838Y41460167D01*
X-148431883Y41803943D01*
X-148694673Y42067192D01*
X-149038201Y42209838D01*
X-149410167Y42210162D01*
X-149531569Y42160000D01*
X-153998178Y42160000D01*
X-154118201Y42209838D01*
X-154490167Y42210162D01*
X-154833943Y42068117D01*
X-155097192Y41805327D01*
X-155239838Y41461799D01*
X-155240162Y41089833D01*
X-158120561Y41089833D01*
X-157390197Y41820197D01*
X-157366408Y41853204D01*
X-156731408Y43123204D01*
X-156718000Y43180000D01*
X-156718000Y44450000D01*
X-156731408Y44506796D01*
X-157366408Y45776796D01*
X-157390197Y45809803D01*
X-158660197Y47079803D01*
X-158702211Y47107666D01*
X-158750000Y47117000D01*
X-162507394Y47117000D01*
X-163068000Y47677606D01*
X-163068000Y47974250D01*
X-155915000Y47974250D01*
X-155915000Y46233690D01*
X-155818327Y46000301D01*
X-155639698Y45821673D01*
X-155406309Y45725000D01*
X-154565750Y45725000D01*
X-154407000Y45883750D01*
X-154407000Y48133000D01*
X-154153000Y48133000D01*
X-154153000Y45883750D01*
X-153994250Y45725000D01*
X-153153691Y45725000D01*
X-152920302Y45821673D01*
X-152741673Y46000301D01*
X-152645000Y46233690D01*
X-152645000Y46710000D01*
X-149627440Y46710000D01*
X-149627440Y45210000D01*
X-149583162Y44974683D01*
X-149444090Y44758559D01*
X-149231890Y44613569D01*
X-148980000Y44562560D01*
X-146980000Y44562560D01*
X-146744683Y44606838D01*
X-146528559Y44745910D01*
X-146383569Y44958110D01*
X-146332560Y45210000D01*
X-146332560Y46710000D01*
X-146376838Y46945317D01*
X-146482482Y47109492D01*
X-146441673Y47150301D01*
X-146396235Y47260000D01*
X-144322440Y47260000D01*
X-144322440Y45260000D01*
X-144278162Y45024683D01*
X-144139090Y44808559D01*
X-143926890Y44663569D01*
X-143675000Y44612560D01*
X-142075000Y44612560D01*
X-141844129Y44656001D01*
X-141904838Y44509799D01*
X-141905162Y44137833D01*
X-141763117Y43794057D01*
X-141730000Y43760882D01*
X-141730000Y42027963D01*
X-141762192Y41995827D01*
X-141904838Y41652299D01*
X-141905162Y41280333D01*
X-141763117Y40936557D01*
X-141500327Y40673308D01*
X-141156799Y40530662D01*
X-140784833Y40530338D01*
X-140441057Y40672383D01*
X-140177808Y40935173D01*
X-140035162Y41278701D01*
X-140034838Y41650667D01*
X-140176883Y41994443D01*
X-140210000Y42027618D01*
X-140210000Y43637667D01*
X-140103327Y43530808D01*
X-139759799Y43388162D01*
X-139712923Y43388121D01*
X-137189401Y40864599D01*
X-136942839Y40699852D01*
X-136652000Y40642000D01*
X-134109302Y40642000D01*
X-133475154Y40007852D01*
X-133765054Y39814147D01*
X-133985000Y39484974D01*
X-134204946Y39814147D01*
X-134686715Y40136054D01*
X-135255000Y40249093D01*
X-135823285Y40136054D01*
X-136305054Y39814147D01*
X-136525000Y39484974D01*
X-136744946Y39814147D01*
X-137226715Y40136054D01*
X-137795000Y40249093D01*
X-138363285Y40136054D01*
X-138845054Y39814147D01*
X-139072702Y39473447D01*
X-139139817Y39616358D01*
X-139568076Y40006645D01*
X-139978110Y40176476D01*
X-140208000Y40055155D01*
X-140208000Y38862000D01*
X-140188000Y38862000D01*
X-140188000Y38608000D01*
X-140208000Y38608000D01*
X-140208000Y37414845D01*
X-139978110Y37293524D01*
X-139568076Y37463355D01*
X-139139817Y37853642D01*
X-139072702Y37996553D01*
X-138845054Y37655853D01*
X-138363285Y37333946D01*
X-137795000Y37220907D01*
X-137226715Y37333946D01*
X-136744946Y37655853D01*
X-136525000Y37985026D01*
X-136305054Y37655853D01*
X-135823285Y37333946D01*
X-135255000Y37220907D01*
X-134686715Y37333946D01*
X-134204946Y37655853D01*
X-133985000Y37985026D01*
X-133765054Y37655853D01*
X-133283285Y37333946D01*
X-132715000Y37220907D01*
X-132146715Y37333946D01*
X-131664946Y37655853D01*
X-131445000Y37985026D01*
X-131225054Y37655853D01*
X-130743285Y37333946D01*
X-130175000Y37220907D01*
X-129606715Y37333946D01*
X-129124946Y37655853D01*
X-128905000Y37985026D01*
X-128685054Y37655853D01*
X-128203285Y37333946D01*
X-127635000Y37220907D01*
X-127066715Y37333946D01*
X-126584946Y37655853D01*
X-126365000Y37985026D01*
X-126145054Y37655853D01*
X-125663285Y37333946D01*
X-125095000Y37220907D01*
X-124526715Y37333946D01*
X-124044946Y37655853D01*
X-124015597Y37699777D01*
X-123943327Y37525302D01*
X-123764699Y37346673D01*
X-123531310Y37250000D01*
X-122840750Y37250000D01*
X-122682000Y37408750D01*
X-122682000Y38608000D01*
X-122428000Y38608000D01*
X-122428000Y37408750D01*
X-122269250Y37250000D01*
X-121578690Y37250000D01*
X-121345301Y37346673D01*
X-121166673Y37525302D01*
X-121070000Y37758691D01*
X-121070000Y38449250D01*
X-121228750Y38608000D01*
X-122428000Y38608000D01*
X-122682000Y38608000D01*
X-122702000Y38608000D01*
X-122702000Y38862000D01*
X-122682000Y38862000D01*
X-122682000Y40061250D01*
X-122428000Y40061250D01*
X-122428000Y38862000D01*
X-121228750Y38862000D01*
X-121070000Y39020750D01*
X-121070000Y39711309D01*
X-121166673Y39944698D01*
X-121345301Y40123327D01*
X-121578690Y40220000D01*
X-122269250Y40220000D01*
X-122428000Y40061250D01*
X-122682000Y40061250D01*
X-122840750Y40220000D01*
X-123531310Y40220000D01*
X-123764699Y40123327D01*
X-123943327Y39944698D01*
X-124015597Y39770223D01*
X-124044946Y39814147D01*
X-124526715Y40136054D01*
X-125095000Y40249093D01*
X-125663285Y40136054D01*
X-126145054Y39814147D01*
X-126365000Y39484974D01*
X-126584946Y39814147D01*
X-126874846Y40007852D01*
X-122652599Y44230099D01*
X-122487852Y44476660D01*
X-122460820Y44612560D01*
X-122340000Y44612560D01*
X-122104683Y44656838D01*
X-121888559Y44795910D01*
X-121743569Y45008110D01*
X-121692560Y45260000D01*
X-121692560Y47260000D01*
X-121736838Y47495317D01*
X-121875910Y47711441D01*
X-122088110Y47856431D01*
X-122340000Y47907440D01*
X-124040000Y47907440D01*
X-124275317Y47863162D01*
X-124491441Y47724090D01*
X-124566121Y47614792D01*
X-124970000Y47969208D01*
X-124970000Y51260000D01*
X-124687440Y51260000D01*
X-124687440Y49260000D01*
X-124643162Y49024683D01*
X-124504090Y48808559D01*
X-124291890Y48663569D01*
X-124040000Y48612560D01*
X-122340000Y48612560D01*
X-122104683Y48656838D01*
X-121888559Y48795910D01*
X-121743569Y49008110D01*
X-121692560Y49260000D01*
X-121692560Y49375000D01*
X-119277515Y49375000D01*
X-119275327Y49372808D01*
X-118931799Y49230162D01*
X-118559833Y49229838D01*
X-118216057Y49371883D01*
X-117952808Y49634673D01*
X-117810162Y49978201D01*
X-117809838Y50350167D01*
X-117951883Y50693943D01*
X-118214673Y50957192D01*
X-118495742Y51073903D01*
X-118501325Y51077633D01*
X-118507853Y51078931D01*
X-118558201Y51099838D01*
X-118613196Y51099886D01*
X-118840000Y51145001D01*
X-118840005Y51145000D01*
X-121692560Y51145000D01*
X-121692560Y51260000D01*
X-121736838Y51495317D01*
X-121875910Y51711441D01*
X-122088110Y51856431D01*
X-122340000Y51907440D01*
X-124040000Y51907440D01*
X-124275317Y51863162D01*
X-124491441Y51724090D01*
X-124636431Y51511890D01*
X-124687440Y51260000D01*
X-124970000Y51260000D01*
X-124970000Y51507537D01*
X-124937808Y51539673D01*
X-124795162Y51883201D01*
X-124794838Y52255167D01*
X-124936883Y52598943D01*
X-125199673Y52862192D01*
X-125543201Y53004838D01*
X-125915167Y53005162D01*
X-126258943Y52863117D01*
X-126522192Y52600327D01*
X-126664838Y52256799D01*
X-126665162Y51884833D01*
X-126664413Y51883021D01*
X-126785000Y51907440D01*
X-128485000Y51907440D01*
X-128720317Y51863162D01*
X-128936441Y51724090D01*
X-129081431Y51511890D01*
X-129132440Y51260000D01*
X-129132440Y51020000D01*
X-130582560Y51020000D01*
X-130582560Y51260000D01*
X-130626838Y51495317D01*
X-130765910Y51711441D01*
X-130978110Y51856431D01*
X-131230000Y51907440D01*
X-132930000Y51907440D01*
X-133165317Y51863162D01*
X-133381441Y51724090D01*
X-133526431Y51511890D01*
X-133577440Y51260000D01*
X-133577440Y49260000D01*
X-133533162Y49024683D01*
X-133394090Y48808559D01*
X-133181890Y48663569D01*
X-132930000Y48612560D01*
X-131230000Y48612560D01*
X-130994683Y48656838D01*
X-130778559Y48795910D01*
X-130633569Y49008110D01*
X-130582560Y49260000D01*
X-130582560Y49500000D01*
X-129132440Y49500000D01*
X-129132440Y49260000D01*
X-129088162Y49024683D01*
X-128949090Y48808559D01*
X-128736890Y48663569D01*
X-128485000Y48612560D01*
X-126785000Y48612560D01*
X-126549683Y48656838D01*
X-126490000Y48695243D01*
X-126490000Y47826975D01*
X-126533110Y47856431D01*
X-126785000Y47907440D01*
X-128485000Y47907440D01*
X-128720317Y47863162D01*
X-128936441Y47724090D01*
X-129081431Y47511890D01*
X-129132440Y47260000D01*
X-129132440Y45260000D01*
X-129088162Y45024683D01*
X-128949090Y44808559D01*
X-128736890Y44663569D01*
X-128485000Y44612560D01*
X-126785000Y44612560D01*
X-126549683Y44656838D01*
X-126333559Y44795910D01*
X-126188569Y45008110D01*
X-126137560Y45260000D01*
X-126137560Y46971515D01*
X-124687440Y45698989D01*
X-124687440Y45260000D01*
X-124643162Y45024683D01*
X-124504090Y44808559D01*
X-124337541Y44694761D01*
X-128172401Y40859901D01*
X-128337148Y40613339D01*
X-128395000Y40322500D01*
X-128395000Y40007954D01*
X-128685054Y39814147D01*
X-128905000Y39484974D01*
X-129124946Y39814147D01*
X-129415000Y40007954D01*
X-129415000Y41275000D01*
X-129472852Y41565839D01*
X-129637599Y41812401D01*
X-131415599Y43590401D01*
X-131662161Y43755148D01*
X-131953000Y43813000D01*
X-134178198Y43813000D01*
X-134827878Y44462680D01*
X-134827838Y44508167D01*
X-134969883Y44851943D01*
X-135232673Y45115192D01*
X-135576201Y45257838D01*
X-135948167Y45258162D01*
X-136291943Y45116117D01*
X-136398171Y45010074D01*
X-136347560Y45260000D01*
X-136347560Y45974250D01*
X-133565000Y45974250D01*
X-133565000Y45133691D01*
X-133468327Y44900302D01*
X-133289699Y44721673D01*
X-133056310Y44625000D01*
X-132365750Y44625000D01*
X-132207000Y44783750D01*
X-132207000Y46133000D01*
X-131953000Y46133000D01*
X-131953000Y44783750D01*
X-131794250Y44625000D01*
X-131103690Y44625000D01*
X-130870301Y44721673D01*
X-130691673Y44900302D01*
X-130595000Y45133691D01*
X-130595000Y45974250D01*
X-130753750Y46133000D01*
X-131953000Y46133000D01*
X-132207000Y46133000D01*
X-133406250Y46133000D01*
X-133565000Y45974250D01*
X-136347560Y45974250D01*
X-136347560Y47260000D01*
X-136371326Y47386309D01*
X-133565000Y47386309D01*
X-133565000Y46545750D01*
X-133406250Y46387000D01*
X-132207000Y46387000D01*
X-132207000Y47736250D01*
X-131953000Y47736250D01*
X-131953000Y46387000D01*
X-130753750Y46387000D01*
X-130595000Y46545750D01*
X-130595000Y47386309D01*
X-130691673Y47619698D01*
X-130870301Y47798327D01*
X-131103690Y47895000D01*
X-131794250Y47895000D01*
X-131953000Y47736250D01*
X-132207000Y47736250D01*
X-132365750Y47895000D01*
X-133056310Y47895000D01*
X-133289699Y47798327D01*
X-133468327Y47619698D01*
X-133565000Y47386309D01*
X-136371326Y47386309D01*
X-136391838Y47495317D01*
X-136530910Y47711441D01*
X-136743110Y47856431D01*
X-136995000Y47907440D01*
X-138595000Y47907440D01*
X-138830317Y47863162D01*
X-139046441Y47724090D01*
X-139191431Y47511890D01*
X-139242440Y47260000D01*
X-139242440Y45260000D01*
X-139229814Y45192900D01*
X-139386201Y45257838D01*
X-139758167Y45258162D01*
X-140101943Y45116117D01*
X-140271565Y44946791D01*
X-140439673Y45115192D01*
X-140783201Y45257838D01*
X-141155167Y45258162D01*
X-141452839Y45135167D01*
X-141427560Y45260000D01*
X-141427560Y47260000D01*
X-141471838Y47495317D01*
X-141610910Y47711441D01*
X-141823110Y47856431D01*
X-142075000Y47907440D01*
X-143675000Y47907440D01*
X-143910317Y47863162D01*
X-144126441Y47724090D01*
X-144271431Y47511890D01*
X-144322440Y47260000D01*
X-146396235Y47260000D01*
X-146345000Y47383690D01*
X-146345000Y47974250D01*
X-146503750Y48133000D01*
X-147853000Y48133000D01*
X-147853000Y48113000D01*
X-148107000Y48113000D01*
X-148107000Y48133000D01*
X-149456250Y48133000D01*
X-149615000Y47974250D01*
X-149615000Y47383690D01*
X-149518327Y47150301D01*
X-149476366Y47108340D01*
X-149576431Y46961890D01*
X-149627440Y46710000D01*
X-152645000Y46710000D01*
X-152645000Y47974250D01*
X-152803750Y48133000D01*
X-154153000Y48133000D01*
X-154407000Y48133000D01*
X-155756250Y48133000D01*
X-155915000Y47974250D01*
X-163068000Y47974250D01*
X-163068000Y52175000D01*
X-161532440Y52175000D01*
X-161532440Y49975000D01*
X-161488162Y49739683D01*
X-161349090Y49523559D01*
X-161136890Y49378569D01*
X-160885000Y49327560D01*
X-157885000Y49327560D01*
X-157649683Y49371838D01*
X-157433559Y49510910D01*
X-157288569Y49723110D01*
X-157237560Y49975000D01*
X-157237560Y50286310D01*
X-155915000Y50286310D01*
X-155915000Y48545750D01*
X-155756250Y48387000D01*
X-154407000Y48387000D01*
X-154407000Y50636250D01*
X-154153000Y50636250D01*
X-154153000Y48387000D01*
X-152803750Y48387000D01*
X-152645000Y48545750D01*
X-152645000Y50286310D01*
X-152741673Y50519699D01*
X-152920302Y50698327D01*
X-153153691Y50795000D01*
X-153994250Y50795000D01*
X-154153000Y50636250D01*
X-154407000Y50636250D01*
X-154565750Y50795000D01*
X-155406309Y50795000D01*
X-155639698Y50698327D01*
X-155818327Y50519699D01*
X-155915000Y50286310D01*
X-157237560Y50286310D01*
X-157237560Y52175000D01*
X-157281838Y52410317D01*
X-157420910Y52626441D01*
X-157633110Y52771431D01*
X-157885000Y52822440D01*
X-160885000Y52822440D01*
X-161120317Y52778162D01*
X-161336441Y52639090D01*
X-161481431Y52426890D01*
X-161532440Y52175000D01*
X-163068000Y52175000D01*
X-163068000Y62812394D01*
X-163032440Y62847954D01*
X-163032440Y61380000D01*
X-162988162Y61144683D01*
X-162849090Y60928559D01*
X-162636890Y60783569D01*
X-162385000Y60732560D01*
X-160385000Y60732560D01*
X-160149683Y60776838D01*
X-159933559Y60915910D01*
X-159788569Y61128110D01*
X-159737560Y61380000D01*
X-159737560Y63080000D01*
X-159779153Y63301045D01*
X-159707198Y63373000D01*
X-158953342Y63373000D01*
X-158981431Y63331890D01*
M02*
