G04 #@! TF.FileFunction,Legend,Top*
%FSLAX46Y46*%
G04 Gerber Fmt 4.6, Leading zero omitted, Abs format (unit mm)*
G04 Created by KiCad (PCBNEW 4.0.7) date 03/26/18 16:58:00*
%MOMM*%
%LPD*%
G01*
G04 APERTURE LIST*
%ADD10C,0.100000*%
%ADD11C,0.200000*%
%ADD12C,0.150000*%
%ADD13C,0.120000*%
G04 APERTURE END LIST*
D10*
D11*
X163068000Y-87884000D02*
X163068000Y-96139000D01*
X175133000Y-87884000D02*
X163068000Y-87884000D01*
X175133000Y-96266000D02*
X175133000Y-88011000D01*
X163068000Y-96139000D02*
X175133000Y-96139000D01*
X205359000Y-90805000D02*
X193675000Y-90805000D01*
X205359000Y-102235000D02*
X193675000Y-102235000D01*
X206375000Y-91821000D02*
X206375000Y-101219000D01*
X205359000Y-90805000D02*
X206375000Y-91821000D01*
X205359000Y-102235000D02*
X206375000Y-101219000D01*
X191587381Y-81192619D02*
X191111190Y-81525953D01*
X191587381Y-81764048D02*
X190587381Y-81764048D01*
X190587381Y-81383095D01*
X190635000Y-81287857D01*
X190682619Y-81240238D01*
X190777857Y-81192619D01*
X190920714Y-81192619D01*
X191015952Y-81240238D01*
X191063571Y-81287857D01*
X191111190Y-81383095D01*
X191111190Y-81764048D01*
X191539762Y-80811667D02*
X191587381Y-80668810D01*
X191587381Y-80430714D01*
X191539762Y-80335476D01*
X191492143Y-80287857D01*
X191396905Y-80240238D01*
X191301667Y-80240238D01*
X191206429Y-80287857D01*
X191158810Y-80335476D01*
X191111190Y-80430714D01*
X191063571Y-80621191D01*
X191015952Y-80716429D01*
X190968333Y-80764048D01*
X190873095Y-80811667D01*
X190777857Y-80811667D01*
X190682619Y-80764048D01*
X190635000Y-80716429D01*
X190587381Y-80621191D01*
X190587381Y-80383095D01*
X190635000Y-80240238D01*
X190587381Y-79954524D02*
X190587381Y-79383095D01*
X191587381Y-79668810D02*
X190587381Y-79668810D01*
X167775000Y-91566904D02*
X167727381Y-91662142D01*
X167727381Y-91804999D01*
X167775000Y-91947857D01*
X167870238Y-92043095D01*
X167965476Y-92090714D01*
X168155952Y-92138333D01*
X168298810Y-92138333D01*
X168489286Y-92090714D01*
X168584524Y-92043095D01*
X168679762Y-91947857D01*
X168727381Y-91804999D01*
X168727381Y-91709761D01*
X168679762Y-91566904D01*
X168632143Y-91519285D01*
X168298810Y-91519285D01*
X168298810Y-91709761D01*
X168727381Y-91090714D02*
X167727381Y-91090714D01*
X168727381Y-90519285D01*
X167727381Y-90519285D01*
X168727381Y-90043095D02*
X167727381Y-90043095D01*
X167727381Y-89805000D01*
X167775000Y-89662142D01*
X167870238Y-89566904D01*
X167965476Y-89519285D01*
X168155952Y-89471666D01*
X168298810Y-89471666D01*
X168489286Y-89519285D01*
X168584524Y-89566904D01*
X168679762Y-89662142D01*
X168727381Y-89805000D01*
X168727381Y-90043095D01*
X167727381Y-94170476D02*
X167727381Y-94646667D01*
X168203571Y-94694286D01*
X168155952Y-94646667D01*
X168108333Y-94551429D01*
X168108333Y-94313333D01*
X168155952Y-94218095D01*
X168203571Y-94170476D01*
X168298810Y-94122857D01*
X168536905Y-94122857D01*
X168632143Y-94170476D01*
X168679762Y-94218095D01*
X168727381Y-94313333D01*
X168727381Y-94551429D01*
X168679762Y-94646667D01*
X168632143Y-94694286D01*
X167727381Y-93837143D02*
X168727381Y-93503810D01*
X167727381Y-93170476D01*
X161107381Y-104243095D02*
X160107381Y-104243095D01*
X160107381Y-104005000D01*
X160155000Y-103862142D01*
X160250238Y-103766904D01*
X160345476Y-103719285D01*
X160535952Y-103671666D01*
X160678810Y-103671666D01*
X160869286Y-103719285D01*
X160964524Y-103766904D01*
X161059762Y-103862142D01*
X161107381Y-104005000D01*
X161107381Y-104243095D01*
X160107381Y-103052619D02*
X160107381Y-102957380D01*
X160155000Y-102862142D01*
X160202619Y-102814523D01*
X160297857Y-102766904D01*
X160488333Y-102719285D01*
X160726429Y-102719285D01*
X160916905Y-102766904D01*
X161012143Y-102814523D01*
X161059762Y-102862142D01*
X161107381Y-102957380D01*
X161107381Y-103052619D01*
X161059762Y-103147857D01*
X161012143Y-103195476D01*
X160916905Y-103243095D01*
X160726429Y-103290714D01*
X160488333Y-103290714D01*
X160297857Y-103243095D01*
X160202619Y-103195476D01*
X160155000Y-103147857D01*
X160107381Y-103052619D01*
X197223095Y-100782381D02*
X197223095Y-99782381D01*
X197461190Y-99782381D01*
X197604048Y-99830000D01*
X197699286Y-99925238D01*
X197746905Y-100020476D01*
X197794524Y-100210952D01*
X197794524Y-100353810D01*
X197746905Y-100544286D01*
X197699286Y-100639524D01*
X197604048Y-100734762D01*
X197461190Y-100782381D01*
X197223095Y-100782381D01*
X197794524Y-98147143D02*
X197746905Y-98194762D01*
X197604048Y-98242381D01*
X197508810Y-98242381D01*
X197365952Y-98194762D01*
X197270714Y-98099524D01*
X197223095Y-98004286D01*
X197175476Y-97813810D01*
X197175476Y-97670952D01*
X197223095Y-97480476D01*
X197270714Y-97385238D01*
X197365952Y-97290000D01*
X197508810Y-97242381D01*
X197604048Y-97242381D01*
X197746905Y-97290000D01*
X197794524Y-97337619D01*
X197746905Y-94750000D02*
X197651667Y-94702381D01*
X197508810Y-94702381D01*
X197365952Y-94750000D01*
X197270714Y-94845238D01*
X197223095Y-94940476D01*
X197175476Y-95130952D01*
X197175476Y-95273810D01*
X197223095Y-95464286D01*
X197270714Y-95559524D01*
X197365952Y-95654762D01*
X197508810Y-95702381D01*
X197604048Y-95702381D01*
X197746905Y-95654762D01*
X197794524Y-95607143D01*
X197794524Y-95273810D01*
X197604048Y-95273810D01*
X197151667Y-92162381D02*
X197770715Y-92162381D01*
X197437381Y-92543333D01*
X197580239Y-92543333D01*
X197675477Y-92590952D01*
X197723096Y-92638571D01*
X197770715Y-92733810D01*
X197770715Y-92971905D01*
X197723096Y-93067143D01*
X197675477Y-93114762D01*
X197580239Y-93162381D01*
X197294524Y-93162381D01*
X197199286Y-93114762D01*
X197151667Y-93067143D01*
X187793334Y-96242143D02*
X187745715Y-96289762D01*
X187602858Y-96337381D01*
X187507620Y-96337381D01*
X187364762Y-96289762D01*
X187269524Y-96194524D01*
X187221905Y-96099286D01*
X187174286Y-95908810D01*
X187174286Y-95765952D01*
X187221905Y-95575476D01*
X187269524Y-95480238D01*
X187364762Y-95385000D01*
X187507620Y-95337381D01*
X187602858Y-95337381D01*
X187745715Y-95385000D01*
X187793334Y-95432619D01*
X188174286Y-96289762D02*
X188317143Y-96337381D01*
X188555239Y-96337381D01*
X188650477Y-96289762D01*
X188698096Y-96242143D01*
X188745715Y-96146905D01*
X188745715Y-96051667D01*
X188698096Y-95956429D01*
X188650477Y-95908810D01*
X188555239Y-95861190D01*
X188364762Y-95813571D01*
X188269524Y-95765952D01*
X188221905Y-95718333D01*
X188174286Y-95623095D01*
X188174286Y-95527857D01*
X188221905Y-95432619D01*
X188269524Y-95385000D01*
X188364762Y-95337381D01*
X188602858Y-95337381D01*
X188745715Y-95385000D01*
X185745619Y-93797381D02*
X185412285Y-93321190D01*
X185174190Y-93797381D02*
X185174190Y-92797381D01*
X185555143Y-92797381D01*
X185650381Y-92845000D01*
X185698000Y-92892619D01*
X185745619Y-92987857D01*
X185745619Y-93130714D01*
X185698000Y-93225952D01*
X185650381Y-93273571D01*
X185555143Y-93321190D01*
X185174190Y-93321190D01*
X186174190Y-93273571D02*
X186507524Y-93273571D01*
X186650381Y-93797381D02*
X186174190Y-93797381D01*
X186174190Y-92797381D01*
X186650381Y-92797381D01*
X187031333Y-93749762D02*
X187174190Y-93797381D01*
X187412286Y-93797381D01*
X187507524Y-93749762D01*
X187555143Y-93702143D01*
X187602762Y-93606905D01*
X187602762Y-93511667D01*
X187555143Y-93416429D01*
X187507524Y-93368810D01*
X187412286Y-93321190D01*
X187221809Y-93273571D01*
X187126571Y-93225952D01*
X187078952Y-93178333D01*
X187031333Y-93083095D01*
X187031333Y-92987857D01*
X187078952Y-92892619D01*
X187126571Y-92845000D01*
X187221809Y-92797381D01*
X187459905Y-92797381D01*
X187602762Y-92845000D01*
X188031333Y-93273571D02*
X188364667Y-93273571D01*
X188507524Y-93797381D02*
X188031333Y-93797381D01*
X188031333Y-92797381D01*
X188507524Y-92797381D01*
X188793238Y-92797381D02*
X189364667Y-92797381D01*
X189078952Y-93797381D02*
X189078952Y-92797381D01*
X187317143Y-83637381D02*
X186840952Y-83637381D01*
X186840952Y-82637381D01*
X187650476Y-83113571D02*
X187983810Y-83113571D01*
X188126667Y-83637381D02*
X187650476Y-83637381D01*
X187650476Y-82637381D01*
X188126667Y-82637381D01*
X188555238Y-83637381D02*
X188555238Y-82637381D01*
X188793333Y-82637381D01*
X188936191Y-82685000D01*
X189031429Y-82780238D01*
X189079048Y-82875476D01*
X189126667Y-83065952D01*
X189126667Y-83208810D01*
X189079048Y-83399286D01*
X189031429Y-83494524D01*
X188936191Y-83589762D01*
X188793333Y-83637381D01*
X188555238Y-83637381D01*
X186721905Y-100417381D02*
X187340953Y-100417381D01*
X187007619Y-100798333D01*
X187150477Y-100798333D01*
X187245715Y-100845952D01*
X187293334Y-100893571D01*
X187340953Y-100988810D01*
X187340953Y-101226905D01*
X187293334Y-101322143D01*
X187245715Y-101369762D01*
X187150477Y-101417381D01*
X186864762Y-101417381D01*
X186769524Y-101369762D01*
X186721905Y-101322143D01*
X187626667Y-100417381D02*
X187960000Y-101417381D01*
X188293334Y-100417381D01*
X188531429Y-100417381D02*
X189150477Y-100417381D01*
X188817143Y-100798333D01*
X188960001Y-100798333D01*
X189055239Y-100845952D01*
X189102858Y-100893571D01*
X189150477Y-100988810D01*
X189150477Y-101226905D01*
X189102858Y-101322143D01*
X189055239Y-101369762D01*
X188960001Y-101417381D01*
X188674286Y-101417381D01*
X188579048Y-101369762D01*
X188531429Y-101322143D01*
X155392381Y-102734476D02*
X155392381Y-103210667D01*
X154392381Y-103210667D01*
X155297143Y-101829714D02*
X155344762Y-101877333D01*
X155392381Y-102020190D01*
X155392381Y-102115428D01*
X155344762Y-102258286D01*
X155249524Y-102353524D01*
X155154286Y-102401143D01*
X154963810Y-102448762D01*
X154820952Y-102448762D01*
X154630476Y-102401143D01*
X154535238Y-102353524D01*
X154440000Y-102258286D01*
X154392381Y-102115428D01*
X154392381Y-102020190D01*
X154440000Y-101877333D01*
X154487619Y-101829714D01*
X155392381Y-101401143D02*
X154392381Y-101401143D01*
X154392381Y-101163048D01*
X154440000Y-101020190D01*
X154535238Y-100924952D01*
X154630476Y-100877333D01*
X154820952Y-100829714D01*
X154963810Y-100829714D01*
X155154286Y-100877333D01*
X155249524Y-100924952D01*
X155344762Y-101020190D01*
X155392381Y-101163048D01*
X155392381Y-101401143D01*
X154392381Y-99782095D02*
X154392381Y-99210666D01*
X155392381Y-99496381D02*
X154392381Y-99496381D01*
X154868571Y-98543999D02*
X154868571Y-98877333D01*
X155392381Y-98877333D02*
X154392381Y-98877333D01*
X154392381Y-98401142D01*
X154392381Y-98163047D02*
X154392381Y-97591618D01*
X155392381Y-97877333D02*
X154392381Y-97877333D01*
X155392381Y-95972570D02*
X155392381Y-96543999D01*
X155392381Y-96258285D02*
X154392381Y-96258285D01*
X154535238Y-96353523D01*
X154630476Y-96448761D01*
X154678095Y-96543999D01*
X155297143Y-95543999D02*
X155344762Y-95496380D01*
X155392381Y-95543999D01*
X155344762Y-95591618D01*
X155297143Y-95543999D01*
X155392381Y-95543999D01*
X154725714Y-94639237D02*
X155392381Y-94639237D01*
X154344762Y-94877333D02*
X155059048Y-95115428D01*
X155059048Y-94496380D01*
X154725714Y-93686856D02*
X155392381Y-93686856D01*
X154344762Y-93924952D02*
X155059048Y-94163047D01*
X155059048Y-93543999D01*
X154392381Y-93210666D02*
X154582857Y-93210666D01*
X154392381Y-92829713D02*
X154582857Y-92829713D01*
X192405000Y-102235000D02*
X192405000Y-105410000D01*
X192405000Y-81915000D02*
X192405000Y-78740000D01*
X149225000Y-77470000D02*
X156845000Y-77470000D01*
X149225000Y-106680000D02*
X149225000Y-77470000D01*
X156845000Y-106680000D02*
X149225000Y-106680000D01*
X193175000Y-104266904D02*
X193127381Y-104362142D01*
X193127381Y-104504999D01*
X193175000Y-104647857D01*
X193270238Y-104743095D01*
X193365476Y-104790714D01*
X193555952Y-104838333D01*
X193698810Y-104838333D01*
X193889286Y-104790714D01*
X193984524Y-104743095D01*
X194079762Y-104647857D01*
X194127381Y-104504999D01*
X194127381Y-104409761D01*
X194079762Y-104266904D01*
X194032143Y-104219285D01*
X193698810Y-104219285D01*
X193698810Y-104409761D01*
X194127381Y-103790714D02*
X193127381Y-103790714D01*
X194127381Y-103219285D01*
X193127381Y-103219285D01*
X194127381Y-102743095D02*
X193127381Y-102743095D01*
X193127381Y-102505000D01*
X193175000Y-102362142D01*
X193270238Y-102266904D01*
X193365476Y-102219285D01*
X193555952Y-102171666D01*
X193698810Y-102171666D01*
X193889286Y-102219285D01*
X193984524Y-102266904D01*
X194079762Y-102362142D01*
X194127381Y-102505000D01*
X194127381Y-102743095D01*
X195667381Y-104266905D02*
X195667381Y-103647857D01*
X196048333Y-103981191D01*
X196048333Y-103838333D01*
X196095952Y-103743095D01*
X196143571Y-103695476D01*
X196238810Y-103647857D01*
X196476905Y-103647857D01*
X196572143Y-103695476D01*
X196619762Y-103743095D01*
X196667381Y-103838333D01*
X196667381Y-104124048D01*
X196619762Y-104219286D01*
X196572143Y-104266905D01*
X195667381Y-103362143D02*
X196667381Y-103028810D01*
X195667381Y-102695476D01*
X160821667Y-80724286D02*
X160821667Y-80248095D01*
X161107381Y-80819524D02*
X160107381Y-80486191D01*
X161107381Y-80152857D01*
X160107381Y-79629048D02*
X160107381Y-79533809D01*
X160155000Y-79438571D01*
X160202619Y-79390952D01*
X160297857Y-79343333D01*
X160488333Y-79295714D01*
X160726429Y-79295714D01*
X160916905Y-79343333D01*
X161012143Y-79390952D01*
X161059762Y-79438571D01*
X161107381Y-79533809D01*
X161107381Y-79629048D01*
X161059762Y-79724286D01*
X161012143Y-79771905D01*
X160916905Y-79819524D01*
X160726429Y-79867143D01*
X160488333Y-79867143D01*
X160297857Y-79819524D01*
X160202619Y-79771905D01*
X160155000Y-79724286D01*
X160107381Y-79629048D01*
X165187381Y-80200476D02*
X165187381Y-80676667D01*
X165663571Y-80724286D01*
X165615952Y-80676667D01*
X165568333Y-80581429D01*
X165568333Y-80343333D01*
X165615952Y-80248095D01*
X165663571Y-80200476D01*
X165758810Y-80152857D01*
X165996905Y-80152857D01*
X166092143Y-80200476D01*
X166139762Y-80248095D01*
X166187381Y-80343333D01*
X166187381Y-80581429D01*
X166139762Y-80676667D01*
X166092143Y-80724286D01*
X165187381Y-79867143D02*
X166187381Y-79533810D01*
X165187381Y-79200476D01*
X175395000Y-103631904D02*
X175347381Y-103727142D01*
X175347381Y-103869999D01*
X175395000Y-104012857D01*
X175490238Y-104108095D01*
X175585476Y-104155714D01*
X175775952Y-104203333D01*
X175918810Y-104203333D01*
X176109286Y-104155714D01*
X176204524Y-104108095D01*
X176299762Y-104012857D01*
X176347381Y-103869999D01*
X176347381Y-103774761D01*
X176299762Y-103631904D01*
X176252143Y-103584285D01*
X175918810Y-103584285D01*
X175918810Y-103774761D01*
X176347381Y-103155714D02*
X175347381Y-103155714D01*
X176347381Y-102584285D01*
X175347381Y-102584285D01*
X176347381Y-102108095D02*
X175347381Y-102108095D01*
X175347381Y-101870000D01*
X175395000Y-101727142D01*
X175490238Y-101631904D01*
X175585476Y-101584285D01*
X175775952Y-101536666D01*
X175918810Y-101536666D01*
X176109286Y-101584285D01*
X176204524Y-101631904D01*
X176299762Y-101727142D01*
X176347381Y-101870000D01*
X176347381Y-102108095D01*
X193675000Y-90805000D02*
X193675000Y-102235000D01*
X193175000Y-81406904D02*
X193127381Y-81502142D01*
X193127381Y-81644999D01*
X193175000Y-81787857D01*
X193270238Y-81883095D01*
X193365476Y-81930714D01*
X193555952Y-81978333D01*
X193698810Y-81978333D01*
X193889286Y-81930714D01*
X193984524Y-81883095D01*
X194079762Y-81787857D01*
X194127381Y-81644999D01*
X194127381Y-81549761D01*
X194079762Y-81406904D01*
X194032143Y-81359285D01*
X193698810Y-81359285D01*
X193698810Y-81549761D01*
X194127381Y-80930714D02*
X193127381Y-80930714D01*
X194127381Y-80359285D01*
X193127381Y-80359285D01*
X194127381Y-79883095D02*
X193127381Y-79883095D01*
X193127381Y-79645000D01*
X193175000Y-79502142D01*
X193270238Y-79406904D01*
X193365476Y-79359285D01*
X193555952Y-79311666D01*
X193698810Y-79311666D01*
X193889286Y-79359285D01*
X193984524Y-79406904D01*
X194079762Y-79502142D01*
X194127381Y-79645000D01*
X194127381Y-79883095D01*
X183015000Y-81406904D02*
X182967381Y-81502142D01*
X182967381Y-81644999D01*
X183015000Y-81787857D01*
X183110238Y-81883095D01*
X183205476Y-81930714D01*
X183395952Y-81978333D01*
X183538810Y-81978333D01*
X183729286Y-81930714D01*
X183824524Y-81883095D01*
X183919762Y-81787857D01*
X183967381Y-81644999D01*
X183967381Y-81549761D01*
X183919762Y-81406904D01*
X183872143Y-81359285D01*
X183538810Y-81359285D01*
X183538810Y-81549761D01*
X183967381Y-80930714D02*
X182967381Y-80930714D01*
X183967381Y-80359285D01*
X182967381Y-80359285D01*
X183967381Y-79883095D02*
X182967381Y-79883095D01*
X182967381Y-79645000D01*
X183015000Y-79502142D01*
X183110238Y-79406904D01*
X183205476Y-79359285D01*
X183395952Y-79311666D01*
X183538810Y-79311666D01*
X183729286Y-79359285D01*
X183824524Y-79406904D01*
X183919762Y-79502142D01*
X183967381Y-79645000D01*
X183967381Y-79883095D01*
X195667381Y-80200476D02*
X195667381Y-80676667D01*
X196143571Y-80724286D01*
X196095952Y-80676667D01*
X196048333Y-80581429D01*
X196048333Y-80343333D01*
X196095952Y-80248095D01*
X196143571Y-80200476D01*
X196238810Y-80152857D01*
X196476905Y-80152857D01*
X196572143Y-80200476D01*
X196619762Y-80248095D01*
X196667381Y-80343333D01*
X196667381Y-80581429D01*
X196619762Y-80676667D01*
X196572143Y-80724286D01*
X195667381Y-79867143D02*
X196667381Y-79533810D01*
X195667381Y-79200476D01*
X185507381Y-80771905D02*
X185507381Y-80152857D01*
X185888333Y-80486191D01*
X185888333Y-80343333D01*
X185935952Y-80248095D01*
X185983571Y-80200476D01*
X186078810Y-80152857D01*
X186316905Y-80152857D01*
X186412143Y-80200476D01*
X186459762Y-80248095D01*
X186507381Y-80343333D01*
X186507381Y-80629048D01*
X186459762Y-80724286D01*
X186412143Y-80771905D01*
X185507381Y-79867143D02*
X186507381Y-79533810D01*
X185507381Y-79200476D01*
X172807381Y-104266905D02*
X172807381Y-103647857D01*
X173188333Y-103981191D01*
X173188333Y-103838333D01*
X173235952Y-103743095D01*
X173283571Y-103695476D01*
X173378810Y-103647857D01*
X173616905Y-103647857D01*
X173712143Y-103695476D01*
X173759762Y-103743095D01*
X173807381Y-103838333D01*
X173807381Y-104124048D01*
X173759762Y-104219286D01*
X173712143Y-104266905D01*
X172807381Y-103362143D02*
X173807381Y-103028810D01*
X172807381Y-102695476D01*
X181427381Y-104243095D02*
X180427381Y-104243095D01*
X180427381Y-104005000D01*
X180475000Y-103862142D01*
X180570238Y-103766904D01*
X180665476Y-103719285D01*
X180855952Y-103671666D01*
X180998810Y-103671666D01*
X181189286Y-103719285D01*
X181284524Y-103766904D01*
X181379762Y-103862142D01*
X181427381Y-104005000D01*
X181427381Y-104243095D01*
X180427381Y-102814523D02*
X180427381Y-103005000D01*
X180475000Y-103100238D01*
X180522619Y-103147857D01*
X180665476Y-103243095D01*
X180855952Y-103290714D01*
X181236905Y-103290714D01*
X181332143Y-103243095D01*
X181379762Y-103195476D01*
X181427381Y-103100238D01*
X181427381Y-102909761D01*
X181379762Y-102814523D01*
X181332143Y-102766904D01*
X181236905Y-102719285D01*
X180998810Y-102719285D01*
X180903571Y-102766904D01*
X180855952Y-102814523D01*
X180808333Y-102909761D01*
X180808333Y-103100238D01*
X180855952Y-103195476D01*
X180903571Y-103243095D01*
X180998810Y-103290714D01*
X171267381Y-104243095D02*
X170267381Y-104243095D01*
X170267381Y-104005000D01*
X170315000Y-103862142D01*
X170410238Y-103766904D01*
X170505476Y-103719285D01*
X170695952Y-103671666D01*
X170838810Y-103671666D01*
X171029286Y-103719285D01*
X171124524Y-103766904D01*
X171219762Y-103862142D01*
X171267381Y-104005000D01*
X171267381Y-104243095D01*
X170600714Y-102814523D02*
X171267381Y-102814523D01*
X170219762Y-103052619D02*
X170934048Y-103290714D01*
X170934048Y-102671666D01*
X168727381Y-104243095D02*
X167727381Y-104243095D01*
X167727381Y-104005000D01*
X167775000Y-103862142D01*
X167870238Y-103766904D01*
X167965476Y-103719285D01*
X168155952Y-103671666D01*
X168298810Y-103671666D01*
X168489286Y-103719285D01*
X168584524Y-103766904D01*
X168679762Y-103862142D01*
X168727381Y-104005000D01*
X168727381Y-104243095D01*
X167727381Y-103338333D02*
X167727381Y-102719285D01*
X168108333Y-103052619D01*
X168108333Y-102909761D01*
X168155952Y-102814523D01*
X168203571Y-102766904D01*
X168298810Y-102719285D01*
X168536905Y-102719285D01*
X168632143Y-102766904D01*
X168679762Y-102814523D01*
X168727381Y-102909761D01*
X168727381Y-103195476D01*
X168679762Y-103290714D01*
X168632143Y-103338333D01*
X178887381Y-104243095D02*
X177887381Y-104243095D01*
X177887381Y-104005000D01*
X177935000Y-103862142D01*
X178030238Y-103766904D01*
X178125476Y-103719285D01*
X178315952Y-103671666D01*
X178458810Y-103671666D01*
X178649286Y-103719285D01*
X178744524Y-103766904D01*
X178839762Y-103862142D01*
X178887381Y-104005000D01*
X178887381Y-104243095D01*
X177887381Y-102766904D02*
X177887381Y-103243095D01*
X178363571Y-103290714D01*
X178315952Y-103243095D01*
X178268333Y-103147857D01*
X178268333Y-102909761D01*
X178315952Y-102814523D01*
X178363571Y-102766904D01*
X178458810Y-102719285D01*
X178696905Y-102719285D01*
X178792143Y-102766904D01*
X178839762Y-102814523D01*
X178887381Y-102909761D01*
X178887381Y-103147857D01*
X178839762Y-103243095D01*
X178792143Y-103290714D01*
D12*
X145141905Y-99789286D02*
X144341905Y-99789286D01*
X145141905Y-99332143D01*
X144341905Y-99332143D01*
X145141905Y-98836905D02*
X145103810Y-98913096D01*
X145065714Y-98951191D01*
X144989524Y-98989286D01*
X144760952Y-98989286D01*
X144684762Y-98951191D01*
X144646667Y-98913096D01*
X144608571Y-98836905D01*
X144608571Y-98722619D01*
X144646667Y-98646429D01*
X144684762Y-98608334D01*
X144760952Y-98570238D01*
X144989524Y-98570238D01*
X145065714Y-98608334D01*
X145103810Y-98646429D01*
X145141905Y-98722619D01*
X145141905Y-98836905D01*
X145141905Y-97884524D02*
X144341905Y-97884524D01*
X145103810Y-97884524D02*
X145141905Y-97960714D01*
X145141905Y-98113095D01*
X145103810Y-98189286D01*
X145065714Y-98227381D01*
X144989524Y-98265476D01*
X144760952Y-98265476D01*
X144684762Y-98227381D01*
X144646667Y-98189286D01*
X144608571Y-98113095D01*
X144608571Y-97960714D01*
X144646667Y-97884524D01*
X145103810Y-97198809D02*
X145141905Y-97274999D01*
X145141905Y-97427380D01*
X145103810Y-97503571D01*
X145027619Y-97541666D01*
X144722857Y-97541666D01*
X144646667Y-97503571D01*
X144608571Y-97427380D01*
X144608571Y-97274999D01*
X144646667Y-97198809D01*
X144722857Y-97160714D01*
X144799048Y-97160714D01*
X144875238Y-97541666D01*
X145141905Y-96817857D02*
X144341905Y-96817857D01*
X144913333Y-96551190D01*
X144341905Y-96284523D01*
X145141905Y-96284523D01*
X145065714Y-95446428D02*
X145103810Y-95484523D01*
X145141905Y-95598809D01*
X145141905Y-95674999D01*
X145103810Y-95789285D01*
X145027619Y-95865476D01*
X144951429Y-95903571D01*
X144799048Y-95941666D01*
X144684762Y-95941666D01*
X144532381Y-95903571D01*
X144456190Y-95865476D01*
X144380000Y-95789285D01*
X144341905Y-95674999D01*
X144341905Y-95598809D01*
X144380000Y-95484523D01*
X144418095Y-95446428D01*
X144341905Y-95103571D02*
X144989524Y-95103571D01*
X145065714Y-95065476D01*
X145103810Y-95027380D01*
X145141905Y-94951190D01*
X145141905Y-94798809D01*
X145103810Y-94722618D01*
X145065714Y-94684523D01*
X144989524Y-94646428D01*
X144341905Y-94646428D01*
X144913333Y-93694047D02*
X144913333Y-93313095D01*
X145141905Y-93770238D02*
X144341905Y-93503571D01*
X145141905Y-93236904D01*
X145141905Y-92970238D02*
X144608571Y-92970238D01*
X144341905Y-92970238D02*
X144380000Y-93008333D01*
X144418095Y-92970238D01*
X144380000Y-92932143D01*
X144341905Y-92970238D01*
X144418095Y-92970238D01*
X145141905Y-92589286D02*
X144608571Y-92589286D01*
X144760952Y-92589286D02*
X144684762Y-92551191D01*
X144646667Y-92513095D01*
X144608571Y-92436905D01*
X144608571Y-92360714D01*
X145141905Y-91484524D02*
X144341905Y-91484524D01*
X144341905Y-91294048D01*
X144380000Y-91179762D01*
X144456190Y-91103571D01*
X144532381Y-91065476D01*
X144684762Y-91027381D01*
X144799048Y-91027381D01*
X144951429Y-91065476D01*
X145027619Y-91103571D01*
X145103810Y-91179762D01*
X145141905Y-91294048D01*
X145141905Y-91484524D01*
X145141905Y-90684524D02*
X144608571Y-90684524D01*
X144341905Y-90684524D02*
X144380000Y-90722619D01*
X144418095Y-90684524D01*
X144380000Y-90646429D01*
X144341905Y-90684524D01*
X144418095Y-90684524D01*
X145103810Y-90341667D02*
X145141905Y-90265477D01*
X145141905Y-90113096D01*
X145103810Y-90036905D01*
X145027619Y-89998810D01*
X144989524Y-89998810D01*
X144913333Y-90036905D01*
X144875238Y-90113096D01*
X144875238Y-90227381D01*
X144837143Y-90303572D01*
X144760952Y-90341667D01*
X144722857Y-90341667D01*
X144646667Y-90303572D01*
X144608571Y-90227381D01*
X144608571Y-90113096D01*
X144646667Y-90036905D01*
X144608571Y-89655953D02*
X145408571Y-89655953D01*
X144646667Y-89655953D02*
X144608571Y-89579762D01*
X144608571Y-89427381D01*
X144646667Y-89351191D01*
X144684762Y-89313096D01*
X144760952Y-89275000D01*
X144989524Y-89275000D01*
X145065714Y-89313096D01*
X145103810Y-89351191D01*
X145141905Y-89427381D01*
X145141905Y-89579762D01*
X145103810Y-89655953D01*
X145141905Y-88817857D02*
X145103810Y-88894048D01*
X145027619Y-88932143D01*
X144341905Y-88932143D01*
X145141905Y-88170238D02*
X144722857Y-88170238D01*
X144646667Y-88208333D01*
X144608571Y-88284523D01*
X144608571Y-88436904D01*
X144646667Y-88513095D01*
X145103810Y-88170238D02*
X145141905Y-88246428D01*
X145141905Y-88436904D01*
X145103810Y-88513095D01*
X145027619Y-88551190D01*
X144951429Y-88551190D01*
X144875238Y-88513095D01*
X144837143Y-88436904D01*
X144837143Y-88246428D01*
X144799048Y-88170238D01*
X144608571Y-87865475D02*
X145141905Y-87674999D01*
X144608571Y-87484523D02*
X145141905Y-87674999D01*
X145332381Y-87751190D01*
X145370476Y-87789285D01*
X145408571Y-87865475D01*
X144341905Y-86684523D02*
X145141905Y-86417856D01*
X144341905Y-86151189D01*
X145141905Y-85465475D02*
X145141905Y-85922618D01*
X145141905Y-85694047D02*
X144341905Y-85694047D01*
X144456190Y-85770237D01*
X144532381Y-85846428D01*
X144570476Y-85922618D01*
X145065714Y-85122618D02*
X145103810Y-85084523D01*
X145141905Y-85122618D01*
X145103810Y-85160713D01*
X145065714Y-85122618D01*
X145141905Y-85122618D01*
X144341905Y-84589285D02*
X144341905Y-84513094D01*
X144380000Y-84436904D01*
X144418095Y-84398809D01*
X144494286Y-84360713D01*
X144646667Y-84322618D01*
X144837143Y-84322618D01*
X144989524Y-84360713D01*
X145065714Y-84398809D01*
X145103810Y-84436904D01*
X145141905Y-84513094D01*
X145141905Y-84589285D01*
X145103810Y-84665475D01*
X145065714Y-84703571D01*
X144989524Y-84741666D01*
X144837143Y-84779761D01*
X144646667Y-84779761D01*
X144494286Y-84741666D01*
X144418095Y-84703571D01*
X144380000Y-84665475D01*
X144341905Y-84589285D01*
D11*
X186507381Y-104243095D02*
X185507381Y-104243095D01*
X185507381Y-104005000D01*
X185555000Y-103862142D01*
X185650238Y-103766904D01*
X185745476Y-103719285D01*
X185935952Y-103671666D01*
X186078810Y-103671666D01*
X186269286Y-103719285D01*
X186364524Y-103766904D01*
X186459762Y-103862142D01*
X186507381Y-104005000D01*
X186507381Y-104243095D01*
X185935952Y-103100238D02*
X185888333Y-103195476D01*
X185840714Y-103243095D01*
X185745476Y-103290714D01*
X185697857Y-103290714D01*
X185602619Y-103243095D01*
X185555000Y-103195476D01*
X185507381Y-103100238D01*
X185507381Y-102909761D01*
X185555000Y-102814523D01*
X185602619Y-102766904D01*
X185697857Y-102719285D01*
X185745476Y-102719285D01*
X185840714Y-102766904D01*
X185888333Y-102814523D01*
X185935952Y-102909761D01*
X185935952Y-103100238D01*
X185983571Y-103195476D01*
X186031190Y-103243095D01*
X186126429Y-103290714D01*
X186316905Y-103290714D01*
X186412143Y-103243095D01*
X186459762Y-103195476D01*
X186507381Y-103100238D01*
X186507381Y-102909761D01*
X186459762Y-102814523D01*
X186412143Y-102766904D01*
X186316905Y-102719285D01*
X186126429Y-102719285D01*
X186031190Y-102766904D01*
X185983571Y-102814523D01*
X185935952Y-102909761D01*
X183967381Y-104243095D02*
X182967381Y-104243095D01*
X182967381Y-104005000D01*
X183015000Y-103862142D01*
X183110238Y-103766904D01*
X183205476Y-103719285D01*
X183395952Y-103671666D01*
X183538810Y-103671666D01*
X183729286Y-103719285D01*
X183824524Y-103766904D01*
X183919762Y-103862142D01*
X183967381Y-104005000D01*
X183967381Y-104243095D01*
X182967381Y-103338333D02*
X182967381Y-102671666D01*
X183967381Y-103100238D01*
X166187381Y-104243095D02*
X165187381Y-104243095D01*
X165187381Y-104005000D01*
X165235000Y-103862142D01*
X165330238Y-103766904D01*
X165425476Y-103719285D01*
X165615952Y-103671666D01*
X165758810Y-103671666D01*
X165949286Y-103719285D01*
X166044524Y-103766904D01*
X166139762Y-103862142D01*
X166187381Y-104005000D01*
X166187381Y-104243095D01*
X165282619Y-103290714D02*
X165235000Y-103243095D01*
X165187381Y-103147857D01*
X165187381Y-102909761D01*
X165235000Y-102814523D01*
X165282619Y-102766904D01*
X165377857Y-102719285D01*
X165473095Y-102719285D01*
X165615952Y-102766904D01*
X166187381Y-103338333D01*
X166187381Y-102719285D01*
X163647381Y-104243095D02*
X162647381Y-104243095D01*
X162647381Y-104005000D01*
X162695000Y-103862142D01*
X162790238Y-103766904D01*
X162885476Y-103719285D01*
X163075952Y-103671666D01*
X163218810Y-103671666D01*
X163409286Y-103719285D01*
X163504524Y-103766904D01*
X163599762Y-103862142D01*
X163647381Y-104005000D01*
X163647381Y-104243095D01*
X163647381Y-102719285D02*
X163647381Y-103290714D01*
X163647381Y-103005000D02*
X162647381Y-103005000D01*
X162790238Y-103100238D01*
X162885476Y-103195476D01*
X162933095Y-103290714D01*
X184729714Y-91257381D02*
X184729714Y-90257381D01*
X184967809Y-90257381D01*
X185110667Y-90305000D01*
X185205905Y-90400238D01*
X185253524Y-90495476D01*
X185301143Y-90685952D01*
X185301143Y-90828810D01*
X185253524Y-91019286D01*
X185205905Y-91114524D01*
X185110667Y-91209762D01*
X184967809Y-91257381D01*
X184729714Y-91257381D01*
X186301143Y-91162143D02*
X186253524Y-91209762D01*
X186110667Y-91257381D01*
X186015429Y-91257381D01*
X185872571Y-91209762D01*
X185777333Y-91114524D01*
X185729714Y-91019286D01*
X185682095Y-90828810D01*
X185682095Y-90685952D01*
X185729714Y-90495476D01*
X185777333Y-90400238D01*
X185872571Y-90305000D01*
X186015429Y-90257381D01*
X186110667Y-90257381D01*
X186253524Y-90305000D01*
X186301143Y-90352619D01*
X187444000Y-90209762D02*
X186586857Y-91495476D01*
X187729714Y-90971667D02*
X188205905Y-90971667D01*
X187634476Y-91257381D02*
X187967809Y-90257381D01*
X188301143Y-91257381D01*
X188634476Y-91257381D02*
X188634476Y-90257381D01*
X188872571Y-90257381D01*
X189015429Y-90305000D01*
X189110667Y-90400238D01*
X189158286Y-90495476D01*
X189205905Y-90685952D01*
X189205905Y-90828810D01*
X189158286Y-91019286D01*
X189110667Y-91114524D01*
X189015429Y-91209762D01*
X188872571Y-91257381D01*
X188634476Y-91257381D01*
X187198096Y-97925000D02*
X187102858Y-97877381D01*
X186960001Y-97877381D01*
X186817143Y-97925000D01*
X186721905Y-98020238D01*
X186674286Y-98115476D01*
X186626667Y-98305952D01*
X186626667Y-98448810D01*
X186674286Y-98639286D01*
X186721905Y-98734524D01*
X186817143Y-98829762D01*
X186960001Y-98877381D01*
X187055239Y-98877381D01*
X187198096Y-98829762D01*
X187245715Y-98782143D01*
X187245715Y-98448810D01*
X187055239Y-98448810D01*
X187674286Y-98877381D02*
X187674286Y-97877381D01*
X188245715Y-98877381D01*
X188245715Y-97877381D01*
X188721905Y-98877381D02*
X188721905Y-97877381D01*
X188960000Y-97877381D01*
X189102858Y-97925000D01*
X189198096Y-98020238D01*
X189245715Y-98115476D01*
X189293334Y-98305952D01*
X189293334Y-98448810D01*
X189245715Y-98639286D01*
X189198096Y-98734524D01*
X189102858Y-98829762D01*
X188960000Y-98877381D01*
X188721905Y-98877381D01*
X186769524Y-86129762D02*
X186912381Y-86177381D01*
X187150477Y-86177381D01*
X187245715Y-86129762D01*
X187293334Y-86082143D01*
X187340953Y-85986905D01*
X187340953Y-85891667D01*
X187293334Y-85796429D01*
X187245715Y-85748810D01*
X187150477Y-85701190D01*
X186960000Y-85653571D01*
X186864762Y-85605952D01*
X186817143Y-85558333D01*
X186769524Y-85463095D01*
X186769524Y-85367857D01*
X186817143Y-85272619D01*
X186864762Y-85225000D01*
X186960000Y-85177381D01*
X187198096Y-85177381D01*
X187340953Y-85225000D01*
X188340953Y-86082143D02*
X188293334Y-86129762D01*
X188150477Y-86177381D01*
X188055239Y-86177381D01*
X187912381Y-86129762D01*
X187817143Y-86034524D01*
X187769524Y-85939286D01*
X187721905Y-85748810D01*
X187721905Y-85605952D01*
X187769524Y-85415476D01*
X187817143Y-85320238D01*
X187912381Y-85225000D01*
X188055239Y-85177381D01*
X188150477Y-85177381D01*
X188293334Y-85225000D01*
X188340953Y-85272619D01*
X189245715Y-86177381D02*
X188769524Y-86177381D01*
X188769524Y-85177381D01*
X186745714Y-88669762D02*
X186888571Y-88717381D01*
X187126667Y-88717381D01*
X187221905Y-88669762D01*
X187269524Y-88622143D01*
X187317143Y-88526905D01*
X187317143Y-88431667D01*
X187269524Y-88336429D01*
X187221905Y-88288810D01*
X187126667Y-88241190D01*
X186936190Y-88193571D01*
X186840952Y-88145952D01*
X186793333Y-88098333D01*
X186745714Y-88003095D01*
X186745714Y-87907857D01*
X186793333Y-87812619D01*
X186840952Y-87765000D01*
X186936190Y-87717381D01*
X187174286Y-87717381D01*
X187317143Y-87765000D01*
X187745714Y-88717381D02*
X187745714Y-87717381D01*
X187983809Y-87717381D01*
X188126667Y-87765000D01*
X188221905Y-87860238D01*
X188269524Y-87955476D01*
X188317143Y-88145952D01*
X188317143Y-88288810D01*
X188269524Y-88479286D01*
X188221905Y-88574524D01*
X188126667Y-88669762D01*
X187983809Y-88717381D01*
X187745714Y-88717381D01*
X188698095Y-88431667D02*
X189174286Y-88431667D01*
X188602857Y-88717381D02*
X188936190Y-87717381D01*
X189269524Y-88717381D01*
D13*
X196910000Y-91380000D02*
X194250000Y-91380000D01*
X196910000Y-99060000D02*
X196910000Y-91380000D01*
X194250000Y-99060000D02*
X194250000Y-91380000D01*
X196910000Y-99060000D02*
X194250000Y-99060000D01*
X196910000Y-100330000D02*
X196910000Y-101660000D01*
X196910000Y-101660000D02*
X195580000Y-101660000D01*
X202200000Y-82130000D02*
X197700000Y-82130000D01*
X203450000Y-86130000D02*
X203450000Y-84630000D01*
X197700000Y-88630000D02*
X202200000Y-88630000D01*
X196450000Y-84630000D02*
X196450000Y-86130000D01*
X200930000Y-97355000D02*
X202930000Y-97355000D01*
X202930000Y-99495000D02*
X200930000Y-99495000D01*
X198830000Y-93030000D02*
X198830000Y-94930000D01*
X198830000Y-94930000D02*
X203530000Y-94930000D01*
X198830000Y-93030000D02*
X203530000Y-93030000D01*
X192465000Y-81855000D02*
X189805000Y-81855000D01*
X192465000Y-99695000D02*
X192465000Y-81855000D01*
X189805000Y-99695000D02*
X189805000Y-81855000D01*
X192465000Y-99695000D02*
X189805000Y-99695000D01*
X192465000Y-100965000D02*
X192465000Y-102295000D01*
X192465000Y-102295000D02*
X191135000Y-102295000D01*
D12*
X194484667Y-89622381D02*
X194484667Y-90336667D01*
X194437047Y-90479524D01*
X194341809Y-90574762D01*
X194198952Y-90622381D01*
X194103714Y-90622381D01*
X194865619Y-89622381D02*
X195484667Y-89622381D01*
X195151333Y-90003333D01*
X195294191Y-90003333D01*
X195389429Y-90050952D01*
X195437048Y-90098571D01*
X195484667Y-90193810D01*
X195484667Y-90431905D01*
X195437048Y-90527143D01*
X195389429Y-90574762D01*
X195294191Y-90622381D01*
X195008476Y-90622381D01*
X194913238Y-90574762D01*
X194865619Y-90527143D01*
X199549048Y-100893571D02*
X199691905Y-100941190D01*
X199739524Y-100988810D01*
X199787143Y-101084048D01*
X199787143Y-101226905D01*
X199739524Y-101322143D01*
X199691905Y-101369762D01*
X199596667Y-101417381D01*
X199215714Y-101417381D01*
X199215714Y-100417381D01*
X199549048Y-100417381D01*
X199644286Y-100465000D01*
X199691905Y-100512619D01*
X199739524Y-100607857D01*
X199739524Y-100703095D01*
X199691905Y-100798333D01*
X199644286Y-100845952D01*
X199549048Y-100893571D01*
X199215714Y-100893571D01*
X200215714Y-101417381D02*
X200215714Y-100417381D01*
X200549048Y-101131667D01*
X200882381Y-100417381D01*
X200882381Y-101417381D01*
X201358571Y-100893571D02*
X201691905Y-100893571D01*
X201834762Y-101417381D02*
X201358571Y-101417381D01*
X201358571Y-100417381D01*
X201834762Y-100417381D01*
X202215714Y-100512619D02*
X202263333Y-100465000D01*
X202358571Y-100417381D01*
X202596667Y-100417381D01*
X202691905Y-100465000D01*
X202739524Y-100512619D01*
X202787143Y-100607857D01*
X202787143Y-100703095D01*
X202739524Y-100845952D01*
X202168095Y-101417381D01*
X202787143Y-101417381D01*
X203358571Y-100845952D02*
X203263333Y-100798333D01*
X203215714Y-100750714D01*
X203168095Y-100655476D01*
X203168095Y-100607857D01*
X203215714Y-100512619D01*
X203263333Y-100465000D01*
X203358571Y-100417381D01*
X203549048Y-100417381D01*
X203644286Y-100465000D01*
X203691905Y-100512619D01*
X203739524Y-100607857D01*
X203739524Y-100655476D01*
X203691905Y-100750714D01*
X203644286Y-100798333D01*
X203549048Y-100845952D01*
X203358571Y-100845952D01*
X203263333Y-100893571D01*
X203215714Y-100941190D01*
X203168095Y-101036429D01*
X203168095Y-101226905D01*
X203215714Y-101322143D01*
X203263333Y-101369762D01*
X203358571Y-101417381D01*
X203549048Y-101417381D01*
X203644286Y-101369762D01*
X203691905Y-101322143D01*
X203739524Y-101226905D01*
X203739524Y-101036429D01*
X203691905Y-100941190D01*
X203644286Y-100893571D01*
X203549048Y-100845952D01*
X204358571Y-100417381D02*
X204453810Y-100417381D01*
X204549048Y-100465000D01*
X204596667Y-100512619D01*
X204644286Y-100607857D01*
X204691905Y-100798333D01*
X204691905Y-101036429D01*
X204644286Y-101226905D01*
X204596667Y-101322143D01*
X204549048Y-101369762D01*
X204453810Y-101417381D01*
X204358571Y-101417381D01*
X204263333Y-101369762D01*
X204215714Y-101322143D01*
X204168095Y-101226905D01*
X204120476Y-101036429D01*
X204120476Y-100798333D01*
X204168095Y-100607857D01*
X204215714Y-100512619D01*
X204263333Y-100465000D01*
X204358571Y-100417381D01*
X198564667Y-86256762D02*
X198707524Y-86304381D01*
X198945620Y-86304381D01*
X199040858Y-86256762D01*
X199088477Y-86209143D01*
X199136096Y-86113905D01*
X199136096Y-86018667D01*
X199088477Y-85923429D01*
X199040858Y-85875810D01*
X198945620Y-85828190D01*
X198755143Y-85780571D01*
X198659905Y-85732952D01*
X198612286Y-85685333D01*
X198564667Y-85590095D01*
X198564667Y-85494857D01*
X198612286Y-85399619D01*
X198659905Y-85352000D01*
X198755143Y-85304381D01*
X198993239Y-85304381D01*
X199136096Y-85352000D01*
X199469429Y-85304381D02*
X199707524Y-86304381D01*
X199898001Y-85590095D01*
X200088477Y-86304381D01*
X200326572Y-85304381D01*
X201231334Y-86304381D02*
X200659905Y-86304381D01*
X200945619Y-86304381D02*
X200945619Y-85304381D01*
X200850381Y-85447238D01*
X200755143Y-85542476D01*
X200659905Y-85590095D01*
X205938381Y-87677333D02*
X204938381Y-87677333D01*
X204938381Y-87439238D01*
X204986000Y-87296380D01*
X205081238Y-87201142D01*
X205176476Y-87153523D01*
X205366952Y-87105904D01*
X205509810Y-87105904D01*
X205700286Y-87153523D01*
X205795524Y-87201142D01*
X205890762Y-87296380D01*
X205938381Y-87439238D01*
X205938381Y-87677333D01*
X204938381Y-86248761D02*
X204938381Y-86439238D01*
X204986000Y-86534476D01*
X205033619Y-86582095D01*
X205176476Y-86677333D01*
X205366952Y-86724952D01*
X205747905Y-86724952D01*
X205843143Y-86677333D01*
X205890762Y-86629714D01*
X205938381Y-86534476D01*
X205938381Y-86343999D01*
X205890762Y-86248761D01*
X205843143Y-86201142D01*
X205747905Y-86153523D01*
X205509810Y-86153523D01*
X205414571Y-86201142D01*
X205366952Y-86248761D01*
X205319333Y-86343999D01*
X205319333Y-86534476D01*
X205366952Y-86629714D01*
X205414571Y-86677333D01*
X205509810Y-86724952D01*
X205557429Y-85724952D02*
X205557429Y-84963047D01*
X205414571Y-84153523D02*
X205462190Y-84010666D01*
X205509810Y-83963047D01*
X205605048Y-83915428D01*
X205747905Y-83915428D01*
X205843143Y-83963047D01*
X205890762Y-84010666D01*
X205938381Y-84105904D01*
X205938381Y-84486857D01*
X204938381Y-84486857D01*
X204938381Y-84153523D01*
X204986000Y-84058285D01*
X205033619Y-84010666D01*
X205128857Y-83963047D01*
X205224095Y-83963047D01*
X205319333Y-84010666D01*
X205366952Y-84058285D01*
X205414571Y-84153523D01*
X205414571Y-84486857D01*
X205938381Y-82963047D02*
X205938381Y-83534476D01*
X205938381Y-83248762D02*
X204938381Y-83248762D01*
X205081238Y-83344000D01*
X205176476Y-83439238D01*
X205224095Y-83534476D01*
X203668334Y-96972381D02*
X203335000Y-96496190D01*
X203096905Y-96972381D02*
X203096905Y-95972381D01*
X203477858Y-95972381D01*
X203573096Y-96020000D01*
X203620715Y-96067619D01*
X203668334Y-96162857D01*
X203668334Y-96305714D01*
X203620715Y-96400952D01*
X203573096Y-96448571D01*
X203477858Y-96496190D01*
X203096905Y-96496190D01*
X204620715Y-96972381D02*
X204049286Y-96972381D01*
X204335000Y-96972381D02*
X204335000Y-95972381D01*
X204239762Y-96115238D01*
X204144524Y-96210476D01*
X204049286Y-96258095D01*
X198921905Y-96067619D02*
X198969524Y-96020000D01*
X199064762Y-95972381D01*
X199302858Y-95972381D01*
X199398096Y-96020000D01*
X199445715Y-96067619D01*
X199493334Y-96162857D01*
X199493334Y-96258095D01*
X199445715Y-96400952D01*
X198874286Y-96972381D01*
X199493334Y-96972381D01*
X199874286Y-96067619D02*
X199921905Y-96020000D01*
X200017143Y-95972381D01*
X200255239Y-95972381D01*
X200350477Y-96020000D01*
X200398096Y-96067619D01*
X200445715Y-96162857D01*
X200445715Y-96258095D01*
X200398096Y-96400952D01*
X199826667Y-96972381D01*
X200445715Y-96972381D01*
X201064762Y-95972381D02*
X201160001Y-95972381D01*
X201255239Y-96020000D01*
X201302858Y-96067619D01*
X201350477Y-96162857D01*
X201398096Y-96353333D01*
X201398096Y-96591429D01*
X201350477Y-96781905D01*
X201302858Y-96877143D01*
X201255239Y-96924762D01*
X201160001Y-96972381D01*
X201064762Y-96972381D01*
X200969524Y-96924762D01*
X200921905Y-96877143D01*
X200874286Y-96781905D01*
X200826667Y-96591429D01*
X200826667Y-96353333D01*
X200874286Y-96162857D01*
X200921905Y-96067619D01*
X200969524Y-96020000D01*
X201064762Y-95972381D01*
X202398096Y-96972381D02*
X202064762Y-96496190D01*
X201826667Y-96972381D02*
X201826667Y-95972381D01*
X202207620Y-95972381D01*
X202302858Y-96020000D01*
X202350477Y-96067619D01*
X202398096Y-96162857D01*
X202398096Y-96305714D01*
X202350477Y-96400952D01*
X202302858Y-96448571D01*
X202207620Y-96496190D01*
X201826667Y-96496190D01*
X157777381Y-78438333D02*
X158491667Y-78438333D01*
X158634524Y-78485953D01*
X158729762Y-78581191D01*
X158777381Y-78724048D01*
X158777381Y-78819286D01*
X158777381Y-77438333D02*
X158777381Y-78009762D01*
X158777381Y-77724048D02*
X157777381Y-77724048D01*
X157920238Y-77819286D01*
X158015476Y-77914524D01*
X158063095Y-78009762D01*
X157777381Y-106378333D02*
X158491667Y-106378333D01*
X158634524Y-106425953D01*
X158729762Y-106521191D01*
X158777381Y-106664048D01*
X158777381Y-106759286D01*
X157872619Y-105949762D02*
X157825000Y-105902143D01*
X157777381Y-105806905D01*
X157777381Y-105568809D01*
X157825000Y-105473571D01*
X157872619Y-105425952D01*
X157967857Y-105378333D01*
X158063095Y-105378333D01*
X158205952Y-105425952D01*
X158777381Y-105997381D01*
X158777381Y-105378333D01*
X202461905Y-92527381D02*
X202461905Y-91527381D01*
X202700000Y-91527381D01*
X202842858Y-91575000D01*
X202938096Y-91670238D01*
X202985715Y-91765476D01*
X203033334Y-91955952D01*
X203033334Y-92098810D01*
X202985715Y-92289286D01*
X202938096Y-92384524D01*
X202842858Y-92479762D01*
X202700000Y-92527381D01*
X202461905Y-92527381D01*
X203890477Y-91860714D02*
X203890477Y-92527381D01*
X203652381Y-91479762D02*
X203414286Y-92194048D01*
X204033334Y-92194048D01*
X200017143Y-92527381D02*
X199540952Y-92527381D01*
X199540952Y-91527381D01*
X200350476Y-92003571D02*
X200683810Y-92003571D01*
X200826667Y-92527381D02*
X200350476Y-92527381D01*
X200350476Y-91527381D01*
X200826667Y-91527381D01*
X201255238Y-92527381D02*
X201255238Y-91527381D01*
X201493333Y-91527381D01*
X201636191Y-91575000D01*
X201731429Y-91670238D01*
X201779048Y-91765476D01*
X201826667Y-91955952D01*
X201826667Y-92098810D01*
X201779048Y-92289286D01*
X201731429Y-92384524D01*
X201636191Y-92479762D01*
X201493333Y-92527381D01*
X201255238Y-92527381D01*
X190801667Y-102957381D02*
X190801667Y-103671667D01*
X190754047Y-103814524D01*
X190658809Y-103909762D01*
X190515952Y-103957381D01*
X190420714Y-103957381D01*
X191706429Y-103290714D02*
X191706429Y-103957381D01*
X191468333Y-102909762D02*
X191230238Y-103624048D01*
X191849286Y-103624048D01*
X151915762Y-101885238D02*
X151963381Y-101742381D01*
X151963381Y-101504285D01*
X151915762Y-101409047D01*
X151868143Y-101361428D01*
X151772905Y-101313809D01*
X151677667Y-101313809D01*
X151582429Y-101361428D01*
X151534810Y-101409047D01*
X151487190Y-101504285D01*
X151439571Y-101694762D01*
X151391952Y-101790000D01*
X151344333Y-101837619D01*
X151249095Y-101885238D01*
X151153857Y-101885238D01*
X151058619Y-101837619D01*
X151011000Y-101790000D01*
X150963381Y-101694762D01*
X150963381Y-101456666D01*
X151011000Y-101313809D01*
X151963381Y-100885238D02*
X150963381Y-100885238D01*
X150963381Y-100504285D01*
X151011000Y-100409047D01*
X151058619Y-100361428D01*
X151153857Y-100313809D01*
X151296714Y-100313809D01*
X151391952Y-100361428D01*
X151439571Y-100409047D01*
X151487190Y-100504285D01*
X151487190Y-100885238D01*
X151963381Y-99885238D02*
X150963381Y-99885238D01*
X151963381Y-98647143D02*
X150963381Y-98647143D01*
X150963381Y-98409048D01*
X151011000Y-98266190D01*
X151106238Y-98170952D01*
X151201476Y-98123333D01*
X151391952Y-98075714D01*
X151534810Y-98075714D01*
X151725286Y-98123333D01*
X151820524Y-98170952D01*
X151915762Y-98266190D01*
X151963381Y-98409048D01*
X151963381Y-98647143D01*
X151963381Y-97647143D02*
X151296714Y-97647143D01*
X150963381Y-97647143D02*
X151011000Y-97694762D01*
X151058619Y-97647143D01*
X151011000Y-97599524D01*
X150963381Y-97647143D01*
X151058619Y-97647143D01*
X151915762Y-97218572D02*
X151963381Y-97123334D01*
X151963381Y-96932858D01*
X151915762Y-96837619D01*
X151820524Y-96790000D01*
X151772905Y-96790000D01*
X151677667Y-96837619D01*
X151630048Y-96932858D01*
X151630048Y-97075715D01*
X151582429Y-97170953D01*
X151487190Y-97218572D01*
X151439571Y-97218572D01*
X151344333Y-97170953D01*
X151296714Y-97075715D01*
X151296714Y-96932858D01*
X151344333Y-96837619D01*
X151296714Y-96361429D02*
X152296714Y-96361429D01*
X151344333Y-96361429D02*
X151296714Y-96266191D01*
X151296714Y-96075714D01*
X151344333Y-95980476D01*
X151391952Y-95932857D01*
X151487190Y-95885238D01*
X151772905Y-95885238D01*
X151868143Y-95932857D01*
X151915762Y-95980476D01*
X151963381Y-96075714D01*
X151963381Y-96266191D01*
X151915762Y-96361429D01*
X151963381Y-95313810D02*
X151915762Y-95409048D01*
X151820524Y-95456667D01*
X150963381Y-95456667D01*
X151963381Y-94504285D02*
X151439571Y-94504285D01*
X151344333Y-94551904D01*
X151296714Y-94647142D01*
X151296714Y-94837619D01*
X151344333Y-94932857D01*
X151915762Y-94504285D02*
X151963381Y-94599523D01*
X151963381Y-94837619D01*
X151915762Y-94932857D01*
X151820524Y-94980476D01*
X151725286Y-94980476D01*
X151630048Y-94932857D01*
X151582429Y-94837619D01*
X151582429Y-94599523D01*
X151534810Y-94504285D01*
X151296714Y-94123333D02*
X151963381Y-93885238D01*
X151296714Y-93647142D02*
X151963381Y-93885238D01*
X152201476Y-93980476D01*
X152249095Y-94028095D01*
X152296714Y-94123333D01*
X172807381Y-93662333D02*
X172807381Y-94138524D01*
X173283571Y-94186143D01*
X173235952Y-94138524D01*
X173188333Y-94043286D01*
X173188333Y-93805190D01*
X173235952Y-93709952D01*
X173283571Y-93662333D01*
X173378810Y-93614714D01*
X173616905Y-93614714D01*
X173712143Y-93662333D01*
X173759762Y-93709952D01*
X173807381Y-93805190D01*
X173807381Y-94043286D01*
X173759762Y-94138524D01*
X173712143Y-94186143D01*
X172807381Y-93329000D02*
X173807381Y-92995667D01*
X172807381Y-92662333D01*
X173807381Y-91567095D02*
X172807381Y-91567095D01*
X173807381Y-91090905D02*
X172807381Y-91090905D01*
X173807381Y-90519476D01*
X172807381Y-90519476D01*
X150947381Y-88058333D02*
X149947381Y-88058333D01*
X149947381Y-87820238D01*
X149995000Y-87677380D01*
X150090238Y-87582142D01*
X150185476Y-87534523D01*
X150375952Y-87486904D01*
X150518810Y-87486904D01*
X150709286Y-87534523D01*
X150804524Y-87582142D01*
X150899762Y-87677380D01*
X150947381Y-87820238D01*
X150947381Y-88058333D01*
X149947381Y-87153571D02*
X149947381Y-86534523D01*
X150328333Y-86867857D01*
X150328333Y-86724999D01*
X150375952Y-86629761D01*
X150423571Y-86582142D01*
X150518810Y-86534523D01*
X150756905Y-86534523D01*
X150852143Y-86582142D01*
X150899762Y-86629761D01*
X150947381Y-86724999D01*
X150947381Y-87010714D01*
X150899762Y-87105952D01*
X150852143Y-87153571D01*
X150566429Y-86105952D02*
X150566429Y-85344047D01*
X150423571Y-84534523D02*
X150471190Y-84391666D01*
X150518810Y-84344047D01*
X150614048Y-84296428D01*
X150756905Y-84296428D01*
X150852143Y-84344047D01*
X150899762Y-84391666D01*
X150947381Y-84486904D01*
X150947381Y-84867857D01*
X149947381Y-84867857D01*
X149947381Y-84534523D01*
X149995000Y-84439285D01*
X150042619Y-84391666D01*
X150137857Y-84344047D01*
X150233095Y-84344047D01*
X150328333Y-84391666D01*
X150375952Y-84439285D01*
X150423571Y-84534523D01*
X150423571Y-84867857D01*
X150042619Y-83915476D02*
X149995000Y-83867857D01*
X149947381Y-83772619D01*
X149947381Y-83534523D01*
X149995000Y-83439285D01*
X150042619Y-83391666D01*
X150137857Y-83344047D01*
X150233095Y-83344047D01*
X150375952Y-83391666D01*
X150947381Y-83963095D01*
X150947381Y-83344047D01*
M02*
