G04 #@! TF.FileFunction,Copper,L2,Bot,Signal*
%FSLAX46Y46*%
G04 Gerber Fmt 4.6, Leading zero omitted, Abs format (unit mm)*
G04 Created by KiCad (PCBNEW 4.0.7) date 03/26/18 16:58:00*
%MOMM*%
%LPD*%
G01*
G04 APERTURE LIST*
%ADD10C,0.100000*%
%ADD11C,4.200000*%
%ADD12R,1.700000X1.700000*%
%ADD13O,1.700000X1.700000*%
%ADD14C,2.000000*%
%ADD15R,1.750000X1.750000*%
%ADD16C,1.750000*%
%ADD17C,0.600000*%
%ADD18C,0.350000*%
%ADD19C,0.450000*%
%ADD20C,0.254000*%
G04 APERTURE END LIST*
D10*
D11*
X204470000Y-104775000D03*
X146050000Y-104775000D03*
X146050000Y-79375000D03*
D12*
X195580000Y-100330000D03*
D13*
X195580000Y-97790000D03*
X195580000Y-95250000D03*
X195580000Y-92710000D03*
D14*
X203200000Y-83130000D03*
X203200000Y-87630000D03*
X196700000Y-83130000D03*
X196700000Y-87630000D03*
D12*
X160655000Y-78105000D03*
D13*
X163195000Y-78105000D03*
X165735000Y-78105000D03*
X168275000Y-78105000D03*
X170815000Y-78105000D03*
X173355000Y-78105000D03*
X175895000Y-78105000D03*
X178435000Y-78105000D03*
X180975000Y-78105000D03*
X183515000Y-78105000D03*
X186055000Y-78105000D03*
X188595000Y-78105000D03*
X191135000Y-78105000D03*
X193675000Y-78105000D03*
X196215000Y-78105000D03*
D12*
X160655000Y-106045000D03*
D13*
X163195000Y-106045000D03*
X165735000Y-106045000D03*
X168275000Y-106045000D03*
X170815000Y-106045000D03*
X173355000Y-106045000D03*
X175895000Y-106045000D03*
X178435000Y-106045000D03*
X180975000Y-106045000D03*
X183515000Y-106045000D03*
X186055000Y-106045000D03*
X188595000Y-106045000D03*
X191135000Y-106045000D03*
X193675000Y-106045000D03*
X196215000Y-106045000D03*
D12*
X191135000Y-100965000D03*
D13*
X191135000Y-98425000D03*
X191135000Y-95885000D03*
X191135000Y-93345000D03*
X191135000Y-90805000D03*
X191135000Y-88265000D03*
X191135000Y-85725000D03*
X191135000Y-83185000D03*
D11*
X204470000Y-79375000D03*
D15*
X165735000Y-90805000D03*
D16*
X165735000Y-93305000D03*
D14*
X147320000Y-83130000D03*
X147320000Y-87630000D03*
X153820000Y-83130000D03*
X153820000Y-87630000D03*
D17*
X167089998Y-102870000D03*
X199930000Y-98425000D03*
X187325000Y-79756000D03*
X167005000Y-100965000D03*
X157480000Y-97790000D03*
X176530000Y-90805000D03*
X170815000Y-100965000D03*
X172720000Y-97790000D03*
X187325000Y-87630000D03*
X187325000Y-90170000D03*
X186055000Y-99060000D03*
X180975000Y-88900000D03*
X180975000Y-96520000D03*
D18*
X195580000Y-100330000D02*
X195580000Y-101600000D01*
X195580000Y-101600000D02*
X193040000Y-104140000D01*
X163830000Y-104140000D02*
X163195000Y-104775000D01*
X193040000Y-104140000D02*
X163830000Y-104140000D01*
X163195000Y-104775000D02*
X163195000Y-106045000D01*
X163195000Y-104775000D02*
X163195000Y-106045000D01*
X167005000Y-102870000D02*
X167089998Y-102870000D01*
X167089998Y-102870000D02*
X167005000Y-102870000D01*
X195580000Y-97790000D02*
X194310000Y-97790000D01*
X192489998Y-102870000D02*
X167089998Y-102870000D01*
X193675000Y-101684998D02*
X192489998Y-102870000D01*
X193675000Y-98425000D02*
X193675000Y-101684998D01*
X194310000Y-97790000D02*
X193675000Y-98425000D01*
X147320000Y-87630000D02*
X153820000Y-87630000D01*
X153820000Y-87630000D02*
X160655000Y-87630000D01*
X193675000Y-106045000D02*
X193675000Y-104775000D01*
X193675000Y-104775000D02*
X194310000Y-104140000D01*
X193675000Y-106045000D02*
X194310000Y-106045000D01*
X194310000Y-106045000D02*
X194945000Y-105410000D01*
X194945000Y-105410000D02*
X194945000Y-104775000D01*
X193675000Y-106045000D02*
X193675000Y-105410000D01*
D19*
X199930000Y-98425000D02*
X199930000Y-97123000D01*
X199136000Y-78105000D02*
X196215000Y-78105000D01*
X201295000Y-80264000D02*
X199136000Y-78105000D01*
X201295000Y-83820000D02*
X201295000Y-80264000D01*
X202438000Y-84963000D02*
X201295000Y-83820000D01*
X204470000Y-84963000D02*
X202438000Y-84963000D01*
X206121000Y-86614000D02*
X204470000Y-84963000D01*
X206121000Y-92583000D02*
X206121000Y-86614000D01*
X206121000Y-95377000D02*
X206121000Y-92583000D01*
X205232000Y-96266000D02*
X206121000Y-95377000D01*
X200787000Y-96266000D02*
X205232000Y-96266000D01*
X199930000Y-97123000D02*
X200787000Y-96266000D01*
X187325000Y-79756000D02*
X166751000Y-79756000D01*
X165735000Y-78740000D02*
X166751000Y-79756000D01*
X165735000Y-78740000D02*
X165735000Y-78105000D01*
D18*
X167005000Y-100965000D02*
X161290000Y-100965000D01*
X160655000Y-100965000D02*
X161290000Y-100965000D01*
X157480000Y-97790000D02*
X160655000Y-100965000D01*
X147320000Y-83130000D02*
X153820000Y-83130000D01*
X153820000Y-83130000D02*
X153875000Y-83185000D01*
X176530000Y-90805000D02*
X170815000Y-96520000D01*
X170815000Y-96520000D02*
X170815000Y-100965000D01*
X172720000Y-97790000D02*
X177165000Y-97790000D01*
X177165000Y-97790000D02*
X177800000Y-97790000D01*
X191135000Y-90805000D02*
X189230000Y-90805000D01*
X182245000Y-97790000D02*
X177800000Y-97790000D01*
X177800000Y-97790000D02*
X177165000Y-97790000D01*
X189230000Y-90805000D02*
X182245000Y-97790000D01*
X191135000Y-85725000D02*
X189230000Y-85725000D01*
X189230000Y-85725000D02*
X187325000Y-87630000D01*
X191135000Y-93345000D02*
X192405000Y-93345000D01*
X191135000Y-80010000D02*
X191135000Y-78105000D01*
X193040000Y-81915000D02*
X191135000Y-80010000D01*
X193040000Y-92710000D02*
X193040000Y-81915000D01*
X192405000Y-93345000D02*
X193040000Y-92710000D01*
X191135000Y-88265000D02*
X189230000Y-88265000D01*
X189230000Y-88265000D02*
X187325000Y-90170000D01*
X191135000Y-95885000D02*
X189230000Y-95885000D01*
X189230000Y-95885000D02*
X186055000Y-99060000D01*
X180975000Y-88900000D02*
X180975000Y-96520000D01*
D20*
G36*
X163322000Y-77978000D02*
X163342000Y-77978000D01*
X163342000Y-78232000D01*
X163322000Y-78232000D01*
X163322000Y-79425155D01*
X163551890Y-79546476D01*
X163961924Y-79376645D01*
X164390183Y-78986358D01*
X164457298Y-78843447D01*
X164684946Y-79184147D01*
X165166715Y-79506054D01*
X165314158Y-79535382D01*
X166142888Y-80364112D01*
X166421892Y-80550536D01*
X166751000Y-80616000D01*
X186957972Y-80616000D01*
X187138201Y-80690838D01*
X187510167Y-80691162D01*
X187853943Y-80549117D01*
X188117192Y-80286327D01*
X188259838Y-79942799D01*
X188260162Y-79570833D01*
X188251904Y-79550847D01*
X188595000Y-79619093D01*
X189163285Y-79506054D01*
X189645054Y-79184147D01*
X189865000Y-78854974D01*
X190084946Y-79184147D01*
X190325000Y-79344546D01*
X190325000Y-80010000D01*
X190386658Y-80319974D01*
X190539149Y-80548192D01*
X190562244Y-80582756D01*
X191913644Y-81934157D01*
X191732378Y-81813039D01*
X191164093Y-81700000D01*
X191105907Y-81700000D01*
X190537622Y-81813039D01*
X190055853Y-82134946D01*
X189733946Y-82616715D01*
X189620907Y-83185000D01*
X189733946Y-83753285D01*
X190055853Y-84235054D01*
X190385026Y-84455000D01*
X190055853Y-84674946D01*
X189895454Y-84915000D01*
X189230000Y-84915000D01*
X189057897Y-84949234D01*
X188920027Y-84976657D01*
X188657244Y-85152243D01*
X187096918Y-86712570D01*
X186796057Y-86836883D01*
X186532808Y-87099673D01*
X186390162Y-87443201D01*
X186389838Y-87815167D01*
X186531883Y-88158943D01*
X186794673Y-88422192D01*
X187138201Y-88564838D01*
X187510167Y-88565162D01*
X187853943Y-88423117D01*
X188117192Y-88160327D01*
X188242884Y-87857628D01*
X189565513Y-86535000D01*
X189895454Y-86535000D01*
X190055853Y-86775054D01*
X190385026Y-86995000D01*
X190055853Y-87214946D01*
X189895454Y-87455000D01*
X189230000Y-87455000D01*
X189057897Y-87489234D01*
X188920027Y-87516657D01*
X188657244Y-87692243D01*
X187096918Y-89252570D01*
X186796057Y-89376883D01*
X186532808Y-89639673D01*
X186390162Y-89983201D01*
X186389838Y-90355167D01*
X186531883Y-90698943D01*
X186794673Y-90962192D01*
X187138201Y-91104838D01*
X187510167Y-91105162D01*
X187853943Y-90963117D01*
X188117192Y-90700327D01*
X188242884Y-90397628D01*
X189565513Y-89075000D01*
X189895454Y-89075000D01*
X190055853Y-89315054D01*
X190385026Y-89535000D01*
X190055853Y-89754946D01*
X189895454Y-89995000D01*
X189230000Y-89995000D01*
X189057897Y-90029234D01*
X188920027Y-90056657D01*
X188657244Y-90232243D01*
X181909488Y-96980000D01*
X181796394Y-96980000D01*
X181909838Y-96706799D01*
X181910162Y-96334833D01*
X181785000Y-96031917D01*
X181785000Y-89387441D01*
X181909838Y-89086799D01*
X181910162Y-88714833D01*
X181768117Y-88371057D01*
X181505327Y-88107808D01*
X181161799Y-87965162D01*
X180789833Y-87964838D01*
X180446057Y-88106883D01*
X180182808Y-88369673D01*
X180040162Y-88713201D01*
X180039838Y-89085167D01*
X180165000Y-89388083D01*
X180165000Y-96032559D01*
X180040162Y-96333201D01*
X180039838Y-96705167D01*
X180153396Y-96980000D01*
X173207441Y-96980000D01*
X172906799Y-96855162D01*
X172534833Y-96854838D01*
X172191057Y-96996883D01*
X171927808Y-97259673D01*
X171785162Y-97603201D01*
X171784838Y-97975167D01*
X171926883Y-98318943D01*
X172189673Y-98582192D01*
X172533201Y-98724838D01*
X172905167Y-98725162D01*
X173208083Y-98600000D01*
X182245000Y-98600000D01*
X182554974Y-98538342D01*
X182817756Y-98362756D01*
X189565513Y-91615000D01*
X189895454Y-91615000D01*
X190055853Y-91855054D01*
X190385026Y-92075000D01*
X190055853Y-92294946D01*
X189733946Y-92776715D01*
X189620907Y-93345000D01*
X189733946Y-93913285D01*
X190055853Y-94395054D01*
X190385026Y-94615000D01*
X190055853Y-94834946D01*
X189895454Y-95075000D01*
X189230000Y-95075000D01*
X188920026Y-95136658D01*
X188788635Y-95224451D01*
X188657243Y-95312244D01*
X185826918Y-98142570D01*
X185526057Y-98266883D01*
X185262808Y-98529673D01*
X185120162Y-98873201D01*
X185119838Y-99245167D01*
X185261883Y-99588943D01*
X185524673Y-99852192D01*
X185868201Y-99994838D01*
X186240167Y-99995162D01*
X186583943Y-99853117D01*
X186847192Y-99590327D01*
X186972884Y-99287628D01*
X189565513Y-96695000D01*
X189895454Y-96695000D01*
X190055853Y-96935054D01*
X190396553Y-97162702D01*
X190253642Y-97229817D01*
X189863355Y-97658076D01*
X189693524Y-98068110D01*
X189814845Y-98298000D01*
X191008000Y-98298000D01*
X191008000Y-98278000D01*
X191262000Y-98278000D01*
X191262000Y-98298000D01*
X192455155Y-98298000D01*
X192576476Y-98068110D01*
X192406645Y-97658076D01*
X192016358Y-97229817D01*
X191873447Y-97162702D01*
X192214147Y-96935054D01*
X192536054Y-96453285D01*
X192649093Y-95885000D01*
X192536054Y-95316715D01*
X192214147Y-94834946D01*
X191884974Y-94615000D01*
X192214147Y-94395054D01*
X192374546Y-94155000D01*
X192405000Y-94155000D01*
X192714974Y-94093342D01*
X192977756Y-93917756D01*
X193612757Y-93282756D01*
X193788343Y-93019973D01*
X193850000Y-92710000D01*
X194065907Y-92710000D01*
X194178946Y-93278285D01*
X194500853Y-93760054D01*
X194841553Y-93987702D01*
X194698642Y-94054817D01*
X194308355Y-94483076D01*
X194138524Y-94893110D01*
X194259845Y-95123000D01*
X195453000Y-95123000D01*
X195453000Y-95103000D01*
X195707000Y-95103000D01*
X195707000Y-95123000D01*
X196900155Y-95123000D01*
X197021476Y-94893110D01*
X196851645Y-94483076D01*
X196461358Y-94054817D01*
X196318447Y-93987702D01*
X196659147Y-93760054D01*
X196981054Y-93278285D01*
X197094093Y-92710000D01*
X196981054Y-92141715D01*
X196659147Y-91659946D01*
X196177378Y-91338039D01*
X195609093Y-91225000D01*
X195550907Y-91225000D01*
X194982622Y-91338039D01*
X194500853Y-91659946D01*
X194178946Y-92141715D01*
X194065907Y-92710000D01*
X193850000Y-92710000D01*
X193850000Y-88782532D01*
X195727073Y-88782532D01*
X195825736Y-89049387D01*
X196435461Y-89275908D01*
X197085460Y-89251856D01*
X197574264Y-89049387D01*
X197672927Y-88782532D01*
X202227073Y-88782532D01*
X202325736Y-89049387D01*
X202935461Y-89275908D01*
X203585460Y-89251856D01*
X204074264Y-89049387D01*
X204172927Y-88782532D01*
X203200000Y-87809605D01*
X202227073Y-88782532D01*
X197672927Y-88782532D01*
X196700000Y-87809605D01*
X195727073Y-88782532D01*
X193850000Y-88782532D01*
X193850000Y-87365461D01*
X195054092Y-87365461D01*
X195078144Y-88015460D01*
X195280613Y-88504264D01*
X195547468Y-88602927D01*
X196520395Y-87630000D01*
X196879605Y-87630000D01*
X197852532Y-88602927D01*
X198119387Y-88504264D01*
X198345908Y-87894539D01*
X198326331Y-87365461D01*
X201554092Y-87365461D01*
X201578144Y-88015460D01*
X201780613Y-88504264D01*
X202047468Y-88602927D01*
X203020395Y-87630000D01*
X203379605Y-87630000D01*
X204352532Y-88602927D01*
X204619387Y-88504264D01*
X204845908Y-87894539D01*
X204821856Y-87244540D01*
X204619387Y-86755736D01*
X204352532Y-86657073D01*
X203379605Y-87630000D01*
X203020395Y-87630000D01*
X202047468Y-86657073D01*
X201780613Y-86755736D01*
X201554092Y-87365461D01*
X198326331Y-87365461D01*
X198321856Y-87244540D01*
X198119387Y-86755736D01*
X197852532Y-86657073D01*
X196879605Y-87630000D01*
X196520395Y-87630000D01*
X195547468Y-86657073D01*
X195280613Y-86755736D01*
X195054092Y-87365461D01*
X193850000Y-87365461D01*
X193850000Y-86477468D01*
X195727073Y-86477468D01*
X196700000Y-87450395D01*
X197672927Y-86477468D01*
X202227073Y-86477468D01*
X203200000Y-87450395D01*
X204172927Y-86477468D01*
X204074264Y-86210613D01*
X203464539Y-85984092D01*
X202814540Y-86008144D01*
X202325736Y-86210613D01*
X202227073Y-86477468D01*
X197672927Y-86477468D01*
X197574264Y-86210613D01*
X196964539Y-85984092D01*
X196314540Y-86008144D01*
X195825736Y-86210613D01*
X195727073Y-86477468D01*
X193850000Y-86477468D01*
X193850000Y-83453795D01*
X195064716Y-83453795D01*
X195313106Y-84054943D01*
X195772637Y-84515278D01*
X196373352Y-84764716D01*
X197023795Y-84765284D01*
X197624943Y-84516894D01*
X198085278Y-84057363D01*
X198334716Y-83456648D01*
X198335284Y-82806205D01*
X198086894Y-82205057D01*
X197627363Y-81744722D01*
X197026648Y-81495284D01*
X196376205Y-81494716D01*
X195775057Y-81743106D01*
X195314722Y-82202637D01*
X195065284Y-82803352D01*
X195064716Y-83453795D01*
X193850000Y-83453795D01*
X193850000Y-81915000D01*
X193807234Y-81700000D01*
X193788343Y-81605027D01*
X193612757Y-81342244D01*
X191945000Y-79674488D01*
X191945000Y-79344546D01*
X192185054Y-79184147D01*
X192412702Y-78843447D01*
X192479817Y-78986358D01*
X192908076Y-79376645D01*
X193318110Y-79546476D01*
X193548000Y-79425155D01*
X193548000Y-78232000D01*
X193528000Y-78232000D01*
X193528000Y-77978000D01*
X193548000Y-77978000D01*
X193548000Y-77958000D01*
X193802000Y-77958000D01*
X193802000Y-77978000D01*
X193822000Y-77978000D01*
X193822000Y-78232000D01*
X193802000Y-78232000D01*
X193802000Y-79425155D01*
X194031890Y-79546476D01*
X194441924Y-79376645D01*
X194870183Y-78986358D01*
X194937298Y-78843447D01*
X195164946Y-79184147D01*
X195646715Y-79506054D01*
X196215000Y-79619093D01*
X196783285Y-79506054D01*
X197265054Y-79184147D01*
X197411483Y-78965000D01*
X198779776Y-78965000D01*
X200435000Y-80620224D01*
X200435000Y-83820000D01*
X200500464Y-84149108D01*
X200686888Y-84428112D01*
X201829888Y-85571112D01*
X202108892Y-85757536D01*
X202438000Y-85823000D01*
X204113776Y-85823000D01*
X205261000Y-86970224D01*
X205261000Y-95020776D01*
X204875776Y-95406000D01*
X200787000Y-95406000D01*
X200457892Y-95471464D01*
X200255212Y-95606890D01*
X200178888Y-95657888D01*
X199321888Y-96514888D01*
X199135464Y-96793892D01*
X199070000Y-97123000D01*
X199070000Y-98057972D01*
X198995162Y-98238201D01*
X198994838Y-98610167D01*
X199136883Y-98953943D01*
X199399673Y-99217192D01*
X199743201Y-99359838D01*
X200115167Y-99360162D01*
X200458943Y-99218117D01*
X200722192Y-98955327D01*
X200864838Y-98611799D01*
X200865162Y-98239833D01*
X200790000Y-98057927D01*
X200790000Y-97479224D01*
X201143224Y-97126000D01*
X205232000Y-97126000D01*
X205561108Y-97060536D01*
X205840112Y-96874112D01*
X206248000Y-96466224D01*
X206248000Y-102684852D01*
X206021276Y-102457732D01*
X205016412Y-102040476D01*
X203928362Y-102039526D01*
X202922771Y-102455028D01*
X202152732Y-103223724D01*
X201735476Y-104228588D01*
X201734526Y-105316638D01*
X202150028Y-106322229D01*
X202380397Y-106553000D01*
X197604739Y-106553000D01*
X197700000Y-106074093D01*
X197700000Y-106015907D01*
X197586961Y-105447622D01*
X197265054Y-104965853D01*
X196783285Y-104643946D01*
X196215000Y-104530907D01*
X195646715Y-104643946D01*
X195164946Y-104965853D01*
X194937298Y-105306553D01*
X194870183Y-105163642D01*
X194441924Y-104773355D01*
X194031890Y-104603524D01*
X193802002Y-104724844D01*
X193802002Y-104560000D01*
X193765512Y-104560000D01*
X196152756Y-102172757D01*
X196271548Y-101994972D01*
X196328342Y-101909974D01*
X196344759Y-101827440D01*
X196430000Y-101827440D01*
X196665317Y-101783162D01*
X196881441Y-101644090D01*
X197026431Y-101431890D01*
X197077440Y-101180000D01*
X197077440Y-99480000D01*
X197033162Y-99244683D01*
X196894090Y-99028559D01*
X196681890Y-98883569D01*
X196614459Y-98869914D01*
X196659147Y-98840054D01*
X196981054Y-98358285D01*
X197094093Y-97790000D01*
X196981054Y-97221715D01*
X196659147Y-96739946D01*
X196318447Y-96512298D01*
X196461358Y-96445183D01*
X196851645Y-96016924D01*
X197021476Y-95606890D01*
X196900155Y-95377000D01*
X195707000Y-95377000D01*
X195707000Y-95397000D01*
X195453000Y-95397000D01*
X195453000Y-95377000D01*
X194259845Y-95377000D01*
X194138524Y-95606890D01*
X194308355Y-96016924D01*
X194698642Y-96445183D01*
X194841553Y-96512298D01*
X194500853Y-96739946D01*
X194340454Y-96980000D01*
X194310000Y-96980000D01*
X194000027Y-97041657D01*
X193737244Y-97217243D01*
X193102244Y-97852244D01*
X192926658Y-98115026D01*
X192865000Y-98425000D01*
X192865000Y-101349485D01*
X192632440Y-101582045D01*
X192632440Y-100115000D01*
X192588162Y-99879683D01*
X192449090Y-99663559D01*
X192236890Y-99518569D01*
X192128893Y-99496699D01*
X192406645Y-99191924D01*
X192576476Y-98781890D01*
X192455155Y-98552000D01*
X191262000Y-98552000D01*
X191262000Y-98572000D01*
X191008000Y-98572000D01*
X191008000Y-98552000D01*
X189814845Y-98552000D01*
X189693524Y-98781890D01*
X189863355Y-99191924D01*
X190139501Y-99494937D01*
X190049683Y-99511838D01*
X189833559Y-99650910D01*
X189688569Y-99863110D01*
X189637560Y-100115000D01*
X189637560Y-101815000D01*
X189681838Y-102050317D01*
X189688069Y-102060000D01*
X167577439Y-102060000D01*
X167276797Y-101935162D01*
X166904831Y-101934838D01*
X166561055Y-102076883D01*
X166297806Y-102339673D01*
X166155160Y-102683201D01*
X166154836Y-103055167D01*
X166268394Y-103330000D01*
X163830000Y-103330000D01*
X163520027Y-103391657D01*
X163257244Y-103567243D01*
X162622244Y-104202244D01*
X162446658Y-104465026D01*
X162385000Y-104775000D01*
X162385000Y-104805454D01*
X162144946Y-104965853D01*
X162117150Y-105007452D01*
X162108162Y-104959683D01*
X161969090Y-104743559D01*
X161756890Y-104598569D01*
X161505000Y-104547560D01*
X159805000Y-104547560D01*
X159569683Y-104591838D01*
X159512000Y-104628956D01*
X159512000Y-100967513D01*
X160082243Y-101537756D01*
X160175398Y-101600000D01*
X160345026Y-101713342D01*
X160655000Y-101775000D01*
X166517559Y-101775000D01*
X166818201Y-101899838D01*
X167190167Y-101900162D01*
X167533943Y-101758117D01*
X167797192Y-101495327D01*
X167939838Y-101151799D01*
X167939839Y-101150167D01*
X169879838Y-101150167D01*
X170021883Y-101493943D01*
X170284673Y-101757192D01*
X170628201Y-101899838D01*
X171000167Y-101900162D01*
X171343943Y-101758117D01*
X171607192Y-101495327D01*
X171749838Y-101151799D01*
X171750162Y-100779833D01*
X171625000Y-100476917D01*
X171625000Y-96855512D01*
X176758084Y-91722429D01*
X177058943Y-91598117D01*
X177322192Y-91335327D01*
X177464838Y-90991799D01*
X177465162Y-90619833D01*
X177323117Y-90276057D01*
X177060327Y-90012808D01*
X176716799Y-89870162D01*
X176344833Y-89869838D01*
X176001057Y-90011883D01*
X175737808Y-90274673D01*
X175612116Y-90577371D01*
X170242244Y-95947244D01*
X170066658Y-96210026D01*
X170005000Y-96520000D01*
X170005000Y-100477559D01*
X169880162Y-100778201D01*
X169879838Y-101150167D01*
X167939839Y-101150167D01*
X167940162Y-100779833D01*
X167798117Y-100436057D01*
X167535327Y-100172808D01*
X167191799Y-100030162D01*
X166819833Y-100029838D01*
X166516917Y-100155000D01*
X160990513Y-100155000D01*
X159512000Y-98676488D01*
X159512000Y-93604040D01*
X164224738Y-93604040D01*
X164454138Y-94159229D01*
X164878537Y-94584370D01*
X165433325Y-94814738D01*
X166034040Y-94815262D01*
X166589229Y-94585862D01*
X167014370Y-94161463D01*
X167244738Y-93606675D01*
X167245262Y-93005960D01*
X167015862Y-92450771D01*
X166838198Y-92272797D01*
X166969699Y-92218327D01*
X167148327Y-92039698D01*
X167245000Y-91806309D01*
X167245000Y-91090750D01*
X167086250Y-90932000D01*
X165862000Y-90932000D01*
X165862000Y-90952000D01*
X165608000Y-90952000D01*
X165608000Y-90932000D01*
X164383750Y-90932000D01*
X164225000Y-91090750D01*
X164225000Y-91806309D01*
X164321673Y-92039698D01*
X164500301Y-92218327D01*
X164631714Y-92272760D01*
X164455630Y-92448537D01*
X164225262Y-93003325D01*
X164224738Y-93604040D01*
X159512000Y-93604040D01*
X159512000Y-89803691D01*
X164225000Y-89803691D01*
X164225000Y-90519250D01*
X164383750Y-90678000D01*
X165608000Y-90678000D01*
X165608000Y-89453750D01*
X165862000Y-89453750D01*
X165862000Y-90678000D01*
X167086250Y-90678000D01*
X167245000Y-90519250D01*
X167245000Y-89803691D01*
X167148327Y-89570302D01*
X166969699Y-89391673D01*
X166736310Y-89295000D01*
X166020750Y-89295000D01*
X165862000Y-89453750D01*
X165608000Y-89453750D01*
X165449250Y-89295000D01*
X164733690Y-89295000D01*
X164500301Y-89391673D01*
X164321673Y-89570302D01*
X164225000Y-89803691D01*
X159512000Y-89803691D01*
X159512000Y-79523342D01*
X159553110Y-79551431D01*
X159805000Y-79602440D01*
X161505000Y-79602440D01*
X161740317Y-79558162D01*
X161956441Y-79419090D01*
X162101431Y-79206890D01*
X162123301Y-79098893D01*
X162428076Y-79376645D01*
X162838110Y-79546476D01*
X163068000Y-79425155D01*
X163068000Y-78232000D01*
X163048000Y-78232000D01*
X163048000Y-77978000D01*
X163068000Y-77978000D01*
X163068000Y-77958000D01*
X163322000Y-77958000D01*
X163322000Y-77978000D01*
X163322000Y-77978000D01*
G37*
X163322000Y-77978000D02*
X163342000Y-77978000D01*
X163342000Y-78232000D01*
X163322000Y-78232000D01*
X163322000Y-79425155D01*
X163551890Y-79546476D01*
X163961924Y-79376645D01*
X164390183Y-78986358D01*
X164457298Y-78843447D01*
X164684946Y-79184147D01*
X165166715Y-79506054D01*
X165314158Y-79535382D01*
X166142888Y-80364112D01*
X166421892Y-80550536D01*
X166751000Y-80616000D01*
X186957972Y-80616000D01*
X187138201Y-80690838D01*
X187510167Y-80691162D01*
X187853943Y-80549117D01*
X188117192Y-80286327D01*
X188259838Y-79942799D01*
X188260162Y-79570833D01*
X188251904Y-79550847D01*
X188595000Y-79619093D01*
X189163285Y-79506054D01*
X189645054Y-79184147D01*
X189865000Y-78854974D01*
X190084946Y-79184147D01*
X190325000Y-79344546D01*
X190325000Y-80010000D01*
X190386658Y-80319974D01*
X190539149Y-80548192D01*
X190562244Y-80582756D01*
X191913644Y-81934157D01*
X191732378Y-81813039D01*
X191164093Y-81700000D01*
X191105907Y-81700000D01*
X190537622Y-81813039D01*
X190055853Y-82134946D01*
X189733946Y-82616715D01*
X189620907Y-83185000D01*
X189733946Y-83753285D01*
X190055853Y-84235054D01*
X190385026Y-84455000D01*
X190055853Y-84674946D01*
X189895454Y-84915000D01*
X189230000Y-84915000D01*
X189057897Y-84949234D01*
X188920027Y-84976657D01*
X188657244Y-85152243D01*
X187096918Y-86712570D01*
X186796057Y-86836883D01*
X186532808Y-87099673D01*
X186390162Y-87443201D01*
X186389838Y-87815167D01*
X186531883Y-88158943D01*
X186794673Y-88422192D01*
X187138201Y-88564838D01*
X187510167Y-88565162D01*
X187853943Y-88423117D01*
X188117192Y-88160327D01*
X188242884Y-87857628D01*
X189565513Y-86535000D01*
X189895454Y-86535000D01*
X190055853Y-86775054D01*
X190385026Y-86995000D01*
X190055853Y-87214946D01*
X189895454Y-87455000D01*
X189230000Y-87455000D01*
X189057897Y-87489234D01*
X188920027Y-87516657D01*
X188657244Y-87692243D01*
X187096918Y-89252570D01*
X186796057Y-89376883D01*
X186532808Y-89639673D01*
X186390162Y-89983201D01*
X186389838Y-90355167D01*
X186531883Y-90698943D01*
X186794673Y-90962192D01*
X187138201Y-91104838D01*
X187510167Y-91105162D01*
X187853943Y-90963117D01*
X188117192Y-90700327D01*
X188242884Y-90397628D01*
X189565513Y-89075000D01*
X189895454Y-89075000D01*
X190055853Y-89315054D01*
X190385026Y-89535000D01*
X190055853Y-89754946D01*
X189895454Y-89995000D01*
X189230000Y-89995000D01*
X189057897Y-90029234D01*
X188920027Y-90056657D01*
X188657244Y-90232243D01*
X181909488Y-96980000D01*
X181796394Y-96980000D01*
X181909838Y-96706799D01*
X181910162Y-96334833D01*
X181785000Y-96031917D01*
X181785000Y-89387441D01*
X181909838Y-89086799D01*
X181910162Y-88714833D01*
X181768117Y-88371057D01*
X181505327Y-88107808D01*
X181161799Y-87965162D01*
X180789833Y-87964838D01*
X180446057Y-88106883D01*
X180182808Y-88369673D01*
X180040162Y-88713201D01*
X180039838Y-89085167D01*
X180165000Y-89388083D01*
X180165000Y-96032559D01*
X180040162Y-96333201D01*
X180039838Y-96705167D01*
X180153396Y-96980000D01*
X173207441Y-96980000D01*
X172906799Y-96855162D01*
X172534833Y-96854838D01*
X172191057Y-96996883D01*
X171927808Y-97259673D01*
X171785162Y-97603201D01*
X171784838Y-97975167D01*
X171926883Y-98318943D01*
X172189673Y-98582192D01*
X172533201Y-98724838D01*
X172905167Y-98725162D01*
X173208083Y-98600000D01*
X182245000Y-98600000D01*
X182554974Y-98538342D01*
X182817756Y-98362756D01*
X189565513Y-91615000D01*
X189895454Y-91615000D01*
X190055853Y-91855054D01*
X190385026Y-92075000D01*
X190055853Y-92294946D01*
X189733946Y-92776715D01*
X189620907Y-93345000D01*
X189733946Y-93913285D01*
X190055853Y-94395054D01*
X190385026Y-94615000D01*
X190055853Y-94834946D01*
X189895454Y-95075000D01*
X189230000Y-95075000D01*
X188920026Y-95136658D01*
X188788635Y-95224451D01*
X188657243Y-95312244D01*
X185826918Y-98142570D01*
X185526057Y-98266883D01*
X185262808Y-98529673D01*
X185120162Y-98873201D01*
X185119838Y-99245167D01*
X185261883Y-99588943D01*
X185524673Y-99852192D01*
X185868201Y-99994838D01*
X186240167Y-99995162D01*
X186583943Y-99853117D01*
X186847192Y-99590327D01*
X186972884Y-99287628D01*
X189565513Y-96695000D01*
X189895454Y-96695000D01*
X190055853Y-96935054D01*
X190396553Y-97162702D01*
X190253642Y-97229817D01*
X189863355Y-97658076D01*
X189693524Y-98068110D01*
X189814845Y-98298000D01*
X191008000Y-98298000D01*
X191008000Y-98278000D01*
X191262000Y-98278000D01*
X191262000Y-98298000D01*
X192455155Y-98298000D01*
X192576476Y-98068110D01*
X192406645Y-97658076D01*
X192016358Y-97229817D01*
X191873447Y-97162702D01*
X192214147Y-96935054D01*
X192536054Y-96453285D01*
X192649093Y-95885000D01*
X192536054Y-95316715D01*
X192214147Y-94834946D01*
X191884974Y-94615000D01*
X192214147Y-94395054D01*
X192374546Y-94155000D01*
X192405000Y-94155000D01*
X192714974Y-94093342D01*
X192977756Y-93917756D01*
X193612757Y-93282756D01*
X193788343Y-93019973D01*
X193850000Y-92710000D01*
X194065907Y-92710000D01*
X194178946Y-93278285D01*
X194500853Y-93760054D01*
X194841553Y-93987702D01*
X194698642Y-94054817D01*
X194308355Y-94483076D01*
X194138524Y-94893110D01*
X194259845Y-95123000D01*
X195453000Y-95123000D01*
X195453000Y-95103000D01*
X195707000Y-95103000D01*
X195707000Y-95123000D01*
X196900155Y-95123000D01*
X197021476Y-94893110D01*
X196851645Y-94483076D01*
X196461358Y-94054817D01*
X196318447Y-93987702D01*
X196659147Y-93760054D01*
X196981054Y-93278285D01*
X197094093Y-92710000D01*
X196981054Y-92141715D01*
X196659147Y-91659946D01*
X196177378Y-91338039D01*
X195609093Y-91225000D01*
X195550907Y-91225000D01*
X194982622Y-91338039D01*
X194500853Y-91659946D01*
X194178946Y-92141715D01*
X194065907Y-92710000D01*
X193850000Y-92710000D01*
X193850000Y-88782532D01*
X195727073Y-88782532D01*
X195825736Y-89049387D01*
X196435461Y-89275908D01*
X197085460Y-89251856D01*
X197574264Y-89049387D01*
X197672927Y-88782532D01*
X202227073Y-88782532D01*
X202325736Y-89049387D01*
X202935461Y-89275908D01*
X203585460Y-89251856D01*
X204074264Y-89049387D01*
X204172927Y-88782532D01*
X203200000Y-87809605D01*
X202227073Y-88782532D01*
X197672927Y-88782532D01*
X196700000Y-87809605D01*
X195727073Y-88782532D01*
X193850000Y-88782532D01*
X193850000Y-87365461D01*
X195054092Y-87365461D01*
X195078144Y-88015460D01*
X195280613Y-88504264D01*
X195547468Y-88602927D01*
X196520395Y-87630000D01*
X196879605Y-87630000D01*
X197852532Y-88602927D01*
X198119387Y-88504264D01*
X198345908Y-87894539D01*
X198326331Y-87365461D01*
X201554092Y-87365461D01*
X201578144Y-88015460D01*
X201780613Y-88504264D01*
X202047468Y-88602927D01*
X203020395Y-87630000D01*
X203379605Y-87630000D01*
X204352532Y-88602927D01*
X204619387Y-88504264D01*
X204845908Y-87894539D01*
X204821856Y-87244540D01*
X204619387Y-86755736D01*
X204352532Y-86657073D01*
X203379605Y-87630000D01*
X203020395Y-87630000D01*
X202047468Y-86657073D01*
X201780613Y-86755736D01*
X201554092Y-87365461D01*
X198326331Y-87365461D01*
X198321856Y-87244540D01*
X198119387Y-86755736D01*
X197852532Y-86657073D01*
X196879605Y-87630000D01*
X196520395Y-87630000D01*
X195547468Y-86657073D01*
X195280613Y-86755736D01*
X195054092Y-87365461D01*
X193850000Y-87365461D01*
X193850000Y-86477468D01*
X195727073Y-86477468D01*
X196700000Y-87450395D01*
X197672927Y-86477468D01*
X202227073Y-86477468D01*
X203200000Y-87450395D01*
X204172927Y-86477468D01*
X204074264Y-86210613D01*
X203464539Y-85984092D01*
X202814540Y-86008144D01*
X202325736Y-86210613D01*
X202227073Y-86477468D01*
X197672927Y-86477468D01*
X197574264Y-86210613D01*
X196964539Y-85984092D01*
X196314540Y-86008144D01*
X195825736Y-86210613D01*
X195727073Y-86477468D01*
X193850000Y-86477468D01*
X193850000Y-83453795D01*
X195064716Y-83453795D01*
X195313106Y-84054943D01*
X195772637Y-84515278D01*
X196373352Y-84764716D01*
X197023795Y-84765284D01*
X197624943Y-84516894D01*
X198085278Y-84057363D01*
X198334716Y-83456648D01*
X198335284Y-82806205D01*
X198086894Y-82205057D01*
X197627363Y-81744722D01*
X197026648Y-81495284D01*
X196376205Y-81494716D01*
X195775057Y-81743106D01*
X195314722Y-82202637D01*
X195065284Y-82803352D01*
X195064716Y-83453795D01*
X193850000Y-83453795D01*
X193850000Y-81915000D01*
X193807234Y-81700000D01*
X193788343Y-81605027D01*
X193612757Y-81342244D01*
X191945000Y-79674488D01*
X191945000Y-79344546D01*
X192185054Y-79184147D01*
X192412702Y-78843447D01*
X192479817Y-78986358D01*
X192908076Y-79376645D01*
X193318110Y-79546476D01*
X193548000Y-79425155D01*
X193548000Y-78232000D01*
X193528000Y-78232000D01*
X193528000Y-77978000D01*
X193548000Y-77978000D01*
X193548000Y-77958000D01*
X193802000Y-77958000D01*
X193802000Y-77978000D01*
X193822000Y-77978000D01*
X193822000Y-78232000D01*
X193802000Y-78232000D01*
X193802000Y-79425155D01*
X194031890Y-79546476D01*
X194441924Y-79376645D01*
X194870183Y-78986358D01*
X194937298Y-78843447D01*
X195164946Y-79184147D01*
X195646715Y-79506054D01*
X196215000Y-79619093D01*
X196783285Y-79506054D01*
X197265054Y-79184147D01*
X197411483Y-78965000D01*
X198779776Y-78965000D01*
X200435000Y-80620224D01*
X200435000Y-83820000D01*
X200500464Y-84149108D01*
X200686888Y-84428112D01*
X201829888Y-85571112D01*
X202108892Y-85757536D01*
X202438000Y-85823000D01*
X204113776Y-85823000D01*
X205261000Y-86970224D01*
X205261000Y-95020776D01*
X204875776Y-95406000D01*
X200787000Y-95406000D01*
X200457892Y-95471464D01*
X200255212Y-95606890D01*
X200178888Y-95657888D01*
X199321888Y-96514888D01*
X199135464Y-96793892D01*
X199070000Y-97123000D01*
X199070000Y-98057972D01*
X198995162Y-98238201D01*
X198994838Y-98610167D01*
X199136883Y-98953943D01*
X199399673Y-99217192D01*
X199743201Y-99359838D01*
X200115167Y-99360162D01*
X200458943Y-99218117D01*
X200722192Y-98955327D01*
X200864838Y-98611799D01*
X200865162Y-98239833D01*
X200790000Y-98057927D01*
X200790000Y-97479224D01*
X201143224Y-97126000D01*
X205232000Y-97126000D01*
X205561108Y-97060536D01*
X205840112Y-96874112D01*
X206248000Y-96466224D01*
X206248000Y-102684852D01*
X206021276Y-102457732D01*
X205016412Y-102040476D01*
X203928362Y-102039526D01*
X202922771Y-102455028D01*
X202152732Y-103223724D01*
X201735476Y-104228588D01*
X201734526Y-105316638D01*
X202150028Y-106322229D01*
X202380397Y-106553000D01*
X197604739Y-106553000D01*
X197700000Y-106074093D01*
X197700000Y-106015907D01*
X197586961Y-105447622D01*
X197265054Y-104965853D01*
X196783285Y-104643946D01*
X196215000Y-104530907D01*
X195646715Y-104643946D01*
X195164946Y-104965853D01*
X194937298Y-105306553D01*
X194870183Y-105163642D01*
X194441924Y-104773355D01*
X194031890Y-104603524D01*
X193802002Y-104724844D01*
X193802002Y-104560000D01*
X193765512Y-104560000D01*
X196152756Y-102172757D01*
X196271548Y-101994972D01*
X196328342Y-101909974D01*
X196344759Y-101827440D01*
X196430000Y-101827440D01*
X196665317Y-101783162D01*
X196881441Y-101644090D01*
X197026431Y-101431890D01*
X197077440Y-101180000D01*
X197077440Y-99480000D01*
X197033162Y-99244683D01*
X196894090Y-99028559D01*
X196681890Y-98883569D01*
X196614459Y-98869914D01*
X196659147Y-98840054D01*
X196981054Y-98358285D01*
X197094093Y-97790000D01*
X196981054Y-97221715D01*
X196659147Y-96739946D01*
X196318447Y-96512298D01*
X196461358Y-96445183D01*
X196851645Y-96016924D01*
X197021476Y-95606890D01*
X196900155Y-95377000D01*
X195707000Y-95377000D01*
X195707000Y-95397000D01*
X195453000Y-95397000D01*
X195453000Y-95377000D01*
X194259845Y-95377000D01*
X194138524Y-95606890D01*
X194308355Y-96016924D01*
X194698642Y-96445183D01*
X194841553Y-96512298D01*
X194500853Y-96739946D01*
X194340454Y-96980000D01*
X194310000Y-96980000D01*
X194000027Y-97041657D01*
X193737244Y-97217243D01*
X193102244Y-97852244D01*
X192926658Y-98115026D01*
X192865000Y-98425000D01*
X192865000Y-101349485D01*
X192632440Y-101582045D01*
X192632440Y-100115000D01*
X192588162Y-99879683D01*
X192449090Y-99663559D01*
X192236890Y-99518569D01*
X192128893Y-99496699D01*
X192406645Y-99191924D01*
X192576476Y-98781890D01*
X192455155Y-98552000D01*
X191262000Y-98552000D01*
X191262000Y-98572000D01*
X191008000Y-98572000D01*
X191008000Y-98552000D01*
X189814845Y-98552000D01*
X189693524Y-98781890D01*
X189863355Y-99191924D01*
X190139501Y-99494937D01*
X190049683Y-99511838D01*
X189833559Y-99650910D01*
X189688569Y-99863110D01*
X189637560Y-100115000D01*
X189637560Y-101815000D01*
X189681838Y-102050317D01*
X189688069Y-102060000D01*
X167577439Y-102060000D01*
X167276797Y-101935162D01*
X166904831Y-101934838D01*
X166561055Y-102076883D01*
X166297806Y-102339673D01*
X166155160Y-102683201D01*
X166154836Y-103055167D01*
X166268394Y-103330000D01*
X163830000Y-103330000D01*
X163520027Y-103391657D01*
X163257244Y-103567243D01*
X162622244Y-104202244D01*
X162446658Y-104465026D01*
X162385000Y-104775000D01*
X162385000Y-104805454D01*
X162144946Y-104965853D01*
X162117150Y-105007452D01*
X162108162Y-104959683D01*
X161969090Y-104743559D01*
X161756890Y-104598569D01*
X161505000Y-104547560D01*
X159805000Y-104547560D01*
X159569683Y-104591838D01*
X159512000Y-104628956D01*
X159512000Y-100967513D01*
X160082243Y-101537756D01*
X160175398Y-101600000D01*
X160345026Y-101713342D01*
X160655000Y-101775000D01*
X166517559Y-101775000D01*
X166818201Y-101899838D01*
X167190167Y-101900162D01*
X167533943Y-101758117D01*
X167797192Y-101495327D01*
X167939838Y-101151799D01*
X167939839Y-101150167D01*
X169879838Y-101150167D01*
X170021883Y-101493943D01*
X170284673Y-101757192D01*
X170628201Y-101899838D01*
X171000167Y-101900162D01*
X171343943Y-101758117D01*
X171607192Y-101495327D01*
X171749838Y-101151799D01*
X171750162Y-100779833D01*
X171625000Y-100476917D01*
X171625000Y-96855512D01*
X176758084Y-91722429D01*
X177058943Y-91598117D01*
X177322192Y-91335327D01*
X177464838Y-90991799D01*
X177465162Y-90619833D01*
X177323117Y-90276057D01*
X177060327Y-90012808D01*
X176716799Y-89870162D01*
X176344833Y-89869838D01*
X176001057Y-90011883D01*
X175737808Y-90274673D01*
X175612116Y-90577371D01*
X170242244Y-95947244D01*
X170066658Y-96210026D01*
X170005000Y-96520000D01*
X170005000Y-100477559D01*
X169880162Y-100778201D01*
X169879838Y-101150167D01*
X167939839Y-101150167D01*
X167940162Y-100779833D01*
X167798117Y-100436057D01*
X167535327Y-100172808D01*
X167191799Y-100030162D01*
X166819833Y-100029838D01*
X166516917Y-100155000D01*
X160990513Y-100155000D01*
X159512000Y-98676488D01*
X159512000Y-93604040D01*
X164224738Y-93604040D01*
X164454138Y-94159229D01*
X164878537Y-94584370D01*
X165433325Y-94814738D01*
X166034040Y-94815262D01*
X166589229Y-94585862D01*
X167014370Y-94161463D01*
X167244738Y-93606675D01*
X167245262Y-93005960D01*
X167015862Y-92450771D01*
X166838198Y-92272797D01*
X166969699Y-92218327D01*
X167148327Y-92039698D01*
X167245000Y-91806309D01*
X167245000Y-91090750D01*
X167086250Y-90932000D01*
X165862000Y-90932000D01*
X165862000Y-90952000D01*
X165608000Y-90952000D01*
X165608000Y-90932000D01*
X164383750Y-90932000D01*
X164225000Y-91090750D01*
X164225000Y-91806309D01*
X164321673Y-92039698D01*
X164500301Y-92218327D01*
X164631714Y-92272760D01*
X164455630Y-92448537D01*
X164225262Y-93003325D01*
X164224738Y-93604040D01*
X159512000Y-93604040D01*
X159512000Y-89803691D01*
X164225000Y-89803691D01*
X164225000Y-90519250D01*
X164383750Y-90678000D01*
X165608000Y-90678000D01*
X165608000Y-89453750D01*
X165862000Y-89453750D01*
X165862000Y-90678000D01*
X167086250Y-90678000D01*
X167245000Y-90519250D01*
X167245000Y-89803691D01*
X167148327Y-89570302D01*
X166969699Y-89391673D01*
X166736310Y-89295000D01*
X166020750Y-89295000D01*
X165862000Y-89453750D01*
X165608000Y-89453750D01*
X165449250Y-89295000D01*
X164733690Y-89295000D01*
X164500301Y-89391673D01*
X164321673Y-89570302D01*
X164225000Y-89803691D01*
X159512000Y-89803691D01*
X159512000Y-79523342D01*
X159553110Y-79551431D01*
X159805000Y-79602440D01*
X161505000Y-79602440D01*
X161740317Y-79558162D01*
X161956441Y-79419090D01*
X162101431Y-79206890D01*
X162123301Y-79098893D01*
X162428076Y-79376645D01*
X162838110Y-79546476D01*
X163068000Y-79425155D01*
X163068000Y-78232000D01*
X163048000Y-78232000D01*
X163048000Y-77978000D01*
X163068000Y-77978000D01*
X163068000Y-77958000D01*
X163322000Y-77958000D01*
X163322000Y-77978000D01*
G36*
X193802000Y-105918000D02*
X193822000Y-105918000D01*
X193822000Y-106172000D01*
X193802000Y-106172000D01*
X193802000Y-106192000D01*
X193548000Y-106192000D01*
X193548000Y-106172000D01*
X193528000Y-106172000D01*
X193528000Y-105918000D01*
X193548000Y-105918000D01*
X193548000Y-105898000D01*
X193802000Y-105898000D01*
X193802000Y-105918000D01*
X193802000Y-105918000D01*
G37*
X193802000Y-105918000D02*
X193822000Y-105918000D01*
X193822000Y-106172000D01*
X193802000Y-106172000D01*
X193802000Y-106192000D01*
X193548000Y-106192000D01*
X193548000Y-106172000D01*
X193528000Y-106172000D01*
X193528000Y-105918000D01*
X193548000Y-105918000D01*
X193548000Y-105898000D01*
X193802000Y-105898000D01*
X193802000Y-105918000D01*
M02*
