G04 #@! TF.FileFunction,Copper,L1,Top,Signal*
%FSLAX46Y46*%
G04 Gerber Fmt 4.6, Leading zero omitted, Abs format (unit mm)*
G04 Created by KiCad (PCBNEW 4.0.7) date 03/26/18 16:58:00*
%MOMM*%
%LPD*%
G01*
G04 APERTURE LIST*
%ADD10C,0.100000*%
%ADD11C,4.200000*%
%ADD12R,1.700000X1.700000*%
%ADD13O,1.700000X1.700000*%
%ADD14C,2.000000*%
%ADD15R,2.000000X1.700000*%
%ADD16R,1.750000X1.750000*%
%ADD17C,1.750000*%
%ADD18C,0.600000*%
%ADD19C,0.350000*%
%ADD20C,0.450000*%
%ADD21C,0.254000*%
G04 APERTURE END LIST*
D10*
D11*
X204470000Y-104775000D03*
X146050000Y-104775000D03*
X146050000Y-79375000D03*
D12*
X195580000Y-100330000D03*
D13*
X195580000Y-97790000D03*
X195580000Y-95250000D03*
X195580000Y-92710000D03*
D14*
X203200000Y-83130000D03*
X203200000Y-87630000D03*
X196700000Y-83130000D03*
X196700000Y-87630000D03*
D15*
X203930000Y-98425000D03*
X199930000Y-98425000D03*
D12*
X160655000Y-78105000D03*
D13*
X163195000Y-78105000D03*
X165735000Y-78105000D03*
X168275000Y-78105000D03*
X170815000Y-78105000D03*
X173355000Y-78105000D03*
X175895000Y-78105000D03*
X178435000Y-78105000D03*
X180975000Y-78105000D03*
X183515000Y-78105000D03*
X186055000Y-78105000D03*
X188595000Y-78105000D03*
X191135000Y-78105000D03*
X193675000Y-78105000D03*
X196215000Y-78105000D03*
D12*
X160655000Y-106045000D03*
D13*
X163195000Y-106045000D03*
X165735000Y-106045000D03*
X168275000Y-106045000D03*
X170815000Y-106045000D03*
X173355000Y-106045000D03*
X175895000Y-106045000D03*
X178435000Y-106045000D03*
X180975000Y-106045000D03*
X183515000Y-106045000D03*
X186055000Y-106045000D03*
X188595000Y-106045000D03*
X191135000Y-106045000D03*
X193675000Y-106045000D03*
X196215000Y-106045000D03*
D15*
X199930000Y-93980000D03*
X203930000Y-93980000D03*
D12*
X191135000Y-100965000D03*
D13*
X191135000Y-98425000D03*
X191135000Y-95885000D03*
X191135000Y-93345000D03*
X191135000Y-90805000D03*
X191135000Y-88265000D03*
X191135000Y-85725000D03*
X191135000Y-83185000D03*
D11*
X204470000Y-79375000D03*
D16*
X165735000Y-90805000D03*
D17*
X165735000Y-93305000D03*
D14*
X147320000Y-83130000D03*
X147320000Y-87630000D03*
X153820000Y-83130000D03*
X153820000Y-87630000D03*
D18*
X167089998Y-102870000D03*
X199930000Y-98425000D03*
X187325000Y-79756000D03*
X167005000Y-100965000D03*
X157480000Y-97790000D03*
X176530000Y-90805000D03*
X170815000Y-100965000D03*
X172720000Y-97790000D03*
X187325000Y-87630000D03*
X187325000Y-90170000D03*
X186055000Y-99060000D03*
X180975000Y-88900000D03*
X180975000Y-96520000D03*
D19*
X167089998Y-102870000D02*
X165735000Y-104224998D01*
X165735000Y-104224998D02*
X165735000Y-106045000D01*
D20*
X186055000Y-78105000D02*
X186055000Y-78105000D01*
D19*
X193675000Y-78105000D02*
X194056000Y-78105000D01*
D20*
X165735000Y-78105000D02*
X165735000Y-84455000D01*
X167045000Y-93305000D02*
X165735000Y-93305000D01*
X168910000Y-91440000D02*
X167045000Y-93305000D01*
X168910000Y-87630000D02*
X168910000Y-91440000D01*
X165735000Y-84455000D02*
X168910000Y-87630000D01*
X194564000Y-79756000D02*
X187325000Y-79756000D01*
X194564000Y-79756000D02*
X196215000Y-78105000D01*
X165735000Y-78740000D02*
X165735000Y-78105000D01*
X165735000Y-78105000D02*
X165735000Y-78740000D01*
X196215000Y-78740000D02*
X196215000Y-78105000D01*
D19*
X153820000Y-83130000D02*
X155520000Y-83130000D01*
X168275000Y-102235000D02*
X167005000Y-100965000D01*
X168275000Y-102870000D02*
X168275000Y-102235000D01*
X168275000Y-102870000D02*
X168275000Y-106045000D01*
X157480000Y-85090000D02*
X157480000Y-97790000D01*
X155520000Y-83130000D02*
X157480000Y-85090000D01*
X180340000Y-90805000D02*
X176530000Y-90805000D01*
X170815000Y-100965000D02*
X170815000Y-106045000D01*
X194310000Y-82550000D02*
X193040000Y-81280000D01*
X199930000Y-91980000D02*
X198120000Y-90170000D01*
X198120000Y-90170000D02*
X195580000Y-90170000D01*
X195580000Y-90170000D02*
X194310000Y-88900000D01*
X194310000Y-88900000D02*
X194310000Y-82550000D01*
X199930000Y-93980000D02*
X199930000Y-91980000D01*
X189865000Y-81280000D02*
X180340000Y-90805000D01*
X193040000Y-81280000D02*
X189865000Y-81280000D01*
X160655000Y-104775000D02*
X160655000Y-106045000D01*
X167640000Y-97790000D02*
X160655000Y-104775000D01*
X172720000Y-97790000D02*
X167640000Y-97790000D01*
X178435000Y-96520000D02*
X178435000Y-106045000D01*
X187325000Y-87630000D02*
X178435000Y-96520000D01*
X183515000Y-93980000D02*
X183515000Y-106045000D01*
X187325000Y-90170000D02*
X183515000Y-93980000D01*
X186055000Y-99060000D02*
X186055000Y-106045000D01*
X180975000Y-88900000D02*
X180975000Y-88900000D01*
X180975000Y-96520000D02*
X180975000Y-106045000D01*
X196700000Y-83130000D02*
X196700000Y-83035000D01*
X196700000Y-83035000D02*
X194183000Y-80518000D01*
X189357000Y-80518000D02*
X180975000Y-88900000D01*
X194183000Y-80518000D02*
X189357000Y-80518000D01*
X196700000Y-83130000D02*
X203200000Y-83130000D01*
X203930000Y-93980000D02*
X203930000Y-98425000D01*
D21*
G36*
X186182000Y-77978000D02*
X186202000Y-77978000D01*
X186202000Y-78232000D01*
X186182000Y-78232000D01*
X186182000Y-79425155D01*
X186401808Y-79541155D01*
X186390162Y-79569201D01*
X186389838Y-79941167D01*
X186531883Y-80284943D01*
X186794673Y-80548192D01*
X187138201Y-80690838D01*
X187510167Y-80691162D01*
X187692073Y-80616000D01*
X188113487Y-80616000D01*
X180746918Y-87982570D01*
X180446057Y-88106883D01*
X180182808Y-88369673D01*
X180040162Y-88713201D01*
X180039838Y-89085167D01*
X180181883Y-89428943D01*
X180376044Y-89623444D01*
X180004488Y-89995000D01*
X177017441Y-89995000D01*
X176716799Y-89870162D01*
X176344833Y-89869838D01*
X176001057Y-90011883D01*
X175737808Y-90274673D01*
X175595162Y-90618201D01*
X175594838Y-90990167D01*
X175736883Y-91333943D01*
X175999673Y-91597192D01*
X176343201Y-91739838D01*
X176715167Y-91740162D01*
X177018083Y-91615000D01*
X180340000Y-91615000D01*
X180649974Y-91553342D01*
X180912756Y-91377756D01*
X186565512Y-85725000D01*
X189620907Y-85725000D01*
X189733946Y-86293285D01*
X190055853Y-86775054D01*
X190385026Y-86995000D01*
X190055853Y-87214946D01*
X189733946Y-87696715D01*
X189620907Y-88265000D01*
X189733946Y-88833285D01*
X190055853Y-89315054D01*
X190385026Y-89535000D01*
X190055853Y-89754946D01*
X189733946Y-90236715D01*
X189620907Y-90805000D01*
X189733946Y-91373285D01*
X190055853Y-91855054D01*
X190385026Y-92075000D01*
X190055853Y-92294946D01*
X189733946Y-92776715D01*
X189620907Y-93345000D01*
X189733946Y-93913285D01*
X190055853Y-94395054D01*
X190385026Y-94615000D01*
X190055853Y-94834946D01*
X189733946Y-95316715D01*
X189620907Y-95885000D01*
X189733946Y-96453285D01*
X190055853Y-96935054D01*
X190385026Y-97155000D01*
X190055853Y-97374946D01*
X189733946Y-97856715D01*
X189620907Y-98425000D01*
X189733946Y-98993285D01*
X190055853Y-99475054D01*
X190099777Y-99504403D01*
X189925302Y-99576673D01*
X189746673Y-99755301D01*
X189650000Y-99988690D01*
X189650000Y-100679250D01*
X189808750Y-100838000D01*
X191008000Y-100838000D01*
X191008000Y-100818000D01*
X191262000Y-100818000D01*
X191262000Y-100838000D01*
X192461250Y-100838000D01*
X192620000Y-100679250D01*
X192620000Y-99988690D01*
X192523327Y-99755301D01*
X192344698Y-99576673D01*
X192170223Y-99504403D01*
X192214147Y-99475054D01*
X192536054Y-98993285D01*
X192649093Y-98425000D01*
X192536054Y-97856715D01*
X192214147Y-97374946D01*
X191884974Y-97155000D01*
X192214147Y-96935054D01*
X192536054Y-96453285D01*
X192649093Y-95885000D01*
X192536054Y-95316715D01*
X192491477Y-95250000D01*
X194065907Y-95250000D01*
X194178946Y-95818285D01*
X194500853Y-96300054D01*
X194830026Y-96520000D01*
X194500853Y-96739946D01*
X194178946Y-97221715D01*
X194065907Y-97790000D01*
X194178946Y-98358285D01*
X194500853Y-98840054D01*
X194542452Y-98867850D01*
X194494683Y-98876838D01*
X194278559Y-99015910D01*
X194133569Y-99228110D01*
X194082560Y-99480000D01*
X194082560Y-101180000D01*
X194126838Y-101415317D01*
X194265910Y-101631441D01*
X194478110Y-101776431D01*
X194730000Y-101827440D01*
X196430000Y-101827440D01*
X196665317Y-101783162D01*
X196881441Y-101644090D01*
X197026431Y-101431890D01*
X197077440Y-101180000D01*
X197077440Y-99480000D01*
X197033162Y-99244683D01*
X196894090Y-99028559D01*
X196681890Y-98883569D01*
X196614459Y-98869914D01*
X196659147Y-98840054D01*
X196981054Y-98358285D01*
X197094093Y-97790000D01*
X197051327Y-97575000D01*
X198282560Y-97575000D01*
X198282560Y-99275000D01*
X198326838Y-99510317D01*
X198465910Y-99726441D01*
X198678110Y-99871431D01*
X198930000Y-99922440D01*
X200930000Y-99922440D01*
X201165317Y-99878162D01*
X201381441Y-99739090D01*
X201526431Y-99526890D01*
X201577440Y-99275000D01*
X201577440Y-97575000D01*
X201533162Y-97339683D01*
X201394090Y-97123559D01*
X201181890Y-96978569D01*
X200930000Y-96927560D01*
X198930000Y-96927560D01*
X198694683Y-96971838D01*
X198478559Y-97110910D01*
X198333569Y-97323110D01*
X198282560Y-97575000D01*
X197051327Y-97575000D01*
X196981054Y-97221715D01*
X196659147Y-96739946D01*
X196329974Y-96520000D01*
X196659147Y-96300054D01*
X196981054Y-95818285D01*
X197094093Y-95250000D01*
X196981054Y-94681715D01*
X196659147Y-94199946D01*
X196318447Y-93972298D01*
X196461358Y-93905183D01*
X196851645Y-93476924D01*
X197021476Y-93066890D01*
X196900155Y-92837000D01*
X195707000Y-92837000D01*
X195707000Y-92857000D01*
X195453000Y-92857000D01*
X195453000Y-92837000D01*
X194259845Y-92837000D01*
X194138524Y-93066890D01*
X194308355Y-93476924D01*
X194698642Y-93905183D01*
X194841553Y-93972298D01*
X194500853Y-94199946D01*
X194178946Y-94681715D01*
X194065907Y-95250000D01*
X192491477Y-95250000D01*
X192214147Y-94834946D01*
X191884974Y-94615000D01*
X192214147Y-94395054D01*
X192536054Y-93913285D01*
X192649093Y-93345000D01*
X192536054Y-92776715D01*
X192253011Y-92353110D01*
X194138524Y-92353110D01*
X194259845Y-92583000D01*
X195453000Y-92583000D01*
X195453000Y-91389181D01*
X195707000Y-91389181D01*
X195707000Y-92583000D01*
X196900155Y-92583000D01*
X197021476Y-92353110D01*
X196851645Y-91943076D01*
X196461358Y-91514817D01*
X195936892Y-91268514D01*
X195707000Y-91389181D01*
X195453000Y-91389181D01*
X195223108Y-91268514D01*
X194698642Y-91514817D01*
X194308355Y-91943076D01*
X194138524Y-92353110D01*
X192253011Y-92353110D01*
X192214147Y-92294946D01*
X191884974Y-92075000D01*
X192214147Y-91855054D01*
X192536054Y-91373285D01*
X192649093Y-90805000D01*
X192536054Y-90236715D01*
X192214147Y-89754946D01*
X191884974Y-89535000D01*
X192214147Y-89315054D01*
X192536054Y-88833285D01*
X192649093Y-88265000D01*
X192536054Y-87696715D01*
X192214147Y-87214946D01*
X191884974Y-86995000D01*
X192214147Y-86775054D01*
X192536054Y-86293285D01*
X192649093Y-85725000D01*
X192536054Y-85156715D01*
X192214147Y-84674946D01*
X191873447Y-84447298D01*
X192016358Y-84380183D01*
X192406645Y-83951924D01*
X192576476Y-83541890D01*
X192455155Y-83312000D01*
X191262000Y-83312000D01*
X191262000Y-83332000D01*
X191008000Y-83332000D01*
X191008000Y-83312000D01*
X189814845Y-83312000D01*
X189693524Y-83541890D01*
X189863355Y-83951924D01*
X190253642Y-84380183D01*
X190396553Y-84447298D01*
X190055853Y-84674946D01*
X189733946Y-85156715D01*
X189620907Y-85725000D01*
X186565512Y-85725000D01*
X189856934Y-82433579D01*
X189693524Y-82828110D01*
X189814845Y-83058000D01*
X191008000Y-83058000D01*
X191008000Y-83038000D01*
X191262000Y-83038000D01*
X191262000Y-83058000D01*
X192455155Y-83058000D01*
X192576476Y-82828110D01*
X192406645Y-82418076D01*
X192107658Y-82090000D01*
X192704488Y-82090000D01*
X193500000Y-82885513D01*
X193500000Y-88900000D01*
X193561658Y-89209974D01*
X193673802Y-89377808D01*
X193737244Y-89472756D01*
X195007243Y-90742756D01*
X195100398Y-90805000D01*
X195270026Y-90918342D01*
X195580000Y-90980000D01*
X197784488Y-90980000D01*
X199120000Y-92315513D01*
X199120000Y-92482560D01*
X198930000Y-92482560D01*
X198694683Y-92526838D01*
X198478559Y-92665910D01*
X198333569Y-92878110D01*
X198282560Y-93130000D01*
X198282560Y-94830000D01*
X198326838Y-95065317D01*
X198465910Y-95281441D01*
X198678110Y-95426431D01*
X198930000Y-95477440D01*
X200930000Y-95477440D01*
X201165317Y-95433162D01*
X201381441Y-95294090D01*
X201526431Y-95081890D01*
X201577440Y-94830000D01*
X201577440Y-93130000D01*
X202282560Y-93130000D01*
X202282560Y-94830000D01*
X202326838Y-95065317D01*
X202465910Y-95281441D01*
X202678110Y-95426431D01*
X202930000Y-95477440D01*
X203120000Y-95477440D01*
X203120000Y-96927560D01*
X202930000Y-96927560D01*
X202694683Y-96971838D01*
X202478559Y-97110910D01*
X202333569Y-97323110D01*
X202282560Y-97575000D01*
X202282560Y-99275000D01*
X202326838Y-99510317D01*
X202465910Y-99726441D01*
X202678110Y-99871431D01*
X202930000Y-99922440D01*
X204930000Y-99922440D01*
X205165317Y-99878162D01*
X205381441Y-99739090D01*
X205526431Y-99526890D01*
X205577440Y-99275000D01*
X205577440Y-97575000D01*
X205533162Y-97339683D01*
X205394090Y-97123559D01*
X205181890Y-96978569D01*
X204930000Y-96927560D01*
X204740000Y-96927560D01*
X204740000Y-95477440D01*
X204930000Y-95477440D01*
X205165317Y-95433162D01*
X205381441Y-95294090D01*
X205526431Y-95081890D01*
X205577440Y-94830000D01*
X205577440Y-93130000D01*
X205533162Y-92894683D01*
X205394090Y-92678559D01*
X205181890Y-92533569D01*
X204930000Y-92482560D01*
X202930000Y-92482560D01*
X202694683Y-92526838D01*
X202478559Y-92665910D01*
X202333569Y-92878110D01*
X202282560Y-93130000D01*
X201577440Y-93130000D01*
X201533162Y-92894683D01*
X201394090Y-92678559D01*
X201181890Y-92533569D01*
X200930000Y-92482560D01*
X200740000Y-92482560D01*
X200740000Y-91980000D01*
X200727134Y-91915317D01*
X200678343Y-91670027D01*
X200502757Y-91407244D01*
X198692756Y-89597244D01*
X198692755Y-89597243D01*
X198429974Y-89421658D01*
X198120000Y-89360000D01*
X195915513Y-89360000D01*
X195120000Y-88564488D01*
X195120000Y-88087592D01*
X195313106Y-88554943D01*
X195772637Y-89015278D01*
X196373352Y-89264716D01*
X197023795Y-89265284D01*
X197624943Y-89016894D01*
X198085278Y-88557363D01*
X198334716Y-87956648D01*
X198334718Y-87953795D01*
X201564716Y-87953795D01*
X201813106Y-88554943D01*
X202272637Y-89015278D01*
X202873352Y-89264716D01*
X203523795Y-89265284D01*
X204124943Y-89016894D01*
X204585278Y-88557363D01*
X204834716Y-87956648D01*
X204835284Y-87306205D01*
X204586894Y-86705057D01*
X204127363Y-86244722D01*
X203526648Y-85995284D01*
X202876205Y-85994716D01*
X202275057Y-86243106D01*
X201814722Y-86702637D01*
X201565284Y-87303352D01*
X201564716Y-87953795D01*
X198334718Y-87953795D01*
X198335284Y-87306205D01*
X198086894Y-86705057D01*
X197627363Y-86244722D01*
X197026648Y-85995284D01*
X196376205Y-85994716D01*
X195775057Y-86243106D01*
X195314722Y-86702637D01*
X195120000Y-87171581D01*
X195120000Y-83587592D01*
X195313106Y-84054943D01*
X195772637Y-84515278D01*
X196373352Y-84764716D01*
X197023795Y-84765284D01*
X197624943Y-84516894D01*
X198085278Y-84057363D01*
X198134011Y-83940000D01*
X201765612Y-83940000D01*
X201813106Y-84054943D01*
X202272637Y-84515278D01*
X202873352Y-84764716D01*
X203523795Y-84765284D01*
X204124943Y-84516894D01*
X204585278Y-84057363D01*
X204834716Y-83456648D01*
X204835284Y-82806205D01*
X204586894Y-82205057D01*
X204492023Y-82110020D01*
X205011638Y-82110474D01*
X206017229Y-81694972D01*
X206248000Y-81464603D01*
X206248000Y-102684852D01*
X206021276Y-102457732D01*
X205016412Y-102040476D01*
X203928362Y-102039526D01*
X202922771Y-102455028D01*
X202152732Y-103223724D01*
X201735476Y-104228588D01*
X201734526Y-105316638D01*
X202150028Y-106322229D01*
X202380397Y-106553000D01*
X197585522Y-106553000D01*
X197656486Y-106401892D01*
X197535819Y-106172000D01*
X196342000Y-106172000D01*
X196342000Y-106192000D01*
X196088000Y-106192000D01*
X196088000Y-106172000D01*
X196068000Y-106172000D01*
X196068000Y-105918000D01*
X196088000Y-105918000D01*
X196088000Y-104724845D01*
X196342000Y-104724845D01*
X196342000Y-105918000D01*
X197535819Y-105918000D01*
X197656486Y-105688108D01*
X197410183Y-105163642D01*
X196981924Y-104773355D01*
X196571890Y-104603524D01*
X196342000Y-104724845D01*
X196088000Y-104724845D01*
X195858110Y-104603524D01*
X195448076Y-104773355D01*
X195019817Y-105163642D01*
X194952702Y-105306553D01*
X194725054Y-104965853D01*
X194243285Y-104643946D01*
X193675000Y-104530907D01*
X193106715Y-104643946D01*
X192624946Y-104965853D01*
X192405000Y-105295026D01*
X192185054Y-104965853D01*
X191703285Y-104643946D01*
X191135000Y-104530907D01*
X190566715Y-104643946D01*
X190084946Y-104965853D01*
X189865000Y-105295026D01*
X189645054Y-104965853D01*
X189163285Y-104643946D01*
X188595000Y-104530907D01*
X188026715Y-104643946D01*
X187544946Y-104965853D01*
X187325000Y-105295026D01*
X187105054Y-104965853D01*
X186865000Y-104805454D01*
X186865000Y-101250750D01*
X189650000Y-101250750D01*
X189650000Y-101941310D01*
X189746673Y-102174699D01*
X189925302Y-102353327D01*
X190158691Y-102450000D01*
X190849250Y-102450000D01*
X191008000Y-102291250D01*
X191008000Y-101092000D01*
X191262000Y-101092000D01*
X191262000Y-102291250D01*
X191420750Y-102450000D01*
X192111309Y-102450000D01*
X192344698Y-102353327D01*
X192523327Y-102174699D01*
X192620000Y-101941310D01*
X192620000Y-101250750D01*
X192461250Y-101092000D01*
X191262000Y-101092000D01*
X191008000Y-101092000D01*
X189808750Y-101092000D01*
X189650000Y-101250750D01*
X186865000Y-101250750D01*
X186865000Y-99547441D01*
X186989838Y-99246799D01*
X186990162Y-98874833D01*
X186848117Y-98531057D01*
X186585327Y-98267808D01*
X186241799Y-98125162D01*
X185869833Y-98124838D01*
X185526057Y-98266883D01*
X185262808Y-98529673D01*
X185120162Y-98873201D01*
X185119838Y-99245167D01*
X185245000Y-99548083D01*
X185245000Y-104805454D01*
X185004946Y-104965853D01*
X184785000Y-105295026D01*
X184565054Y-104965853D01*
X184325000Y-104805454D01*
X184325000Y-94315512D01*
X187553084Y-91087429D01*
X187853943Y-90963117D01*
X188117192Y-90700327D01*
X188259838Y-90356799D01*
X188260162Y-89984833D01*
X188118117Y-89641057D01*
X187855327Y-89377808D01*
X187511799Y-89235162D01*
X187139833Y-89234838D01*
X186796057Y-89376883D01*
X186532808Y-89639673D01*
X186407116Y-89942371D01*
X182942244Y-93407244D01*
X182766658Y-93670026D01*
X182705000Y-93980000D01*
X182705000Y-104805454D01*
X182464946Y-104965853D01*
X182245000Y-105295026D01*
X182025054Y-104965853D01*
X181785000Y-104805454D01*
X181785000Y-97007441D01*
X181909838Y-96706799D01*
X181910162Y-96334833D01*
X181768117Y-95991057D01*
X181505327Y-95727808D01*
X181161799Y-95585162D01*
X180789833Y-95584838D01*
X180446057Y-95726883D01*
X180182808Y-95989673D01*
X180040162Y-96333201D01*
X180039838Y-96705167D01*
X180165000Y-97008083D01*
X180165000Y-104805454D01*
X179924946Y-104965853D01*
X179705000Y-105295026D01*
X179485054Y-104965853D01*
X179245000Y-104805454D01*
X179245000Y-96855512D01*
X187553084Y-88547429D01*
X187853943Y-88423117D01*
X188117192Y-88160327D01*
X188259838Y-87816799D01*
X188260162Y-87444833D01*
X188118117Y-87101057D01*
X187855327Y-86837808D01*
X187511799Y-86695162D01*
X187139833Y-86694838D01*
X186796057Y-86836883D01*
X186532808Y-87099673D01*
X186407116Y-87402371D01*
X177862244Y-95947244D01*
X177686658Y-96210026D01*
X177625000Y-96520000D01*
X177625000Y-104805454D01*
X177384946Y-104965853D01*
X177165000Y-105295026D01*
X176945054Y-104965853D01*
X176463285Y-104643946D01*
X175895000Y-104530907D01*
X175326715Y-104643946D01*
X174844946Y-104965853D01*
X174617298Y-105306553D01*
X174550183Y-105163642D01*
X174121924Y-104773355D01*
X173711890Y-104603524D01*
X173482000Y-104724845D01*
X173482000Y-105918000D01*
X173502000Y-105918000D01*
X173502000Y-106172000D01*
X173482000Y-106172000D01*
X173482000Y-106192000D01*
X173228000Y-106192000D01*
X173228000Y-106172000D01*
X173208000Y-106172000D01*
X173208000Y-105918000D01*
X173228000Y-105918000D01*
X173228000Y-104724845D01*
X172998110Y-104603524D01*
X172588076Y-104773355D01*
X172159817Y-105163642D01*
X172092702Y-105306553D01*
X171865054Y-104965853D01*
X171625000Y-104805454D01*
X171625000Y-101452441D01*
X171749838Y-101151799D01*
X171750162Y-100779833D01*
X171608117Y-100436057D01*
X171345327Y-100172808D01*
X171001799Y-100030162D01*
X170629833Y-100029838D01*
X170286057Y-100171883D01*
X170022808Y-100434673D01*
X169880162Y-100778201D01*
X169879838Y-101150167D01*
X170005000Y-101453083D01*
X170005000Y-104805454D01*
X169764946Y-104965853D01*
X169545000Y-105295026D01*
X169325054Y-104965853D01*
X169085000Y-104805454D01*
X169085000Y-102235000D01*
X169023342Y-101925026D01*
X168911817Y-101758117D01*
X168847756Y-101662243D01*
X167922430Y-100736917D01*
X167798117Y-100436057D01*
X167535327Y-100172808D01*
X167191799Y-100030162D01*
X166819833Y-100029838D01*
X166476057Y-100171883D01*
X166212808Y-100434673D01*
X166070162Y-100778201D01*
X166069838Y-101150167D01*
X166211883Y-101493943D01*
X166474673Y-101757192D01*
X166777372Y-101882884D01*
X166851402Y-101956914D01*
X166561055Y-102076883D01*
X166297806Y-102339673D01*
X166172114Y-102642371D01*
X165162244Y-103652242D01*
X164986658Y-103915024D01*
X164925000Y-104224998D01*
X164925000Y-104805454D01*
X164684946Y-104965853D01*
X164465000Y-105295026D01*
X164245054Y-104965853D01*
X163763285Y-104643946D01*
X163195000Y-104530907D01*
X162626715Y-104643946D01*
X162144946Y-104965853D01*
X162117150Y-105007452D01*
X162108162Y-104959683D01*
X161969090Y-104743559D01*
X161887619Y-104687893D01*
X167975513Y-98600000D01*
X172232559Y-98600000D01*
X172533201Y-98724838D01*
X172905167Y-98725162D01*
X173248943Y-98583117D01*
X173512192Y-98320327D01*
X173654838Y-97976799D01*
X173655162Y-97604833D01*
X173513117Y-97261057D01*
X173250327Y-96997808D01*
X172906799Y-96855162D01*
X172534833Y-96854838D01*
X172231917Y-96980000D01*
X167640000Y-96980000D01*
X167467897Y-97014234D01*
X167330027Y-97041657D01*
X167067244Y-97217243D01*
X160082244Y-104202244D01*
X159906658Y-104465026D01*
X159890241Y-104547560D01*
X159805000Y-104547560D01*
X159569683Y-104591838D01*
X159512000Y-104628956D01*
X159512000Y-79523342D01*
X159553110Y-79551431D01*
X159805000Y-79602440D01*
X161505000Y-79602440D01*
X161740317Y-79558162D01*
X161956441Y-79419090D01*
X162101431Y-79206890D01*
X162115086Y-79139459D01*
X162144946Y-79184147D01*
X162626715Y-79506054D01*
X163195000Y-79619093D01*
X163763285Y-79506054D01*
X164245054Y-79184147D01*
X164465000Y-78854974D01*
X164684946Y-79184147D01*
X164875000Y-79311137D01*
X164875000Y-84455000D01*
X164940464Y-84784108D01*
X165126888Y-85063112D01*
X168050000Y-87986224D01*
X168050000Y-91083776D01*
X167207585Y-91926191D01*
X167257440Y-91680000D01*
X167257440Y-89930000D01*
X167213162Y-89694683D01*
X167074090Y-89478559D01*
X166861890Y-89333569D01*
X166610000Y-89282560D01*
X164860000Y-89282560D01*
X164624683Y-89326838D01*
X164408559Y-89465910D01*
X164263569Y-89678110D01*
X164212560Y-89930000D01*
X164212560Y-91680000D01*
X164256838Y-91915317D01*
X164395910Y-92131441D01*
X164608110Y-92276431D01*
X164624676Y-92279786D01*
X164455630Y-92448537D01*
X164225262Y-93003325D01*
X164224738Y-93604040D01*
X164454138Y-94159229D01*
X164878537Y-94584370D01*
X165433325Y-94814738D01*
X166034040Y-94815262D01*
X166589229Y-94585862D01*
X167010827Y-94165000D01*
X167045000Y-94165000D01*
X167374108Y-94099536D01*
X167653112Y-93913112D01*
X169518112Y-92048112D01*
X169704536Y-91769108D01*
X169770000Y-91440000D01*
X169770000Y-87630000D01*
X169704536Y-87300892D01*
X169518112Y-87021888D01*
X166595000Y-84098776D01*
X166595000Y-79311137D01*
X166785054Y-79184147D01*
X167005000Y-78854974D01*
X167224946Y-79184147D01*
X167706715Y-79506054D01*
X168275000Y-79619093D01*
X168843285Y-79506054D01*
X169325054Y-79184147D01*
X169545000Y-78854974D01*
X169764946Y-79184147D01*
X170246715Y-79506054D01*
X170815000Y-79619093D01*
X171383285Y-79506054D01*
X171865054Y-79184147D01*
X172085000Y-78854974D01*
X172304946Y-79184147D01*
X172786715Y-79506054D01*
X173355000Y-79619093D01*
X173923285Y-79506054D01*
X174405054Y-79184147D01*
X174625000Y-78854974D01*
X174844946Y-79184147D01*
X175326715Y-79506054D01*
X175895000Y-79619093D01*
X176463285Y-79506054D01*
X176945054Y-79184147D01*
X177165000Y-78854974D01*
X177384946Y-79184147D01*
X177866715Y-79506054D01*
X178435000Y-79619093D01*
X179003285Y-79506054D01*
X179485054Y-79184147D01*
X179705000Y-78854974D01*
X179924946Y-79184147D01*
X180406715Y-79506054D01*
X180975000Y-79619093D01*
X181543285Y-79506054D01*
X182025054Y-79184147D01*
X182245000Y-78854974D01*
X182464946Y-79184147D01*
X182946715Y-79506054D01*
X183515000Y-79619093D01*
X184083285Y-79506054D01*
X184565054Y-79184147D01*
X184792702Y-78843447D01*
X184859817Y-78986358D01*
X185288076Y-79376645D01*
X185698110Y-79546476D01*
X185928000Y-79425155D01*
X185928000Y-78232000D01*
X185908000Y-78232000D01*
X185908000Y-77978000D01*
X185928000Y-77978000D01*
X185928000Y-77958000D01*
X186182000Y-77958000D01*
X186182000Y-77978000D01*
X186182000Y-77978000D01*
G37*
X186182000Y-77978000D02*
X186202000Y-77978000D01*
X186202000Y-78232000D01*
X186182000Y-78232000D01*
X186182000Y-79425155D01*
X186401808Y-79541155D01*
X186390162Y-79569201D01*
X186389838Y-79941167D01*
X186531883Y-80284943D01*
X186794673Y-80548192D01*
X187138201Y-80690838D01*
X187510167Y-80691162D01*
X187692073Y-80616000D01*
X188113487Y-80616000D01*
X180746918Y-87982570D01*
X180446057Y-88106883D01*
X180182808Y-88369673D01*
X180040162Y-88713201D01*
X180039838Y-89085167D01*
X180181883Y-89428943D01*
X180376044Y-89623444D01*
X180004488Y-89995000D01*
X177017441Y-89995000D01*
X176716799Y-89870162D01*
X176344833Y-89869838D01*
X176001057Y-90011883D01*
X175737808Y-90274673D01*
X175595162Y-90618201D01*
X175594838Y-90990167D01*
X175736883Y-91333943D01*
X175999673Y-91597192D01*
X176343201Y-91739838D01*
X176715167Y-91740162D01*
X177018083Y-91615000D01*
X180340000Y-91615000D01*
X180649974Y-91553342D01*
X180912756Y-91377756D01*
X186565512Y-85725000D01*
X189620907Y-85725000D01*
X189733946Y-86293285D01*
X190055853Y-86775054D01*
X190385026Y-86995000D01*
X190055853Y-87214946D01*
X189733946Y-87696715D01*
X189620907Y-88265000D01*
X189733946Y-88833285D01*
X190055853Y-89315054D01*
X190385026Y-89535000D01*
X190055853Y-89754946D01*
X189733946Y-90236715D01*
X189620907Y-90805000D01*
X189733946Y-91373285D01*
X190055853Y-91855054D01*
X190385026Y-92075000D01*
X190055853Y-92294946D01*
X189733946Y-92776715D01*
X189620907Y-93345000D01*
X189733946Y-93913285D01*
X190055853Y-94395054D01*
X190385026Y-94615000D01*
X190055853Y-94834946D01*
X189733946Y-95316715D01*
X189620907Y-95885000D01*
X189733946Y-96453285D01*
X190055853Y-96935054D01*
X190385026Y-97155000D01*
X190055853Y-97374946D01*
X189733946Y-97856715D01*
X189620907Y-98425000D01*
X189733946Y-98993285D01*
X190055853Y-99475054D01*
X190099777Y-99504403D01*
X189925302Y-99576673D01*
X189746673Y-99755301D01*
X189650000Y-99988690D01*
X189650000Y-100679250D01*
X189808750Y-100838000D01*
X191008000Y-100838000D01*
X191008000Y-100818000D01*
X191262000Y-100818000D01*
X191262000Y-100838000D01*
X192461250Y-100838000D01*
X192620000Y-100679250D01*
X192620000Y-99988690D01*
X192523327Y-99755301D01*
X192344698Y-99576673D01*
X192170223Y-99504403D01*
X192214147Y-99475054D01*
X192536054Y-98993285D01*
X192649093Y-98425000D01*
X192536054Y-97856715D01*
X192214147Y-97374946D01*
X191884974Y-97155000D01*
X192214147Y-96935054D01*
X192536054Y-96453285D01*
X192649093Y-95885000D01*
X192536054Y-95316715D01*
X192491477Y-95250000D01*
X194065907Y-95250000D01*
X194178946Y-95818285D01*
X194500853Y-96300054D01*
X194830026Y-96520000D01*
X194500853Y-96739946D01*
X194178946Y-97221715D01*
X194065907Y-97790000D01*
X194178946Y-98358285D01*
X194500853Y-98840054D01*
X194542452Y-98867850D01*
X194494683Y-98876838D01*
X194278559Y-99015910D01*
X194133569Y-99228110D01*
X194082560Y-99480000D01*
X194082560Y-101180000D01*
X194126838Y-101415317D01*
X194265910Y-101631441D01*
X194478110Y-101776431D01*
X194730000Y-101827440D01*
X196430000Y-101827440D01*
X196665317Y-101783162D01*
X196881441Y-101644090D01*
X197026431Y-101431890D01*
X197077440Y-101180000D01*
X197077440Y-99480000D01*
X197033162Y-99244683D01*
X196894090Y-99028559D01*
X196681890Y-98883569D01*
X196614459Y-98869914D01*
X196659147Y-98840054D01*
X196981054Y-98358285D01*
X197094093Y-97790000D01*
X197051327Y-97575000D01*
X198282560Y-97575000D01*
X198282560Y-99275000D01*
X198326838Y-99510317D01*
X198465910Y-99726441D01*
X198678110Y-99871431D01*
X198930000Y-99922440D01*
X200930000Y-99922440D01*
X201165317Y-99878162D01*
X201381441Y-99739090D01*
X201526431Y-99526890D01*
X201577440Y-99275000D01*
X201577440Y-97575000D01*
X201533162Y-97339683D01*
X201394090Y-97123559D01*
X201181890Y-96978569D01*
X200930000Y-96927560D01*
X198930000Y-96927560D01*
X198694683Y-96971838D01*
X198478559Y-97110910D01*
X198333569Y-97323110D01*
X198282560Y-97575000D01*
X197051327Y-97575000D01*
X196981054Y-97221715D01*
X196659147Y-96739946D01*
X196329974Y-96520000D01*
X196659147Y-96300054D01*
X196981054Y-95818285D01*
X197094093Y-95250000D01*
X196981054Y-94681715D01*
X196659147Y-94199946D01*
X196318447Y-93972298D01*
X196461358Y-93905183D01*
X196851645Y-93476924D01*
X197021476Y-93066890D01*
X196900155Y-92837000D01*
X195707000Y-92837000D01*
X195707000Y-92857000D01*
X195453000Y-92857000D01*
X195453000Y-92837000D01*
X194259845Y-92837000D01*
X194138524Y-93066890D01*
X194308355Y-93476924D01*
X194698642Y-93905183D01*
X194841553Y-93972298D01*
X194500853Y-94199946D01*
X194178946Y-94681715D01*
X194065907Y-95250000D01*
X192491477Y-95250000D01*
X192214147Y-94834946D01*
X191884974Y-94615000D01*
X192214147Y-94395054D01*
X192536054Y-93913285D01*
X192649093Y-93345000D01*
X192536054Y-92776715D01*
X192253011Y-92353110D01*
X194138524Y-92353110D01*
X194259845Y-92583000D01*
X195453000Y-92583000D01*
X195453000Y-91389181D01*
X195707000Y-91389181D01*
X195707000Y-92583000D01*
X196900155Y-92583000D01*
X197021476Y-92353110D01*
X196851645Y-91943076D01*
X196461358Y-91514817D01*
X195936892Y-91268514D01*
X195707000Y-91389181D01*
X195453000Y-91389181D01*
X195223108Y-91268514D01*
X194698642Y-91514817D01*
X194308355Y-91943076D01*
X194138524Y-92353110D01*
X192253011Y-92353110D01*
X192214147Y-92294946D01*
X191884974Y-92075000D01*
X192214147Y-91855054D01*
X192536054Y-91373285D01*
X192649093Y-90805000D01*
X192536054Y-90236715D01*
X192214147Y-89754946D01*
X191884974Y-89535000D01*
X192214147Y-89315054D01*
X192536054Y-88833285D01*
X192649093Y-88265000D01*
X192536054Y-87696715D01*
X192214147Y-87214946D01*
X191884974Y-86995000D01*
X192214147Y-86775054D01*
X192536054Y-86293285D01*
X192649093Y-85725000D01*
X192536054Y-85156715D01*
X192214147Y-84674946D01*
X191873447Y-84447298D01*
X192016358Y-84380183D01*
X192406645Y-83951924D01*
X192576476Y-83541890D01*
X192455155Y-83312000D01*
X191262000Y-83312000D01*
X191262000Y-83332000D01*
X191008000Y-83332000D01*
X191008000Y-83312000D01*
X189814845Y-83312000D01*
X189693524Y-83541890D01*
X189863355Y-83951924D01*
X190253642Y-84380183D01*
X190396553Y-84447298D01*
X190055853Y-84674946D01*
X189733946Y-85156715D01*
X189620907Y-85725000D01*
X186565512Y-85725000D01*
X189856934Y-82433579D01*
X189693524Y-82828110D01*
X189814845Y-83058000D01*
X191008000Y-83058000D01*
X191008000Y-83038000D01*
X191262000Y-83038000D01*
X191262000Y-83058000D01*
X192455155Y-83058000D01*
X192576476Y-82828110D01*
X192406645Y-82418076D01*
X192107658Y-82090000D01*
X192704488Y-82090000D01*
X193500000Y-82885513D01*
X193500000Y-88900000D01*
X193561658Y-89209974D01*
X193673802Y-89377808D01*
X193737244Y-89472756D01*
X195007243Y-90742756D01*
X195100398Y-90805000D01*
X195270026Y-90918342D01*
X195580000Y-90980000D01*
X197784488Y-90980000D01*
X199120000Y-92315513D01*
X199120000Y-92482560D01*
X198930000Y-92482560D01*
X198694683Y-92526838D01*
X198478559Y-92665910D01*
X198333569Y-92878110D01*
X198282560Y-93130000D01*
X198282560Y-94830000D01*
X198326838Y-95065317D01*
X198465910Y-95281441D01*
X198678110Y-95426431D01*
X198930000Y-95477440D01*
X200930000Y-95477440D01*
X201165317Y-95433162D01*
X201381441Y-95294090D01*
X201526431Y-95081890D01*
X201577440Y-94830000D01*
X201577440Y-93130000D01*
X202282560Y-93130000D01*
X202282560Y-94830000D01*
X202326838Y-95065317D01*
X202465910Y-95281441D01*
X202678110Y-95426431D01*
X202930000Y-95477440D01*
X203120000Y-95477440D01*
X203120000Y-96927560D01*
X202930000Y-96927560D01*
X202694683Y-96971838D01*
X202478559Y-97110910D01*
X202333569Y-97323110D01*
X202282560Y-97575000D01*
X202282560Y-99275000D01*
X202326838Y-99510317D01*
X202465910Y-99726441D01*
X202678110Y-99871431D01*
X202930000Y-99922440D01*
X204930000Y-99922440D01*
X205165317Y-99878162D01*
X205381441Y-99739090D01*
X205526431Y-99526890D01*
X205577440Y-99275000D01*
X205577440Y-97575000D01*
X205533162Y-97339683D01*
X205394090Y-97123559D01*
X205181890Y-96978569D01*
X204930000Y-96927560D01*
X204740000Y-96927560D01*
X204740000Y-95477440D01*
X204930000Y-95477440D01*
X205165317Y-95433162D01*
X205381441Y-95294090D01*
X205526431Y-95081890D01*
X205577440Y-94830000D01*
X205577440Y-93130000D01*
X205533162Y-92894683D01*
X205394090Y-92678559D01*
X205181890Y-92533569D01*
X204930000Y-92482560D01*
X202930000Y-92482560D01*
X202694683Y-92526838D01*
X202478559Y-92665910D01*
X202333569Y-92878110D01*
X202282560Y-93130000D01*
X201577440Y-93130000D01*
X201533162Y-92894683D01*
X201394090Y-92678559D01*
X201181890Y-92533569D01*
X200930000Y-92482560D01*
X200740000Y-92482560D01*
X200740000Y-91980000D01*
X200727134Y-91915317D01*
X200678343Y-91670027D01*
X200502757Y-91407244D01*
X198692756Y-89597244D01*
X198692755Y-89597243D01*
X198429974Y-89421658D01*
X198120000Y-89360000D01*
X195915513Y-89360000D01*
X195120000Y-88564488D01*
X195120000Y-88087592D01*
X195313106Y-88554943D01*
X195772637Y-89015278D01*
X196373352Y-89264716D01*
X197023795Y-89265284D01*
X197624943Y-89016894D01*
X198085278Y-88557363D01*
X198334716Y-87956648D01*
X198334718Y-87953795D01*
X201564716Y-87953795D01*
X201813106Y-88554943D01*
X202272637Y-89015278D01*
X202873352Y-89264716D01*
X203523795Y-89265284D01*
X204124943Y-89016894D01*
X204585278Y-88557363D01*
X204834716Y-87956648D01*
X204835284Y-87306205D01*
X204586894Y-86705057D01*
X204127363Y-86244722D01*
X203526648Y-85995284D01*
X202876205Y-85994716D01*
X202275057Y-86243106D01*
X201814722Y-86702637D01*
X201565284Y-87303352D01*
X201564716Y-87953795D01*
X198334718Y-87953795D01*
X198335284Y-87306205D01*
X198086894Y-86705057D01*
X197627363Y-86244722D01*
X197026648Y-85995284D01*
X196376205Y-85994716D01*
X195775057Y-86243106D01*
X195314722Y-86702637D01*
X195120000Y-87171581D01*
X195120000Y-83587592D01*
X195313106Y-84054943D01*
X195772637Y-84515278D01*
X196373352Y-84764716D01*
X197023795Y-84765284D01*
X197624943Y-84516894D01*
X198085278Y-84057363D01*
X198134011Y-83940000D01*
X201765612Y-83940000D01*
X201813106Y-84054943D01*
X202272637Y-84515278D01*
X202873352Y-84764716D01*
X203523795Y-84765284D01*
X204124943Y-84516894D01*
X204585278Y-84057363D01*
X204834716Y-83456648D01*
X204835284Y-82806205D01*
X204586894Y-82205057D01*
X204492023Y-82110020D01*
X205011638Y-82110474D01*
X206017229Y-81694972D01*
X206248000Y-81464603D01*
X206248000Y-102684852D01*
X206021276Y-102457732D01*
X205016412Y-102040476D01*
X203928362Y-102039526D01*
X202922771Y-102455028D01*
X202152732Y-103223724D01*
X201735476Y-104228588D01*
X201734526Y-105316638D01*
X202150028Y-106322229D01*
X202380397Y-106553000D01*
X197585522Y-106553000D01*
X197656486Y-106401892D01*
X197535819Y-106172000D01*
X196342000Y-106172000D01*
X196342000Y-106192000D01*
X196088000Y-106192000D01*
X196088000Y-106172000D01*
X196068000Y-106172000D01*
X196068000Y-105918000D01*
X196088000Y-105918000D01*
X196088000Y-104724845D01*
X196342000Y-104724845D01*
X196342000Y-105918000D01*
X197535819Y-105918000D01*
X197656486Y-105688108D01*
X197410183Y-105163642D01*
X196981924Y-104773355D01*
X196571890Y-104603524D01*
X196342000Y-104724845D01*
X196088000Y-104724845D01*
X195858110Y-104603524D01*
X195448076Y-104773355D01*
X195019817Y-105163642D01*
X194952702Y-105306553D01*
X194725054Y-104965853D01*
X194243285Y-104643946D01*
X193675000Y-104530907D01*
X193106715Y-104643946D01*
X192624946Y-104965853D01*
X192405000Y-105295026D01*
X192185054Y-104965853D01*
X191703285Y-104643946D01*
X191135000Y-104530907D01*
X190566715Y-104643946D01*
X190084946Y-104965853D01*
X189865000Y-105295026D01*
X189645054Y-104965853D01*
X189163285Y-104643946D01*
X188595000Y-104530907D01*
X188026715Y-104643946D01*
X187544946Y-104965853D01*
X187325000Y-105295026D01*
X187105054Y-104965853D01*
X186865000Y-104805454D01*
X186865000Y-101250750D01*
X189650000Y-101250750D01*
X189650000Y-101941310D01*
X189746673Y-102174699D01*
X189925302Y-102353327D01*
X190158691Y-102450000D01*
X190849250Y-102450000D01*
X191008000Y-102291250D01*
X191008000Y-101092000D01*
X191262000Y-101092000D01*
X191262000Y-102291250D01*
X191420750Y-102450000D01*
X192111309Y-102450000D01*
X192344698Y-102353327D01*
X192523327Y-102174699D01*
X192620000Y-101941310D01*
X192620000Y-101250750D01*
X192461250Y-101092000D01*
X191262000Y-101092000D01*
X191008000Y-101092000D01*
X189808750Y-101092000D01*
X189650000Y-101250750D01*
X186865000Y-101250750D01*
X186865000Y-99547441D01*
X186989838Y-99246799D01*
X186990162Y-98874833D01*
X186848117Y-98531057D01*
X186585327Y-98267808D01*
X186241799Y-98125162D01*
X185869833Y-98124838D01*
X185526057Y-98266883D01*
X185262808Y-98529673D01*
X185120162Y-98873201D01*
X185119838Y-99245167D01*
X185245000Y-99548083D01*
X185245000Y-104805454D01*
X185004946Y-104965853D01*
X184785000Y-105295026D01*
X184565054Y-104965853D01*
X184325000Y-104805454D01*
X184325000Y-94315512D01*
X187553084Y-91087429D01*
X187853943Y-90963117D01*
X188117192Y-90700327D01*
X188259838Y-90356799D01*
X188260162Y-89984833D01*
X188118117Y-89641057D01*
X187855327Y-89377808D01*
X187511799Y-89235162D01*
X187139833Y-89234838D01*
X186796057Y-89376883D01*
X186532808Y-89639673D01*
X186407116Y-89942371D01*
X182942244Y-93407244D01*
X182766658Y-93670026D01*
X182705000Y-93980000D01*
X182705000Y-104805454D01*
X182464946Y-104965853D01*
X182245000Y-105295026D01*
X182025054Y-104965853D01*
X181785000Y-104805454D01*
X181785000Y-97007441D01*
X181909838Y-96706799D01*
X181910162Y-96334833D01*
X181768117Y-95991057D01*
X181505327Y-95727808D01*
X181161799Y-95585162D01*
X180789833Y-95584838D01*
X180446057Y-95726883D01*
X180182808Y-95989673D01*
X180040162Y-96333201D01*
X180039838Y-96705167D01*
X180165000Y-97008083D01*
X180165000Y-104805454D01*
X179924946Y-104965853D01*
X179705000Y-105295026D01*
X179485054Y-104965853D01*
X179245000Y-104805454D01*
X179245000Y-96855512D01*
X187553084Y-88547429D01*
X187853943Y-88423117D01*
X188117192Y-88160327D01*
X188259838Y-87816799D01*
X188260162Y-87444833D01*
X188118117Y-87101057D01*
X187855327Y-86837808D01*
X187511799Y-86695162D01*
X187139833Y-86694838D01*
X186796057Y-86836883D01*
X186532808Y-87099673D01*
X186407116Y-87402371D01*
X177862244Y-95947244D01*
X177686658Y-96210026D01*
X177625000Y-96520000D01*
X177625000Y-104805454D01*
X177384946Y-104965853D01*
X177165000Y-105295026D01*
X176945054Y-104965853D01*
X176463285Y-104643946D01*
X175895000Y-104530907D01*
X175326715Y-104643946D01*
X174844946Y-104965853D01*
X174617298Y-105306553D01*
X174550183Y-105163642D01*
X174121924Y-104773355D01*
X173711890Y-104603524D01*
X173482000Y-104724845D01*
X173482000Y-105918000D01*
X173502000Y-105918000D01*
X173502000Y-106172000D01*
X173482000Y-106172000D01*
X173482000Y-106192000D01*
X173228000Y-106192000D01*
X173228000Y-106172000D01*
X173208000Y-106172000D01*
X173208000Y-105918000D01*
X173228000Y-105918000D01*
X173228000Y-104724845D01*
X172998110Y-104603524D01*
X172588076Y-104773355D01*
X172159817Y-105163642D01*
X172092702Y-105306553D01*
X171865054Y-104965853D01*
X171625000Y-104805454D01*
X171625000Y-101452441D01*
X171749838Y-101151799D01*
X171750162Y-100779833D01*
X171608117Y-100436057D01*
X171345327Y-100172808D01*
X171001799Y-100030162D01*
X170629833Y-100029838D01*
X170286057Y-100171883D01*
X170022808Y-100434673D01*
X169880162Y-100778201D01*
X169879838Y-101150167D01*
X170005000Y-101453083D01*
X170005000Y-104805454D01*
X169764946Y-104965853D01*
X169545000Y-105295026D01*
X169325054Y-104965853D01*
X169085000Y-104805454D01*
X169085000Y-102235000D01*
X169023342Y-101925026D01*
X168911817Y-101758117D01*
X168847756Y-101662243D01*
X167922430Y-100736917D01*
X167798117Y-100436057D01*
X167535327Y-100172808D01*
X167191799Y-100030162D01*
X166819833Y-100029838D01*
X166476057Y-100171883D01*
X166212808Y-100434673D01*
X166070162Y-100778201D01*
X166069838Y-101150167D01*
X166211883Y-101493943D01*
X166474673Y-101757192D01*
X166777372Y-101882884D01*
X166851402Y-101956914D01*
X166561055Y-102076883D01*
X166297806Y-102339673D01*
X166172114Y-102642371D01*
X165162244Y-103652242D01*
X164986658Y-103915024D01*
X164925000Y-104224998D01*
X164925000Y-104805454D01*
X164684946Y-104965853D01*
X164465000Y-105295026D01*
X164245054Y-104965853D01*
X163763285Y-104643946D01*
X163195000Y-104530907D01*
X162626715Y-104643946D01*
X162144946Y-104965853D01*
X162117150Y-105007452D01*
X162108162Y-104959683D01*
X161969090Y-104743559D01*
X161887619Y-104687893D01*
X167975513Y-98600000D01*
X172232559Y-98600000D01*
X172533201Y-98724838D01*
X172905167Y-98725162D01*
X173248943Y-98583117D01*
X173512192Y-98320327D01*
X173654838Y-97976799D01*
X173655162Y-97604833D01*
X173513117Y-97261057D01*
X173250327Y-96997808D01*
X172906799Y-96855162D01*
X172534833Y-96854838D01*
X172231917Y-96980000D01*
X167640000Y-96980000D01*
X167467897Y-97014234D01*
X167330027Y-97041657D01*
X167067244Y-97217243D01*
X160082244Y-104202244D01*
X159906658Y-104465026D01*
X159890241Y-104547560D01*
X159805000Y-104547560D01*
X159569683Y-104591838D01*
X159512000Y-104628956D01*
X159512000Y-79523342D01*
X159553110Y-79551431D01*
X159805000Y-79602440D01*
X161505000Y-79602440D01*
X161740317Y-79558162D01*
X161956441Y-79419090D01*
X162101431Y-79206890D01*
X162115086Y-79139459D01*
X162144946Y-79184147D01*
X162626715Y-79506054D01*
X163195000Y-79619093D01*
X163763285Y-79506054D01*
X164245054Y-79184147D01*
X164465000Y-78854974D01*
X164684946Y-79184147D01*
X164875000Y-79311137D01*
X164875000Y-84455000D01*
X164940464Y-84784108D01*
X165126888Y-85063112D01*
X168050000Y-87986224D01*
X168050000Y-91083776D01*
X167207585Y-91926191D01*
X167257440Y-91680000D01*
X167257440Y-89930000D01*
X167213162Y-89694683D01*
X167074090Y-89478559D01*
X166861890Y-89333569D01*
X166610000Y-89282560D01*
X164860000Y-89282560D01*
X164624683Y-89326838D01*
X164408559Y-89465910D01*
X164263569Y-89678110D01*
X164212560Y-89930000D01*
X164212560Y-91680000D01*
X164256838Y-91915317D01*
X164395910Y-92131441D01*
X164608110Y-92276431D01*
X164624676Y-92279786D01*
X164455630Y-92448537D01*
X164225262Y-93003325D01*
X164224738Y-93604040D01*
X164454138Y-94159229D01*
X164878537Y-94584370D01*
X165433325Y-94814738D01*
X166034040Y-94815262D01*
X166589229Y-94585862D01*
X167010827Y-94165000D01*
X167045000Y-94165000D01*
X167374108Y-94099536D01*
X167653112Y-93913112D01*
X169518112Y-92048112D01*
X169704536Y-91769108D01*
X169770000Y-91440000D01*
X169770000Y-87630000D01*
X169704536Y-87300892D01*
X169518112Y-87021888D01*
X166595000Y-84098776D01*
X166595000Y-79311137D01*
X166785054Y-79184147D01*
X167005000Y-78854974D01*
X167224946Y-79184147D01*
X167706715Y-79506054D01*
X168275000Y-79619093D01*
X168843285Y-79506054D01*
X169325054Y-79184147D01*
X169545000Y-78854974D01*
X169764946Y-79184147D01*
X170246715Y-79506054D01*
X170815000Y-79619093D01*
X171383285Y-79506054D01*
X171865054Y-79184147D01*
X172085000Y-78854974D01*
X172304946Y-79184147D01*
X172786715Y-79506054D01*
X173355000Y-79619093D01*
X173923285Y-79506054D01*
X174405054Y-79184147D01*
X174625000Y-78854974D01*
X174844946Y-79184147D01*
X175326715Y-79506054D01*
X175895000Y-79619093D01*
X176463285Y-79506054D01*
X176945054Y-79184147D01*
X177165000Y-78854974D01*
X177384946Y-79184147D01*
X177866715Y-79506054D01*
X178435000Y-79619093D01*
X179003285Y-79506054D01*
X179485054Y-79184147D01*
X179705000Y-78854974D01*
X179924946Y-79184147D01*
X180406715Y-79506054D01*
X180975000Y-79619093D01*
X181543285Y-79506054D01*
X182025054Y-79184147D01*
X182245000Y-78854974D01*
X182464946Y-79184147D01*
X182946715Y-79506054D01*
X183515000Y-79619093D01*
X184083285Y-79506054D01*
X184565054Y-79184147D01*
X184792702Y-78843447D01*
X184859817Y-78986358D01*
X185288076Y-79376645D01*
X185698110Y-79546476D01*
X185928000Y-79425155D01*
X185928000Y-78232000D01*
X185908000Y-78232000D01*
X185908000Y-77978000D01*
X185928000Y-77978000D01*
X185928000Y-77958000D01*
X186182000Y-77958000D01*
X186182000Y-77978000D01*
M02*
