G04 #@! TF.FileFunction,Soldermask,Bot*
%FSLAX46Y46*%
G04 Gerber Fmt 4.6, Leading zero omitted, Abs format (unit mm)*
G04 Created by KiCad (PCBNEW 4.0.7) date 03/26/18 16:44:32*
%MOMM*%
%LPD*%
G01*
G04 APERTURE LIST*
%ADD10C,0.100000*%
%ADD11C,2.400000*%
%ADD12R,2.100000X2.100000*%
%ADD13O,2.100000X2.100000*%
%ADD14R,2.150000X2.150000*%
%ADD15C,2.150000*%
%ADD16R,2.100000X2.400000*%
%ADD17C,3.600000*%
%ADD18C,2.899360*%
G04 APERTURE END LIST*
D10*
D11*
X173355000Y-79375000D03*
X173355000Y-83820000D03*
X173355000Y-101600000D03*
X189865000Y-101600000D03*
X186309000Y-100330000D03*
X196215000Y-100330000D03*
X184785000Y-81280000D03*
X196215000Y-81280000D03*
D12*
X163830000Y-94615000D03*
D13*
X163830000Y-92075000D03*
X163830000Y-89535000D03*
X163830000Y-86995000D03*
D12*
X167640000Y-97155000D03*
D13*
X167640000Y-94615000D03*
X167640000Y-92075000D03*
X167640000Y-89535000D03*
X167640000Y-86995000D03*
X167640000Y-84455000D03*
D11*
X199970000Y-85090000D03*
X204470000Y-85090000D03*
X199970000Y-78590000D03*
X204470000Y-78590000D03*
X199970000Y-102870000D03*
X204470000Y-102870000D03*
X199970000Y-96370000D03*
X204470000Y-96370000D03*
D14*
X188595000Y-95885000D03*
D15*
X188595000Y-93385000D03*
X188595000Y-90885000D03*
X188595000Y-88385000D03*
X188595000Y-85885000D03*
D16*
X177165000Y-92615000D03*
X177165000Y-96615000D03*
X181610000Y-92615000D03*
X181610000Y-96615000D03*
D12*
X160655000Y-104775000D03*
D13*
X163195000Y-104775000D03*
X165735000Y-104775000D03*
X168275000Y-104775000D03*
X170815000Y-104775000D03*
X173355000Y-104775000D03*
X175895000Y-104775000D03*
X178435000Y-104775000D03*
X180975000Y-104775000D03*
X183515000Y-104775000D03*
X186055000Y-104775000D03*
X188595000Y-104775000D03*
X191135000Y-104775000D03*
X193675000Y-104775000D03*
X196215000Y-104775000D03*
D12*
X160655000Y-76835000D03*
D13*
X163195000Y-76835000D03*
X165735000Y-76835000D03*
X168275000Y-76835000D03*
X170815000Y-76835000D03*
X173355000Y-76835000D03*
X175895000Y-76835000D03*
X178435000Y-76835000D03*
X180975000Y-76835000D03*
X183515000Y-76835000D03*
X186055000Y-76835000D03*
X188595000Y-76835000D03*
X191135000Y-76835000D03*
X193675000Y-76835000D03*
X196215000Y-76835000D03*
D12*
X171577000Y-94234000D03*
D13*
X171577000Y-91694000D03*
X171577000Y-89154000D03*
X171577000Y-86614000D03*
D17*
X153035000Y-102870000D03*
X153035000Y-78740000D03*
D18*
X163195000Y-101600000D03*
X167640000Y-101600000D03*
D16*
X177165000Y-84995000D03*
X177165000Y-88995000D03*
X181610000Y-84995000D03*
X181610000Y-88995000D03*
M02*
