M48
;DRILL file {KiCad 4.0.7} date 03/26/18 16:44:35
;FORMAT={-:-/ absolute / metric / decimal}
FMAT,2
METRIC,TZ
T1C1.000
T2C1.001
T3C1.100
T4C3.200
%
G90
G05
M71
T1
X160.655Y-76.835
X160.655Y-104.775
X163.195Y-76.835
X163.195Y-104.775
X163.83Y-86.995
X163.83Y-89.535
X163.83Y-92.075
X163.83Y-94.615
X165.735Y-76.835
X165.735Y-104.775
X167.64Y-84.455
X167.64Y-86.995
X167.64Y-89.535
X167.64Y-92.075
X167.64Y-94.615
X167.64Y-97.155
X168.275Y-76.835
X168.275Y-104.775
X170.815Y-76.835
X170.815Y-104.775
X171.577Y-86.614
X171.577Y-89.154
X171.577Y-91.694
X171.577Y-94.234
X173.355Y-76.835
X173.355Y-104.775
X175.895Y-76.835
X175.895Y-104.775
X178.435Y-76.835
X178.435Y-104.775
X180.975Y-76.835
X180.975Y-104.775
X183.515Y-76.835
X183.515Y-104.775
X186.055Y-76.835
X186.055Y-104.775
X188.595Y-76.835
X188.595Y-85.885
X188.595Y-88.385
X188.595Y-90.885
X188.595Y-93.385
X188.595Y-95.885
X188.595Y-104.775
X191.135Y-76.835
X191.135Y-104.775
X193.675Y-76.835
X193.675Y-104.775
X196.215Y-76.835
X196.215Y-100.33
X196.215Y-104.775
T2
X163.195Y-101.6
X167.64Y-101.6
T3
X173.355Y-79.375
X173.355Y-83.82
X173.355Y-101.6
X184.785Y-81.28
X186.309Y-100.33
X189.865Y-101.6
X196.215Y-81.28
X199.97Y-78.59
X199.97Y-85.09
X199.97Y-96.37
X199.97Y-102.87
X204.47Y-78.59
X204.47Y-85.09
X204.47Y-96.37
X204.47Y-102.87
T4
X153.035Y-78.74
X153.035Y-102.87
T0
M30
