M48
;DRILL file {KiCad 4.0.7} date 12/22/18 00:45:18
;FORMAT={-:-/ absolute / metric / decimal}
FMAT,2
METRIC,TZ
T1C0.400
T2C1.000
T3C1.100
T4C3.200
%
G90
G05
M71
T1
X75.565Y-68.58
X79.375Y-128.27
X80.645Y-121.285
X81.28Y-103.505
X83.185Y-57.15
X83.185Y-60.96
X83.185Y-121.285
X83.82Y-130.175
X85.09Y-116.205
X85.725Y-75.025
X88.265Y-128.905
X89.535Y-103.505
X95.25Y-126.365
X95.25Y-128.905
X95.885Y-98.425
X98.425Y-120.65
X98.425Y-126.365
T2
X73.025Y-53.975
X75.565Y-53.975
X75.565Y-100.965
X75.565Y-103.505
X75.565Y-106.045
X75.565Y-108.585
X75.565Y-111.125
X75.565Y-113.665
X75.565Y-116.205
X75.565Y-118.745
X75.565Y-121.285
X75.565Y-123.825
X75.565Y-126.365
X75.565Y-128.905
X75.565Y-131.445
X75.565Y-133.985
X75.565Y-136.525
X78.105Y-53.975
X80.645Y-53.975
X83.185Y-53.975
X85.725Y-53.975
X85.725Y-135.255
X88.265Y-53.975
X88.265Y-135.255
X90.805Y-53.975
X90.805Y-135.255
X93.345Y-53.975
X93.345Y-135.255
X95.885Y-53.975
X98.425Y-53.975
X100.965Y-53.975
X103.505Y-53.975
X103.505Y-100.965
X103.505Y-103.505
X103.505Y-106.045
X103.505Y-108.585
X103.505Y-111.125
X103.505Y-113.665
X103.505Y-116.205
X103.505Y-118.745
X103.505Y-121.285
X103.505Y-123.825
X103.505Y-126.365
X103.505Y-128.905
X103.505Y-131.445
X103.505Y-133.985
X103.505Y-136.525
X106.045Y-53.975
X106.085Y-72.39
X108.585Y-72.39
T3
X69.065Y-140.915
X69.065Y-145.415
X75.565Y-140.915
X75.565Y-145.415
X103.355Y-140.915
X103.355Y-145.415
X109.855Y-140.915
X109.855Y-145.415
T4
X67.564Y-59.055
X67.564Y-135.255
X111.506Y-59.055
X111.506Y-135.255
T0
M30
