G04 #@! TF.FileFunction,Soldermask,Top*
%FSLAX46Y46*%
G04 Gerber Fmt 4.6, Leading zero omitted, Abs format (unit mm)*
G04 Created by KiCad (PCBNEW 4.0.7) date 12/22/18 00:45:09*
%MOMM*%
%LPD*%
G01*
G04 APERTURE LIST*
%ADD10C,0.100000*%
%ADD11C,4.600000*%
%ADD12R,2.100000X2.100000*%
%ADD13O,2.100000X2.100000*%
%ADD14R,2.100000X2.400000*%
%ADD15R,2.150000X2.150000*%
%ADD16C,2.150000*%
%ADD17C,2.400000*%
G04 APERTURE END LIST*
D10*
D11*
X67564000Y-135255000D03*
X67564000Y-59055000D03*
X111506000Y-59055000D03*
D12*
X85725000Y-135255000D03*
D13*
X88265000Y-135255000D03*
X90805000Y-135255000D03*
X93345000Y-135255000D03*
D14*
X99060000Y-144875000D03*
X99060000Y-140875000D03*
D12*
X103505000Y-100965000D03*
D13*
X103505000Y-103505000D03*
X103505000Y-106045000D03*
X103505000Y-108585000D03*
X103505000Y-111125000D03*
X103505000Y-113665000D03*
X103505000Y-116205000D03*
X103505000Y-118745000D03*
X103505000Y-121285000D03*
X103505000Y-123825000D03*
X103505000Y-126365000D03*
X103505000Y-128905000D03*
X103505000Y-131445000D03*
X103505000Y-133985000D03*
X103505000Y-136525000D03*
D12*
X75565000Y-100965000D03*
D13*
X75565000Y-103505000D03*
X75565000Y-106045000D03*
X75565000Y-108585000D03*
X75565000Y-111125000D03*
X75565000Y-113665000D03*
X75565000Y-116205000D03*
X75565000Y-118745000D03*
X75565000Y-121285000D03*
X75565000Y-123825000D03*
X75565000Y-126365000D03*
X75565000Y-128905000D03*
X75565000Y-131445000D03*
X75565000Y-133985000D03*
X75565000Y-136525000D03*
D14*
X80010000Y-140875000D03*
X80010000Y-144875000D03*
D11*
X111506000Y-135255000D03*
D15*
X108585000Y-72390000D03*
D16*
X106085000Y-72390000D03*
D12*
X106045000Y-53975000D03*
D13*
X103505000Y-53975000D03*
X100965000Y-53975000D03*
X98425000Y-53975000D03*
X95885000Y-53975000D03*
X93345000Y-53975000D03*
X90805000Y-53975000D03*
X88265000Y-53975000D03*
X85725000Y-53975000D03*
X83185000Y-53975000D03*
X80645000Y-53975000D03*
X78105000Y-53975000D03*
X75565000Y-53975000D03*
X73025000Y-53975000D03*
D17*
X109855000Y-140915000D03*
X109855000Y-145415000D03*
X103355000Y-140915000D03*
X103355000Y-145415000D03*
X75565000Y-140915000D03*
X75565000Y-145415000D03*
X69065000Y-140915000D03*
X69065000Y-145415000D03*
D14*
X85725000Y-75025000D03*
X85725000Y-71025000D03*
M02*
