G04 #@! TF.FileFunction,Copper,L2,Bot,Signal*
%FSLAX46Y46*%
G04 Gerber Fmt 4.6, Leading zero omitted, Abs format (unit mm)*
G04 Created by KiCad (PCBNEW 4.0.7) date 12/22/18 00:45:09*
%MOMM*%
%LPD*%
G01*
G04 APERTURE LIST*
%ADD10C,0.100000*%
%ADD11C,4.200000*%
%ADD12R,1.700000X1.700000*%
%ADD13O,1.700000X1.700000*%
%ADD14R,1.750000X1.750000*%
%ADD15C,1.750000*%
%ADD16C,2.000000*%
%ADD17C,0.600000*%
%ADD18C,0.500000*%
%ADD19C,0.350000*%
%ADD20C,0.254000*%
G04 APERTURE END LIST*
D10*
D11*
X67564000Y-135255000D03*
X67564000Y-59055000D03*
X111506000Y-59055000D03*
D12*
X85725000Y-135255000D03*
D13*
X88265000Y-135255000D03*
X90805000Y-135255000D03*
X93345000Y-135255000D03*
D12*
X103505000Y-100965000D03*
D13*
X103505000Y-103505000D03*
X103505000Y-106045000D03*
X103505000Y-108585000D03*
X103505000Y-111125000D03*
X103505000Y-113665000D03*
X103505000Y-116205000D03*
X103505000Y-118745000D03*
X103505000Y-121285000D03*
X103505000Y-123825000D03*
X103505000Y-126365000D03*
X103505000Y-128905000D03*
X103505000Y-131445000D03*
X103505000Y-133985000D03*
X103505000Y-136525000D03*
D12*
X75565000Y-100965000D03*
D13*
X75565000Y-103505000D03*
X75565000Y-106045000D03*
X75565000Y-108585000D03*
X75565000Y-111125000D03*
X75565000Y-113665000D03*
X75565000Y-116205000D03*
X75565000Y-118745000D03*
X75565000Y-121285000D03*
X75565000Y-123825000D03*
X75565000Y-126365000D03*
X75565000Y-128905000D03*
X75565000Y-131445000D03*
X75565000Y-133985000D03*
X75565000Y-136525000D03*
D11*
X111506000Y-135255000D03*
D14*
X108585000Y-72390000D03*
D15*
X106085000Y-72390000D03*
D12*
X106045000Y-53975000D03*
D13*
X103505000Y-53975000D03*
X100965000Y-53975000D03*
X98425000Y-53975000D03*
X95885000Y-53975000D03*
X93345000Y-53975000D03*
X90805000Y-53975000D03*
X88265000Y-53975000D03*
X85725000Y-53975000D03*
X83185000Y-53975000D03*
X80645000Y-53975000D03*
X78105000Y-53975000D03*
X75565000Y-53975000D03*
X73025000Y-53975000D03*
D16*
X109855000Y-140915000D03*
X109855000Y-145415000D03*
X103355000Y-140915000D03*
X103355000Y-145415000D03*
X75565000Y-140915000D03*
X75565000Y-145415000D03*
X69065000Y-140915000D03*
X69065000Y-145415000D03*
D17*
X89535000Y-103505000D03*
X81280000Y-103505000D03*
X79375000Y-128270000D03*
X95885000Y-98425000D03*
X83185000Y-57150000D03*
X83185000Y-60960000D03*
X85090000Y-116205000D03*
X98425000Y-126365000D03*
X98425000Y-120650000D03*
X95250000Y-126365000D03*
X85725000Y-75025000D03*
X75565000Y-68580000D03*
X95250000Y-128905000D03*
X88265000Y-128905000D03*
X80645000Y-121285000D03*
X83820000Y-130175000D03*
X83185000Y-121285000D03*
D18*
X78105000Y-103505000D02*
X75565000Y-103505000D01*
X79375000Y-104775000D02*
X78105000Y-103505000D01*
X79375000Y-128270000D02*
X79375000Y-104775000D01*
X108585000Y-72390000D02*
X108585000Y-100330000D01*
X105410000Y-103505000D02*
X103505000Y-103505000D01*
X108585000Y-100330000D02*
X105410000Y-103505000D01*
X103505000Y-53975000D02*
X103505000Y-64135000D01*
X108585000Y-69215000D02*
X108585000Y-72390000D01*
X103505000Y-64135000D02*
X108585000Y-69215000D01*
D19*
X75501500Y-134048500D02*
X75501500Y-134683500D01*
X75501500Y-134048500D02*
X76136500Y-134048500D01*
D18*
X95885000Y-98425000D02*
X95885000Y-53975000D01*
X90805000Y-53975000D02*
X90805000Y-55880000D01*
X89535000Y-57150000D02*
X83185000Y-57150000D01*
X90805000Y-55880000D02*
X89535000Y-57150000D01*
X83185000Y-57150000D02*
X83185000Y-53975000D01*
X83185000Y-94615000D02*
X83185000Y-60960000D01*
X85090000Y-96520000D02*
X83185000Y-94615000D01*
X85090000Y-116205000D02*
X85090000Y-96520000D01*
X98425000Y-53975000D02*
X98425000Y-120650000D01*
X101600000Y-131445000D02*
X103505000Y-131445000D01*
X98425000Y-128270000D02*
X101600000Y-131445000D01*
X98425000Y-126365000D02*
X98425000Y-128270000D01*
X100965000Y-64135000D02*
X100965000Y-53975000D01*
X99695000Y-65405000D02*
X100965000Y-64135000D01*
X99695000Y-121920000D02*
X99695000Y-65405000D01*
X95250000Y-126365000D02*
X99695000Y-121920000D01*
X86995000Y-94615000D02*
X86995000Y-120650000D01*
X85725000Y-75025000D02*
X85725000Y-93345000D01*
X85725000Y-93345000D02*
X86995000Y-94615000D01*
X75565000Y-53975000D02*
X75565000Y-68580000D01*
X86995000Y-120650000D02*
X83502500Y-124142500D01*
X99695000Y-137255000D02*
X103355000Y-140915000D01*
X99695000Y-133350000D02*
X99695000Y-137255000D01*
X95250000Y-128905000D02*
X99695000Y-133350000D01*
X80645000Y-121285000D02*
X83502500Y-124142500D01*
X83502500Y-124142500D02*
X88265000Y-128905000D01*
X103355000Y-140915000D02*
X109855000Y-140915000D01*
X78105000Y-128905000D02*
X78105000Y-109855000D01*
X79375000Y-130175000D02*
X78105000Y-128905000D01*
X83820000Y-130175000D02*
X79375000Y-130175000D01*
X76835000Y-108585000D02*
X75565000Y-108585000D01*
X78105000Y-109855000D02*
X76835000Y-108585000D01*
X93345000Y-53975000D02*
X93345000Y-55880000D01*
X79375000Y-59055000D02*
X78105000Y-60325000D01*
X90170000Y-59055000D02*
X79375000Y-59055000D01*
X93345000Y-55880000D02*
X90170000Y-59055000D01*
X78105000Y-93345000D02*
X78105000Y-60325000D01*
X78105000Y-60325000D02*
X78105000Y-53975000D01*
X83185000Y-98425000D02*
X78105000Y-93345000D01*
X83185000Y-121285000D02*
X83185000Y-98425000D01*
D20*
G36*
X74463110Y-102411431D02*
X74530541Y-102425086D01*
X74485853Y-102454946D01*
X74163946Y-102936715D01*
X74050907Y-103505000D01*
X74163946Y-104073285D01*
X74485853Y-104555054D01*
X74815026Y-104775000D01*
X74485853Y-104994946D01*
X74163946Y-105476715D01*
X74050907Y-106045000D01*
X74163946Y-106613285D01*
X74485853Y-107095054D01*
X74815026Y-107315000D01*
X74485853Y-107534946D01*
X74163946Y-108016715D01*
X74050907Y-108585000D01*
X74163946Y-109153285D01*
X74485853Y-109635054D01*
X74815026Y-109855000D01*
X74485853Y-110074946D01*
X74163946Y-110556715D01*
X74050907Y-111125000D01*
X74163946Y-111693285D01*
X74485853Y-112175054D01*
X74815026Y-112395000D01*
X74485853Y-112614946D01*
X74163946Y-113096715D01*
X74050907Y-113665000D01*
X74163946Y-114233285D01*
X74485853Y-114715054D01*
X74815026Y-114935000D01*
X74485853Y-115154946D01*
X74163946Y-115636715D01*
X74050907Y-116205000D01*
X74163946Y-116773285D01*
X74485853Y-117255054D01*
X74815026Y-117475000D01*
X74485853Y-117694946D01*
X74163946Y-118176715D01*
X74050907Y-118745000D01*
X74163946Y-119313285D01*
X74485853Y-119795054D01*
X74815026Y-120015000D01*
X74485853Y-120234946D01*
X74163946Y-120716715D01*
X74050907Y-121285000D01*
X74163946Y-121853285D01*
X74485853Y-122335054D01*
X74815026Y-122555000D01*
X74485853Y-122774946D01*
X74163946Y-123256715D01*
X74050907Y-123825000D01*
X74163946Y-124393285D01*
X74485853Y-124875054D01*
X74815026Y-125095000D01*
X74485853Y-125314946D01*
X74163946Y-125796715D01*
X74050907Y-126365000D01*
X74163946Y-126933285D01*
X74485853Y-127415054D01*
X74815026Y-127635000D01*
X74485853Y-127854946D01*
X74163946Y-128336715D01*
X74050907Y-128905000D01*
X74163946Y-129473285D01*
X74485853Y-129955054D01*
X74815026Y-130175000D01*
X74485853Y-130394946D01*
X74163946Y-130876715D01*
X74050907Y-131445000D01*
X74163946Y-132013285D01*
X74485853Y-132495054D01*
X74826553Y-132722702D01*
X74683642Y-132789817D01*
X74293355Y-133218076D01*
X74123524Y-133628110D01*
X74244845Y-133858000D01*
X75438000Y-133858000D01*
X75438000Y-133838000D01*
X75692000Y-133838000D01*
X75692000Y-133858000D01*
X76885155Y-133858000D01*
X77006476Y-133628110D01*
X76836645Y-133218076D01*
X76446358Y-132789817D01*
X76303447Y-132722702D01*
X76644147Y-132495054D01*
X76966054Y-132013285D01*
X77079093Y-131445000D01*
X76966054Y-130876715D01*
X76644147Y-130394946D01*
X76314974Y-130175000D01*
X76644147Y-129955054D01*
X76966054Y-129473285D01*
X77079093Y-128905000D01*
X76966054Y-128336715D01*
X76644147Y-127854946D01*
X76314974Y-127635000D01*
X76644147Y-127415054D01*
X76966054Y-126933285D01*
X77079093Y-126365000D01*
X76966054Y-125796715D01*
X76644147Y-125314946D01*
X76314974Y-125095000D01*
X76644147Y-124875054D01*
X76966054Y-124393285D01*
X77079093Y-123825000D01*
X76966054Y-123256715D01*
X76644147Y-122774946D01*
X76314974Y-122555000D01*
X76644147Y-122335054D01*
X76966054Y-121853285D01*
X77079093Y-121285000D01*
X76966054Y-120716715D01*
X76644147Y-120234946D01*
X76314974Y-120015000D01*
X76644147Y-119795054D01*
X76966054Y-119313285D01*
X77079093Y-118745000D01*
X76966054Y-118176715D01*
X76644147Y-117694946D01*
X76314974Y-117475000D01*
X76644147Y-117255054D01*
X76966054Y-116773285D01*
X77079093Y-116205000D01*
X76966054Y-115636715D01*
X76644147Y-115154946D01*
X76314974Y-114935000D01*
X76644147Y-114715054D01*
X76966054Y-114233285D01*
X77079093Y-113665000D01*
X76966054Y-113096715D01*
X76644147Y-112614946D01*
X76314974Y-112395000D01*
X76644147Y-112175054D01*
X76966054Y-111693285D01*
X77079093Y-111125000D01*
X76966054Y-110556715D01*
X76644147Y-110074946D01*
X76314974Y-109855000D01*
X76637749Y-109639329D01*
X77220000Y-110221579D01*
X77220000Y-128904995D01*
X77219999Y-128905000D01*
X77269728Y-129155000D01*
X77287367Y-129243675D01*
X77415424Y-129435327D01*
X77479210Y-129530790D01*
X78749208Y-130800787D01*
X78749210Y-130800790D01*
X78998250Y-130967192D01*
X79036325Y-130992633D01*
X79375000Y-131060001D01*
X79375005Y-131060000D01*
X83513178Y-131060000D01*
X83633201Y-131109838D01*
X84005167Y-131110162D01*
X84348943Y-130968117D01*
X84612192Y-130705327D01*
X84754838Y-130361799D01*
X84755162Y-129989833D01*
X84613117Y-129646057D01*
X84350327Y-129382808D01*
X84006799Y-129240162D01*
X83634833Y-129239838D01*
X83513431Y-129290000D01*
X79741579Y-129290000D01*
X79628505Y-129176925D01*
X79903943Y-129063117D01*
X80167192Y-128800327D01*
X80309838Y-128456799D01*
X80310162Y-128084833D01*
X80260000Y-127963431D01*
X80260000Y-122151580D01*
X82876708Y-124768287D01*
X82876710Y-124768290D01*
X87422255Y-129313834D01*
X87471883Y-129433943D01*
X87734673Y-129697192D01*
X88078201Y-129839838D01*
X88450167Y-129840162D01*
X88793943Y-129698117D01*
X89057192Y-129435327D01*
X89199838Y-129091799D01*
X89199839Y-129090167D01*
X94314838Y-129090167D01*
X94456883Y-129433943D01*
X94719673Y-129697192D01*
X94840986Y-129747566D01*
X98810000Y-133716579D01*
X98810000Y-137254995D01*
X98809999Y-137255000D01*
X98866190Y-137537484D01*
X98877367Y-137593675D01*
X99069210Y-137880790D01*
X101736858Y-140548437D01*
X101720284Y-140588352D01*
X101719716Y-141238795D01*
X101968106Y-141839943D01*
X102427637Y-142300278D01*
X103028352Y-142549716D01*
X103678795Y-142550284D01*
X104279943Y-142301894D01*
X104740278Y-141842363D01*
X104757869Y-141800000D01*
X108451602Y-141800000D01*
X108468106Y-141839943D01*
X108927637Y-142300278D01*
X109528352Y-142549716D01*
X110178795Y-142550284D01*
X110779943Y-142301894D01*
X111240278Y-141842363D01*
X111489716Y-141241648D01*
X111490284Y-140591205D01*
X111241894Y-139990057D01*
X110782363Y-139529722D01*
X110181648Y-139280284D01*
X109531205Y-139279716D01*
X108930057Y-139528106D01*
X108469722Y-139987637D01*
X108452131Y-140030000D01*
X104758398Y-140030000D01*
X104741894Y-139990057D01*
X104282363Y-139529722D01*
X103681648Y-139280284D01*
X103031205Y-139279716D01*
X102988812Y-139297233D01*
X100580000Y-136888420D01*
X100580000Y-136525000D01*
X101990907Y-136525000D01*
X102103946Y-137093285D01*
X102425853Y-137575054D01*
X102907622Y-137896961D01*
X103475907Y-138010000D01*
X103534093Y-138010000D01*
X104102378Y-137896961D01*
X104584147Y-137575054D01*
X104906054Y-137093285D01*
X105019093Y-136525000D01*
X104906054Y-135956715D01*
X104584147Y-135474946D01*
X104243447Y-135247298D01*
X104386358Y-135180183D01*
X104776645Y-134751924D01*
X104946476Y-134341890D01*
X104825155Y-134112000D01*
X103632000Y-134112000D01*
X103632000Y-134132000D01*
X103378000Y-134132000D01*
X103378000Y-134112000D01*
X102184845Y-134112000D01*
X102063524Y-134341890D01*
X102233355Y-134751924D01*
X102623642Y-135180183D01*
X102766553Y-135247298D01*
X102425853Y-135474946D01*
X102103946Y-135956715D01*
X101990907Y-136525000D01*
X100580000Y-136525000D01*
X100580000Y-133350005D01*
X100580001Y-133350000D01*
X100512633Y-133011325D01*
X100461653Y-132935028D01*
X100320790Y-132724210D01*
X100320787Y-132724208D01*
X96092744Y-128496164D01*
X96043117Y-128376057D01*
X95780327Y-128112808D01*
X95436799Y-127970162D01*
X95064833Y-127969838D01*
X94721057Y-128111883D01*
X94457808Y-128374673D01*
X94315162Y-128718201D01*
X94314838Y-129090167D01*
X89199839Y-129090167D01*
X89200162Y-128719833D01*
X89058117Y-128376057D01*
X88795327Y-128112808D01*
X88674013Y-128062434D01*
X84754080Y-124142500D01*
X87620787Y-121275792D01*
X87620790Y-121275790D01*
X87812633Y-120988675D01*
X87823810Y-120932484D01*
X87880001Y-120650000D01*
X87880000Y-120649995D01*
X87880000Y-102362000D01*
X97540000Y-102362000D01*
X97540000Y-120343178D01*
X97490162Y-120463201D01*
X97489838Y-120835167D01*
X97631883Y-121178943D01*
X97894673Y-121442192D01*
X98238201Y-121584838D01*
X98610167Y-121585162D01*
X98810000Y-121502593D01*
X98810000Y-121553421D01*
X94841164Y-125522256D01*
X94721057Y-125571883D01*
X94457808Y-125834673D01*
X94315162Y-126178201D01*
X94314838Y-126550167D01*
X94456883Y-126893943D01*
X94719673Y-127157192D01*
X95063201Y-127299838D01*
X95435167Y-127300162D01*
X95778943Y-127158117D01*
X96042192Y-126895327D01*
X96092566Y-126774014D01*
X96316412Y-126550167D01*
X97489838Y-126550167D01*
X97540000Y-126671569D01*
X97540000Y-128269995D01*
X97539999Y-128270000D01*
X97596190Y-128552484D01*
X97607367Y-128608675D01*
X97735424Y-128800327D01*
X97799210Y-128895790D01*
X100974208Y-132070787D01*
X100974210Y-132070790D01*
X101261325Y-132262633D01*
X101317516Y-132273810D01*
X101600000Y-132330001D01*
X101600005Y-132330000D01*
X102315568Y-132330000D01*
X102425853Y-132495054D01*
X102766553Y-132722702D01*
X102623642Y-132789817D01*
X102233355Y-133218076D01*
X102063524Y-133628110D01*
X102184845Y-133858000D01*
X103378000Y-133858000D01*
X103378000Y-133838000D01*
X103632000Y-133838000D01*
X103632000Y-133858000D01*
X104825155Y-133858000D01*
X104946476Y-133628110D01*
X104776645Y-133218076D01*
X104386358Y-132789817D01*
X104243447Y-132722702D01*
X104584147Y-132495054D01*
X104906054Y-132013285D01*
X105019093Y-131445000D01*
X104906054Y-130876715D01*
X104584147Y-130394946D01*
X104254974Y-130175000D01*
X104584147Y-129955054D01*
X104906054Y-129473285D01*
X105019093Y-128905000D01*
X104906054Y-128336715D01*
X104584147Y-127854946D01*
X104254974Y-127635000D01*
X104584147Y-127415054D01*
X104906054Y-126933285D01*
X105019093Y-126365000D01*
X104906054Y-125796715D01*
X104584147Y-125314946D01*
X104254974Y-125095000D01*
X104584147Y-124875054D01*
X104906054Y-124393285D01*
X105019093Y-123825000D01*
X104906054Y-123256715D01*
X104584147Y-122774946D01*
X104254974Y-122555000D01*
X104584147Y-122335054D01*
X104906054Y-121853285D01*
X105019093Y-121285000D01*
X104906054Y-120716715D01*
X104584147Y-120234946D01*
X104254974Y-120015000D01*
X104584147Y-119795054D01*
X104906054Y-119313285D01*
X105019093Y-118745000D01*
X104906054Y-118176715D01*
X104584147Y-117694946D01*
X104254974Y-117475000D01*
X104584147Y-117255054D01*
X104906054Y-116773285D01*
X105019093Y-116205000D01*
X104906054Y-115636715D01*
X104584147Y-115154946D01*
X104254974Y-114935000D01*
X104584147Y-114715054D01*
X104906054Y-114233285D01*
X105019093Y-113665000D01*
X104906054Y-113096715D01*
X104584147Y-112614946D01*
X104254974Y-112395000D01*
X104584147Y-112175054D01*
X104906054Y-111693285D01*
X105019093Y-111125000D01*
X104906054Y-110556715D01*
X104584147Y-110074946D01*
X104254974Y-109855000D01*
X104584147Y-109635054D01*
X104906054Y-109153285D01*
X105019093Y-108585000D01*
X104906054Y-108016715D01*
X104584147Y-107534946D01*
X104254974Y-107315000D01*
X104584147Y-107095054D01*
X104906054Y-106613285D01*
X105019093Y-106045000D01*
X104906054Y-105476715D01*
X104584147Y-104994946D01*
X104243447Y-104767298D01*
X104386358Y-104700183D01*
X104776645Y-104271924D01*
X104946476Y-103861890D01*
X104825155Y-103632000D01*
X103632000Y-103632000D01*
X103632000Y-103652000D01*
X103378000Y-103652000D01*
X103378000Y-103632000D01*
X102184845Y-103632000D01*
X102063524Y-103861890D01*
X102233355Y-104271924D01*
X102623642Y-104700183D01*
X102766553Y-104767298D01*
X102425853Y-104994946D01*
X102103946Y-105476715D01*
X101990907Y-106045000D01*
X102103946Y-106613285D01*
X102425853Y-107095054D01*
X102755026Y-107315000D01*
X102425853Y-107534946D01*
X102103946Y-108016715D01*
X101990907Y-108585000D01*
X102103946Y-109153285D01*
X102425853Y-109635054D01*
X102755026Y-109855000D01*
X102425853Y-110074946D01*
X102103946Y-110556715D01*
X101990907Y-111125000D01*
X102103946Y-111693285D01*
X102425853Y-112175054D01*
X102755026Y-112395000D01*
X102425853Y-112614946D01*
X102103946Y-113096715D01*
X101990907Y-113665000D01*
X102103946Y-114233285D01*
X102425853Y-114715054D01*
X102755026Y-114935000D01*
X102425853Y-115154946D01*
X102103946Y-115636715D01*
X101990907Y-116205000D01*
X102103946Y-116773285D01*
X102425853Y-117255054D01*
X102755026Y-117475000D01*
X102425853Y-117694946D01*
X102103946Y-118176715D01*
X101990907Y-118745000D01*
X102103946Y-119313285D01*
X102425853Y-119795054D01*
X102755026Y-120015000D01*
X102425853Y-120234946D01*
X102103946Y-120716715D01*
X101990907Y-121285000D01*
X102103946Y-121853285D01*
X102425853Y-122335054D01*
X102755026Y-122555000D01*
X102425853Y-122774946D01*
X102103946Y-123256715D01*
X101990907Y-123825000D01*
X102103946Y-124393285D01*
X102425853Y-124875054D01*
X102755026Y-125095000D01*
X102425853Y-125314946D01*
X102103946Y-125796715D01*
X101990907Y-126365000D01*
X102103946Y-126933285D01*
X102425853Y-127415054D01*
X102755026Y-127635000D01*
X102425853Y-127854946D01*
X102103946Y-128336715D01*
X101990907Y-128905000D01*
X102103946Y-129473285D01*
X102425853Y-129955054D01*
X102755026Y-130175000D01*
X102425853Y-130394946D01*
X102315568Y-130560000D01*
X101966579Y-130560000D01*
X99310000Y-127903420D01*
X99310000Y-126671822D01*
X99359838Y-126551799D01*
X99360162Y-126179833D01*
X99218117Y-125836057D01*
X98955327Y-125572808D01*
X98611799Y-125430162D01*
X98239833Y-125429838D01*
X97896057Y-125571883D01*
X97632808Y-125834673D01*
X97490162Y-126178201D01*
X97489838Y-126550167D01*
X96316412Y-126550167D01*
X100320787Y-122545792D01*
X100320790Y-122545790D01*
X100512633Y-122258675D01*
X100543672Y-122102633D01*
X100580001Y-121920000D01*
X100580000Y-121919995D01*
X100580000Y-102362000D01*
X102330765Y-102362000D01*
X102403110Y-102411431D01*
X102511107Y-102433301D01*
X102233355Y-102738076D01*
X102063524Y-103148110D01*
X102184845Y-103378000D01*
X103378000Y-103378000D01*
X103378000Y-103358000D01*
X103632000Y-103358000D01*
X103632000Y-103378000D01*
X104825155Y-103378000D01*
X104946476Y-103148110D01*
X104776645Y-102738076D01*
X104500499Y-102435063D01*
X104590317Y-102418162D01*
X104677595Y-102362000D01*
X105283000Y-102362000D01*
X105283000Y-132080000D01*
X105293006Y-132129410D01*
X105321447Y-132171035D01*
X105363841Y-132198315D01*
X105410000Y-132207000D01*
X112977394Y-132207000D01*
X114173000Y-133402606D01*
X114173000Y-134547642D01*
X113825972Y-133707771D01*
X113057276Y-132937732D01*
X112052412Y-132520476D01*
X110964362Y-132519526D01*
X109958771Y-132935028D01*
X109188732Y-133703724D01*
X108771476Y-134708588D01*
X108770526Y-135796638D01*
X109186028Y-136802229D01*
X109954724Y-137572268D01*
X110959588Y-137989524D01*
X112047638Y-137990474D01*
X113053229Y-137574972D01*
X113823268Y-136806276D01*
X114173000Y-135964028D01*
X114173000Y-145997394D01*
X113612394Y-146558000D01*
X111066020Y-146558000D01*
X111121814Y-146502206D01*
X111007534Y-146387926D01*
X111274387Y-146289264D01*
X111500908Y-145679539D01*
X111476856Y-145029540D01*
X111274387Y-144540736D01*
X111007532Y-144442073D01*
X110034605Y-145415000D01*
X110048748Y-145429143D01*
X109869143Y-145608748D01*
X109855000Y-145594605D01*
X109840858Y-145608748D01*
X109661253Y-145429143D01*
X109675395Y-145415000D01*
X108702468Y-144442073D01*
X108435613Y-144540736D01*
X108209092Y-145150461D01*
X108233144Y-145800460D01*
X108435613Y-146289264D01*
X108702466Y-146387926D01*
X108588186Y-146502206D01*
X108643980Y-146558000D01*
X104566020Y-146558000D01*
X104621814Y-146502206D01*
X104507534Y-146387926D01*
X104774387Y-146289264D01*
X105000908Y-145679539D01*
X104976856Y-145029540D01*
X104774387Y-144540736D01*
X104507532Y-144442073D01*
X103534605Y-145415000D01*
X103548748Y-145429143D01*
X103369143Y-145608748D01*
X103355000Y-145594605D01*
X103340858Y-145608748D01*
X103161253Y-145429143D01*
X103175395Y-145415000D01*
X102202468Y-144442073D01*
X101935613Y-144540736D01*
X101709092Y-145150461D01*
X101733144Y-145800460D01*
X101935613Y-146289264D01*
X102202466Y-146387926D01*
X102088186Y-146502206D01*
X102143980Y-146558000D01*
X96572606Y-146558000D01*
X96012000Y-145997394D01*
X96012000Y-144262468D01*
X102382073Y-144262468D01*
X103355000Y-145235395D01*
X104327927Y-144262468D01*
X108882073Y-144262468D01*
X109855000Y-145235395D01*
X110827927Y-144262468D01*
X110729264Y-143995613D01*
X110119539Y-143769092D01*
X109469540Y-143793144D01*
X108980736Y-143995613D01*
X108882073Y-144262468D01*
X104327927Y-144262468D01*
X104229264Y-143995613D01*
X103619539Y-143769092D01*
X102969540Y-143793144D01*
X102480736Y-143995613D01*
X102382073Y-144262468D01*
X96012000Y-144262468D01*
X96012000Y-139700000D01*
X96001994Y-139650590D01*
X95974803Y-139610197D01*
X95591695Y-139227089D01*
X95468370Y-139042520D01*
X95272480Y-138846630D01*
X95087912Y-138723306D01*
X94704803Y-138340197D01*
X94662789Y-138312334D01*
X94615000Y-138303000D01*
X84455000Y-138303000D01*
X84405590Y-138313006D01*
X84365197Y-138340197D01*
X83982089Y-138723305D01*
X83797520Y-138846630D01*
X83601630Y-139042520D01*
X83478306Y-139227088D01*
X83095197Y-139610197D01*
X83067334Y-139652211D01*
X83058000Y-139700000D01*
X83058000Y-145997394D01*
X82497394Y-146558000D01*
X76776020Y-146558000D01*
X76831814Y-146502206D01*
X76717534Y-146387926D01*
X76984387Y-146289264D01*
X77210908Y-145679539D01*
X77186856Y-145029540D01*
X76984387Y-144540736D01*
X76717532Y-144442073D01*
X75744605Y-145415000D01*
X75758748Y-145429143D01*
X75579143Y-145608748D01*
X75565000Y-145594605D01*
X75550858Y-145608748D01*
X75371253Y-145429143D01*
X75385395Y-145415000D01*
X74412468Y-144442073D01*
X74145613Y-144540736D01*
X73919092Y-145150461D01*
X73943144Y-145800460D01*
X74145613Y-146289264D01*
X74412466Y-146387926D01*
X74298186Y-146502206D01*
X74353980Y-146558000D01*
X70276020Y-146558000D01*
X70331814Y-146502206D01*
X70217534Y-146387926D01*
X70484387Y-146289264D01*
X70710908Y-145679539D01*
X70686856Y-145029540D01*
X70484387Y-144540736D01*
X70217532Y-144442073D01*
X69244605Y-145415000D01*
X69258748Y-145429143D01*
X69079143Y-145608748D01*
X69065000Y-145594605D01*
X69050858Y-145608748D01*
X68871253Y-145429143D01*
X68885395Y-145415000D01*
X67912468Y-144442073D01*
X67645613Y-144540736D01*
X67419092Y-145150461D01*
X67443144Y-145800460D01*
X67645613Y-146289264D01*
X67912466Y-146387926D01*
X67798186Y-146502206D01*
X67853980Y-146558000D01*
X65457606Y-146558000D01*
X64897000Y-145997394D01*
X64897000Y-144262468D01*
X68092073Y-144262468D01*
X69065000Y-145235395D01*
X70037927Y-144262468D01*
X74592073Y-144262468D01*
X75565000Y-145235395D01*
X76537927Y-144262468D01*
X76439264Y-143995613D01*
X75829539Y-143769092D01*
X75179540Y-143793144D01*
X74690736Y-143995613D01*
X74592073Y-144262468D01*
X70037927Y-144262468D01*
X69939264Y-143995613D01*
X69329539Y-143769092D01*
X68679540Y-143793144D01*
X68190736Y-143995613D01*
X68092073Y-144262468D01*
X64897000Y-144262468D01*
X64897000Y-141238795D01*
X67429716Y-141238795D01*
X67678106Y-141839943D01*
X68137637Y-142300278D01*
X68738352Y-142549716D01*
X69388795Y-142550284D01*
X69989943Y-142301894D01*
X70450278Y-141842363D01*
X70699716Y-141241648D01*
X70699718Y-141238795D01*
X73929716Y-141238795D01*
X74178106Y-141839943D01*
X74637637Y-142300278D01*
X75238352Y-142549716D01*
X75888795Y-142550284D01*
X76489943Y-142301894D01*
X76950278Y-141842363D01*
X77199716Y-141241648D01*
X77200284Y-140591205D01*
X76951894Y-139990057D01*
X76492363Y-139529722D01*
X75891648Y-139280284D01*
X75241205Y-139279716D01*
X74640057Y-139528106D01*
X74179722Y-139987637D01*
X73930284Y-140588352D01*
X73929716Y-141238795D01*
X70699718Y-141238795D01*
X70700284Y-140591205D01*
X70451894Y-139990057D01*
X69992363Y-139529722D01*
X69391648Y-139280284D01*
X68741205Y-139279716D01*
X68140057Y-139528106D01*
X67679722Y-139987637D01*
X67430284Y-140588352D01*
X67429716Y-141238795D01*
X64897000Y-141238795D01*
X64897000Y-135962358D01*
X65244028Y-136802229D01*
X66012724Y-137572268D01*
X67017588Y-137989524D01*
X68105638Y-137990474D01*
X69111229Y-137574972D01*
X69881268Y-136806276D01*
X69998064Y-136525000D01*
X74050907Y-136525000D01*
X74163946Y-137093285D01*
X74485853Y-137575054D01*
X74967622Y-137896961D01*
X75535907Y-138010000D01*
X75594093Y-138010000D01*
X76162378Y-137896961D01*
X76644147Y-137575054D01*
X76966054Y-137093285D01*
X77079093Y-136525000D01*
X76966054Y-135956715D01*
X76644147Y-135474946D01*
X76303447Y-135247298D01*
X76446358Y-135180183D01*
X76836645Y-134751924D01*
X76980336Y-134405000D01*
X84227560Y-134405000D01*
X84227560Y-136105000D01*
X84271838Y-136340317D01*
X84410910Y-136556441D01*
X84623110Y-136701431D01*
X84875000Y-136752440D01*
X86575000Y-136752440D01*
X86810317Y-136708162D01*
X87026441Y-136569090D01*
X87171431Y-136356890D01*
X87185086Y-136289459D01*
X87214946Y-136334147D01*
X87696715Y-136656054D01*
X88265000Y-136769093D01*
X88833285Y-136656054D01*
X89315054Y-136334147D01*
X89542702Y-135993447D01*
X89609817Y-136136358D01*
X90038076Y-136526645D01*
X90448110Y-136696476D01*
X90678000Y-136575155D01*
X90678000Y-135382000D01*
X90658000Y-135382000D01*
X90658000Y-135128000D01*
X90678000Y-135128000D01*
X90678000Y-133934845D01*
X90932000Y-133934845D01*
X90932000Y-135128000D01*
X90952000Y-135128000D01*
X90952000Y-135382000D01*
X90932000Y-135382000D01*
X90932000Y-136575155D01*
X91161890Y-136696476D01*
X91571924Y-136526645D01*
X92000183Y-136136358D01*
X92067298Y-135993447D01*
X92294946Y-136334147D01*
X92776715Y-136656054D01*
X93345000Y-136769093D01*
X93913285Y-136656054D01*
X94395054Y-136334147D01*
X94716961Y-135852378D01*
X94830000Y-135284093D01*
X94830000Y-135225907D01*
X94716961Y-134657622D01*
X94395054Y-134175853D01*
X93913285Y-133853946D01*
X93345000Y-133740907D01*
X92776715Y-133853946D01*
X92294946Y-134175853D01*
X92067298Y-134516553D01*
X92000183Y-134373642D01*
X91571924Y-133983355D01*
X91161890Y-133813524D01*
X90932000Y-133934845D01*
X90678000Y-133934845D01*
X90448110Y-133813524D01*
X90038076Y-133983355D01*
X89609817Y-134373642D01*
X89542702Y-134516553D01*
X89315054Y-134175853D01*
X88833285Y-133853946D01*
X88265000Y-133740907D01*
X87696715Y-133853946D01*
X87214946Y-134175853D01*
X87187150Y-134217452D01*
X87178162Y-134169683D01*
X87039090Y-133953559D01*
X86826890Y-133808569D01*
X86575000Y-133757560D01*
X84875000Y-133757560D01*
X84639683Y-133801838D01*
X84423559Y-133940910D01*
X84278569Y-134153110D01*
X84227560Y-134405000D01*
X76980336Y-134405000D01*
X77006476Y-134341890D01*
X76885155Y-134112000D01*
X75692000Y-134112000D01*
X75692000Y-134132000D01*
X75438000Y-134132000D01*
X75438000Y-134112000D01*
X74244845Y-134112000D01*
X74123524Y-134341890D01*
X74293355Y-134751924D01*
X74683642Y-135180183D01*
X74826553Y-135247298D01*
X74485853Y-135474946D01*
X74163946Y-135956715D01*
X74050907Y-136525000D01*
X69998064Y-136525000D01*
X70298524Y-135801412D01*
X70299474Y-134713362D01*
X69883972Y-133707771D01*
X69115276Y-132937732D01*
X68110412Y-132520476D01*
X67022362Y-132519526D01*
X66016771Y-132935028D01*
X65246732Y-133703724D01*
X64897000Y-134545972D01*
X64897000Y-133402606D01*
X66092606Y-132207000D01*
X73660000Y-132207000D01*
X73709410Y-132196994D01*
X73751035Y-132168553D01*
X73778315Y-132126159D01*
X73787000Y-132080000D01*
X73787000Y-102362000D01*
X74390765Y-102362000D01*
X74463110Y-102411431D01*
X74463110Y-102411431D01*
G37*
X74463110Y-102411431D02*
X74530541Y-102425086D01*
X74485853Y-102454946D01*
X74163946Y-102936715D01*
X74050907Y-103505000D01*
X74163946Y-104073285D01*
X74485853Y-104555054D01*
X74815026Y-104775000D01*
X74485853Y-104994946D01*
X74163946Y-105476715D01*
X74050907Y-106045000D01*
X74163946Y-106613285D01*
X74485853Y-107095054D01*
X74815026Y-107315000D01*
X74485853Y-107534946D01*
X74163946Y-108016715D01*
X74050907Y-108585000D01*
X74163946Y-109153285D01*
X74485853Y-109635054D01*
X74815026Y-109855000D01*
X74485853Y-110074946D01*
X74163946Y-110556715D01*
X74050907Y-111125000D01*
X74163946Y-111693285D01*
X74485853Y-112175054D01*
X74815026Y-112395000D01*
X74485853Y-112614946D01*
X74163946Y-113096715D01*
X74050907Y-113665000D01*
X74163946Y-114233285D01*
X74485853Y-114715054D01*
X74815026Y-114935000D01*
X74485853Y-115154946D01*
X74163946Y-115636715D01*
X74050907Y-116205000D01*
X74163946Y-116773285D01*
X74485853Y-117255054D01*
X74815026Y-117475000D01*
X74485853Y-117694946D01*
X74163946Y-118176715D01*
X74050907Y-118745000D01*
X74163946Y-119313285D01*
X74485853Y-119795054D01*
X74815026Y-120015000D01*
X74485853Y-120234946D01*
X74163946Y-120716715D01*
X74050907Y-121285000D01*
X74163946Y-121853285D01*
X74485853Y-122335054D01*
X74815026Y-122555000D01*
X74485853Y-122774946D01*
X74163946Y-123256715D01*
X74050907Y-123825000D01*
X74163946Y-124393285D01*
X74485853Y-124875054D01*
X74815026Y-125095000D01*
X74485853Y-125314946D01*
X74163946Y-125796715D01*
X74050907Y-126365000D01*
X74163946Y-126933285D01*
X74485853Y-127415054D01*
X74815026Y-127635000D01*
X74485853Y-127854946D01*
X74163946Y-128336715D01*
X74050907Y-128905000D01*
X74163946Y-129473285D01*
X74485853Y-129955054D01*
X74815026Y-130175000D01*
X74485853Y-130394946D01*
X74163946Y-130876715D01*
X74050907Y-131445000D01*
X74163946Y-132013285D01*
X74485853Y-132495054D01*
X74826553Y-132722702D01*
X74683642Y-132789817D01*
X74293355Y-133218076D01*
X74123524Y-133628110D01*
X74244845Y-133858000D01*
X75438000Y-133858000D01*
X75438000Y-133838000D01*
X75692000Y-133838000D01*
X75692000Y-133858000D01*
X76885155Y-133858000D01*
X77006476Y-133628110D01*
X76836645Y-133218076D01*
X76446358Y-132789817D01*
X76303447Y-132722702D01*
X76644147Y-132495054D01*
X76966054Y-132013285D01*
X77079093Y-131445000D01*
X76966054Y-130876715D01*
X76644147Y-130394946D01*
X76314974Y-130175000D01*
X76644147Y-129955054D01*
X76966054Y-129473285D01*
X77079093Y-128905000D01*
X76966054Y-128336715D01*
X76644147Y-127854946D01*
X76314974Y-127635000D01*
X76644147Y-127415054D01*
X76966054Y-126933285D01*
X77079093Y-126365000D01*
X76966054Y-125796715D01*
X76644147Y-125314946D01*
X76314974Y-125095000D01*
X76644147Y-124875054D01*
X76966054Y-124393285D01*
X77079093Y-123825000D01*
X76966054Y-123256715D01*
X76644147Y-122774946D01*
X76314974Y-122555000D01*
X76644147Y-122335054D01*
X76966054Y-121853285D01*
X77079093Y-121285000D01*
X76966054Y-120716715D01*
X76644147Y-120234946D01*
X76314974Y-120015000D01*
X76644147Y-119795054D01*
X76966054Y-119313285D01*
X77079093Y-118745000D01*
X76966054Y-118176715D01*
X76644147Y-117694946D01*
X76314974Y-117475000D01*
X76644147Y-117255054D01*
X76966054Y-116773285D01*
X77079093Y-116205000D01*
X76966054Y-115636715D01*
X76644147Y-115154946D01*
X76314974Y-114935000D01*
X76644147Y-114715054D01*
X76966054Y-114233285D01*
X77079093Y-113665000D01*
X76966054Y-113096715D01*
X76644147Y-112614946D01*
X76314974Y-112395000D01*
X76644147Y-112175054D01*
X76966054Y-111693285D01*
X77079093Y-111125000D01*
X76966054Y-110556715D01*
X76644147Y-110074946D01*
X76314974Y-109855000D01*
X76637749Y-109639329D01*
X77220000Y-110221579D01*
X77220000Y-128904995D01*
X77219999Y-128905000D01*
X77269728Y-129155000D01*
X77287367Y-129243675D01*
X77415424Y-129435327D01*
X77479210Y-129530790D01*
X78749208Y-130800787D01*
X78749210Y-130800790D01*
X78998250Y-130967192D01*
X79036325Y-130992633D01*
X79375000Y-131060001D01*
X79375005Y-131060000D01*
X83513178Y-131060000D01*
X83633201Y-131109838D01*
X84005167Y-131110162D01*
X84348943Y-130968117D01*
X84612192Y-130705327D01*
X84754838Y-130361799D01*
X84755162Y-129989833D01*
X84613117Y-129646057D01*
X84350327Y-129382808D01*
X84006799Y-129240162D01*
X83634833Y-129239838D01*
X83513431Y-129290000D01*
X79741579Y-129290000D01*
X79628505Y-129176925D01*
X79903943Y-129063117D01*
X80167192Y-128800327D01*
X80309838Y-128456799D01*
X80310162Y-128084833D01*
X80260000Y-127963431D01*
X80260000Y-122151580D01*
X82876708Y-124768287D01*
X82876710Y-124768290D01*
X87422255Y-129313834D01*
X87471883Y-129433943D01*
X87734673Y-129697192D01*
X88078201Y-129839838D01*
X88450167Y-129840162D01*
X88793943Y-129698117D01*
X89057192Y-129435327D01*
X89199838Y-129091799D01*
X89199839Y-129090167D01*
X94314838Y-129090167D01*
X94456883Y-129433943D01*
X94719673Y-129697192D01*
X94840986Y-129747566D01*
X98810000Y-133716579D01*
X98810000Y-137254995D01*
X98809999Y-137255000D01*
X98866190Y-137537484D01*
X98877367Y-137593675D01*
X99069210Y-137880790D01*
X101736858Y-140548437D01*
X101720284Y-140588352D01*
X101719716Y-141238795D01*
X101968106Y-141839943D01*
X102427637Y-142300278D01*
X103028352Y-142549716D01*
X103678795Y-142550284D01*
X104279943Y-142301894D01*
X104740278Y-141842363D01*
X104757869Y-141800000D01*
X108451602Y-141800000D01*
X108468106Y-141839943D01*
X108927637Y-142300278D01*
X109528352Y-142549716D01*
X110178795Y-142550284D01*
X110779943Y-142301894D01*
X111240278Y-141842363D01*
X111489716Y-141241648D01*
X111490284Y-140591205D01*
X111241894Y-139990057D01*
X110782363Y-139529722D01*
X110181648Y-139280284D01*
X109531205Y-139279716D01*
X108930057Y-139528106D01*
X108469722Y-139987637D01*
X108452131Y-140030000D01*
X104758398Y-140030000D01*
X104741894Y-139990057D01*
X104282363Y-139529722D01*
X103681648Y-139280284D01*
X103031205Y-139279716D01*
X102988812Y-139297233D01*
X100580000Y-136888420D01*
X100580000Y-136525000D01*
X101990907Y-136525000D01*
X102103946Y-137093285D01*
X102425853Y-137575054D01*
X102907622Y-137896961D01*
X103475907Y-138010000D01*
X103534093Y-138010000D01*
X104102378Y-137896961D01*
X104584147Y-137575054D01*
X104906054Y-137093285D01*
X105019093Y-136525000D01*
X104906054Y-135956715D01*
X104584147Y-135474946D01*
X104243447Y-135247298D01*
X104386358Y-135180183D01*
X104776645Y-134751924D01*
X104946476Y-134341890D01*
X104825155Y-134112000D01*
X103632000Y-134112000D01*
X103632000Y-134132000D01*
X103378000Y-134132000D01*
X103378000Y-134112000D01*
X102184845Y-134112000D01*
X102063524Y-134341890D01*
X102233355Y-134751924D01*
X102623642Y-135180183D01*
X102766553Y-135247298D01*
X102425853Y-135474946D01*
X102103946Y-135956715D01*
X101990907Y-136525000D01*
X100580000Y-136525000D01*
X100580000Y-133350005D01*
X100580001Y-133350000D01*
X100512633Y-133011325D01*
X100461653Y-132935028D01*
X100320790Y-132724210D01*
X100320787Y-132724208D01*
X96092744Y-128496164D01*
X96043117Y-128376057D01*
X95780327Y-128112808D01*
X95436799Y-127970162D01*
X95064833Y-127969838D01*
X94721057Y-128111883D01*
X94457808Y-128374673D01*
X94315162Y-128718201D01*
X94314838Y-129090167D01*
X89199839Y-129090167D01*
X89200162Y-128719833D01*
X89058117Y-128376057D01*
X88795327Y-128112808D01*
X88674013Y-128062434D01*
X84754080Y-124142500D01*
X87620787Y-121275792D01*
X87620790Y-121275790D01*
X87812633Y-120988675D01*
X87823810Y-120932484D01*
X87880001Y-120650000D01*
X87880000Y-120649995D01*
X87880000Y-102362000D01*
X97540000Y-102362000D01*
X97540000Y-120343178D01*
X97490162Y-120463201D01*
X97489838Y-120835167D01*
X97631883Y-121178943D01*
X97894673Y-121442192D01*
X98238201Y-121584838D01*
X98610167Y-121585162D01*
X98810000Y-121502593D01*
X98810000Y-121553421D01*
X94841164Y-125522256D01*
X94721057Y-125571883D01*
X94457808Y-125834673D01*
X94315162Y-126178201D01*
X94314838Y-126550167D01*
X94456883Y-126893943D01*
X94719673Y-127157192D01*
X95063201Y-127299838D01*
X95435167Y-127300162D01*
X95778943Y-127158117D01*
X96042192Y-126895327D01*
X96092566Y-126774014D01*
X96316412Y-126550167D01*
X97489838Y-126550167D01*
X97540000Y-126671569D01*
X97540000Y-128269995D01*
X97539999Y-128270000D01*
X97596190Y-128552484D01*
X97607367Y-128608675D01*
X97735424Y-128800327D01*
X97799210Y-128895790D01*
X100974208Y-132070787D01*
X100974210Y-132070790D01*
X101261325Y-132262633D01*
X101317516Y-132273810D01*
X101600000Y-132330001D01*
X101600005Y-132330000D01*
X102315568Y-132330000D01*
X102425853Y-132495054D01*
X102766553Y-132722702D01*
X102623642Y-132789817D01*
X102233355Y-133218076D01*
X102063524Y-133628110D01*
X102184845Y-133858000D01*
X103378000Y-133858000D01*
X103378000Y-133838000D01*
X103632000Y-133838000D01*
X103632000Y-133858000D01*
X104825155Y-133858000D01*
X104946476Y-133628110D01*
X104776645Y-133218076D01*
X104386358Y-132789817D01*
X104243447Y-132722702D01*
X104584147Y-132495054D01*
X104906054Y-132013285D01*
X105019093Y-131445000D01*
X104906054Y-130876715D01*
X104584147Y-130394946D01*
X104254974Y-130175000D01*
X104584147Y-129955054D01*
X104906054Y-129473285D01*
X105019093Y-128905000D01*
X104906054Y-128336715D01*
X104584147Y-127854946D01*
X104254974Y-127635000D01*
X104584147Y-127415054D01*
X104906054Y-126933285D01*
X105019093Y-126365000D01*
X104906054Y-125796715D01*
X104584147Y-125314946D01*
X104254974Y-125095000D01*
X104584147Y-124875054D01*
X104906054Y-124393285D01*
X105019093Y-123825000D01*
X104906054Y-123256715D01*
X104584147Y-122774946D01*
X104254974Y-122555000D01*
X104584147Y-122335054D01*
X104906054Y-121853285D01*
X105019093Y-121285000D01*
X104906054Y-120716715D01*
X104584147Y-120234946D01*
X104254974Y-120015000D01*
X104584147Y-119795054D01*
X104906054Y-119313285D01*
X105019093Y-118745000D01*
X104906054Y-118176715D01*
X104584147Y-117694946D01*
X104254974Y-117475000D01*
X104584147Y-117255054D01*
X104906054Y-116773285D01*
X105019093Y-116205000D01*
X104906054Y-115636715D01*
X104584147Y-115154946D01*
X104254974Y-114935000D01*
X104584147Y-114715054D01*
X104906054Y-114233285D01*
X105019093Y-113665000D01*
X104906054Y-113096715D01*
X104584147Y-112614946D01*
X104254974Y-112395000D01*
X104584147Y-112175054D01*
X104906054Y-111693285D01*
X105019093Y-111125000D01*
X104906054Y-110556715D01*
X104584147Y-110074946D01*
X104254974Y-109855000D01*
X104584147Y-109635054D01*
X104906054Y-109153285D01*
X105019093Y-108585000D01*
X104906054Y-108016715D01*
X104584147Y-107534946D01*
X104254974Y-107315000D01*
X104584147Y-107095054D01*
X104906054Y-106613285D01*
X105019093Y-106045000D01*
X104906054Y-105476715D01*
X104584147Y-104994946D01*
X104243447Y-104767298D01*
X104386358Y-104700183D01*
X104776645Y-104271924D01*
X104946476Y-103861890D01*
X104825155Y-103632000D01*
X103632000Y-103632000D01*
X103632000Y-103652000D01*
X103378000Y-103652000D01*
X103378000Y-103632000D01*
X102184845Y-103632000D01*
X102063524Y-103861890D01*
X102233355Y-104271924D01*
X102623642Y-104700183D01*
X102766553Y-104767298D01*
X102425853Y-104994946D01*
X102103946Y-105476715D01*
X101990907Y-106045000D01*
X102103946Y-106613285D01*
X102425853Y-107095054D01*
X102755026Y-107315000D01*
X102425853Y-107534946D01*
X102103946Y-108016715D01*
X101990907Y-108585000D01*
X102103946Y-109153285D01*
X102425853Y-109635054D01*
X102755026Y-109855000D01*
X102425853Y-110074946D01*
X102103946Y-110556715D01*
X101990907Y-111125000D01*
X102103946Y-111693285D01*
X102425853Y-112175054D01*
X102755026Y-112395000D01*
X102425853Y-112614946D01*
X102103946Y-113096715D01*
X101990907Y-113665000D01*
X102103946Y-114233285D01*
X102425853Y-114715054D01*
X102755026Y-114935000D01*
X102425853Y-115154946D01*
X102103946Y-115636715D01*
X101990907Y-116205000D01*
X102103946Y-116773285D01*
X102425853Y-117255054D01*
X102755026Y-117475000D01*
X102425853Y-117694946D01*
X102103946Y-118176715D01*
X101990907Y-118745000D01*
X102103946Y-119313285D01*
X102425853Y-119795054D01*
X102755026Y-120015000D01*
X102425853Y-120234946D01*
X102103946Y-120716715D01*
X101990907Y-121285000D01*
X102103946Y-121853285D01*
X102425853Y-122335054D01*
X102755026Y-122555000D01*
X102425853Y-122774946D01*
X102103946Y-123256715D01*
X101990907Y-123825000D01*
X102103946Y-124393285D01*
X102425853Y-124875054D01*
X102755026Y-125095000D01*
X102425853Y-125314946D01*
X102103946Y-125796715D01*
X101990907Y-126365000D01*
X102103946Y-126933285D01*
X102425853Y-127415054D01*
X102755026Y-127635000D01*
X102425853Y-127854946D01*
X102103946Y-128336715D01*
X101990907Y-128905000D01*
X102103946Y-129473285D01*
X102425853Y-129955054D01*
X102755026Y-130175000D01*
X102425853Y-130394946D01*
X102315568Y-130560000D01*
X101966579Y-130560000D01*
X99310000Y-127903420D01*
X99310000Y-126671822D01*
X99359838Y-126551799D01*
X99360162Y-126179833D01*
X99218117Y-125836057D01*
X98955327Y-125572808D01*
X98611799Y-125430162D01*
X98239833Y-125429838D01*
X97896057Y-125571883D01*
X97632808Y-125834673D01*
X97490162Y-126178201D01*
X97489838Y-126550167D01*
X96316412Y-126550167D01*
X100320787Y-122545792D01*
X100320790Y-122545790D01*
X100512633Y-122258675D01*
X100543672Y-122102633D01*
X100580001Y-121920000D01*
X100580000Y-121919995D01*
X100580000Y-102362000D01*
X102330765Y-102362000D01*
X102403110Y-102411431D01*
X102511107Y-102433301D01*
X102233355Y-102738076D01*
X102063524Y-103148110D01*
X102184845Y-103378000D01*
X103378000Y-103378000D01*
X103378000Y-103358000D01*
X103632000Y-103358000D01*
X103632000Y-103378000D01*
X104825155Y-103378000D01*
X104946476Y-103148110D01*
X104776645Y-102738076D01*
X104500499Y-102435063D01*
X104590317Y-102418162D01*
X104677595Y-102362000D01*
X105283000Y-102362000D01*
X105283000Y-132080000D01*
X105293006Y-132129410D01*
X105321447Y-132171035D01*
X105363841Y-132198315D01*
X105410000Y-132207000D01*
X112977394Y-132207000D01*
X114173000Y-133402606D01*
X114173000Y-134547642D01*
X113825972Y-133707771D01*
X113057276Y-132937732D01*
X112052412Y-132520476D01*
X110964362Y-132519526D01*
X109958771Y-132935028D01*
X109188732Y-133703724D01*
X108771476Y-134708588D01*
X108770526Y-135796638D01*
X109186028Y-136802229D01*
X109954724Y-137572268D01*
X110959588Y-137989524D01*
X112047638Y-137990474D01*
X113053229Y-137574972D01*
X113823268Y-136806276D01*
X114173000Y-135964028D01*
X114173000Y-145997394D01*
X113612394Y-146558000D01*
X111066020Y-146558000D01*
X111121814Y-146502206D01*
X111007534Y-146387926D01*
X111274387Y-146289264D01*
X111500908Y-145679539D01*
X111476856Y-145029540D01*
X111274387Y-144540736D01*
X111007532Y-144442073D01*
X110034605Y-145415000D01*
X110048748Y-145429143D01*
X109869143Y-145608748D01*
X109855000Y-145594605D01*
X109840858Y-145608748D01*
X109661253Y-145429143D01*
X109675395Y-145415000D01*
X108702468Y-144442073D01*
X108435613Y-144540736D01*
X108209092Y-145150461D01*
X108233144Y-145800460D01*
X108435613Y-146289264D01*
X108702466Y-146387926D01*
X108588186Y-146502206D01*
X108643980Y-146558000D01*
X104566020Y-146558000D01*
X104621814Y-146502206D01*
X104507534Y-146387926D01*
X104774387Y-146289264D01*
X105000908Y-145679539D01*
X104976856Y-145029540D01*
X104774387Y-144540736D01*
X104507532Y-144442073D01*
X103534605Y-145415000D01*
X103548748Y-145429143D01*
X103369143Y-145608748D01*
X103355000Y-145594605D01*
X103340858Y-145608748D01*
X103161253Y-145429143D01*
X103175395Y-145415000D01*
X102202468Y-144442073D01*
X101935613Y-144540736D01*
X101709092Y-145150461D01*
X101733144Y-145800460D01*
X101935613Y-146289264D01*
X102202466Y-146387926D01*
X102088186Y-146502206D01*
X102143980Y-146558000D01*
X96572606Y-146558000D01*
X96012000Y-145997394D01*
X96012000Y-144262468D01*
X102382073Y-144262468D01*
X103355000Y-145235395D01*
X104327927Y-144262468D01*
X108882073Y-144262468D01*
X109855000Y-145235395D01*
X110827927Y-144262468D01*
X110729264Y-143995613D01*
X110119539Y-143769092D01*
X109469540Y-143793144D01*
X108980736Y-143995613D01*
X108882073Y-144262468D01*
X104327927Y-144262468D01*
X104229264Y-143995613D01*
X103619539Y-143769092D01*
X102969540Y-143793144D01*
X102480736Y-143995613D01*
X102382073Y-144262468D01*
X96012000Y-144262468D01*
X96012000Y-139700000D01*
X96001994Y-139650590D01*
X95974803Y-139610197D01*
X95591695Y-139227089D01*
X95468370Y-139042520D01*
X95272480Y-138846630D01*
X95087912Y-138723306D01*
X94704803Y-138340197D01*
X94662789Y-138312334D01*
X94615000Y-138303000D01*
X84455000Y-138303000D01*
X84405590Y-138313006D01*
X84365197Y-138340197D01*
X83982089Y-138723305D01*
X83797520Y-138846630D01*
X83601630Y-139042520D01*
X83478306Y-139227088D01*
X83095197Y-139610197D01*
X83067334Y-139652211D01*
X83058000Y-139700000D01*
X83058000Y-145997394D01*
X82497394Y-146558000D01*
X76776020Y-146558000D01*
X76831814Y-146502206D01*
X76717534Y-146387926D01*
X76984387Y-146289264D01*
X77210908Y-145679539D01*
X77186856Y-145029540D01*
X76984387Y-144540736D01*
X76717532Y-144442073D01*
X75744605Y-145415000D01*
X75758748Y-145429143D01*
X75579143Y-145608748D01*
X75565000Y-145594605D01*
X75550858Y-145608748D01*
X75371253Y-145429143D01*
X75385395Y-145415000D01*
X74412468Y-144442073D01*
X74145613Y-144540736D01*
X73919092Y-145150461D01*
X73943144Y-145800460D01*
X74145613Y-146289264D01*
X74412466Y-146387926D01*
X74298186Y-146502206D01*
X74353980Y-146558000D01*
X70276020Y-146558000D01*
X70331814Y-146502206D01*
X70217534Y-146387926D01*
X70484387Y-146289264D01*
X70710908Y-145679539D01*
X70686856Y-145029540D01*
X70484387Y-144540736D01*
X70217532Y-144442073D01*
X69244605Y-145415000D01*
X69258748Y-145429143D01*
X69079143Y-145608748D01*
X69065000Y-145594605D01*
X69050858Y-145608748D01*
X68871253Y-145429143D01*
X68885395Y-145415000D01*
X67912468Y-144442073D01*
X67645613Y-144540736D01*
X67419092Y-145150461D01*
X67443144Y-145800460D01*
X67645613Y-146289264D01*
X67912466Y-146387926D01*
X67798186Y-146502206D01*
X67853980Y-146558000D01*
X65457606Y-146558000D01*
X64897000Y-145997394D01*
X64897000Y-144262468D01*
X68092073Y-144262468D01*
X69065000Y-145235395D01*
X70037927Y-144262468D01*
X74592073Y-144262468D01*
X75565000Y-145235395D01*
X76537927Y-144262468D01*
X76439264Y-143995613D01*
X75829539Y-143769092D01*
X75179540Y-143793144D01*
X74690736Y-143995613D01*
X74592073Y-144262468D01*
X70037927Y-144262468D01*
X69939264Y-143995613D01*
X69329539Y-143769092D01*
X68679540Y-143793144D01*
X68190736Y-143995613D01*
X68092073Y-144262468D01*
X64897000Y-144262468D01*
X64897000Y-141238795D01*
X67429716Y-141238795D01*
X67678106Y-141839943D01*
X68137637Y-142300278D01*
X68738352Y-142549716D01*
X69388795Y-142550284D01*
X69989943Y-142301894D01*
X70450278Y-141842363D01*
X70699716Y-141241648D01*
X70699718Y-141238795D01*
X73929716Y-141238795D01*
X74178106Y-141839943D01*
X74637637Y-142300278D01*
X75238352Y-142549716D01*
X75888795Y-142550284D01*
X76489943Y-142301894D01*
X76950278Y-141842363D01*
X77199716Y-141241648D01*
X77200284Y-140591205D01*
X76951894Y-139990057D01*
X76492363Y-139529722D01*
X75891648Y-139280284D01*
X75241205Y-139279716D01*
X74640057Y-139528106D01*
X74179722Y-139987637D01*
X73930284Y-140588352D01*
X73929716Y-141238795D01*
X70699718Y-141238795D01*
X70700284Y-140591205D01*
X70451894Y-139990057D01*
X69992363Y-139529722D01*
X69391648Y-139280284D01*
X68741205Y-139279716D01*
X68140057Y-139528106D01*
X67679722Y-139987637D01*
X67430284Y-140588352D01*
X67429716Y-141238795D01*
X64897000Y-141238795D01*
X64897000Y-135962358D01*
X65244028Y-136802229D01*
X66012724Y-137572268D01*
X67017588Y-137989524D01*
X68105638Y-137990474D01*
X69111229Y-137574972D01*
X69881268Y-136806276D01*
X69998064Y-136525000D01*
X74050907Y-136525000D01*
X74163946Y-137093285D01*
X74485853Y-137575054D01*
X74967622Y-137896961D01*
X75535907Y-138010000D01*
X75594093Y-138010000D01*
X76162378Y-137896961D01*
X76644147Y-137575054D01*
X76966054Y-137093285D01*
X77079093Y-136525000D01*
X76966054Y-135956715D01*
X76644147Y-135474946D01*
X76303447Y-135247298D01*
X76446358Y-135180183D01*
X76836645Y-134751924D01*
X76980336Y-134405000D01*
X84227560Y-134405000D01*
X84227560Y-136105000D01*
X84271838Y-136340317D01*
X84410910Y-136556441D01*
X84623110Y-136701431D01*
X84875000Y-136752440D01*
X86575000Y-136752440D01*
X86810317Y-136708162D01*
X87026441Y-136569090D01*
X87171431Y-136356890D01*
X87185086Y-136289459D01*
X87214946Y-136334147D01*
X87696715Y-136656054D01*
X88265000Y-136769093D01*
X88833285Y-136656054D01*
X89315054Y-136334147D01*
X89542702Y-135993447D01*
X89609817Y-136136358D01*
X90038076Y-136526645D01*
X90448110Y-136696476D01*
X90678000Y-136575155D01*
X90678000Y-135382000D01*
X90658000Y-135382000D01*
X90658000Y-135128000D01*
X90678000Y-135128000D01*
X90678000Y-133934845D01*
X90932000Y-133934845D01*
X90932000Y-135128000D01*
X90952000Y-135128000D01*
X90952000Y-135382000D01*
X90932000Y-135382000D01*
X90932000Y-136575155D01*
X91161890Y-136696476D01*
X91571924Y-136526645D01*
X92000183Y-136136358D01*
X92067298Y-135993447D01*
X92294946Y-136334147D01*
X92776715Y-136656054D01*
X93345000Y-136769093D01*
X93913285Y-136656054D01*
X94395054Y-136334147D01*
X94716961Y-135852378D01*
X94830000Y-135284093D01*
X94830000Y-135225907D01*
X94716961Y-134657622D01*
X94395054Y-134175853D01*
X93913285Y-133853946D01*
X93345000Y-133740907D01*
X92776715Y-133853946D01*
X92294946Y-134175853D01*
X92067298Y-134516553D01*
X92000183Y-134373642D01*
X91571924Y-133983355D01*
X91161890Y-133813524D01*
X90932000Y-133934845D01*
X90678000Y-133934845D01*
X90448110Y-133813524D01*
X90038076Y-133983355D01*
X89609817Y-134373642D01*
X89542702Y-134516553D01*
X89315054Y-134175853D01*
X88833285Y-133853946D01*
X88265000Y-133740907D01*
X87696715Y-133853946D01*
X87214946Y-134175853D01*
X87187150Y-134217452D01*
X87178162Y-134169683D01*
X87039090Y-133953559D01*
X86826890Y-133808569D01*
X86575000Y-133757560D01*
X84875000Y-133757560D01*
X84639683Y-133801838D01*
X84423559Y-133940910D01*
X84278569Y-134153110D01*
X84227560Y-134405000D01*
X76980336Y-134405000D01*
X77006476Y-134341890D01*
X76885155Y-134112000D01*
X75692000Y-134112000D01*
X75692000Y-134132000D01*
X75438000Y-134132000D01*
X75438000Y-134112000D01*
X74244845Y-134112000D01*
X74123524Y-134341890D01*
X74293355Y-134751924D01*
X74683642Y-135180183D01*
X74826553Y-135247298D01*
X74485853Y-135474946D01*
X74163946Y-135956715D01*
X74050907Y-136525000D01*
X69998064Y-136525000D01*
X70298524Y-135801412D01*
X70299474Y-134713362D01*
X69883972Y-133707771D01*
X69115276Y-132937732D01*
X68110412Y-132520476D01*
X67022362Y-132519526D01*
X66016771Y-132935028D01*
X65246732Y-133703724D01*
X64897000Y-134545972D01*
X64897000Y-133402606D01*
X66092606Y-132207000D01*
X73660000Y-132207000D01*
X73709410Y-132196994D01*
X73751035Y-132168553D01*
X73778315Y-132126159D01*
X73787000Y-132080000D01*
X73787000Y-102362000D01*
X74390765Y-102362000D01*
X74463110Y-102411431D01*
G36*
X82300000Y-120978178D02*
X82250162Y-121098201D01*
X82249838Y-121470167D01*
X82368196Y-121756617D01*
X81487744Y-120876164D01*
X81438117Y-120756057D01*
X81175327Y-120492808D01*
X80831799Y-120350162D01*
X80459833Y-120349838D01*
X80260000Y-120432407D01*
X80260000Y-104775005D01*
X80260001Y-104775000D01*
X80192633Y-104436325D01*
X80161680Y-104390000D01*
X80000790Y-104149210D01*
X80000787Y-104149208D01*
X78730790Y-102879210D01*
X78443675Y-102687367D01*
X78387484Y-102676190D01*
X78105000Y-102619999D01*
X78104995Y-102620000D01*
X76754432Y-102620000D01*
X76644147Y-102454946D01*
X76602548Y-102427150D01*
X76650317Y-102418162D01*
X76737595Y-102362000D01*
X82300000Y-102362000D01*
X82300000Y-120978178D01*
X82300000Y-120978178D01*
G37*
X82300000Y-120978178D02*
X82250162Y-121098201D01*
X82249838Y-121470167D01*
X82368196Y-121756617D01*
X81487744Y-120876164D01*
X81438117Y-120756057D01*
X81175327Y-120492808D01*
X80831799Y-120350162D01*
X80459833Y-120349838D01*
X80260000Y-120432407D01*
X80260000Y-104775005D01*
X80260001Y-104775000D01*
X80192633Y-104436325D01*
X80161680Y-104390000D01*
X80000790Y-104149210D01*
X80000787Y-104149208D01*
X78730790Y-102879210D01*
X78443675Y-102687367D01*
X78387484Y-102676190D01*
X78105000Y-102619999D01*
X78104995Y-102620000D01*
X76754432Y-102620000D01*
X76644147Y-102454946D01*
X76602548Y-102427150D01*
X76650317Y-102418162D01*
X76737595Y-102362000D01*
X82300000Y-102362000D01*
X82300000Y-120978178D01*
M02*
