G04 #@! TF.FileFunction,Copper,L1,Top,Signal*
%FSLAX46Y46*%
G04 Gerber Fmt 4.6, Leading zero omitted, Abs format (unit mm)*
G04 Created by KiCad (PCBNEW 4.0.7) date 12/22/18 00:45:09*
%MOMM*%
%LPD*%
G01*
G04 APERTURE LIST*
%ADD10C,0.100000*%
%ADD11C,4.200000*%
%ADD12R,1.700000X1.700000*%
%ADD13O,1.700000X1.700000*%
%ADD14R,1.700000X2.000000*%
%ADD15R,1.750000X1.750000*%
%ADD16C,1.750000*%
%ADD17C,2.000000*%
%ADD18C,0.600000*%
%ADD19C,0.500000*%
%ADD20C,0.450000*%
%ADD21C,0.350000*%
%ADD22C,0.254000*%
G04 APERTURE END LIST*
D10*
D11*
X67564000Y-135255000D03*
X67564000Y-59055000D03*
X111506000Y-59055000D03*
D12*
X85725000Y-135255000D03*
D13*
X88265000Y-135255000D03*
X90805000Y-135255000D03*
X93345000Y-135255000D03*
D14*
X99060000Y-144875000D03*
X99060000Y-140875000D03*
D12*
X103505000Y-100965000D03*
D13*
X103505000Y-103505000D03*
X103505000Y-106045000D03*
X103505000Y-108585000D03*
X103505000Y-111125000D03*
X103505000Y-113665000D03*
X103505000Y-116205000D03*
X103505000Y-118745000D03*
X103505000Y-121285000D03*
X103505000Y-123825000D03*
X103505000Y-126365000D03*
X103505000Y-128905000D03*
X103505000Y-131445000D03*
X103505000Y-133985000D03*
X103505000Y-136525000D03*
D12*
X75565000Y-100965000D03*
D13*
X75565000Y-103505000D03*
X75565000Y-106045000D03*
X75565000Y-108585000D03*
X75565000Y-111125000D03*
X75565000Y-113665000D03*
X75565000Y-116205000D03*
X75565000Y-118745000D03*
X75565000Y-121285000D03*
X75565000Y-123825000D03*
X75565000Y-126365000D03*
X75565000Y-128905000D03*
X75565000Y-131445000D03*
X75565000Y-133985000D03*
X75565000Y-136525000D03*
D14*
X80010000Y-140875000D03*
X80010000Y-144875000D03*
D11*
X111506000Y-135255000D03*
D15*
X108585000Y-72390000D03*
D16*
X106085000Y-72390000D03*
D12*
X106045000Y-53975000D03*
D13*
X103505000Y-53975000D03*
X100965000Y-53975000D03*
X98425000Y-53975000D03*
X95885000Y-53975000D03*
X93345000Y-53975000D03*
X90805000Y-53975000D03*
X88265000Y-53975000D03*
X85725000Y-53975000D03*
X83185000Y-53975000D03*
X80645000Y-53975000D03*
X78105000Y-53975000D03*
X75565000Y-53975000D03*
X73025000Y-53975000D03*
D17*
X109855000Y-140915000D03*
X109855000Y-145415000D03*
X103355000Y-140915000D03*
X103355000Y-145415000D03*
X75565000Y-140915000D03*
X75565000Y-145415000D03*
X69065000Y-140915000D03*
X69065000Y-145415000D03*
D14*
X85725000Y-75025000D03*
X85725000Y-71025000D03*
D18*
X89535000Y-103505000D03*
X81280000Y-103505000D03*
X79375000Y-128270000D03*
X95885000Y-98425000D03*
X83185000Y-57150000D03*
X83185000Y-60960000D03*
X85090000Y-116205000D03*
X98425000Y-126365000D03*
X98425000Y-120650000D03*
X95250000Y-126365000D03*
X85725000Y-75025000D03*
X75565000Y-68580000D03*
X95250000Y-128905000D03*
X88265000Y-128905000D03*
X80645000Y-121285000D03*
X83820000Y-130175000D03*
X83185000Y-121285000D03*
D19*
X89535000Y-103505000D02*
X81280000Y-103505000D01*
X84455000Y-132080000D02*
X83185000Y-132080000D01*
X83185000Y-132080000D02*
X79375000Y-128270000D01*
X85725000Y-135255000D02*
X85725000Y-133350000D01*
X85725000Y-133350000D02*
X84455000Y-132080000D01*
X97155000Y-57150000D02*
X99695000Y-57150000D01*
X106045000Y-57150000D02*
X99695000Y-57150000D01*
X88265000Y-55880000D02*
X88265000Y-53975000D01*
X89535000Y-57150000D02*
X88265000Y-55880000D01*
X97155000Y-57150000D02*
X89535000Y-57150000D01*
X106045000Y-53975000D02*
X106045000Y-57150000D01*
X106045000Y-57150000D02*
X106045000Y-64135000D01*
X100965000Y-69215000D02*
X100965000Y-102870000D01*
X106045000Y-64135000D02*
X100965000Y-69215000D01*
X99060000Y-140875000D02*
X99060000Y-137795000D01*
D20*
X103441500Y-126428500D02*
X103441500Y-126428500D01*
D21*
X103441500Y-134048500D02*
X103441500Y-134429500D01*
D19*
X103505000Y-106045000D02*
X104775000Y-106045000D01*
X106085000Y-104735000D02*
X106085000Y-72390000D01*
X104775000Y-106045000D02*
X106085000Y-104735000D01*
X103505000Y-136525000D02*
X105410000Y-136525000D01*
X106680000Y-107315000D02*
X105410000Y-106045000D01*
X106680000Y-135255000D02*
X106680000Y-107315000D01*
X105410000Y-136525000D02*
X106680000Y-135255000D01*
X105410000Y-106045000D02*
X103505000Y-106045000D01*
D20*
X103505000Y-106045000D02*
X105410000Y-106045000D01*
X102806500Y-136588500D02*
X103441500Y-136588500D01*
D19*
X80010000Y-140875000D02*
X78200000Y-140875000D01*
X74295000Y-111125000D02*
X75565000Y-111125000D01*
X72390000Y-113030000D02*
X74295000Y-111125000D01*
X72390000Y-137160000D02*
X72390000Y-113030000D01*
X74295000Y-139065000D02*
X72390000Y-137160000D01*
X76390000Y-139065000D02*
X74295000Y-139065000D01*
X78200000Y-140875000D02*
X76390000Y-139065000D01*
D21*
X80010000Y-140875000D02*
X79280000Y-140875000D01*
D19*
X75565000Y-100965000D02*
X93345000Y-100965000D01*
X93345000Y-100965000D02*
X95885000Y-98425000D01*
X75565000Y-118745000D02*
X82550000Y-118745000D01*
X83185000Y-60960000D02*
X83185000Y-57150000D01*
X82550000Y-118745000D02*
X85090000Y-116205000D01*
X98425000Y-120650000D02*
X98425000Y-126365000D01*
X75565000Y-126365000D02*
X80645000Y-126365000D01*
X80645000Y-126365000D02*
X95250000Y-126365000D01*
X82010000Y-75025000D02*
X75565000Y-68580000D01*
X85725000Y-75025000D02*
X82010000Y-75025000D01*
X75565000Y-121285000D02*
X80645000Y-121285000D01*
X94615000Y-128905000D02*
X95250000Y-128905000D01*
X88265000Y-128905000D02*
X94615000Y-128905000D01*
X80010000Y-144875000D02*
X81185000Y-144875000D01*
X97885000Y-144875000D02*
X99060000Y-144875000D01*
X97155000Y-144145000D02*
X97885000Y-144875000D01*
X97155000Y-139700000D02*
X97155000Y-144145000D01*
X95885000Y-138430000D02*
X97155000Y-139700000D01*
X83185000Y-138430000D02*
X95885000Y-138430000D01*
X81915000Y-139700000D02*
X83185000Y-138430000D01*
X81915000Y-144145000D02*
X81915000Y-139700000D01*
X81185000Y-144875000D02*
X81915000Y-144145000D01*
X85725000Y-71025000D02*
X85725000Y-53975000D01*
X80645000Y-53975000D02*
X80645000Y-60325000D01*
X71120000Y-102870000D02*
X74295000Y-106045000D01*
X71120000Y-69850000D02*
X71120000Y-102870000D01*
X80645000Y-60325000D02*
X71120000Y-69850000D01*
X74295000Y-106045000D02*
X75565000Y-106045000D01*
X71120000Y-111125000D02*
X71120000Y-109220000D01*
X71120000Y-137160000D02*
X71120000Y-111125000D01*
X69065000Y-139215000D02*
X71120000Y-137160000D01*
X69065000Y-140915000D02*
X69065000Y-139215000D01*
X74295000Y-106045000D02*
X75565000Y-106045000D01*
X71120000Y-109220000D02*
X74295000Y-106045000D01*
X69065000Y-140915000D02*
X75565000Y-140915000D01*
X88265000Y-133350000D02*
X85090000Y-130175000D01*
X85090000Y-130175000D02*
X83820000Y-130175000D01*
X88265000Y-135255000D02*
X88265000Y-133350000D01*
X75565000Y-123825000D02*
X80645000Y-123825000D01*
X80645000Y-123825000D02*
X83185000Y-121285000D01*
D22*
G36*
X102403110Y-102411431D02*
X102470541Y-102425086D01*
X102425853Y-102454946D01*
X102103946Y-102936715D01*
X101990907Y-103505000D01*
X102103946Y-104073285D01*
X102425853Y-104555054D01*
X102755026Y-104775000D01*
X102425853Y-104994946D01*
X102103946Y-105476715D01*
X101990907Y-106045000D01*
X102103946Y-106613285D01*
X102425853Y-107095054D01*
X102755026Y-107315000D01*
X102425853Y-107534946D01*
X102103946Y-108016715D01*
X101990907Y-108585000D01*
X102103946Y-109153285D01*
X102425853Y-109635054D01*
X102755026Y-109855000D01*
X102425853Y-110074946D01*
X102103946Y-110556715D01*
X101990907Y-111125000D01*
X102103946Y-111693285D01*
X102425853Y-112175054D01*
X102755026Y-112395000D01*
X102425853Y-112614946D01*
X102103946Y-113096715D01*
X101990907Y-113665000D01*
X102103946Y-114233285D01*
X102425853Y-114715054D01*
X102755026Y-114935000D01*
X102425853Y-115154946D01*
X102103946Y-115636715D01*
X101990907Y-116205000D01*
X102103946Y-116773285D01*
X102425853Y-117255054D01*
X102755026Y-117475000D01*
X102425853Y-117694946D01*
X102103946Y-118176715D01*
X101990907Y-118745000D01*
X102103946Y-119313285D01*
X102425853Y-119795054D01*
X102755026Y-120015000D01*
X102425853Y-120234946D01*
X102103946Y-120716715D01*
X101990907Y-121285000D01*
X102103946Y-121853285D01*
X102425853Y-122335054D01*
X102755026Y-122555000D01*
X102425853Y-122774946D01*
X102103946Y-123256715D01*
X101990907Y-123825000D01*
X102103946Y-124393285D01*
X102425853Y-124875054D01*
X102766553Y-125102702D01*
X102623642Y-125169817D01*
X102233355Y-125598076D01*
X102063524Y-126008110D01*
X102184845Y-126238000D01*
X103378000Y-126238000D01*
X103378000Y-126218000D01*
X103632000Y-126218000D01*
X103632000Y-126238000D01*
X104825155Y-126238000D01*
X104946476Y-126008110D01*
X104776645Y-125598076D01*
X104386358Y-125169817D01*
X104243447Y-125102702D01*
X104584147Y-124875054D01*
X104906054Y-124393285D01*
X105019093Y-123825000D01*
X104906054Y-123256715D01*
X104584147Y-122774946D01*
X104254974Y-122555000D01*
X104584147Y-122335054D01*
X104906054Y-121853285D01*
X105019093Y-121285000D01*
X104906054Y-120716715D01*
X104584147Y-120234946D01*
X104254974Y-120015000D01*
X104584147Y-119795054D01*
X104906054Y-119313285D01*
X105019093Y-118745000D01*
X104906054Y-118176715D01*
X104584147Y-117694946D01*
X104254974Y-117475000D01*
X104584147Y-117255054D01*
X104906054Y-116773285D01*
X105019093Y-116205000D01*
X104906054Y-115636715D01*
X104584147Y-115154946D01*
X104254974Y-114935000D01*
X104584147Y-114715054D01*
X104906054Y-114233285D01*
X105019093Y-113665000D01*
X104906054Y-113096715D01*
X104584147Y-112614946D01*
X104254974Y-112395000D01*
X104584147Y-112175054D01*
X104906054Y-111693285D01*
X105019093Y-111125000D01*
X104906054Y-110556715D01*
X104584147Y-110074946D01*
X104254974Y-109855000D01*
X104584147Y-109635054D01*
X104906054Y-109153285D01*
X105019093Y-108585000D01*
X104906054Y-108016715D01*
X104584147Y-107534946D01*
X104254974Y-107315000D01*
X104584147Y-107095054D01*
X104694432Y-106930000D01*
X104774995Y-106930000D01*
X104775000Y-106930001D01*
X104775005Y-106930000D01*
X105043420Y-106930000D01*
X105283000Y-107169580D01*
X105283000Y-135400420D01*
X105043420Y-135640000D01*
X104694432Y-135640000D01*
X104584147Y-135474946D01*
X104254974Y-135255000D01*
X104584147Y-135035054D01*
X104906054Y-134553285D01*
X105019093Y-133985000D01*
X104906054Y-133416715D01*
X104584147Y-132934946D01*
X104254974Y-132715000D01*
X104584147Y-132495054D01*
X104906054Y-132013285D01*
X105019093Y-131445000D01*
X104906054Y-130876715D01*
X104584147Y-130394946D01*
X104254974Y-130175000D01*
X104584147Y-129955054D01*
X104906054Y-129473285D01*
X105019093Y-128905000D01*
X104906054Y-128336715D01*
X104584147Y-127854946D01*
X104243447Y-127627298D01*
X104386358Y-127560183D01*
X104776645Y-127131924D01*
X104946476Y-126721890D01*
X104825155Y-126492000D01*
X103632000Y-126492000D01*
X103632000Y-126512000D01*
X103378000Y-126512000D01*
X103378000Y-126492000D01*
X102184845Y-126492000D01*
X102063524Y-126721890D01*
X102233355Y-127131924D01*
X102623642Y-127560183D01*
X102766553Y-127627298D01*
X102425853Y-127854946D01*
X102103946Y-128336715D01*
X101990907Y-128905000D01*
X102103946Y-129473285D01*
X102425853Y-129955054D01*
X102755026Y-130175000D01*
X102425853Y-130394946D01*
X102103946Y-130876715D01*
X101990907Y-131445000D01*
X102103946Y-132013285D01*
X102425853Y-132495054D01*
X102755026Y-132715000D01*
X102425853Y-132934946D01*
X102103946Y-133416715D01*
X101990907Y-133985000D01*
X102103946Y-134553285D01*
X102425853Y-135035054D01*
X102755026Y-135255000D01*
X102425853Y-135474946D01*
X102103946Y-135956715D01*
X102057209Y-136191678D01*
X102011964Y-136259392D01*
X101946500Y-136588500D01*
X102011964Y-136917608D01*
X102093179Y-137039155D01*
X102103946Y-137093285D01*
X102425853Y-137575054D01*
X102907622Y-137896961D01*
X103475907Y-138010000D01*
X103534093Y-138010000D01*
X104102378Y-137896961D01*
X104584147Y-137575054D01*
X104694432Y-137410000D01*
X105283000Y-137410000D01*
X105283000Y-138303000D01*
X97009580Y-138303000D01*
X96510790Y-137804210D01*
X96385034Y-137720183D01*
X96223675Y-137612367D01*
X96167484Y-137601190D01*
X95885000Y-137544999D01*
X95884995Y-137545000D01*
X83185005Y-137545000D01*
X83185000Y-137544999D01*
X82846325Y-137612367D01*
X82559210Y-137804210D01*
X82559208Y-137804213D01*
X82060421Y-138303000D01*
X76811936Y-138303000D01*
X76728675Y-138247367D01*
X76672484Y-138236190D01*
X76390000Y-138179999D01*
X76389995Y-138180000D01*
X74661579Y-138180000D01*
X73787000Y-137305420D01*
X73787000Y-136881890D01*
X74123524Y-136881890D01*
X74293355Y-137291924D01*
X74683642Y-137720183D01*
X75208108Y-137966486D01*
X75438000Y-137845819D01*
X75438000Y-136652000D01*
X75692000Y-136652000D01*
X75692000Y-137845819D01*
X75921892Y-137966486D01*
X76446358Y-137720183D01*
X76836645Y-137291924D01*
X77006476Y-136881890D01*
X76885155Y-136652000D01*
X75692000Y-136652000D01*
X75438000Y-136652000D01*
X74244845Y-136652000D01*
X74123524Y-136881890D01*
X73787000Y-136881890D01*
X73787000Y-116205000D01*
X74050907Y-116205000D01*
X74163946Y-116773285D01*
X74485853Y-117255054D01*
X74815026Y-117475000D01*
X74485853Y-117694946D01*
X74163946Y-118176715D01*
X74050907Y-118745000D01*
X74163946Y-119313285D01*
X74485853Y-119795054D01*
X74815026Y-120015000D01*
X74485853Y-120234946D01*
X74163946Y-120716715D01*
X74050907Y-121285000D01*
X74163946Y-121853285D01*
X74485853Y-122335054D01*
X74815026Y-122555000D01*
X74485853Y-122774946D01*
X74163946Y-123256715D01*
X74050907Y-123825000D01*
X74163946Y-124393285D01*
X74485853Y-124875054D01*
X74815026Y-125095000D01*
X74485853Y-125314946D01*
X74163946Y-125796715D01*
X74050907Y-126365000D01*
X74163946Y-126933285D01*
X74485853Y-127415054D01*
X74815026Y-127635000D01*
X74485853Y-127854946D01*
X74163946Y-128336715D01*
X74050907Y-128905000D01*
X74163946Y-129473285D01*
X74485853Y-129955054D01*
X74815026Y-130175000D01*
X74485853Y-130394946D01*
X74163946Y-130876715D01*
X74050907Y-131445000D01*
X74163946Y-132013285D01*
X74485853Y-132495054D01*
X74815026Y-132715000D01*
X74485853Y-132934946D01*
X74163946Y-133416715D01*
X74050907Y-133985000D01*
X74163946Y-134553285D01*
X74485853Y-135035054D01*
X74826553Y-135262702D01*
X74683642Y-135329817D01*
X74293355Y-135758076D01*
X74123524Y-136168110D01*
X74244845Y-136398000D01*
X75438000Y-136398000D01*
X75438000Y-136378000D01*
X75692000Y-136378000D01*
X75692000Y-136398000D01*
X76885155Y-136398000D01*
X77006476Y-136168110D01*
X76836645Y-135758076D01*
X76446358Y-135329817D01*
X76303447Y-135262702D01*
X76644147Y-135035054D01*
X76966054Y-134553285D01*
X77079093Y-133985000D01*
X76966054Y-133416715D01*
X76644147Y-132934946D01*
X76314974Y-132715000D01*
X76644147Y-132495054D01*
X76966054Y-132013285D01*
X77079093Y-131445000D01*
X76966054Y-130876715D01*
X76644147Y-130394946D01*
X76314974Y-130175000D01*
X76644147Y-129955054D01*
X76966054Y-129473285D01*
X77079093Y-128905000D01*
X76989616Y-128455167D01*
X78439838Y-128455167D01*
X78581883Y-128798943D01*
X78844673Y-129062192D01*
X78965986Y-129112566D01*
X82559208Y-132705787D01*
X82559210Y-132705790D01*
X82846325Y-132897633D01*
X82902516Y-132908810D01*
X83185000Y-132965001D01*
X83185005Y-132965000D01*
X84088420Y-132965000D01*
X84840000Y-133716579D01*
X84840000Y-133764146D01*
X84639683Y-133801838D01*
X84423559Y-133940910D01*
X84278569Y-134153110D01*
X84227560Y-134405000D01*
X84227560Y-136105000D01*
X84271838Y-136340317D01*
X84410910Y-136556441D01*
X84623110Y-136701431D01*
X84875000Y-136752440D01*
X86575000Y-136752440D01*
X86810317Y-136708162D01*
X87026441Y-136569090D01*
X87171431Y-136356890D01*
X87185086Y-136289459D01*
X87214946Y-136334147D01*
X87696715Y-136656054D01*
X88265000Y-136769093D01*
X88833285Y-136656054D01*
X89315054Y-136334147D01*
X89535000Y-136004974D01*
X89754946Y-136334147D01*
X90236715Y-136656054D01*
X90805000Y-136769093D01*
X91373285Y-136656054D01*
X91855054Y-136334147D01*
X92082702Y-135993447D01*
X92149817Y-136136358D01*
X92578076Y-136526645D01*
X92988110Y-136696476D01*
X93218000Y-136575155D01*
X93218000Y-135382000D01*
X93472000Y-135382000D01*
X93472000Y-136575155D01*
X93701890Y-136696476D01*
X94111924Y-136526645D01*
X94540183Y-136136358D01*
X94786486Y-135611892D01*
X94665819Y-135382000D01*
X93472000Y-135382000D01*
X93218000Y-135382000D01*
X93198000Y-135382000D01*
X93198000Y-135128000D01*
X93218000Y-135128000D01*
X93218000Y-133934845D01*
X93472000Y-133934845D01*
X93472000Y-135128000D01*
X94665819Y-135128000D01*
X94786486Y-134898108D01*
X94540183Y-134373642D01*
X94111924Y-133983355D01*
X93701890Y-133813524D01*
X93472000Y-133934845D01*
X93218000Y-133934845D01*
X92988110Y-133813524D01*
X92578076Y-133983355D01*
X92149817Y-134373642D01*
X92082702Y-134516553D01*
X91855054Y-134175853D01*
X91373285Y-133853946D01*
X90805000Y-133740907D01*
X90236715Y-133853946D01*
X89754946Y-134175853D01*
X89535000Y-134505026D01*
X89315054Y-134175853D01*
X89150000Y-134065568D01*
X89150000Y-133350005D01*
X89150001Y-133350000D01*
X89082633Y-133011326D01*
X89082633Y-133011325D01*
X88890790Y-132724210D01*
X88890787Y-132724208D01*
X85715790Y-129549210D01*
X85688222Y-129530790D01*
X85428675Y-129357367D01*
X85372484Y-129346190D01*
X85090000Y-129289999D01*
X85089995Y-129290000D01*
X84126822Y-129290000D01*
X84006799Y-129240162D01*
X83634833Y-129239838D01*
X83291057Y-129381883D01*
X83027808Y-129644673D01*
X82885162Y-129988201D01*
X82884838Y-130360167D01*
X83003197Y-130646617D01*
X81446747Y-129090167D01*
X87329838Y-129090167D01*
X87471883Y-129433943D01*
X87734673Y-129697192D01*
X88078201Y-129839838D01*
X88450167Y-129840162D01*
X88571569Y-129790000D01*
X94943178Y-129790000D01*
X95063201Y-129839838D01*
X95435167Y-129840162D01*
X95778943Y-129698117D01*
X96042192Y-129435327D01*
X96184838Y-129091799D01*
X96185162Y-128719833D01*
X96043117Y-128376057D01*
X95780327Y-128112808D01*
X95436799Y-127970162D01*
X95064833Y-127969838D01*
X94943431Y-128020000D01*
X88571822Y-128020000D01*
X88451799Y-127970162D01*
X88079833Y-127969838D01*
X87736057Y-128111883D01*
X87472808Y-128374673D01*
X87330162Y-128718201D01*
X87329838Y-129090167D01*
X81446747Y-129090167D01*
X80217744Y-127861164D01*
X80168117Y-127741057D01*
X79905327Y-127477808D01*
X79561799Y-127335162D01*
X79189833Y-127334838D01*
X78846057Y-127476883D01*
X78582808Y-127739673D01*
X78440162Y-128083201D01*
X78439838Y-128455167D01*
X76989616Y-128455167D01*
X76966054Y-128336715D01*
X76644147Y-127854946D01*
X76314974Y-127635000D01*
X76644147Y-127415054D01*
X76754432Y-127250000D01*
X94943178Y-127250000D01*
X95063201Y-127299838D01*
X95435167Y-127300162D01*
X95778943Y-127158117D01*
X96042192Y-126895327D01*
X96184838Y-126551799D01*
X96185162Y-126179833D01*
X96043117Y-125836057D01*
X95780327Y-125572808D01*
X95436799Y-125430162D01*
X95064833Y-125429838D01*
X94943431Y-125480000D01*
X76754432Y-125480000D01*
X76644147Y-125314946D01*
X76314974Y-125095000D01*
X76644147Y-124875054D01*
X76754432Y-124710000D01*
X80644995Y-124710000D01*
X80645000Y-124710001D01*
X80927484Y-124653810D01*
X80983675Y-124642633D01*
X81270790Y-124450790D01*
X83593834Y-122127745D01*
X83713943Y-122078117D01*
X83977192Y-121815327D01*
X84119838Y-121471799D01*
X84120162Y-121099833D01*
X84010805Y-120835167D01*
X97489838Y-120835167D01*
X97540000Y-120956569D01*
X97540000Y-126058178D01*
X97490162Y-126178201D01*
X97489838Y-126550167D01*
X97631883Y-126893943D01*
X97894673Y-127157192D01*
X98238201Y-127299838D01*
X98610167Y-127300162D01*
X98953943Y-127158117D01*
X99217192Y-126895327D01*
X99359838Y-126551799D01*
X99360162Y-126179833D01*
X99310000Y-126058431D01*
X99310000Y-120956822D01*
X99359838Y-120836799D01*
X99360162Y-120464833D01*
X99218117Y-120121057D01*
X98955327Y-119857808D01*
X98611799Y-119715162D01*
X98239833Y-119714838D01*
X97896057Y-119856883D01*
X97632808Y-120119673D01*
X97490162Y-120463201D01*
X97489838Y-120835167D01*
X84010805Y-120835167D01*
X83978117Y-120756057D01*
X83715327Y-120492808D01*
X83371799Y-120350162D01*
X82999833Y-120349838D01*
X82656057Y-120491883D01*
X82392808Y-120754673D01*
X82342434Y-120875987D01*
X81461405Y-121757015D01*
X81579838Y-121471799D01*
X81580162Y-121099833D01*
X81438117Y-120756057D01*
X81175327Y-120492808D01*
X80831799Y-120350162D01*
X80459833Y-120349838D01*
X80338431Y-120400000D01*
X76754432Y-120400000D01*
X76644147Y-120234946D01*
X76314974Y-120015000D01*
X76644147Y-119795054D01*
X76754432Y-119630000D01*
X82549995Y-119630000D01*
X82550000Y-119630001D01*
X82832484Y-119573810D01*
X82888675Y-119562633D01*
X83175790Y-119370790D01*
X85498834Y-117047745D01*
X85618943Y-116998117D01*
X85882192Y-116735327D01*
X86024838Y-116391799D01*
X86025162Y-116019833D01*
X85883117Y-115676057D01*
X85620327Y-115412808D01*
X85276799Y-115270162D01*
X84904833Y-115269838D01*
X84561057Y-115411883D01*
X84297808Y-115674673D01*
X84247434Y-115795987D01*
X82183420Y-117860000D01*
X76754432Y-117860000D01*
X76644147Y-117694946D01*
X76314974Y-117475000D01*
X76644147Y-117255054D01*
X76966054Y-116773285D01*
X77079093Y-116205000D01*
X76966054Y-115636715D01*
X76644147Y-115154946D01*
X76303447Y-114927298D01*
X76446358Y-114860183D01*
X76836645Y-114431924D01*
X77006476Y-114021890D01*
X76885155Y-113792000D01*
X75692000Y-113792000D01*
X75692000Y-113812000D01*
X75438000Y-113812000D01*
X75438000Y-113792000D01*
X74244845Y-113792000D01*
X74123524Y-114021890D01*
X74293355Y-114431924D01*
X74683642Y-114860183D01*
X74826553Y-114927298D01*
X74485853Y-115154946D01*
X74163946Y-115636715D01*
X74050907Y-116205000D01*
X73787000Y-116205000D01*
X73787000Y-112884580D01*
X74492251Y-112179329D01*
X74826553Y-112402702D01*
X74683642Y-112469817D01*
X74293355Y-112898076D01*
X74123524Y-113308110D01*
X74244845Y-113538000D01*
X75438000Y-113538000D01*
X75438000Y-113518000D01*
X75692000Y-113518000D01*
X75692000Y-113538000D01*
X76885155Y-113538000D01*
X77006476Y-113308110D01*
X76836645Y-112898076D01*
X76446358Y-112469817D01*
X76303447Y-112402702D01*
X76644147Y-112175054D01*
X76966054Y-111693285D01*
X77079093Y-111125000D01*
X76966054Y-110556715D01*
X76644147Y-110074946D01*
X76314974Y-109855000D01*
X76644147Y-109635054D01*
X76966054Y-109153285D01*
X77079093Y-108585000D01*
X76966054Y-108016715D01*
X76644147Y-107534946D01*
X76314974Y-107315000D01*
X76644147Y-107095054D01*
X76966054Y-106613285D01*
X77079093Y-106045000D01*
X76966054Y-105476715D01*
X76644147Y-104994946D01*
X76314974Y-104775000D01*
X76644147Y-104555054D01*
X76966054Y-104073285D01*
X77042260Y-103690167D01*
X80344838Y-103690167D01*
X80486883Y-104033943D01*
X80749673Y-104297192D01*
X81093201Y-104439838D01*
X81465167Y-104440162D01*
X81586569Y-104390000D01*
X89228178Y-104390000D01*
X89348201Y-104439838D01*
X89720167Y-104440162D01*
X90063943Y-104298117D01*
X90327192Y-104035327D01*
X90469838Y-103691799D01*
X90470162Y-103319833D01*
X90328117Y-102976057D01*
X90065327Y-102712808D01*
X89721799Y-102570162D01*
X89349833Y-102569838D01*
X89228431Y-102620000D01*
X81586822Y-102620000D01*
X81466799Y-102570162D01*
X81094833Y-102569838D01*
X80751057Y-102711883D01*
X80487808Y-102974673D01*
X80345162Y-103318201D01*
X80344838Y-103690167D01*
X77042260Y-103690167D01*
X77079093Y-103505000D01*
X76966054Y-102936715D01*
X76644147Y-102454946D01*
X76602548Y-102427150D01*
X76650317Y-102418162D01*
X76737595Y-102362000D01*
X102330765Y-102362000D01*
X102403110Y-102411431D01*
X102403110Y-102411431D01*
G37*
X102403110Y-102411431D02*
X102470541Y-102425086D01*
X102425853Y-102454946D01*
X102103946Y-102936715D01*
X101990907Y-103505000D01*
X102103946Y-104073285D01*
X102425853Y-104555054D01*
X102755026Y-104775000D01*
X102425853Y-104994946D01*
X102103946Y-105476715D01*
X101990907Y-106045000D01*
X102103946Y-106613285D01*
X102425853Y-107095054D01*
X102755026Y-107315000D01*
X102425853Y-107534946D01*
X102103946Y-108016715D01*
X101990907Y-108585000D01*
X102103946Y-109153285D01*
X102425853Y-109635054D01*
X102755026Y-109855000D01*
X102425853Y-110074946D01*
X102103946Y-110556715D01*
X101990907Y-111125000D01*
X102103946Y-111693285D01*
X102425853Y-112175054D01*
X102755026Y-112395000D01*
X102425853Y-112614946D01*
X102103946Y-113096715D01*
X101990907Y-113665000D01*
X102103946Y-114233285D01*
X102425853Y-114715054D01*
X102755026Y-114935000D01*
X102425853Y-115154946D01*
X102103946Y-115636715D01*
X101990907Y-116205000D01*
X102103946Y-116773285D01*
X102425853Y-117255054D01*
X102755026Y-117475000D01*
X102425853Y-117694946D01*
X102103946Y-118176715D01*
X101990907Y-118745000D01*
X102103946Y-119313285D01*
X102425853Y-119795054D01*
X102755026Y-120015000D01*
X102425853Y-120234946D01*
X102103946Y-120716715D01*
X101990907Y-121285000D01*
X102103946Y-121853285D01*
X102425853Y-122335054D01*
X102755026Y-122555000D01*
X102425853Y-122774946D01*
X102103946Y-123256715D01*
X101990907Y-123825000D01*
X102103946Y-124393285D01*
X102425853Y-124875054D01*
X102766553Y-125102702D01*
X102623642Y-125169817D01*
X102233355Y-125598076D01*
X102063524Y-126008110D01*
X102184845Y-126238000D01*
X103378000Y-126238000D01*
X103378000Y-126218000D01*
X103632000Y-126218000D01*
X103632000Y-126238000D01*
X104825155Y-126238000D01*
X104946476Y-126008110D01*
X104776645Y-125598076D01*
X104386358Y-125169817D01*
X104243447Y-125102702D01*
X104584147Y-124875054D01*
X104906054Y-124393285D01*
X105019093Y-123825000D01*
X104906054Y-123256715D01*
X104584147Y-122774946D01*
X104254974Y-122555000D01*
X104584147Y-122335054D01*
X104906054Y-121853285D01*
X105019093Y-121285000D01*
X104906054Y-120716715D01*
X104584147Y-120234946D01*
X104254974Y-120015000D01*
X104584147Y-119795054D01*
X104906054Y-119313285D01*
X105019093Y-118745000D01*
X104906054Y-118176715D01*
X104584147Y-117694946D01*
X104254974Y-117475000D01*
X104584147Y-117255054D01*
X104906054Y-116773285D01*
X105019093Y-116205000D01*
X104906054Y-115636715D01*
X104584147Y-115154946D01*
X104254974Y-114935000D01*
X104584147Y-114715054D01*
X104906054Y-114233285D01*
X105019093Y-113665000D01*
X104906054Y-113096715D01*
X104584147Y-112614946D01*
X104254974Y-112395000D01*
X104584147Y-112175054D01*
X104906054Y-111693285D01*
X105019093Y-111125000D01*
X104906054Y-110556715D01*
X104584147Y-110074946D01*
X104254974Y-109855000D01*
X104584147Y-109635054D01*
X104906054Y-109153285D01*
X105019093Y-108585000D01*
X104906054Y-108016715D01*
X104584147Y-107534946D01*
X104254974Y-107315000D01*
X104584147Y-107095054D01*
X104694432Y-106930000D01*
X104774995Y-106930000D01*
X104775000Y-106930001D01*
X104775005Y-106930000D01*
X105043420Y-106930000D01*
X105283000Y-107169580D01*
X105283000Y-135400420D01*
X105043420Y-135640000D01*
X104694432Y-135640000D01*
X104584147Y-135474946D01*
X104254974Y-135255000D01*
X104584147Y-135035054D01*
X104906054Y-134553285D01*
X105019093Y-133985000D01*
X104906054Y-133416715D01*
X104584147Y-132934946D01*
X104254974Y-132715000D01*
X104584147Y-132495054D01*
X104906054Y-132013285D01*
X105019093Y-131445000D01*
X104906054Y-130876715D01*
X104584147Y-130394946D01*
X104254974Y-130175000D01*
X104584147Y-129955054D01*
X104906054Y-129473285D01*
X105019093Y-128905000D01*
X104906054Y-128336715D01*
X104584147Y-127854946D01*
X104243447Y-127627298D01*
X104386358Y-127560183D01*
X104776645Y-127131924D01*
X104946476Y-126721890D01*
X104825155Y-126492000D01*
X103632000Y-126492000D01*
X103632000Y-126512000D01*
X103378000Y-126512000D01*
X103378000Y-126492000D01*
X102184845Y-126492000D01*
X102063524Y-126721890D01*
X102233355Y-127131924D01*
X102623642Y-127560183D01*
X102766553Y-127627298D01*
X102425853Y-127854946D01*
X102103946Y-128336715D01*
X101990907Y-128905000D01*
X102103946Y-129473285D01*
X102425853Y-129955054D01*
X102755026Y-130175000D01*
X102425853Y-130394946D01*
X102103946Y-130876715D01*
X101990907Y-131445000D01*
X102103946Y-132013285D01*
X102425853Y-132495054D01*
X102755026Y-132715000D01*
X102425853Y-132934946D01*
X102103946Y-133416715D01*
X101990907Y-133985000D01*
X102103946Y-134553285D01*
X102425853Y-135035054D01*
X102755026Y-135255000D01*
X102425853Y-135474946D01*
X102103946Y-135956715D01*
X102057209Y-136191678D01*
X102011964Y-136259392D01*
X101946500Y-136588500D01*
X102011964Y-136917608D01*
X102093179Y-137039155D01*
X102103946Y-137093285D01*
X102425853Y-137575054D01*
X102907622Y-137896961D01*
X103475907Y-138010000D01*
X103534093Y-138010000D01*
X104102378Y-137896961D01*
X104584147Y-137575054D01*
X104694432Y-137410000D01*
X105283000Y-137410000D01*
X105283000Y-138303000D01*
X97009580Y-138303000D01*
X96510790Y-137804210D01*
X96385034Y-137720183D01*
X96223675Y-137612367D01*
X96167484Y-137601190D01*
X95885000Y-137544999D01*
X95884995Y-137545000D01*
X83185005Y-137545000D01*
X83185000Y-137544999D01*
X82846325Y-137612367D01*
X82559210Y-137804210D01*
X82559208Y-137804213D01*
X82060421Y-138303000D01*
X76811936Y-138303000D01*
X76728675Y-138247367D01*
X76672484Y-138236190D01*
X76390000Y-138179999D01*
X76389995Y-138180000D01*
X74661579Y-138180000D01*
X73787000Y-137305420D01*
X73787000Y-136881890D01*
X74123524Y-136881890D01*
X74293355Y-137291924D01*
X74683642Y-137720183D01*
X75208108Y-137966486D01*
X75438000Y-137845819D01*
X75438000Y-136652000D01*
X75692000Y-136652000D01*
X75692000Y-137845819D01*
X75921892Y-137966486D01*
X76446358Y-137720183D01*
X76836645Y-137291924D01*
X77006476Y-136881890D01*
X76885155Y-136652000D01*
X75692000Y-136652000D01*
X75438000Y-136652000D01*
X74244845Y-136652000D01*
X74123524Y-136881890D01*
X73787000Y-136881890D01*
X73787000Y-116205000D01*
X74050907Y-116205000D01*
X74163946Y-116773285D01*
X74485853Y-117255054D01*
X74815026Y-117475000D01*
X74485853Y-117694946D01*
X74163946Y-118176715D01*
X74050907Y-118745000D01*
X74163946Y-119313285D01*
X74485853Y-119795054D01*
X74815026Y-120015000D01*
X74485853Y-120234946D01*
X74163946Y-120716715D01*
X74050907Y-121285000D01*
X74163946Y-121853285D01*
X74485853Y-122335054D01*
X74815026Y-122555000D01*
X74485853Y-122774946D01*
X74163946Y-123256715D01*
X74050907Y-123825000D01*
X74163946Y-124393285D01*
X74485853Y-124875054D01*
X74815026Y-125095000D01*
X74485853Y-125314946D01*
X74163946Y-125796715D01*
X74050907Y-126365000D01*
X74163946Y-126933285D01*
X74485853Y-127415054D01*
X74815026Y-127635000D01*
X74485853Y-127854946D01*
X74163946Y-128336715D01*
X74050907Y-128905000D01*
X74163946Y-129473285D01*
X74485853Y-129955054D01*
X74815026Y-130175000D01*
X74485853Y-130394946D01*
X74163946Y-130876715D01*
X74050907Y-131445000D01*
X74163946Y-132013285D01*
X74485853Y-132495054D01*
X74815026Y-132715000D01*
X74485853Y-132934946D01*
X74163946Y-133416715D01*
X74050907Y-133985000D01*
X74163946Y-134553285D01*
X74485853Y-135035054D01*
X74826553Y-135262702D01*
X74683642Y-135329817D01*
X74293355Y-135758076D01*
X74123524Y-136168110D01*
X74244845Y-136398000D01*
X75438000Y-136398000D01*
X75438000Y-136378000D01*
X75692000Y-136378000D01*
X75692000Y-136398000D01*
X76885155Y-136398000D01*
X77006476Y-136168110D01*
X76836645Y-135758076D01*
X76446358Y-135329817D01*
X76303447Y-135262702D01*
X76644147Y-135035054D01*
X76966054Y-134553285D01*
X77079093Y-133985000D01*
X76966054Y-133416715D01*
X76644147Y-132934946D01*
X76314974Y-132715000D01*
X76644147Y-132495054D01*
X76966054Y-132013285D01*
X77079093Y-131445000D01*
X76966054Y-130876715D01*
X76644147Y-130394946D01*
X76314974Y-130175000D01*
X76644147Y-129955054D01*
X76966054Y-129473285D01*
X77079093Y-128905000D01*
X76989616Y-128455167D01*
X78439838Y-128455167D01*
X78581883Y-128798943D01*
X78844673Y-129062192D01*
X78965986Y-129112566D01*
X82559208Y-132705787D01*
X82559210Y-132705790D01*
X82846325Y-132897633D01*
X82902516Y-132908810D01*
X83185000Y-132965001D01*
X83185005Y-132965000D01*
X84088420Y-132965000D01*
X84840000Y-133716579D01*
X84840000Y-133764146D01*
X84639683Y-133801838D01*
X84423559Y-133940910D01*
X84278569Y-134153110D01*
X84227560Y-134405000D01*
X84227560Y-136105000D01*
X84271838Y-136340317D01*
X84410910Y-136556441D01*
X84623110Y-136701431D01*
X84875000Y-136752440D01*
X86575000Y-136752440D01*
X86810317Y-136708162D01*
X87026441Y-136569090D01*
X87171431Y-136356890D01*
X87185086Y-136289459D01*
X87214946Y-136334147D01*
X87696715Y-136656054D01*
X88265000Y-136769093D01*
X88833285Y-136656054D01*
X89315054Y-136334147D01*
X89535000Y-136004974D01*
X89754946Y-136334147D01*
X90236715Y-136656054D01*
X90805000Y-136769093D01*
X91373285Y-136656054D01*
X91855054Y-136334147D01*
X92082702Y-135993447D01*
X92149817Y-136136358D01*
X92578076Y-136526645D01*
X92988110Y-136696476D01*
X93218000Y-136575155D01*
X93218000Y-135382000D01*
X93472000Y-135382000D01*
X93472000Y-136575155D01*
X93701890Y-136696476D01*
X94111924Y-136526645D01*
X94540183Y-136136358D01*
X94786486Y-135611892D01*
X94665819Y-135382000D01*
X93472000Y-135382000D01*
X93218000Y-135382000D01*
X93198000Y-135382000D01*
X93198000Y-135128000D01*
X93218000Y-135128000D01*
X93218000Y-133934845D01*
X93472000Y-133934845D01*
X93472000Y-135128000D01*
X94665819Y-135128000D01*
X94786486Y-134898108D01*
X94540183Y-134373642D01*
X94111924Y-133983355D01*
X93701890Y-133813524D01*
X93472000Y-133934845D01*
X93218000Y-133934845D01*
X92988110Y-133813524D01*
X92578076Y-133983355D01*
X92149817Y-134373642D01*
X92082702Y-134516553D01*
X91855054Y-134175853D01*
X91373285Y-133853946D01*
X90805000Y-133740907D01*
X90236715Y-133853946D01*
X89754946Y-134175853D01*
X89535000Y-134505026D01*
X89315054Y-134175853D01*
X89150000Y-134065568D01*
X89150000Y-133350005D01*
X89150001Y-133350000D01*
X89082633Y-133011326D01*
X89082633Y-133011325D01*
X88890790Y-132724210D01*
X88890787Y-132724208D01*
X85715790Y-129549210D01*
X85688222Y-129530790D01*
X85428675Y-129357367D01*
X85372484Y-129346190D01*
X85090000Y-129289999D01*
X85089995Y-129290000D01*
X84126822Y-129290000D01*
X84006799Y-129240162D01*
X83634833Y-129239838D01*
X83291057Y-129381883D01*
X83027808Y-129644673D01*
X82885162Y-129988201D01*
X82884838Y-130360167D01*
X83003197Y-130646617D01*
X81446747Y-129090167D01*
X87329838Y-129090167D01*
X87471883Y-129433943D01*
X87734673Y-129697192D01*
X88078201Y-129839838D01*
X88450167Y-129840162D01*
X88571569Y-129790000D01*
X94943178Y-129790000D01*
X95063201Y-129839838D01*
X95435167Y-129840162D01*
X95778943Y-129698117D01*
X96042192Y-129435327D01*
X96184838Y-129091799D01*
X96185162Y-128719833D01*
X96043117Y-128376057D01*
X95780327Y-128112808D01*
X95436799Y-127970162D01*
X95064833Y-127969838D01*
X94943431Y-128020000D01*
X88571822Y-128020000D01*
X88451799Y-127970162D01*
X88079833Y-127969838D01*
X87736057Y-128111883D01*
X87472808Y-128374673D01*
X87330162Y-128718201D01*
X87329838Y-129090167D01*
X81446747Y-129090167D01*
X80217744Y-127861164D01*
X80168117Y-127741057D01*
X79905327Y-127477808D01*
X79561799Y-127335162D01*
X79189833Y-127334838D01*
X78846057Y-127476883D01*
X78582808Y-127739673D01*
X78440162Y-128083201D01*
X78439838Y-128455167D01*
X76989616Y-128455167D01*
X76966054Y-128336715D01*
X76644147Y-127854946D01*
X76314974Y-127635000D01*
X76644147Y-127415054D01*
X76754432Y-127250000D01*
X94943178Y-127250000D01*
X95063201Y-127299838D01*
X95435167Y-127300162D01*
X95778943Y-127158117D01*
X96042192Y-126895327D01*
X96184838Y-126551799D01*
X96185162Y-126179833D01*
X96043117Y-125836057D01*
X95780327Y-125572808D01*
X95436799Y-125430162D01*
X95064833Y-125429838D01*
X94943431Y-125480000D01*
X76754432Y-125480000D01*
X76644147Y-125314946D01*
X76314974Y-125095000D01*
X76644147Y-124875054D01*
X76754432Y-124710000D01*
X80644995Y-124710000D01*
X80645000Y-124710001D01*
X80927484Y-124653810D01*
X80983675Y-124642633D01*
X81270790Y-124450790D01*
X83593834Y-122127745D01*
X83713943Y-122078117D01*
X83977192Y-121815327D01*
X84119838Y-121471799D01*
X84120162Y-121099833D01*
X84010805Y-120835167D01*
X97489838Y-120835167D01*
X97540000Y-120956569D01*
X97540000Y-126058178D01*
X97490162Y-126178201D01*
X97489838Y-126550167D01*
X97631883Y-126893943D01*
X97894673Y-127157192D01*
X98238201Y-127299838D01*
X98610167Y-127300162D01*
X98953943Y-127158117D01*
X99217192Y-126895327D01*
X99359838Y-126551799D01*
X99360162Y-126179833D01*
X99310000Y-126058431D01*
X99310000Y-120956822D01*
X99359838Y-120836799D01*
X99360162Y-120464833D01*
X99218117Y-120121057D01*
X98955327Y-119857808D01*
X98611799Y-119715162D01*
X98239833Y-119714838D01*
X97896057Y-119856883D01*
X97632808Y-120119673D01*
X97490162Y-120463201D01*
X97489838Y-120835167D01*
X84010805Y-120835167D01*
X83978117Y-120756057D01*
X83715327Y-120492808D01*
X83371799Y-120350162D01*
X82999833Y-120349838D01*
X82656057Y-120491883D01*
X82392808Y-120754673D01*
X82342434Y-120875987D01*
X81461405Y-121757015D01*
X81579838Y-121471799D01*
X81580162Y-121099833D01*
X81438117Y-120756057D01*
X81175327Y-120492808D01*
X80831799Y-120350162D01*
X80459833Y-120349838D01*
X80338431Y-120400000D01*
X76754432Y-120400000D01*
X76644147Y-120234946D01*
X76314974Y-120015000D01*
X76644147Y-119795054D01*
X76754432Y-119630000D01*
X82549995Y-119630000D01*
X82550000Y-119630001D01*
X82832484Y-119573810D01*
X82888675Y-119562633D01*
X83175790Y-119370790D01*
X85498834Y-117047745D01*
X85618943Y-116998117D01*
X85882192Y-116735327D01*
X86024838Y-116391799D01*
X86025162Y-116019833D01*
X85883117Y-115676057D01*
X85620327Y-115412808D01*
X85276799Y-115270162D01*
X84904833Y-115269838D01*
X84561057Y-115411883D01*
X84297808Y-115674673D01*
X84247434Y-115795987D01*
X82183420Y-117860000D01*
X76754432Y-117860000D01*
X76644147Y-117694946D01*
X76314974Y-117475000D01*
X76644147Y-117255054D01*
X76966054Y-116773285D01*
X77079093Y-116205000D01*
X76966054Y-115636715D01*
X76644147Y-115154946D01*
X76303447Y-114927298D01*
X76446358Y-114860183D01*
X76836645Y-114431924D01*
X77006476Y-114021890D01*
X76885155Y-113792000D01*
X75692000Y-113792000D01*
X75692000Y-113812000D01*
X75438000Y-113812000D01*
X75438000Y-113792000D01*
X74244845Y-113792000D01*
X74123524Y-114021890D01*
X74293355Y-114431924D01*
X74683642Y-114860183D01*
X74826553Y-114927298D01*
X74485853Y-115154946D01*
X74163946Y-115636715D01*
X74050907Y-116205000D01*
X73787000Y-116205000D01*
X73787000Y-112884580D01*
X74492251Y-112179329D01*
X74826553Y-112402702D01*
X74683642Y-112469817D01*
X74293355Y-112898076D01*
X74123524Y-113308110D01*
X74244845Y-113538000D01*
X75438000Y-113538000D01*
X75438000Y-113518000D01*
X75692000Y-113518000D01*
X75692000Y-113538000D01*
X76885155Y-113538000D01*
X77006476Y-113308110D01*
X76836645Y-112898076D01*
X76446358Y-112469817D01*
X76303447Y-112402702D01*
X76644147Y-112175054D01*
X76966054Y-111693285D01*
X77079093Y-111125000D01*
X76966054Y-110556715D01*
X76644147Y-110074946D01*
X76314974Y-109855000D01*
X76644147Y-109635054D01*
X76966054Y-109153285D01*
X77079093Y-108585000D01*
X76966054Y-108016715D01*
X76644147Y-107534946D01*
X76314974Y-107315000D01*
X76644147Y-107095054D01*
X76966054Y-106613285D01*
X77079093Y-106045000D01*
X76966054Y-105476715D01*
X76644147Y-104994946D01*
X76314974Y-104775000D01*
X76644147Y-104555054D01*
X76966054Y-104073285D01*
X77042260Y-103690167D01*
X80344838Y-103690167D01*
X80486883Y-104033943D01*
X80749673Y-104297192D01*
X81093201Y-104439838D01*
X81465167Y-104440162D01*
X81586569Y-104390000D01*
X89228178Y-104390000D01*
X89348201Y-104439838D01*
X89720167Y-104440162D01*
X90063943Y-104298117D01*
X90327192Y-104035327D01*
X90469838Y-103691799D01*
X90470162Y-103319833D01*
X90328117Y-102976057D01*
X90065327Y-102712808D01*
X89721799Y-102570162D01*
X89349833Y-102569838D01*
X89228431Y-102620000D01*
X81586822Y-102620000D01*
X81466799Y-102570162D01*
X81094833Y-102569838D01*
X80751057Y-102711883D01*
X80487808Y-102974673D01*
X80345162Y-103318201D01*
X80344838Y-103690167D01*
X77042260Y-103690167D01*
X77079093Y-103505000D01*
X76966054Y-102936715D01*
X76644147Y-102454946D01*
X76602548Y-102427150D01*
X76650317Y-102418162D01*
X76737595Y-102362000D01*
X102330765Y-102362000D01*
X102403110Y-102411431D01*
M02*
